<?xml version="1.0" encoding="utf-8" standalone="no"?>
<!DOCTYPE svg PUBLIC "-//W3C//DTD SVG 1.1//EN"
  "http://www.w3.org/Graphics/SVG/1.1/DTD/svg11.dtd">
<svg xmlns:xlink="http://www.w3.org/1999/xlink" width="1080pt" height="360pt" viewBox="0 0 1080 360" xmlns="http://www.w3.org/2000/svg" version="1.1">
 <metadata>
  <rdf:RDF xmlns:dc="http://purl.org/dc/elements/1.1/" xmlns:cc="http://creativecommons.org/ns#" xmlns:rdf="http://www.w3.org/1999/02/22-rdf-syntax-ns#">
   <cc:Work>
    <dc:type rdf:resource="http://purl.org/dc/dcmitype/StillImage"/>
    <dc:date>2024-05-06T18:59:30.255734</dc:date>
    <dc:format>image/svg+xml</dc:format>
    <dc:creator>
     <cc:Agent>
      <dc:title>Matplotlib v3.5.2, https://matplotlib.org/</dc:title>
     </cc:Agent>
    </dc:creator>
   </cc:Work>
  </rdf:RDF>
 </metadata>
 <defs>
  <style type="text/css">*{stroke-linejoin: round; stroke-linecap: butt}</style>
 </defs>
 <g id="figure_1">
  <g id="patch_1">
   <path d="M 0 360 
L 1080 360 
L 1080 0 
L 0 0 
L 0 360 
z
" style="fill: none"/>
  </g>
  <g id="axes_1">
   <g id="patch_2">
    <path d="M 135 315 
L 515.454545 315 
L 515.454545 43.2 
L 135 43.2 
z
" style="fill: #ffffff"/>
   </g>
   <g id="line2d_1">
    <path d="M 152.293388 297.076291 
L 152.46583 297.099445 
L 152.638778 297.984285 
L 152.854204 298.931903 
L 153.027151 299.040489 
L 153.372035 299.150887 
L 153.630951 299.872119 
L 154.019324 300.514645 
L 155.098476 300.572016 
L 155.14146 300.102162 
L 155.357392 276.880691 
L 155.572818 297.075872 
L 155.875223 298.081834 
L 156.134139 298.117799 
L 156.349564 273.428264 
L 156.436038 277.512617 
L 156.737938 298.263734 
L 157.083327 299.866606 
L 157.730616 299.948371 
L 158.076006 300.530618 
L 158.464379 300.619353 
L 159.025194 300.75151 
L 159.58601 300.796872 
L 160.319772 300.735509 
L 160.665162 300.583473 
L 161.096519 300.683798 
L 161.398419 300.899568 
L 161.484893 299.383136 
L 161.527877 299.391007 
L 161.657335 299.53429 
L 161.95974 300.05422 
L 162.26164 300.293011 
L 162.434081 300.381619 
L 162.520555 299.927222 
L 162.607029 299.939566 
L 162.865945 300.058931 
L 163.08137 300.193504 
L 163.383776 300.220446 
L 163.642691 251.372868 
L 163.728659 258.597031 
L 164.28998 295.092713 
L 164.332964 294.612687 
L 164.419438 287.145251 
L 164.678354 229.582284 
L 164.89378 245.137402 
L 165.325643 281.529177 
L 165.455101 260.850222 
L 165.670527 212.114726 
L 165.714016 209.131384 
L 165.757 211.919931 
L 166.447273 267.682989 
L 166.490763 267.928249 
L 166.663205 264.870612 
L 166.706189 265.462455 
L 166.792663 271.434839 
L 167.22402 295.724307 
L 167.482936 297.823609 
L 167.56941 297.833409 
L 167.655883 293.73192 
L 167.741851 295.605676 
L 167.957783 298.436924 
L 168.173715 299.385093 
L 168.38914 299.449403 
L 168.648056 299.393293 
L 168.73453 296.623775 
L 168.777514 296.653591 
L 168.993445 297.805441 
L 169.036429 297.774836 
L 169.079919 297.742834 
L 169.295345 298.619302 
L 169.511277 298.783107 
L 169.59775 298.792102 
L 169.683719 280.544295 
L 169.856666 256.947722 
L 170.20155 295.953151 
L 170.503955 297.7895 
L 170.633413 297.85094 
L 170.892328 228.197236 
L 170.935313 230.688312 
L 171.107754 248.983958 
L 171.194228 269.658426 
L 171.36667 296.465108 
L 171.625586 298.558845 
L 171.970975 298.973642 
L 172.272875 300.494161 
L 172.704738 301.329667 
L 174.171758 302.493631 
L 174.776063 302.645455 
L 174.862031 292.830245 
L 174.948505 282.087567 
L 174.991489 285.605064 
L 175.164436 297.650347 
L 175.336878 297.703109 
L 175.423352 297.702993 
L 175.638778 299.875417 
L 175.768235 300.061881 
L 177.278745 300.245917 
L 177.753592 301.274861 
L 178.486849 301.322814 
L 179.004681 301.443377 
L 179.997359 301.477858 
L 180.126817 294.758107 
L 180.213291 294.770615 
L 180.342748 299.369976 
L 180.51519 300.386094 
L 180.990037 301.057869 
L 181.076005 301.067865 
L 181.162479 300.211565 
L 181.248953 300.223291 
L 181.334921 300.236418 
L 181.593837 300.660964 
L 181.939226 300.7189 
L 182.0257 300.724298 
L 182.111668 287.270253 
L 182.284615 258.658323 
L 182.414073 276.021782 
L 182.629499 297.490718 
L 182.974889 299.635929 
L 183.104346 299.645345 
L 183.233804 291.771914 
L 183.320278 294.586981 
L 183.449736 298.711246 
L 183.622178 299.210799 
L 184.097025 299.689713 
L 184.182993 280.249036 
L 184.35594 247.57019 
L 184.528382 262.609753 
L 184.916756 294.89047 
L 185.046213 295.592917 
L 185.132687 290.111662 
L 185.305129 249.718967 
L 185.348113 251.306807 
L 185.391603 253.772345 
L 185.650518 297.741104 
L 185.865944 299.302181 
L 186.16835 299.76887 
L 186.599707 299.828442 
L 187.246996 301.218859 
L 188.325643 301.273724 
L 188.412116 299.5584 
L 188.49859 299.571835 
L 188.671032 300.757725 
L 188.972932 301.067986 
L 189.275337 301.095745 
L 189.318321 299.251103 
L 189.534253 261.470818 
L 189.577237 263.523563 
L 189.96561 297.764502 
L 190.224526 298.478015 
L 190.310999 293.329489 
L 190.483441 262.555833 
L 190.569915 264.650008 
L 190.785341 298.448363 
L 191.044257 299.863308 
L 191.260188 300.045051 
L 191.389646 300.055047 
L 191.605577 285.366214 
L 191.648562 291.836526 
L 191.778019 298.832805 
L 192.036935 299.455898 
L 192.252867 299.572097 
L 192.295851 299.572332 
L 192.338835 299.418819 
L 192.382324 297.252356 
L 192.64124 235.813074 
L 192.684224 237.218479 
L 193.288529 289.365258 
L 193.331513 287.140601 
L 193.460971 261.985107 
L 193.633413 223.83392 
L 193.676902 219.696537 
L 193.719886 221.635973 
L 194.324191 287.748689 
L 194.41016 284.456784 
L 194.453649 281.093596 
L 194.712565 232.773226 
L 194.798533 236.238705 
L 194.842023 238.880747 
L 194.885007 237.979925 
L 195.100938 231.542781 
L 195.27338 237.42484 
L 195.359854 241.389971 
L 195.402838 241.252134 
L 195.618769 235.95288 
L 195.748227 251.687833 
L 195.963653 295.568639 
L 196.179585 298.906344 
L 196.4385 299.897789 
L 197.646605 299.904417 
L 197.733078 297.360469 
L 197.776062 297.372618 
L 197.819552 297.383826 
L 197.991994 299.237579 
L 198.293894 299.54949 
L 198.596299 299.592594 
L 198.639283 298.984403 
L 198.855215 276.884634 
L 198.898199 282.01241 
L 199.070641 297.291169 
L 199.329556 298.498944 
L 199.545488 298.731004 
L 199.588472 298.733246 
L 199.631961 297.727627 
L 199.890877 223.206699 
L 199.933861 223.441448 
L 200.58115 262.399571 
L 200.624134 261.8792 
L 200.667624 261.239534 
L 200.92654 221.042163 
L 201.098981 255.118388 
L 201.314913 290.242392 
L 201.530339 297.087988 
L 201.703286 297.889763 
L 202.005186 297.949626 
L 202.177628 297.990024 
L 202.523017 299.091701 
L 202.652475 299.098335 
L 202.695459 298.777166 
L 202.738949 294.978351 
L 202.997864 222.554446 
L 203.040848 222.649087 
L 203.170306 241.11009 
L 203.429222 294.90374 
L 203.645153 298.003578 
L 203.774611 298.080806 
L 204.033527 244.633976 
L 204.076511 249.68621 
L 204.378411 293.727934 
L 204.507868 294.317087 
L 204.680816 294.389037 
L 204.810274 254.073532 
L 205.112173 177.870562 
L 205.155157 177.682469 
L 205.284615 185.648537 
L 205.716478 221.776016 
L 206.018378 169.862526 
L 206.147836 166.416443 
L 206.23431 170.004564 
L 206.449735 199.283034 
L 206.795125 249.008607 
L 206.881599 259.098332 
L 206.967567 257.387134 
L 207.011056 255.728417 
L 207.658345 299.239825 
L 207.873771 299.755502 
L 209.772654 300.043651 
L 209.945096 300.155721 
L 209.988586 300.160384 
L 210.118044 267.167236 
L 210.247502 255.245677 
L 210.506417 299.010264 
L 210.765333 299.621494 
L 210.980759 299.692015 
L 211.024248 299.544301 
L 211.283164 228.84367 
L 211.326148 229.337856 
L 211.54208 262.280559 
L 211.757506 292.844505 
L 211.930453 295.848143 
L 212.016421 281.966049 
L 212.361811 199.937742 
L 212.404795 200.154202 
L 212.66371 222.62889 
L 212.966116 257.309467 
L 213.0091 249.111324 
L 213.354489 177.307091 
L 213.483947 171.15045 
L 213.699373 182.761136 
L 214.001778 204.498824 
L 214.346662 156.772812 
L 214.476119 157.4048 
L 214.649067 159.871774 
L 215.03744 185.741416 
L 215.123409 161.198293 
L 215.209882 162.856501 
L 215.555272 169.470585 
L 215.64124 170.786604 
L 215.770698 181.309814 
L 216.073103 218.642723 
L 216.116087 210.52244 
L 216.288529 168.664456 
L 216.332018 169.624358 
L 216.590934 173.937067 
L 217.108765 231.202502 
L 217.324191 166.151434 
L 217.453649 168.564403 
L 217.626597 171.048585 
L 217.928496 143.705311 
L 218.144428 136.606765 
L 218.187412 137.704483 
L 218.273886 142.958948 
L 218.31687 140.888095 
L 218.489311 125.709038 
L 218.532801 121.743115 
L 218.575785 123.299185 
L 218.834701 135.244168 
L 219.007143 159.158265 
L 219.18009 194.643 
L 219.223074 186.158041 
L 219.395516 136.38343 
L 219.439006 137.819621 
L 219.740905 156.705342 
L 220.215753 221.133649 
L 220.258737 211.773772 
L 220.474668 143.23321 
L 220.560636 147.798558 
L 220.776568 159.887765 
L 221.251415 228.123429 
L 221.466841 152.234189 
L 221.596299 155.845746 
L 221.941688 166.835219 
L 222.15762 193.652813 
L 222.287078 216.108224 
L 222.330062 210.765984 
L 222.545993 158.699829 
L 222.675451 162.158564 
L 222.804909 186.015893 
L 223.063824 229.969041 
L 223.365724 257.925578 
L 223.408708 257.555351 
L 223.452198 256.739634 
L 223.667624 220.962708 
L 223.711113 211.400353 
L 223.754097 216.162595 
L 224.055997 261.65373 
L 224.358402 277.906771 
L 224.401387 274.330595 
L 224.746776 212.362293 
L 225.09166 287.132422 
L 225.307591 296.766936 
L 225.394065 296.858784 
L 225.437049 296.218756 
L 225.523523 283.61921 
L 225.738949 226.52727 
L 225.782438 223.719086 
L 226.30027 283.572673 
L 226.429727 284.784735 
L 226.861085 171.705438 
L 226.947559 169.903926 
L 227.162984 182.572775 
L 227.46539 202.272414 
L 227.637832 166.743395 
L 227.680816 163.856669 
L 227.724305 164.823058 
L 227.896747 167.307351 
L 227.939731 167.128978 
L 228.069189 166.972312 
L 228.112679 167.002778 
L 228.242137 171.736351 
L 228.501052 195.75814 
L 228.544036 188.040416 
L 228.673494 164.390966 
L 228.716478 165.659195 
L 228.975394 169.150724 
L 229.104852 169.381441 
L 229.148341 169.344952 
L 229.277799 169.002062 
L 229.407257 172.353413 
L 229.450241 173.933956 
L 229.493225 173.678296 
L 229.536715 172.758492 
L 229.579699 165.263781 
L 229.666173 166.049173 
L 229.925088 167.453507 
L 230.09753 165.337364 
L 230.572377 158.674104 
L 230.615361 158.678769 
L 230.701835 158.944042 
L 230.831293 153.381471 
L 230.874277 153.980529 
L 231.090208 157.123775 
L 231.219666 147.94359 
L 231.349124 115.678452 
L 231.392108 120.305602 
L 231.60804 135.905394 
L 231.866955 120.005133 
L 232.600212 159.236942 
L 232.643702 159.012479 
L 232.72967 136.716579 
L 232.77316 139.073479 
L 232.859128 136.203096 
L 232.902618 130.257291 
L 232.945602 132.034378 
L 233.161533 141.401393 
L 233.592891 148.19554 
L 233.679365 147.043437 
L 233.722349 147.431982 
L 234.283164 153.437678 
L 234.758011 156.158789 
L 235.232858 160.29585 
L 235.362316 160.491348 
L 235.664216 139.086054 
L 235.880147 121.594607 
L 236.009605 131.402784 
L 236.052589 127.040549 
L 236.139063 119.708932 
L 236.182047 123.398408 
L 236.397978 134.173712 
L 236.786352 143.428421 
L 236.87232 140.620306 
L 236.91581 141.250075 
L 237.045267 142.451306 
L 237.088252 142.393894 
L 237.174725 142.20599 
L 237.304183 143.893019 
L 237.606083 156.872997 
L 237.822014 168.151749 
L 237.864998 164.940173 
L 238.08093 136.196812 
L 238.166898 139.569645 
L 238.512287 151.411785 
L 238.771203 163.278565 
L 238.814187 163.182592 
L 238.857677 162.725942 
L 238.943645 138.678242 
L 238.987135 140.788093 
L 239.24605 146.48537 
L 239.590934 149.203558 
L 239.677408 154.204676 
L 239.893339 181.531569 
L 240.022797 143.957007 
L 240.065781 145.231171 
L 240.281713 148.142111 
L 240.41117 148.498553 
L 240.497139 152.486228 
L 240.626596 169.287527 
L 240.929002 210.162078 
L 241.101444 139.611114 
L 241.187917 143.048561 
L 241.403343 147.318694 
L 241.489817 148.467063 
L 241.619275 157.45807 
L 241.964664 201.924075 
L 242.007648 191.589348 
L 242.18009 143.709489 
L 242.22358 145.515828 
L 242.482495 149.899577 
L 242.654937 151.794127 
L 242.870869 159.844048 
L 243.000327 163.698662 
L 243.129784 148.993476 
L 243.172768 150.017866 
L 243.431684 152.769173 
L 243.518158 153.175957 
L 243.647616 132.666314 
L 243.6906 135.040357 
L 243.906531 144.263624 
L 244.208431 148.826373 
L 244.596804 153.38315 
L 244.898704 168.894244 
L 245.071651 180.735292 
L 245.244093 145.829289 
L 245.330567 148.83103 
L 245.545993 154.696162 
L 245.761925 176.191463 
L 246.02084 210.924551 
L 246.107314 210.550073 
L 246.279756 146.892407 
L 246.32274 148.903072 
L 246.581655 154.465743 
L 246.754603 155.714167 
L 246.927045 119.5659 
L 246.970029 119.731899 
L 247.013519 119.613404 
L 247.272434 135.757446 
L 247.574334 145.148783 
L 247.876233 147.560449 
L 248.005691 148.161848 
L 248.092165 149.407266 
L 248.178639 148.156027 
L 248.221623 148.310728 
L 248.308097 148.518768 
L 248.437554 147.601773 
L 248.480538 147.79395 
L 248.69647 148.561474 
L 249.041354 149.314143 
L 249.127828 150.703172 
L 249.170812 149.781874 
L 249.257285 148.668554 
L 249.300269 148.977251 
L 249.602675 151.23474 
L 249.732133 151.066687 
L 250.16349 150.495952 
L 250.335932 150.448416 
L 250.638337 150.790834 
L 250.767795 149.839119 
L 250.853763 150.217516 
L 251.156168 151.043116 
L 251.371594 151.563835 
L 251.975899 153.290184 
L 252.062373 153.554054 
L 252.234815 151.337752 
L 252.277799 151.375204 
L 252.321289 151.522871 
L 252.450746 148.690611 
L 252.49373 149.042764 
L 252.580204 149.930385 
L 252.666172 149.795573 
L 252.709662 149.748289 
L 252.968578 154.27464 
L 253.356951 175.233492 
L 253.399935 170.364012 
L 253.529393 150.42438 
L 253.615867 153.045065 
L 253.917766 157.528568 
L 254.047224 158.772512 
L 254.176682 164.912435 
L 254.392614 181.354799 
L 254.478582 156.261506 
L 254.565055 158.457143 
L 254.866955 163.257056 
L 255.255328 164.183698 
L 255.47126 164.691203 
L 255.730176 166.920523 
L 255.946107 168.071098 
L 256.506922 168.371413 
L 256.63638 169.15594 
L 256.93828 171.998188 
L 257.370143 171.521605 
L 257.542585 171.479504 
L 257.844485 171.951058 
L 258.017432 172.279186 
L 258.189874 139.386171 
L 258.276348 115.382897 
L 258.319332 121.46026 
L 258.578247 143.751648 
L 258.923637 154.19288 
L 259.31201 162.384971 
L 259.570926 188.596077 
L 259.656894 159.20683 
L 259.743368 161.977575 
L 260.045267 166.476438 
L 260.347673 168.700619 
L 260.563099 184.383371 
L 260.606588 188.200505 
L 260.692556 166.948713 
L 260.77903 168.85716 
L 261.124419 172.117444 
L 261.296861 172.754323 
L 261.383335 175.262278 
L 261.642251 198.187903 
L 261.728219 171.018512 
L 261.814693 172.865881 
L 262.116592 176.248084 
L 262.418998 176.857846 
L 262.548455 181.776201 
L 262.677913 188.540314 
L 262.720897 186.871444 
L 262.893339 175.154718 
L 262.936829 175.575778 
L 263.152255 174.697043 
L 263.195744 174.992892 
L 263.41117 185.142433 
L 263.713576 208.512131 
L 263.843033 173.43834 
L 263.886017 174.186862 
L 264.317375 177.89624 
L 264.360865 178.060435 
L 264.490322 185.143618 
L 264.749238 209.004101 
L 264.878696 177.032489 
L 264.92168 177.763116 
L 265.180595 179.826585 
L 265.482495 180.634477 
L 265.7849 181.022399 
L 266.043816 139.327916 
L 266.129784 141.563338 
L 266.216258 145.15296 
L 266.518158 157.791224 
L 266.734089 163.511578 
L 266.777073 162.820934 
L 266.820563 162.211356 
L 266.863547 162.576196 
L 267.338394 171.454114 
L 267.59731 169.198552 
L 267.812736 122.069456 
L 267.856225 119.591445 
L 267.985683 86.097011 
L 268.201109 127.323023 
L 268.503514 142.64925 
L 268.76243 149.332215 
L 268.977856 131.426388 
L 269.021346 127.378446 
L 269.06433 131.272376 
L 269.280261 145.609122 
L 269.409719 136.98146 
L 269.452703 139.294527 
L 269.711619 149.752545 
L 270.22945 159.691381 
L 270.53135 162.740912 
L 271.437554 168.231468 
L 271.69647 169.480075 
L 271.825928 174.294624 
L 271.912401 177.426647 
L 271.955385 177.147055 
L 271.998875 176.833788 
L 272.041859 168.183831 
L 272.128333 169.738542 
L 272.516706 174.296952 
L 273.120506 175.326293 
L 273.336437 176.973927 
L 273.552369 178.092008 
L 274.113184 178.48117 
L 274.285626 179.086452 
L 274.588031 180.97017 
L 274.673999 180.885905 
L 274.976405 180.71185 
L 275.23532 149.182328 
L 275.321288 154.161083 
L 275.623694 164.183129 
L 275.753152 166.291461 
L 275.968577 155.343718 
L 276.012067 154.808473 
L 276.270983 162.433051 
L 276.313967 161.931887 
L 276.529898 158.963042 
L 276.572882 159.608679 
L 276.70234 160.971008 
L 276.745324 160.917137 
L 276.788814 160.884937 
L 277.220171 167.549468 
L 277.695019 171.640972 
L 278.298818 174.441667 
L 278.471765 175.389431 
L 278.687191 154.409364 
L 278.730681 153.003539 
L 278.816649 153.583142 
L 278.860139 153.769356 
L 279.119055 115.076288 
L 279.205023 127.340832 
L 279.507428 147.207184 
L 279.852312 156.107998 
L 280.327159 162.431681 
L 280.84499 167.993339 
L 282.096584 173.626461 
L 282.484957 174.87653 
L 283.002789 178.209082 
L 283.304688 178.385461 
L 283.434146 178.677522 
L 283.606588 180.802875 
L 283.865504 183.769898 
L 283.951977 183.710991 
L 284.426825 183.02266 
L 284.556282 128.630488 
L 284.599266 129.950334 
L 285.074114 154.350794 
L 285.418997 161.48575 
L 285.721403 167.370347 
L 285.85086 170.565948 
L 285.980318 161.611219 
L 286.066286 163.599539 
L 286.368692 167.960665 
L 286.713575 171.977611 
L 286.972491 175.851616 
L 287.145439 176.033374 
L 287.447338 176.338553 
L 287.576796 176.680821 
L 287.749238 179.143593 
L 288.008153 182.740333 
L 288.094627 182.669936 
L 288.525985 181.941939 
L 288.569474 181.944891 
L 288.698932 183.241183 
L 289.043816 189.194356 
L 289.087306 189.163851 
L 289.605137 187.572773 
L 289.648121 187.591444 
L 289.777579 188.270209 
L 290.079478 191.962451 
L 290.165952 191.799979 
L 290.640799 190.174717 
L 290.683783 190.284153 
L 290.813241 192.054119 
L 291.029173 195.423248 
L 291.115141 195.700827 
L 291.158631 195.621852 
L 291.288088 195.051386 
L 291.46053 191.097369 
L 291.547004 191.148656 
L 291.719446 191.137073 
L 291.978361 192.300848 
L 292.194293 193.748369 
L 292.366735 193.389408 
L 292.712124 192.734791 
L 292.798092 193.295644 
L 292.92755 195.4585 
L 293.186466 199.110375 
L 293.229955 199.090666 
L 293.790771 196.881021 
L 293.877244 197.079173 
L 294.006702 197.388233 
L 294.308602 195.43446 
L 294.524533 195.080594 
L 294.653991 139.402094 
L 294.696975 141.38133 
L 295.042365 163.791501 
L 295.30128 172.330614 
L 295.689654 175.741569 
L 295.90508 177.853974 
L 296.078027 182.198043 
L 296.293453 185.577258 
L 296.379927 185.686728 
L 296.422911 185.664684 
L 296.725316 185.627448 
L 296.854774 182.674502 
L 296.940742 183.065899 
L 297.156674 184.734399 
L 297.415589 186.786445 
L 297.674505 186.992996 
L 297.890436 187.107135 
L 298.019894 187.55971 
L 298.364778 188.859413 
L 298.494236 188.959689 
L 298.926099 188.954287 
L 299.055557 189.79193 
L 299.44393 193.706916 
L 299.486914 193.639957 
L 299.961761 192.726814 
L 300.004745 192.760968 
L 300.134203 193.41484 
L 300.393119 195.689466 
L 300.522577 195.593599 
L 301.040408 194.3421 
L 301.083392 194.382132 
L 301.256339 194.616548 
L 301.385797 184.354394 
L 301.601223 135.018259 
L 301.644713 134.217351 
L 302.292002 156.949584 
L 302.42146 160.346885 
L 302.550917 130.594091 
L 302.593901 132.136871 
L 303.111733 154.817974 
L 303.54309 163.044905 
L 304.017937 167.652324 
L 304.233869 170.141468 
L 304.665226 177.72556 
L 305.0536 177.742872 
L 305.140074 177.883401 
L 305.269531 173.344929 
L 305.312515 174.198482 
L 305.614415 181.652352 
L 305.743873 182.030809 
L 306.002788 181.869614 
L 306.175736 181.853858 
L 306.305194 179.519752 
L 306.348178 179.981202 
L 306.650078 184.363673 
L 306.779535 184.765992 
L 306.823025 184.753583 
L 307.211398 184.829353 
L 307.340856 186.298334 
L 307.72923 192.78323 
L 307.858688 192.396096 
L 308.031129 181.822888 
L 308.074113 182.490812 
L 308.548961 188.141499 
L 308.807876 191.180133 
L 308.980318 190.998873 
L 309.282723 190.588169 
L 309.368691 191.041503 
L 309.498149 192.924843 
L 309.714081 195.746773 
L 309.800555 196.199812 
L 309.843539 196.167486 
L 310.318386 195.092583 
L 310.36137 195.214903 
L 310.533812 197.875495 
L 310.836217 202.809333 
L 310.922185 202.633391 
L 311.354048 200.819281 
L 311.397032 200.898471 
L 311.569474 203.704503 
L 311.87188 208.960347 
L 311.957848 208.788694 
L 312.346221 206.634216 
L 312.432695 206.265784 
L 312.475679 206.328129 
L 312.778084 207.377578 
L 312.821068 207.11358 
L 313.122968 205.105539 
L 313.468357 204.042794 
L 313.597815 205.241397 
L 313.684289 206.829407 
L 313.813747 178.905518 
L 313.943204 69.045513 
L 313.986188 80.98188 
L 314.20212 96.579394 
L 314.331578 81.361054 
L 314.547004 121.183008 
L 314.590493 123.893322 
L 314.676462 122.88305 
L 314.719951 122.678758 
L 315.151309 143.685894 
L 316.014529 163.852395 
L 316.618329 166.458257 
L 316.791276 169.840836 
L 317.050192 173.500671 
L 317.222634 173.549428 
L 317.481549 173.560851 
L 317.611007 174.186908 
L 317.99938 180.720261 
L 318.085854 180.524964 
L 318.171822 179.083494 
L 318.34477 175.234603 
L 318.560196 159.214573 
L 318.603685 158.621475 
L 319.078027 171.440201 
L 319.336943 173.239866 
L 319.50989 173.970724 
L 319.639348 168.43612 
L 319.768806 159.53135 
L 319.81179 160.79824 
L 319.898263 164.384269 
L 319.941248 161.642813 
L 320.156673 150.005198 
L 320.502568 161.707136 
L 321.365283 176.121178 
L 321.710167 176.681098 
L 321.883115 179.722604 
L 322.227998 186.717069 
L 322.357456 186.685532 
L 322.616372 186.252062 
L 322.659861 186.364165 
L 322.789319 187.680767 
L 323.263661 198.472687 
L 323.652034 157.016165 
L 323.695524 158.208825 
L 324.040408 166.520743 
L 324.386303 171.505043 
L 324.428781 171.620097 
L 324.601729 173.269079 
L 324.645218 173.182297 
L 324.687697 173.122665 
L 324.731186 173.197111 
L 324.860644 174.82023 
L 325.378475 186.585405 
L 325.637391 186.491234 
L 325.766849 185.495075 
L 325.810339 185.782319 
L 325.896307 186.664481 
L 326.370648 196.113794 
L 326.414138 196.058593 
L 326.802511 194.946933 
L 326.888479 195.063329 
L 327.017937 196.909392 
L 327.406311 203.468137 
L 327.665226 202.650851 
L 327.881663 202.091059 
L 327.924142 202.128372 
L 328.0536 204.016693 
L 328.441973 210.700242 
L 328.65841 209.955909 
L 328.959804 209.0176 
L 329.089262 211.0114 
L 329.477635 218.271086 
L 329.650583 217.783656 
L 329.909499 216.863981 
L 329.952988 216.918025 
L 329.995467 216.999095 
L 330.168414 220.180113 
L 330.47082 226.3773 
L 330.513298 226.448915 
L 330.556788 226.380627 
L 330.859193 225.085991 
L 330.945161 224.709962 
L 330.988651 224.741373 
L 331.031129 224.816361 
L 331.204077 227.415685 
L 331.506482 232.652936 
L 331.54896 232.67662 
L 331.721908 231.936005 
L 332.024313 230.527964 
L 332.066792 230.563715 
L 332.239739 233.577575 
L 332.542144 238.612143 
L 332.584623 238.633034 
L 332.80106 237.604514 
L 332.843538 237.354093 
L 332.930518 226.056479 
L 333.102454 212.166063 
L 333.145944 212.248362 
L 333.620285 218.906102 
L 333.793233 219.072553 
L 334.052148 218.916836 
L 334.181606 218.894368 
L 334.354554 219.30994 
L 334.484012 220.205452 
L 334.655948 221.117096 
L 334.828895 221.104795 
L 335.001843 220.945901 
L 335.044321 220.872268 
L 335.087811 220.898161 
L 335.173779 221.081 
L 335.346726 223.108424 
L 335.69161 227.512578 
L 335.821068 227.306115 
L 336.209441 226.4012 
L 336.338899 227.944117 
L 336.727273 233.648464 
L 336.90022 233.283688 
L 337.159136 232.500717 
L 337.202626 232.533824 
L 337.245104 232.587415 
L 337.418051 234.884769 
L 337.720457 239.168067 
L 337.762935 239.225636 
L 337.806425 239.126498 
L 338.280766 237.59153 
L 338.453714 239.810167 
L 338.756119 244.50293 
L 338.798598 244.601057 
L 338.842087 244.537602 
L 339.230461 243.545248 
L 339.27395 243.624386 
L 339.359918 244.07969 
L 339.748292 248.403238 
L 339.83426 248.336596 
L 340.352091 246.600869 
L 340.439071 246.718858 
L 340.611007 247.343437 
L 340.869922 248.741734 
L 341.172328 247.694681 
L 341.387754 247.143562 
L 341.560701 248.874366 
L 341.863107 251.984086 
L 341.949075 251.89481 
L 342.423416 250.540839 
L 342.466906 250.720274 
L 342.898769 253.695303 
L 342.984737 253.581112 
L 343.329621 252.403452 
L 343.37311 250.481694 
L 343.588536 232.141625 
L 343.717994 233.318285 
L 343.97691 235.360353 
L 344.235825 235.434069 
L 344.452263 235.518885 
L 344.538231 235.892359 
L 344.711178 237.799492 
L 344.753657 237.259364 
L 344.797146 237.376627 
L 344.883114 238.419963 
L 345.012572 206.316403 
L 345.14203 210.361527 
L 345.444435 215.043579 
L 346.221182 221.54765 
L 346.782503 224.515259 
L 347.083897 226.863917 
L 347.213355 227.075823 
L 347.51576 195.439031 
L 347.645218 162.603333 
L 347.688708 164.292735 
L 347.774676 167.9884 
L 348.11956 184.095535 
L 348.551423 192.504245 
L 348.810338 198.457193 
L 349.155222 206.279534 
L 349.630575 208.751805 
L 349.716543 209.418577 
L 349.931969 213.602968 
L 350.190884 217.354208 
L 350.4498 217.820732 
L 350.49329 217.099928 
L 350.622748 205.9738 
L 350.666237 205.980282 
L 350.708716 205.879222 
L 351.054611 212.760801 
L 351.270037 215.466219 
L 351.787868 217.985325 
L 352.349189 225.545695 
L 352.737562 225.823532 
L 352.82353 226.460455 
L 353.297872 232.736039 
L 353.341362 232.698671 
L 353.773225 232.294695 
L 353.815703 232.336599 
L 353.988651 234.481059 
L 354.291056 238.660643 
L 354.333534 238.720977 
L 354.377024 238.683826 
L 354.506482 238.469487 
L 354.59245 233.594112 
L 354.765397 214.954881 
L 354.808887 216.16155 
L 355.456176 228.133627 
L 356.059975 230.457833 
L 356.362381 232.353464 
L 356.577807 232.458506 
L 356.92269 232.476165 
L 357.052148 233.503385 
L 357.440522 238.173186 
L 357.613469 238.07325 
L 357.872385 237.874405 
L 357.915875 237.943086 
L 357.958353 238.032228 
L 358.17479 240.892046 
L 358.433706 243.696417 
L 358.519674 243.729106 
L 358.563164 243.685982 
L 358.951537 243.261301 
L 358.994015 243.305368 
L 359.166963 245.052866 
L 359.469368 248.247546 
L 359.555336 248.32523 
L 359.598826 248.289215 
L 359.94371 247.916249 
L 359.987199 247.959391 
L 360.029678 248.015107 
L 360.202625 249.532993 
L 360.505031 252.423577 
L 360.590999 252.481794 
L 360.634488 252.436682 
L 361.06534 251.898775 
L 361.238288 253.26687 
L 361.583171 256.261387 
L 361.712629 256.171903 
L 362.101003 255.762932 
L 362.23046 256.180659 
L 362.618834 258.879567 
L 362.791781 258.713266 
L 363.094187 258.367714 
L 363.136665 258.390965 
L 363.309613 259.710099 
L 363.568528 261.499812 
L 363.654496 261.574391 
L 363.827444 224.818459 
L 363.956902 228.428381 
L 364.777138 240.584958 
L 365.380938 243.273623 
L 365.725821 245.646176 
L 366.287142 246.59736 
L 366.589548 249.351697 
L 366.761484 250.054718 
L 367.279315 250.193401 
L 367.452262 251.572723 
L 367.754668 254.308033 
L 367.926604 254.39692 
L 368.056062 217.336752 
L 368.143041 219.807216 
L 368.531415 229.553908 
L 368.832809 235.148503 
L 369.567077 241.602548 
L 369.825993 244.530289 
L 370.170876 245.358594 
L 370.386302 245.863279 
L 370.60274 248.20724 
L 370.861655 250.841388 
L 371.077081 251.129323 
L 371.465454 251.556771 
L 371.72437 253.649837 
L 371.939796 254.615362 
L 372.457627 254.828935 
L 372.630575 255.89059 
L 372.975458 258.234143 
L 373.277864 258.266063 
L 373.450811 258.290354 
L 373.536779 258.508531 
L 373.752205 260.194406 
L 374.011121 261.674614 
L 374.270036 261.817919 
L 374.528952 261.959487 
L 374.7019 262.546743 
L 375.090273 264.655513 
L 375.349189 264.756396 
L 375.564614 264.867708 
L 375.737562 265.75365 
L 376.082446 267.659676 
L 376.384851 267.638795 
L 376.600277 267.657503 
L 376.816714 268.975422 
L 377.07563 270.623418 
L 377.247566 270.72381 
L 377.679429 270.662577 
L 377.894855 271.658699 
L 378.19726 272.886292 
L 378.456176 272.827949 
L 378.715092 272.738671 
L 379.232923 273.164833 
L 379.621296 273.047765 
L 379.750754 273.191447 
L 380.312075 275.182977 
L 380.354553 275.169772 
L 380.742927 275.060894 
L 381.001842 276.283358 
L 381.260758 277.119668 
L 381.477195 276.974989 
L 381.822079 276.74882 
L 381.995026 277.608006 
L 382.210452 278.566065 
L 382.33991 278.513647 
L 382.857741 277.996683 
L 383.246115 279.061691 
L 383.50503 278.547807 
L 383.893404 278.041525 
L 383.936894 278.104324 
L 384.066351 278.517598 
L 384.325267 279.232152 
L 384.411235 279.142459 
L 384.843098 278.460062 
L 384.972556 278.544375 
L 385.31744 279.362909 
L 385.446898 279.272485 
L 385.921239 278.766066 
L 386.094187 279.048639 
L 386.353102 279.670478 
L 386.914423 279.073619 
L 387.086359 278.946212 
L 387.215817 278.882035 
L 387.60419 235.218923 
L 387.820628 235.728753 
L 387.863106 235.707837 
L 388.165511 240.007919 
L 388.553885 245.425155 
L 389.157684 249.320057 
L 389.546058 253.28563 
L 389.977921 254.343646 
L 390.107379 254.835363 
L 390.711178 258.53362 
L 390.840636 209.012417 
L 390.927615 212.28017 
L 391.487925 230.033355 
L 391.617382 204.647124 
L 391.74684 210.238056 
L 392.005756 216.945764 
L 392.135214 215.749648 
L 392.264672 218.319002 
L 392.782503 228.339125 
L 393.818165 240.722331 
L 394.335996 244.870965 
L 394.72437 249.689995 
L 395.415149 252.236634 
L 395.760032 254.99968 
L 396.191895 255.576825 
L 396.321353 255.774859 
L 396.968642 258.51644 
L 397.357016 258.895363 
L 397.572442 260.046177 
L 397.831357 261.170883 
L 398.26322 261.420148 
L 398.349188 261.469074 
L 398.522136 262.409694 
L 398.824541 264.155142 
L 399.083457 264.284068 
L 399.384851 264.331313 
L 399.643766 265.57218 
L 399.902682 266.36646 
L 400.161598 130.597848 
L 400.291055 55.554545 
L 400.507493 122.510999 
L 400.808887 150.385706 
L 401.19726 163.223528 
L 401.931529 178.684845 
L 402.664786 188.13471 
L 402.967191 193.896404 
L 403.57099 196.739372 
L 404.17479 204.149812 
L 404.563163 204.749865 
L 404.736111 206.265486 
L 404.995026 208.768333 
L 405.253942 209.13016 
L 405.598826 209.437462 
L 405.771773 211.255511 
L 406.074178 215.008142 
L 406.634488 215.396844 
L 406.763946 216.651009 
L 407.109841 221.003901 
L 407.281777 220.815648 
L 407.71364 220.068167 
L 407.843098 220.770877 
L 408.145503 223.382049 
L 408.360929 223.073746 
L 408.749303 222.326134 
L 408.792792 222.414392 
L 408.87876 222.882222 
L 409.181166 225.75397 
L 409.353102 225.487967 
L 409.741475 224.690203 
L 409.784965 224.722266 
L 409.914423 225.620541 
L 410.216828 228.421115 
L 410.388764 228.229443 
L 410.777138 227.491699 
L 410.820628 227.54352 
L 410.993575 230.356632 
L 411.209001 233.54923 
L 411.294969 233.586063 
L 411.338459 233.54071 
L 411.640864 232.928992 
L 411.8128 232.564801 
L 411.85629 232.656444 
L 412.029238 234.658287 
L 412.244663 237.022875 
L 412.330631 236.996719 
L 412.633037 236.38243 
L 412.848463 235.897009 
L 412.891952 235.980297 
L 413.0649 237.919269 
L 413.236836 239.696978 
L 413.323816 239.68608 
L 413.668699 238.974643 
L 413.754667 238.756414 
L 413.971105 220.808409 
L 414.23002 201.288723 
L 414.272499 200.396767 
L 414.315988 200.659725 
L 414.531414 202.803504 
L 414.618394 202.366129 
L 414.660872 202.182526 
L 415.092735 205.819888 
L 415.308161 209.049818 
L 415.567077 210.385891 
L 415.696534 209.110133 
L 415.783514 209.406209 
L 416.04243 211.133539 
L 416.516771 217.221193 
L 416.861655 217.423967 
L 416.991112 217.478883 
L 417.078092 218.030215 
L 417.508944 222.068533 
L 417.725381 222.047031 
L 418.070265 221.944719 
L 418.199722 223.318032 
L 418.458638 226.814674 
L 418.588096 226.860747 
L 418.847012 226.548708 
L 419.062437 226.242494 
L 419.149417 226.714755 
L 419.53779 230.287928 
L 419.580269 230.273822 
L 419.839184 229.885768 
L 420.0981 229.410994 
L 420.14159 229.450669 
L 420.529963 231.557358 
L 420.615931 231.498715 
L 420.874847 231.068991 
L 421.004304 227.003931 
L 421.30671 195.549205 
L 421.3502 195.917405 
L 421.392678 195.925819 
L 421.738573 201.266603 
L 421.781051 201.646872 
L 421.824541 201.482736 
L 421.910509 200.974021 
L 421.953999 201.275992 
L 422.42834 207.010011 
L 422.687256 209.453127 
L 423.292067 211.708303 
L 423.766408 217.399877 
L 423.981834 217.288777 
L 424.198271 217.252204 
L 424.24075 217.318058 
L 424.370207 218.88378 
L 424.716103 224.650667 
L 424.84556 224.693866 
L 425.276412 224.354001 
L 425.40587 225.184721 
L 425.708275 227.131555 
L 425.881223 227.012983 
L 426.355564 226.458482 
L 426.485022 227.099181 
L 426.787427 229.12561 
L 427.002853 228.918115 
L 427.218279 228.596471 
L 427.477195 193.523977 
L 427.909058 200.779996 
L 428.599837 207.226591 
L 428.815263 210.128471 
L 429.117668 211.021238 
L 429.462552 211.901307 
L 429.721467 215.671963 
L 429.936893 217.051332 
L 430.195809 217.172374 
L 430.454724 217.220033 
L 430.584182 218.006539 
L 430.930077 220.918783 
L 431.145503 220.86139 
L 431.490387 220.626649 
L 431.577366 221.030535 
L 432.008218 224.578593 
L 432.095197 224.543938 
L 432.354113 224.2295 
L 432.526049 223.913136 
L 432.569539 223.96549 
L 432.698997 224.810622 
L 432.957912 226.994425 
L 433.08737 226.97277 
L 433.389776 226.579567 
L 433.561712 226.316349 
L 433.605201 226.350602 
L 433.734659 227.071255 
L 433.993575 229.081104 
L 434.123033 229.007462 
L 434.597374 228.235529 
L 434.640864 228.279481 
L 434.770322 229.110495 
L 435.029237 231.210831 
L 435.158695 231.152785 
L 435.547069 230.518193 
L 435.633037 230.365987 
L 435.676526 230.388723 
L 435.805984 231.196134 
L 436.0649 233.322012 
L 436.194358 233.246532 
L 436.539241 232.677075 
L 436.712189 232.425402 
L 436.841647 233.271275 
L 437.100562 235.433659 
L 437.23002 235.38027 
L 437.574904 234.797055 
L 437.747851 234.532996 
L 437.877309 235.217497 
L 438.136225 237.078257 
L 438.265682 236.9628 
L 438.783514 236.117411 
L 438.827003 236.282466 
L 438.956461 237.295955 
L 439.171887 238.674479 
L 439.301345 238.567055 
L 439.733208 237.746949 
L 439.775686 237.655617 
L 439.948634 231.636634 
L 439.992124 231.971408 
L 440.20755 233.268401 
L 440.380497 233.168969 
L 440.898328 232.602726 
L 440.940807 232.6511 
L 441.286702 234.332936 
L 441.32918 234.3243 
L 441.588096 234.097665 
L 441.890501 233.764592 
L 442.063449 234.435373 
L 442.278874 235.072859 
L 442.4943 234.856251 
L 442.926163 234.104929 
L 442.969653 234.166495 
L 443.099111 234.977576 
L 443.314537 236.113203 
L 443.487484 235.979472 
L 443.7464 235.476075 
L 443.961826 235.026585 
L 444.047794 235.39789 
L 444.393689 237.892206 
L 444.695083 237.518293 
L 444.997488 237.107833 
L 445.126946 238.002361 
L 445.385862 240.409985 
L 445.51532 240.372419 
L 445.860203 239.834259 
L 445.989661 239.538032 
L 446.033151 239.559499 
L 446.206098 240.312561 
L 446.421524 241.166914 
L 446.63695 240.845655 
L 446.939355 221.76424 
L 447.586645 226.108136 
L 447.80207 226.196914 
L 448.060986 226.149022 
L 448.190444 226.646197 
L 448.536339 228.182125 
L 448.795254 228.44278 
L 448.967191 230.358121 
L 449.01068 230.423093 
L 449.05417 230.035339 
L 449.140138 227.819296 
L 449.183628 227.934153 
L 449.442544 228.571181 
L 449.61448 228.660074 
L 449.787427 228.566636 
L 449.873395 229.762007 
L 450.089833 242.056334 
L 450.132311 241.809058 
L 450.21929 227.971286 
L 450.261769 228.06188 
L 450.693632 229.476174 
L 450.909058 229.402745 
L 451.254953 229.170469 
L 451.729294 230.09578 
L 451.94472 229.989095 
L 452.117668 240.252931 
L 452.203636 243.858019 
L 452.290615 229.587381 
L 452.333094 229.665525 
L 452.678989 230.629101 
L 452.721467 230.622282 
L 452.808446 234.490503 
L 453.15333 254.332116 
L 453.239298 256.776493 
L 453.368756 230.200756 
L 453.412246 230.300443 
L 453.671161 231.014164 
L 453.757129 231.001596 
L 453.844109 234.481666 
L 454.274961 258.099441 
L 454.404419 230.632757 
L 454.447908 230.761554 
L 454.750314 231.605003 
L 454.836282 231.568349 
L 454.879771 231.790392 
L 455.051708 237.401385 
L 455.268145 246.780817 
L 455.310623 246.713324 
L 455.397603 230.954637 
L 455.440081 231.11133 
L 455.785976 232.789245 
L 455.828454 232.76849 
L 456.13086 232.458343 
L 456.389775 232.104745 
L 456.519233 232.745958 
L 456.778149 234.976412 
L 456.951096 234.894359 
L 457.425438 234.3896 
L 457.468928 234.544149 
L 457.598385 235.631494 
L 457.813811 237.186989 
L 457.986759 237.051284 
L 458.417611 236.352475 
L 458.50459 236.532999 
L 458.849474 238.01221 
L 458.935442 237.921731 
L 459.453273 237.107498 
L 459.582731 234.818111 
L 459.971104 195.703687 
L 460.014594 196.559804 
L 460.27351 201.055891 
L 460.877309 206.375087 
L 461.309172 208.532092 
L 461.697545 210.373124 
L 461.999951 212.580759 
L 462.517782 213.697896 
L 462.689718 214.14704 
L 463.121581 215.830512 
L 463.509955 216.201411 
L 463.682902 216.366811 
L 463.81236 217.125725 
L 464.027786 218.411859 
L 464.330191 218.652485 
L 464.718565 218.780888 
L 464.848022 219.655992 
L 465.063448 220.953839 
L 465.278874 221.020068 
L 465.796705 221.080487 
L 466.272058 222.093806 
L 466.78989 222.119307 
L 466.919347 222.952801 
L 467.134773 224.211642 
L 467.307721 224.238919 
L 467.652604 224.024478 
L 467.782062 223.928625 
L 467.825552 224.007593 
L 467.95501 224.87833 
L 468.170436 226.195298 
L 468.343383 226.142574 
L 468.817725 225.790583 
L 468.947183 226.352878 
L 469.206098 227.733903 
L 469.379046 227.668054 
L 469.68044 227.312339 
L 469.982845 226.949553 
L 470.026335 226.981372 
L 470.241761 227.077159 
L 470.586644 226.844635 
L 470.759592 218.244136 
L 470.88905 193.58453 
L 471.104476 157.364926 
L 471.536339 175.609562 
L 471.622307 175.877029 
L 471.881222 150.166574 
L 472.01068 151.448022 
L 472.356575 168.755307 
L 472.744949 176.999881 
L 473.392238 185.773966 
L 473.823089 189.608099 
L 473.952547 194.682617 
L 473.996037 189.348332 
L 474.082005 190.108875 
L 474.470378 192.926881 
L 474.902242 194.634306 
L 474.98821 194.600483 
L 475.161157 195.370246 
L 475.463563 197.007827 
L 476.023872 198.198825 
L 476.240309 198.575603 
L 476.541703 199.392626 
L 477.188992 200.363761 
L 477.620856 201.844906 
L 477.706824 206.59419 
L 478.052719 242.16206 
L 478.224655 247.285676 
L 478.397602 245.107206 
L 478.441092 245.786553 
L 478.57055 249.425528 
L 479.088381 265.763089 
L 479.174349 266.9209 
L 479.217839 266.70828 
L 479.260317 266.322531 
L 479.389775 254.024692 
L 479.433265 255.683924 
L 479.606212 262.097047 
L 480.210012 274.422822 
L 480.29598 273.805527 
L 480.554895 229.221405 
L 480.598385 234.218925 
L 480.90079 267.006699 
L 481.202184 273.055655 
L 481.289164 262.490422 
L 481.590558 222.917731 
L 481.849473 239.187823 
L 482.237847 260.899198 
L 482.367305 248.295277 
L 482.540252 218.420241 
L 482.583742 219.881264 
L 482.66971 226.905441 
L 483.014594 260.589151 
L 483.360489 268.948152 
L 483.402967 268.80655 
L 483.532425 263.214662 
L 483.619404 265.447082 
L 483.748862 269.194969 
L 484.007778 279.618576 
L 484.309172 290.163819 
L 484.396151 285.432999 
L 484.568087 262.440884 
L 484.611577 265.073148 
L 484.870493 289.986863 
L 485.085919 295.088529 
L 485.302356 296.535911 
L 485.474292 296.592086 
L 485.561271 290.068674 
L 485.60375 283.907783 
L 485.64724 287.332188 
L 485.820187 295.048127 
L 485.992123 295.761691 
L 486.467476 295.804099 
L 486.509954 295.789672 
L 486.639412 270.406324 
L 486.726392 275.225656 
L 486.985307 295.1358 
L 487.244223 296.580746 
L 487.459649 296.856648 
L 487.545617 289.058646 
L 487.762054 242.756251 
L 487.804533 240.473064 
L 487.848022 243.044088 
L 488.409343 289.845975 
L 488.451822 290.908012 
L 488.538801 279.285967 
L 488.840195 227.61497 
L 489.099111 254.481243 
L 489.358026 275.654799 
L 489.487484 284.174345 
L 489.616942 258.788908 
L 489.833379 215.258699 
L 489.875857 212.277377 
L 489.919347 213.585363 
L 490.221753 238.1581 
L 490.523146 261.716403 
L 490.95501 199.824709 
L 490.998499 199.950842 
L 491.213925 209.525998 
L 491.558809 225.004702 
L 491.688267 209.874491 
L 491.861214 193.882003 
L 491.904704 193.5098 
L 491.947182 193.803224 
L 492.034162 194.874895 
L 492.249588 210.689837 
L 492.594471 240.059573 
L 492.810909 193.864938 
L 492.940366 194.725577 
L 493.112303 195.218643 
L 493.24176 200.13475 
L 493.630134 227.529881 
L 493.803081 195.023732 
L 493.889049 196.276267 
L 494.191455 198.259913 
L 494.536338 199.382784 
L 494.665796 204.538741 
L 494.752776 197.889793 
L 494.838744 198.637545 
L 495.183627 201.077572 
L 495.356575 214.419159 
L 495.701459 245.430843 
L 495.830917 225.443679 
L 495.960374 200.500402 
L 496.003864 200.814453 
L 496.26278 202.351497 
L 496.565185 213.40956 
L 496.910069 229.590232 
L 497.298442 257.294727 
L 497.557358 271.622065 
L 497.902241 285.070471 
L 498.031699 269.18542 
L 498.118679 275.895697 
L 498.161157 280.153628 
L 498.161157 280.153628 
" clip-path="url(#p733fc94f70)" style="fill: none; stroke: #6495ed; stroke-width: 1.5; stroke-linecap: square"/>
   </g>
   <g id="matplotlib.axis_1">
    <g id="xtick_1">
     <g id="line2d_2">
      <defs>
       <path id="maadd652f60" d="M 0 0 
L 0 3.5 
" style="stroke: #000000; stroke-width: 0.8"/>
      </defs>
      <g>
       <use xlink:href="#maadd652f60" x="152.293388" y="315" style="stroke: #000000; stroke-width: 0.8"/>
      </g>
     </g>
     <g id="text_1">
      <!-- Jan -->
      <g transform="translate(139.190107 334.917344)scale(0.17 -0.17)">
       <defs>
        <path id="DejaVuSans-4a" d="M 628 4666 
L 1259 4666 
L 1259 325 
Q 1259 -519 939 -900 
Q 619 -1281 -91 -1281 
L -331 -1281 
L -331 -750 
L -134 -750 
Q 284 -750 456 -515 
Q 628 -281 628 325 
L 628 4666 
z
" transform="scale(0.015625)"/>
        <path id="DejaVuSans-61" d="M 2194 1759 
Q 1497 1759 1228 1600 
Q 959 1441 959 1056 
Q 959 750 1161 570 
Q 1363 391 1709 391 
Q 2188 391 2477 730 
Q 2766 1069 2766 1631 
L 2766 1759 
L 2194 1759 
z
M 3341 1997 
L 3341 0 
L 2766 0 
L 2766 531 
Q 2569 213 2275 61 
Q 1981 -91 1556 -91 
Q 1019 -91 701 211 
Q 384 513 384 1019 
Q 384 1609 779 1909 
Q 1175 2209 1959 2209 
L 2766 2209 
L 2766 2266 
Q 2766 2663 2505 2880 
Q 2244 3097 1772 3097 
Q 1472 3097 1187 3025 
Q 903 2953 641 2809 
L 641 3341 
Q 956 3463 1253 3523 
Q 1550 3584 1831 3584 
Q 2591 3584 2966 3190 
Q 3341 2797 3341 1997 
z
" transform="scale(0.015625)"/>
        <path id="DejaVuSans-6e" d="M 3513 2113 
L 3513 0 
L 2938 0 
L 2938 2094 
Q 2938 2591 2744 2837 
Q 2550 3084 2163 3084 
Q 1697 3084 1428 2787 
Q 1159 2491 1159 1978 
L 1159 0 
L 581 0 
L 581 3500 
L 1159 3500 
L 1159 2956 
Q 1366 3272 1645 3428 
Q 1925 3584 2291 3584 
Q 2894 3584 3203 3211 
Q 3513 2838 3513 2113 
z
" transform="scale(0.015625)"/>
       </defs>
       <use xlink:href="#DejaVuSans-4a"/>
       <use xlink:href="#DejaVuSans-61" x="29.492188"/>
       <use xlink:href="#DejaVuSans-6e" x="90.771484"/>
      </g>
     </g>
    </g>
    <g id="xtick_2">
     <g id="line2d_3">
      <g>
       <use xlink:href="#maadd652f60" x="213.397473" y="315" style="stroke: #000000; stroke-width: 0.8"/>
      </g>
     </g>
     <g id="text_2">
      <!-- Mar -->
      <g transform="translate(197.360364 334.917344)scale(0.17 -0.17)">
       <defs>
        <path id="DejaVuSans-4d" d="M 628 4666 
L 1569 4666 
L 2759 1491 
L 3956 4666 
L 4897 4666 
L 4897 0 
L 4281 0 
L 4281 4097 
L 3078 897 
L 2444 897 
L 1241 4097 
L 1241 0 
L 628 0 
L 628 4666 
z
" transform="scale(0.015625)"/>
        <path id="DejaVuSans-72" d="M 2631 2963 
Q 2534 3019 2420 3045 
Q 2306 3072 2169 3072 
Q 1681 3072 1420 2755 
Q 1159 2438 1159 1844 
L 1159 0 
L 581 0 
L 581 3500 
L 1159 3500 
L 1159 2956 
Q 1341 3275 1631 3429 
Q 1922 3584 2338 3584 
Q 2397 3584 2469 3576 
Q 2541 3569 2628 3553 
L 2631 2963 
z
" transform="scale(0.015625)"/>
       </defs>
       <use xlink:href="#DejaVuSans-4d"/>
       <use xlink:href="#DejaVuSans-61" x="86.279297"/>
       <use xlink:href="#DejaVuSans-72" x="147.558594"/>
      </g>
     </g>
    </g>
    <g id="xtick_3">
     <g id="line2d_4">
      <g>
       <use xlink:href="#maadd652f60" x="276.572882" y="315" style="stroke: #000000; stroke-width: 0.8"/>
      </g>
     </g>
     <g id="text_3">
      <!-- May -->
      <g transform="translate(258.999132 334.917344)scale(0.17 -0.17)">
       <defs>
        <path id="DejaVuSans-79" d="M 2059 -325 
Q 1816 -950 1584 -1140 
Q 1353 -1331 966 -1331 
L 506 -1331 
L 506 -850 
L 844 -850 
Q 1081 -850 1212 -737 
Q 1344 -625 1503 -206 
L 1606 56 
L 191 3500 
L 800 3500 
L 1894 763 
L 2988 3500 
L 3597 3500 
L 2059 -325 
z
" transform="scale(0.015625)"/>
       </defs>
       <use xlink:href="#DejaVuSans-4d"/>
       <use xlink:href="#DejaVuSans-61" x="86.279297"/>
       <use xlink:href="#DejaVuSans-79" x="147.558594"/>
      </g>
     </g>
    </g>
    <g id="xtick_4">
     <g id="line2d_5">
      <g>
       <use xlink:href="#maadd652f60" x="339.748292" y="315" style="stroke: #000000; stroke-width: 0.8"/>
      </g>
     </g>
     <g id="text_4">
      <!-- Jul -->
      <g transform="translate(329.492511 334.917344)scale(0.17 -0.17)">
       <defs>
        <path id="DejaVuSans-75" d="M 544 1381 
L 544 3500 
L 1119 3500 
L 1119 1403 
Q 1119 906 1312 657 
Q 1506 409 1894 409 
Q 2359 409 2629 706 
Q 2900 1003 2900 1516 
L 2900 3500 
L 3475 3500 
L 3475 0 
L 2900 0 
L 2900 538 
Q 2691 219 2414 64 
Q 2138 -91 1772 -91 
Q 1169 -91 856 284 
Q 544 659 544 1381 
z
M 1991 3584 
L 1991 3584 
z
" transform="scale(0.015625)"/>
        <path id="DejaVuSans-6c" d="M 603 4863 
L 1178 4863 
L 1178 0 
L 603 0 
L 603 4863 
z
" transform="scale(0.015625)"/>
       </defs>
       <use xlink:href="#DejaVuSans-4a"/>
       <use xlink:href="#DejaVuSans-75" x="29.492188"/>
       <use xlink:href="#DejaVuSans-6c" x="92.871094"/>
      </g>
     </g>
    </g>
    <g id="xtick_5">
     <g id="line2d_6">
      <g>
       <use xlink:href="#maadd652f60" x="403.959364" y="315" style="stroke: #000000; stroke-width: 0.8"/>
      </g>
     </g>
     <g id="text_5">
      <!-- Sep -->
      <g transform="translate(387.936864 334.917344)scale(0.17 -0.17)">
       <defs>
        <path id="DejaVuSans-53" d="M 3425 4513 
L 3425 3897 
Q 3066 4069 2747 4153 
Q 2428 4238 2131 4238 
Q 1616 4238 1336 4038 
Q 1056 3838 1056 3469 
Q 1056 3159 1242 3001 
Q 1428 2844 1947 2747 
L 2328 2669 
Q 3034 2534 3370 2195 
Q 3706 1856 3706 1288 
Q 3706 609 3251 259 
Q 2797 -91 1919 -91 
Q 1588 -91 1214 -16 
Q 841 59 441 206 
L 441 856 
Q 825 641 1194 531 
Q 1563 422 1919 422 
Q 2459 422 2753 634 
Q 3047 847 3047 1241 
Q 3047 1584 2836 1778 
Q 2625 1972 2144 2069 
L 1759 2144 
Q 1053 2284 737 2584 
Q 422 2884 422 3419 
Q 422 4038 858 4394 
Q 1294 4750 2059 4750 
Q 2388 4750 2728 4690 
Q 3069 4631 3425 4513 
z
" transform="scale(0.015625)"/>
        <path id="DejaVuSans-65" d="M 3597 1894 
L 3597 1613 
L 953 1613 
Q 991 1019 1311 708 
Q 1631 397 2203 397 
Q 2534 397 2845 478 
Q 3156 559 3463 722 
L 3463 178 
Q 3153 47 2828 -22 
Q 2503 -91 2169 -91 
Q 1331 -91 842 396 
Q 353 884 353 1716 
Q 353 2575 817 3079 
Q 1281 3584 2069 3584 
Q 2775 3584 3186 3129 
Q 3597 2675 3597 1894 
z
M 3022 2063 
Q 3016 2534 2758 2815 
Q 2500 3097 2075 3097 
Q 1594 3097 1305 2825 
Q 1016 2553 972 2059 
L 3022 2063 
z
" transform="scale(0.015625)"/>
        <path id="DejaVuSans-70" d="M 1159 525 
L 1159 -1331 
L 581 -1331 
L 581 3500 
L 1159 3500 
L 1159 2969 
Q 1341 3281 1617 3432 
Q 1894 3584 2278 3584 
Q 2916 3584 3314 3078 
Q 3713 2572 3713 1747 
Q 3713 922 3314 415 
Q 2916 -91 2278 -91 
Q 1894 -91 1617 61 
Q 1341 213 1159 525 
z
M 3116 1747 
Q 3116 2381 2855 2742 
Q 2594 3103 2138 3103 
Q 1681 3103 1420 2742 
Q 1159 2381 1159 1747 
Q 1159 1113 1420 752 
Q 1681 391 2138 391 
Q 2594 391 2855 752 
Q 3116 1113 3116 1747 
z
" transform="scale(0.015625)"/>
       </defs>
       <use xlink:href="#DejaVuSans-53"/>
       <use xlink:href="#DejaVuSans-65" x="63.476562"/>
       <use xlink:href="#DejaVuSans-70" x="125"/>
      </g>
     </g>
    </g>
    <g id="xtick_6">
     <g id="line2d_7">
      <g>
       <use xlink:href="#maadd652f60" x="467.134773" y="315" style="stroke: #000000; stroke-width: 0.8"/>
      </g>
     </g>
     <g id="text_6">
      <!-- Nov -->
      <g transform="translate(450.543836 334.917344)scale(0.17 -0.17)">
       <defs>
        <path id="DejaVuSans-4e" d="M 628 4666 
L 1478 4666 
L 3547 763 
L 3547 4666 
L 4159 4666 
L 4159 0 
L 3309 0 
L 1241 3903 
L 1241 0 
L 628 0 
L 628 4666 
z
" transform="scale(0.015625)"/>
        <path id="DejaVuSans-6f" d="M 1959 3097 
Q 1497 3097 1228 2736 
Q 959 2375 959 1747 
Q 959 1119 1226 758 
Q 1494 397 1959 397 
Q 2419 397 2687 759 
Q 2956 1122 2956 1747 
Q 2956 2369 2687 2733 
Q 2419 3097 1959 3097 
z
M 1959 3584 
Q 2709 3584 3137 3096 
Q 3566 2609 3566 1747 
Q 3566 888 3137 398 
Q 2709 -91 1959 -91 
Q 1206 -91 779 398 
Q 353 888 353 1747 
Q 353 2609 779 3096 
Q 1206 3584 1959 3584 
z
" transform="scale(0.015625)"/>
        <path id="DejaVuSans-76" d="M 191 3500 
L 800 3500 
L 1894 563 
L 2988 3500 
L 3597 3500 
L 2284 0 
L 1503 0 
L 191 3500 
z
" transform="scale(0.015625)"/>
       </defs>
       <use xlink:href="#DejaVuSans-4e"/>
       <use xlink:href="#DejaVuSans-6f" x="74.804688"/>
       <use xlink:href="#DejaVuSans-76" x="135.986328"/>
      </g>
     </g>
    </g>
   </g>
   <g id="matplotlib.axis_2">
    <g id="ytick_1">
     <g id="line2d_8">
      <defs>
       <path id="m617dab2ee4" d="M 0 0 
L -3.5 0 
" style="stroke: #000000; stroke-width: 0.8"/>
      </defs>
      <g>
       <use xlink:href="#m617dab2ee4" x="135" y="313.991134" style="stroke: #000000; stroke-width: 0.8"/>
      </g>
     </g>
     <g id="text_7">
      <!-- 0 -->
      <g transform="translate(117.18375 320.449806)scale(0.17 -0.17)">
       <defs>
        <path id="DejaVuSans-30" d="M 2034 4250 
Q 1547 4250 1301 3770 
Q 1056 3291 1056 2328 
Q 1056 1369 1301 889 
Q 1547 409 2034 409 
Q 2525 409 2770 889 
Q 3016 1369 3016 2328 
Q 3016 3291 2770 3770 
Q 2525 4250 2034 4250 
z
M 2034 4750 
Q 2819 4750 3233 4129 
Q 3647 3509 3647 2328 
Q 3647 1150 3233 529 
Q 2819 -91 2034 -91 
Q 1250 -91 836 529 
Q 422 1150 422 2328 
Q 422 3509 836 4129 
Q 1250 4750 2034 4750 
z
" transform="scale(0.015625)"/>
       </defs>
       <use xlink:href="#DejaVuSans-30"/>
      </g>
     </g>
    </g>
    <g id="ytick_2">
     <g id="line2d_9">
      <g>
       <use xlink:href="#m617dab2ee4" x="135" y="267.008964" style="stroke: #000000; stroke-width: 0.8"/>
      </g>
     </g>
     <g id="text_8">
      <!-- 10 -->
      <g transform="translate(106.3675 273.467636)scale(0.17 -0.17)">
       <defs>
        <path id="DejaVuSans-31" d="M 794 531 
L 1825 531 
L 1825 4091 
L 703 3866 
L 703 4441 
L 1819 4666 
L 2450 4666 
L 2450 531 
L 3481 531 
L 3481 0 
L 794 0 
L 794 531 
z
" transform="scale(0.015625)"/>
       </defs>
       <use xlink:href="#DejaVuSans-31"/>
       <use xlink:href="#DejaVuSans-30" x="63.623047"/>
      </g>
     </g>
    </g>
    <g id="ytick_3">
     <g id="line2d_10">
      <g>
       <use xlink:href="#m617dab2ee4" x="135" y="220.026794" style="stroke: #000000; stroke-width: 0.8"/>
      </g>
     </g>
     <g id="text_9">
      <!-- 20 -->
      <g transform="translate(106.3675 226.485466)scale(0.17 -0.17)">
       <defs>
        <path id="DejaVuSans-32" d="M 1228 531 
L 3431 531 
L 3431 0 
L 469 0 
L 469 531 
Q 828 903 1448 1529 
Q 2069 2156 2228 2338 
Q 2531 2678 2651 2914 
Q 2772 3150 2772 3378 
Q 2772 3750 2511 3984 
Q 2250 4219 1831 4219 
Q 1534 4219 1204 4116 
Q 875 4013 500 3803 
L 500 4441 
Q 881 4594 1212 4672 
Q 1544 4750 1819 4750 
Q 2544 4750 2975 4387 
Q 3406 4025 3406 3419 
Q 3406 3131 3298 2873 
Q 3191 2616 2906 2266 
Q 2828 2175 2409 1742 
Q 1991 1309 1228 531 
z
" transform="scale(0.015625)"/>
       </defs>
       <use xlink:href="#DejaVuSans-32"/>
       <use xlink:href="#DejaVuSans-30" x="63.623047"/>
      </g>
     </g>
    </g>
    <g id="ytick_4">
     <g id="line2d_11">
      <g>
       <use xlink:href="#m617dab2ee4" x="135" y="173.044624" style="stroke: #000000; stroke-width: 0.8"/>
      </g>
     </g>
     <g id="text_10">
      <!-- 30 -->
      <g transform="translate(106.3675 179.503296)scale(0.17 -0.17)">
       <defs>
        <path id="DejaVuSans-33" d="M 2597 2516 
Q 3050 2419 3304 2112 
Q 3559 1806 3559 1356 
Q 3559 666 3084 287 
Q 2609 -91 1734 -91 
Q 1441 -91 1130 -33 
Q 819 25 488 141 
L 488 750 
Q 750 597 1062 519 
Q 1375 441 1716 441 
Q 2309 441 2620 675 
Q 2931 909 2931 1356 
Q 2931 1769 2642 2001 
Q 2353 2234 1838 2234 
L 1294 2234 
L 1294 2753 
L 1863 2753 
Q 2328 2753 2575 2939 
Q 2822 3125 2822 3475 
Q 2822 3834 2567 4026 
Q 2313 4219 1838 4219 
Q 1578 4219 1281 4162 
Q 984 4106 628 3988 
L 628 4550 
Q 988 4650 1302 4700 
Q 1616 4750 1894 4750 
Q 2613 4750 3031 4423 
Q 3450 4097 3450 3541 
Q 3450 3153 3228 2886 
Q 3006 2619 2597 2516 
z
" transform="scale(0.015625)"/>
       </defs>
       <use xlink:href="#DejaVuSans-33"/>
       <use xlink:href="#DejaVuSans-30" x="63.623047"/>
      </g>
     </g>
    </g>
    <g id="ytick_5">
     <g id="line2d_12">
      <g>
       <use xlink:href="#m617dab2ee4" x="135" y="126.062454" style="stroke: #000000; stroke-width: 0.8"/>
      </g>
     </g>
     <g id="text_11">
      <!-- 40 -->
      <g transform="translate(106.3675 132.521126)scale(0.17 -0.17)">
       <defs>
        <path id="DejaVuSans-34" d="M 2419 4116 
L 825 1625 
L 2419 1625 
L 2419 4116 
z
M 2253 4666 
L 3047 4666 
L 3047 1625 
L 3713 1625 
L 3713 1100 
L 3047 1100 
L 3047 0 
L 2419 0 
L 2419 1100 
L 313 1100 
L 313 1709 
L 2253 4666 
z
" transform="scale(0.015625)"/>
       </defs>
       <use xlink:href="#DejaVuSans-34"/>
       <use xlink:href="#DejaVuSans-30" x="63.623047"/>
      </g>
     </g>
    </g>
    <g id="ytick_6">
     <g id="line2d_13">
      <g>
       <use xlink:href="#m617dab2ee4" x="135" y="79.080283" style="stroke: #000000; stroke-width: 0.8"/>
      </g>
     </g>
     <g id="text_12">
      <!-- 50 -->
      <g transform="translate(106.3675 85.538955)scale(0.17 -0.17)">
       <defs>
        <path id="DejaVuSans-35" d="M 691 4666 
L 3169 4666 
L 3169 4134 
L 1269 4134 
L 1269 2991 
Q 1406 3038 1543 3061 
Q 1681 3084 1819 3084 
Q 2600 3084 3056 2656 
Q 3513 2228 3513 1497 
Q 3513 744 3044 326 
Q 2575 -91 1722 -91 
Q 1428 -91 1123 -41 
Q 819 9 494 109 
L 494 744 
Q 775 591 1075 516 
Q 1375 441 1709 441 
Q 2250 441 2565 725 
Q 2881 1009 2881 1497 
Q 2881 1984 2565 2268 
Q 2250 2553 1709 2553 
Q 1456 2553 1204 2497 
Q 953 2441 691 2322 
L 691 4666 
z
" transform="scale(0.015625)"/>
       </defs>
       <use xlink:href="#DejaVuSans-35"/>
       <use xlink:href="#DejaVuSans-30" x="63.623047"/>
      </g>
     </g>
    </g>
    <g id="text_13">
     <!-- 100%m3/m3 -->
     <g transform="translate(98.832031 233.639453)rotate(-90)scale(0.17 -0.17)">
      <defs>
       <path id="DejaVuSans-25" d="M 4653 2053 
Q 4381 2053 4226 1822 
Q 4072 1591 4072 1178 
Q 4072 772 4226 539 
Q 4381 306 4653 306 
Q 4919 306 5073 539 
Q 5228 772 5228 1178 
Q 5228 1588 5073 1820 
Q 4919 2053 4653 2053 
z
M 4653 2450 
Q 5147 2450 5437 2106 
Q 5728 1763 5728 1178 
Q 5728 594 5436 251 
Q 5144 -91 4653 -91 
Q 4153 -91 3862 251 
Q 3572 594 3572 1178 
Q 3572 1766 3864 2108 
Q 4156 2450 4653 2450 
z
M 1428 4353 
Q 1159 4353 1004 4120 
Q 850 3888 850 3481 
Q 850 3069 1003 2837 
Q 1156 2606 1428 2606 
Q 1700 2606 1854 2837 
Q 2009 3069 2009 3481 
Q 2009 3884 1853 4118 
Q 1697 4353 1428 4353 
z
M 4250 4750 
L 4750 4750 
L 1831 -91 
L 1331 -91 
L 4250 4750 
z
M 1428 4750 
Q 1922 4750 2215 4408 
Q 2509 4066 2509 3481 
Q 2509 2891 2217 2550 
Q 1925 2209 1428 2209 
Q 931 2209 642 2551 
Q 353 2894 353 3481 
Q 353 4063 643 4406 
Q 934 4750 1428 4750 
z
" transform="scale(0.015625)"/>
       <path id="DejaVuSans-6d" d="M 3328 2828 
Q 3544 3216 3844 3400 
Q 4144 3584 4550 3584 
Q 5097 3584 5394 3201 
Q 5691 2819 5691 2113 
L 5691 0 
L 5113 0 
L 5113 2094 
Q 5113 2597 4934 2840 
Q 4756 3084 4391 3084 
Q 3944 3084 3684 2787 
Q 3425 2491 3425 1978 
L 3425 0 
L 2847 0 
L 2847 2094 
Q 2847 2600 2669 2842 
Q 2491 3084 2119 3084 
Q 1678 3084 1418 2786 
Q 1159 2488 1159 1978 
L 1159 0 
L 581 0 
L 581 3500 
L 1159 3500 
L 1159 2956 
Q 1356 3278 1631 3431 
Q 1906 3584 2284 3584 
Q 2666 3584 2933 3390 
Q 3200 3197 3328 2828 
z
" transform="scale(0.015625)"/>
       <path id="DejaVuSans-2f" d="M 1625 4666 
L 2156 4666 
L 531 -594 
L 0 -594 
L 1625 4666 
z
" transform="scale(0.015625)"/>
      </defs>
      <use xlink:href="#DejaVuSans-31"/>
      <use xlink:href="#DejaVuSans-30" x="63.623047"/>
      <use xlink:href="#DejaVuSans-30" x="127.246094"/>
      <use xlink:href="#DejaVuSans-25" x="190.869141"/>
      <use xlink:href="#DejaVuSans-6d" x="285.888672"/>
      <use xlink:href="#DejaVuSans-33" x="383.300781"/>
      <use xlink:href="#DejaVuSans-2f" x="446.923828"/>
      <use xlink:href="#DejaVuSans-6d" x="480.615234"/>
      <use xlink:href="#DejaVuSans-33" x="578.027344"/>
     </g>
    </g>
   </g>
   <g id="PathCollection_1">
    <defs>
     <path id="m4f744f308f" d="M 0 3 
C 0.795609 3 1.55874 2.683901 2.12132 2.12132 
C 2.683901 1.55874 3 0.795609 3 0 
C 3 -0.795609 2.683901 -1.55874 2.12132 -2.12132 
C 1.55874 -2.683901 0.795609 -3 0 -3 
C -0.795609 -3 -1.55874 -2.683901 -2.12132 -2.12132 
C -2.683901 -1.55874 -3 -0.795609 -3 0 
C -3 0.795609 -2.683901 1.55874 -2.12132 2.12132 
C -1.55874 2.683901 -0.795609 3 0 3 
z
" style="stroke: #ff8c00"/>
    </defs>
    <g clip-path="url(#p733fc94f70)">
     <use xlink:href="#m4f744f308f" x="228.93241" y="242.108414" style="fill: #ff8c00; stroke: #ff8c00"/>
     <use xlink:href="#m4f744f308f" x="236.182047" y="188.809752" style="fill: #ff8c00; stroke: #ff8c00"/>
     <use xlink:href="#m4f744f308f" x="242.396022" y="208.542263" style="fill: #ff8c00; stroke: #ff8c00"/>
     <use xlink:href="#m4f744f308f" x="249.645659" y="234.01704" style="fill: #ff8c00; stroke: #ff8c00"/>
     <use xlink:href="#m4f744f308f" x="256.895296" y="246.754429" style="fill: #ff8c00; stroke: #ff8c00"/>
     <use xlink:href="#m4f744f308f" x="264.144933" y="240.698949" style="fill: #ff8c00; stroke: #ff8c00"/>
     <use xlink:href="#m4f744f308f" x="271.39457" y="234.643469" style="fill: #ff8c00; stroke: #ff8c00"/>
     <use xlink:href="#m4f744f308f" x="278.644207" y="182.70207" style="fill: #ff8c00; stroke: #ff8c00"/>
     <use xlink:href="#m4f744f308f" x="289.000832" y="241.273175" style="fill: #ff8c00; stroke: #ff8c00"/>
     <use xlink:href="#m4f744f308f" x="296.250469" y="243.465677" style="fill: #ff8c00; stroke: #ff8c00"/>
     <use xlink:href="#m4f744f308f" x="300.393119" y="252.705503" style="fill: #ff8c00; stroke: #ff8c00"/>
     <use xlink:href="#m4f744f308f" x="302.464444" y="188.183323" style="fill: #ff8c00; stroke: #ff8c00"/>
     <use xlink:href="#m4f744f308f" x="308.678418" y="242.108414" style="fill: #ff8c00; stroke: #ff8c00"/>
     <use xlink:href="#m4f744f308f" x="310.749743" y="244.666332" style="fill: #ff8c00; stroke: #ff8c00"/>
     <use xlink:href="#m4f744f308f" x="314.892393" y="198.571603" style="fill: #ff8c00; stroke: #ff8c00"/>
     <use xlink:href="#m4f744f308f" x="317.99938" y="221.697271" style="fill: #ff8c00; stroke: #ff8c00"/>
     <use xlink:href="#m4f744f308f" x="322.14203" y="236.731566" style="fill: #ff8c00; stroke: #ff8c00"/>
     <use xlink:href="#m4f744f308f" x="325.249018" y="224.986023" style="fill: #ff8c00; stroke: #ff8c00"/>
     <use xlink:href="#m4f744f308f" x="329.391667" y="252.183479" style="fill: #ff8c00; stroke: #ff8c00"/>
     <use xlink:href="#m4f744f308f" x="336.641305" y="249.573359" style="fill: #ff8c00; stroke: #ff8c00"/>
     <use xlink:href="#m4f744f308f" x="344.926604" y="205.514524" style="fill: #ff8c00; stroke: #ff8c00"/>
     <use xlink:href="#m4f744f308f" x="351.140579" y="234.121445" style="fill: #ff8c00; stroke: #ff8c00"/>
     <use xlink:href="#m4f744f308f" x="358.390216" y="263.354795" style="fill: #ff8c00; stroke: #ff8c00"/>
     <use xlink:href="#m4f744f308f" x="365.639853" y="273.586468" style="fill: #ff8c00; stroke: #ff8c00"/>
     <use xlink:href="#m4f744f308f" x="372.88949" y="276.87522" style="fill: #ff8c00; stroke: #ff8c00"/>
     <use xlink:href="#m4f744f308f" x="380.139127" y="295.198266" style="fill: #ff8c00; stroke: #ff8c00"/>
     <use xlink:href="#m4f744f308f" x="387.388765" y="268.731644" style="fill: #ff8c00; stroke: #ff8c00"/>
     <use xlink:href="#m4f744f308f" x="394.638402" y="259.33521" style="fill: #ff8c00; stroke: #ff8c00"/>
     <use xlink:href="#m4f744f308f" x="402.923701" y="257.038304" style="fill: #ff8c00; stroke: #ff8c00"/>
     <use xlink:href="#m4f744f308f" x="410.173338" y="260.692472" style="fill: #ff8c00; stroke: #ff8c00"/>
     <use xlink:href="#m4f744f308f" x="417.422976" y="248.007286" style="fill: #ff8c00; stroke: #ff8c00"/>
     <use xlink:href="#m4f744f308f" x="424.672613" y="237.932221" style="fill: #ff8c00; stroke: #ff8c00"/>
     <use xlink:href="#m4f744f308f" x="431.92225" y="253.906159" style="fill: #ff8c00; stroke: #ff8c00"/>
     <use xlink:href="#m4f744f308f" x="439.171887" y="265.025273" style="fill: #ff8c00; stroke: #ff8c00"/>
     <use xlink:href="#m4f744f308f" x="460.920799" y="249.938776" style="fill: #ff8c00; stroke: #ff8c00"/>
     <use xlink:href="#m4f744f308f" x="468.170436" y="237.514602" style="fill: #ff8c00; stroke: #ff8c00"/>
    </g>
   </g>
   <g id="patch_3">
    <path d="M 135 315 
L 135 43.2 
" style="fill: none; stroke: #000000; stroke-width: 0.8; stroke-linejoin: miter; stroke-linecap: square"/>
   </g>
   <g id="patch_4">
    <path d="M 515.454545 315 
L 515.454545 43.2 
" style="fill: none; stroke: #000000; stroke-width: 0.8; stroke-linejoin: miter; stroke-linecap: square"/>
   </g>
   <g id="patch_5">
    <path d="M 135 315 
L 515.454545 315 
" style="fill: none; stroke: #000000; stroke-width: 0.8; stroke-linejoin: miter; stroke-linecap: square"/>
   </g>
   <g id="patch_6">
    <path d="M 135 43.2 
L 515.454545 43.2 
" style="fill: none; stroke: #000000; stroke-width: 0.8; stroke-linejoin: miter; stroke-linecap: square"/>
   </g>
   <g id="text_14">
    <!-- Soil water content (10cm) -->
    <g transform="translate(221.146023 37.2)scale(0.16 -0.16)">
     <defs>
      <path id="DejaVuSans-69" d="M 603 3500 
L 1178 3500 
L 1178 0 
L 603 0 
L 603 3500 
z
M 603 4863 
L 1178 4863 
L 1178 4134 
L 603 4134 
L 603 4863 
z
" transform="scale(0.015625)"/>
      <path id="DejaVuSans-20" transform="scale(0.015625)"/>
      <path id="DejaVuSans-77" d="M 269 3500 
L 844 3500 
L 1563 769 
L 2278 3500 
L 2956 3500 
L 3675 769 
L 4391 3500 
L 4966 3500 
L 4050 0 
L 3372 0 
L 2619 2869 
L 1863 0 
L 1184 0 
L 269 3500 
z
" transform="scale(0.015625)"/>
      <path id="DejaVuSans-74" d="M 1172 4494 
L 1172 3500 
L 2356 3500 
L 2356 3053 
L 1172 3053 
L 1172 1153 
Q 1172 725 1289 603 
Q 1406 481 1766 481 
L 2356 481 
L 2356 0 
L 1766 0 
Q 1100 0 847 248 
Q 594 497 594 1153 
L 594 3053 
L 172 3053 
L 172 3500 
L 594 3500 
L 594 4494 
L 1172 4494 
z
" transform="scale(0.015625)"/>
      <path id="DejaVuSans-63" d="M 3122 3366 
L 3122 2828 
Q 2878 2963 2633 3030 
Q 2388 3097 2138 3097 
Q 1578 3097 1268 2742 
Q 959 2388 959 1747 
Q 959 1106 1268 751 
Q 1578 397 2138 397 
Q 2388 397 2633 464 
Q 2878 531 3122 666 
L 3122 134 
Q 2881 22 2623 -34 
Q 2366 -91 2075 -91 
Q 1284 -91 818 406 
Q 353 903 353 1747 
Q 353 2603 823 3093 
Q 1294 3584 2113 3584 
Q 2378 3584 2631 3529 
Q 2884 3475 3122 3366 
z
" transform="scale(0.015625)"/>
      <path id="DejaVuSans-28" d="M 1984 4856 
Q 1566 4138 1362 3434 
Q 1159 2731 1159 2009 
Q 1159 1288 1364 580 
Q 1569 -128 1984 -844 
L 1484 -844 
Q 1016 -109 783 600 
Q 550 1309 550 2009 
Q 550 2706 781 3412 
Q 1013 4119 1484 4856 
L 1984 4856 
z
" transform="scale(0.015625)"/>
      <path id="DejaVuSans-29" d="M 513 4856 
L 1013 4856 
Q 1481 4119 1714 3412 
Q 1947 2706 1947 2009 
Q 1947 1309 1714 600 
Q 1481 -109 1013 -844 
L 513 -844 
Q 928 -128 1133 580 
Q 1338 1288 1338 2009 
Q 1338 2731 1133 3434 
Q 928 4138 513 4856 
z
" transform="scale(0.015625)"/>
     </defs>
     <use xlink:href="#DejaVuSans-53"/>
     <use xlink:href="#DejaVuSans-6f" x="63.476562"/>
     <use xlink:href="#DejaVuSans-69" x="124.658203"/>
     <use xlink:href="#DejaVuSans-6c" x="152.441406"/>
     <use xlink:href="#DejaVuSans-20" x="180.224609"/>
     <use xlink:href="#DejaVuSans-77" x="212.011719"/>
     <use xlink:href="#DejaVuSans-61" x="293.798828"/>
     <use xlink:href="#DejaVuSans-74" x="355.078125"/>
     <use xlink:href="#DejaVuSans-65" x="394.287109"/>
     <use xlink:href="#DejaVuSans-72" x="455.810547"/>
     <use xlink:href="#DejaVuSans-20" x="496.923828"/>
     <use xlink:href="#DejaVuSans-63" x="528.710938"/>
     <use xlink:href="#DejaVuSans-6f" x="583.691406"/>
     <use xlink:href="#DejaVuSans-6e" x="644.873047"/>
     <use xlink:href="#DejaVuSans-74" x="708.251953"/>
     <use xlink:href="#DejaVuSans-65" x="747.460938"/>
     <use xlink:href="#DejaVuSans-6e" x="808.984375"/>
     <use xlink:href="#DejaVuSans-74" x="872.363281"/>
     <use xlink:href="#DejaVuSans-20" x="911.572266"/>
     <use xlink:href="#DejaVuSans-28" x="943.359375"/>
     <use xlink:href="#DejaVuSans-31" x="982.373047"/>
     <use xlink:href="#DejaVuSans-30" x="1045.996094"/>
     <use xlink:href="#DejaVuSans-63" x="1109.619141"/>
     <use xlink:href="#DejaVuSans-6d" x="1164.599609"/>
     <use xlink:href="#DejaVuSans-29" x="1262.011719"/>
    </g>
   </g>
   <g id="legend_1">
    <g id="patch_7">
     <path d="M 388.054545 80.55625 
L 508.454545 80.55625 
Q 510.454545 80.55625 510.454545 78.55625 
L 510.454545 50.2 
Q 510.454545 48.2 508.454545 48.2 
L 388.054545 48.2 
Q 386.054545 48.2 386.054545 50.2 
L 386.054545 78.55625 
Q 386.054545 80.55625 388.054545 80.55625 
z
" style="fill: #ffffff; opacity: 0.8; stroke: #cccccc; stroke-linejoin: miter"/>
    </g>
    <g id="line2d_14">
     <path d="M 390.054545 56.298437 
L 400.054545 56.298437 
L 410.054545 56.298437 
" style="fill: none; stroke: #6495ed; stroke-width: 1.5; stroke-linecap: square"/>
    </g>
    <g id="text_15">
     <!-- $CLM5.0^*-FANv3$ -->
     <g transform="translate(418.054545 59.798437)scale(0.1 -0.1)">
      <defs>
       <path id="DejaVuSans-Oblique-43" d="M 4447 4306 
L 4319 3641 
Q 4019 3944 3683 4091 
Q 3347 4238 2956 4238 
Q 2422 4238 2017 3981 
Q 1613 3725 1319 3200 
Q 1131 2863 1032 2486 
Q 934 2109 934 1728 
Q 934 1091 1264 756 
Q 1594 422 2222 422 
Q 2656 422 3056 561 
Q 3456 700 3834 978 
L 3688 231 
Q 3316 72 2936 -9 
Q 2556 -91 2175 -91 
Q 1278 -91 773 396 
Q 269 884 269 1753 
Q 269 2309 461 2846 
Q 653 3384 1013 3828 
Q 1394 4300 1883 4525 
Q 2372 4750 3022 4750 
Q 3422 4750 3780 4639 
Q 4138 4528 4447 4306 
z
" transform="scale(0.015625)"/>
       <path id="DejaVuSans-Oblique-4c" d="M 1075 4666 
L 1709 4666 
L 909 525 
L 3181 525 
L 3078 0 
L 172 0 
L 1075 4666 
z
" transform="scale(0.015625)"/>
       <path id="DejaVuSans-Oblique-4d" d="M 1081 4666 
L 2028 4666 
L 2572 1522 
L 4378 4666 
L 5350 4666 
L 4441 0 
L 3828 0 
L 4622 4091 
L 2791 897 
L 2175 897 
L 1581 4103 
L 788 0 
L 172 0 
L 1081 4666 
z
" transform="scale(0.015625)"/>
       <path id="DejaVuSans-2e" d="M 684 794 
L 1344 794 
L 1344 0 
L 684 0 
L 684 794 
z
" transform="scale(0.015625)"/>
       <path id="DejaVuSans-2a" d="M 3009 3897 
L 1888 3291 
L 3009 2681 
L 2828 2375 
L 1778 3009 
L 1778 1831 
L 1422 1831 
L 1422 3009 
L 372 2375 
L 191 2681 
L 1313 3291 
L 191 3897 
L 372 4206 
L 1422 3572 
L 1422 4750 
L 1778 4750 
L 1778 3572 
L 2828 4206 
L 3009 3897 
z
" transform="scale(0.015625)"/>
       <path id="DejaVuSans-2212" d="M 678 2272 
L 4684 2272 
L 4684 1741 
L 678 1741 
L 678 2272 
z
" transform="scale(0.015625)"/>
       <path id="DejaVuSans-Oblique-46" d="M 1081 4666 
L 3756 4666 
L 3653 4134 
L 1606 4134 
L 1338 2759 
L 3188 2759 
L 3084 2228 
L 1234 2228 
L 800 0 
L 172 0 
L 1081 4666 
z
" transform="scale(0.015625)"/>
       <path id="DejaVuSans-Oblique-41" d="M 2356 4666 
L 3072 4666 
L 3938 0 
L 3278 0 
L 3084 1197 
L 984 1197 
L 325 0 
L -341 0 
L 2356 4666 
z
M 2584 4044 
L 1275 1722 
L 2988 1722 
L 2584 4044 
z
" transform="scale(0.015625)"/>
       <path id="DejaVuSans-Oblique-4e" d="M 1081 4666 
L 1931 4666 
L 3219 666 
L 4000 4666 
L 4616 4666 
L 3706 0 
L 2853 0 
L 1569 4025 
L 788 0 
L 172 0 
L 1081 4666 
z
" transform="scale(0.015625)"/>
       <path id="DejaVuSans-Oblique-76" d="M 459 3500 
L 1069 3500 
L 1581 525 
L 3256 3500 
L 3866 3500 
L 1875 0 
L 1100 0 
L 459 3500 
z
" transform="scale(0.015625)"/>
      </defs>
      <use xlink:href="#DejaVuSans-Oblique-43" transform="translate(0 0.765625)"/>
      <use xlink:href="#DejaVuSans-Oblique-4c" transform="translate(69.824219 0.765625)"/>
      <use xlink:href="#DejaVuSans-Oblique-4d" transform="translate(125.537109 0.765625)"/>
      <use xlink:href="#DejaVuSans-35" transform="translate(211.816406 0.765625)"/>
      <use xlink:href="#DejaVuSans-2e" transform="translate(275.439453 0.765625)"/>
      <use xlink:href="#DejaVuSans-30" transform="translate(307.226562 0.765625)"/>
      <use xlink:href="#DejaVuSans-2a" transform="translate(385.444336 39.046875)scale(0.7)"/>
      <use xlink:href="#DejaVuSans-2212" transform="translate(456.298828 0.765625)"/>
      <use xlink:href="#DejaVuSans-Oblique-46" transform="translate(559.570312 0.765625)"/>
      <use xlink:href="#DejaVuSans-Oblique-41" transform="translate(617.089844 0.765625)"/>
      <use xlink:href="#DejaVuSans-Oblique-4e" transform="translate(685.498047 0.765625)"/>
      <use xlink:href="#DejaVuSans-Oblique-76" transform="translate(760.302734 0.765625)"/>
      <use xlink:href="#DejaVuSans-33" transform="translate(819.482422 0.765625)"/>
     </g>
    </g>
    <g id="PathCollection_2">
     <g>
      <use xlink:href="#m4f744f308f" x="400.054545" y="71.851562" style="fill: #ff8c00; stroke: #ff8c00"/>
     </g>
    </g>
    <g id="text_16">
     <!-- MESOCOSM -->
     <g transform="translate(418.054545 74.476562)scale(0.1 -0.1)">
      <defs>
       <path id="DejaVuSans-45" d="M 628 4666 
L 3578 4666 
L 3578 4134 
L 1259 4134 
L 1259 2753 
L 3481 2753 
L 3481 2222 
L 1259 2222 
L 1259 531 
L 3634 531 
L 3634 0 
L 628 0 
L 628 4666 
z
" transform="scale(0.015625)"/>
       <path id="DejaVuSans-4f" d="M 2522 4238 
Q 1834 4238 1429 3725 
Q 1025 3213 1025 2328 
Q 1025 1447 1429 934 
Q 1834 422 2522 422 
Q 3209 422 3611 934 
Q 4013 1447 4013 2328 
Q 4013 3213 3611 3725 
Q 3209 4238 2522 4238 
z
M 2522 4750 
Q 3503 4750 4090 4092 
Q 4678 3434 4678 2328 
Q 4678 1225 4090 567 
Q 3503 -91 2522 -91 
Q 1538 -91 948 565 
Q 359 1222 359 2328 
Q 359 3434 948 4092 
Q 1538 4750 2522 4750 
z
" transform="scale(0.015625)"/>
       <path id="DejaVuSans-43" d="M 4122 4306 
L 4122 3641 
Q 3803 3938 3442 4084 
Q 3081 4231 2675 4231 
Q 1875 4231 1450 3742 
Q 1025 3253 1025 2328 
Q 1025 1406 1450 917 
Q 1875 428 2675 428 
Q 3081 428 3442 575 
Q 3803 722 4122 1019 
L 4122 359 
Q 3791 134 3420 21 
Q 3050 -91 2638 -91 
Q 1578 -91 968 557 
Q 359 1206 359 2328 
Q 359 3453 968 4101 
Q 1578 4750 2638 4750 
Q 3056 4750 3426 4639 
Q 3797 4528 4122 4306 
z
" transform="scale(0.015625)"/>
      </defs>
      <use xlink:href="#DejaVuSans-4d"/>
      <use xlink:href="#DejaVuSans-45" x="86.279297"/>
      <use xlink:href="#DejaVuSans-53" x="149.462891"/>
      <use xlink:href="#DejaVuSans-4f" x="212.939453"/>
      <use xlink:href="#DejaVuSans-43" x="291.650391"/>
      <use xlink:href="#DejaVuSans-4f" x="361.474609"/>
      <use xlink:href="#DejaVuSans-53" x="440.185547"/>
      <use xlink:href="#DejaVuSans-4d" x="503.662109"/>
     </g>
    </g>
   </g>
  </g>
  <g id="axes_2">
   <g id="patch_8">
    <path d="M 591.545455 315 
L 972 315 
L 972 43.2 
L 591.545455 43.2 
z
" style="fill: #ffffff"/>
   </g>
   <g id="matplotlib.axis_3">
    <g id="xtick_7">
     <g id="line2d_15">
      <g>
       <use xlink:href="#maadd652f60" x="608.838843" y="315" style="stroke: #000000; stroke-width: 0.8"/>
      </g>
     </g>
     <g id="text_17">
      <!-- Jan -->
      <g transform="translate(595.735562 334.917344)scale(0.17 -0.17)">
       <use xlink:href="#DejaVuSans-4a"/>
       <use xlink:href="#DejaVuSans-61" x="29.492188"/>
       <use xlink:href="#DejaVuSans-6e" x="90.771484"/>
      </g>
     </g>
    </g>
    <g id="xtick_8">
     <g id="line2d_16">
      <g>
       <use xlink:href="#maadd652f60" x="669.935245" y="315" style="stroke: #000000; stroke-width: 0.8"/>
      </g>
     </g>
     <g id="text_18">
      <!-- Mar -->
      <g transform="translate(653.898136 334.917344)scale(0.17 -0.17)">
       <use xlink:href="#DejaVuSans-4d"/>
       <use xlink:href="#DejaVuSans-61" x="86.279297"/>
       <use xlink:href="#DejaVuSans-72" x="147.558594"/>
      </g>
     </g>
    </g>
    <g id="xtick_9">
     <g id="line2d_17">
      <g>
       <use xlink:href="#maadd652f60" x="733.102712" y="315" style="stroke: #000000; stroke-width: 0.8"/>
      </g>
     </g>
     <g id="text_19">
      <!-- May -->
      <g transform="translate(715.528962 334.917344)scale(0.17 -0.17)">
       <use xlink:href="#DejaVuSans-4d"/>
       <use xlink:href="#DejaVuSans-61" x="86.279297"/>
       <use xlink:href="#DejaVuSans-79" x="147.558594"/>
      </g>
     </g>
    </g>
    <g id="xtick_10">
     <g id="line2d_18">
      <g>
       <use xlink:href="#maadd652f60" x="796.270179" y="315" style="stroke: #000000; stroke-width: 0.8"/>
      </g>
     </g>
     <g id="text_20">
      <!-- Jul -->
      <g transform="translate(786.014397 334.917344)scale(0.17 -0.17)">
       <use xlink:href="#DejaVuSans-4a"/>
       <use xlink:href="#DejaVuSans-75" x="29.492188"/>
       <use xlink:href="#DejaVuSans-6c" x="92.871094"/>
      </g>
     </g>
    </g>
    <g id="xtick_11">
     <g id="line2d_19">
      <g>
       <use xlink:href="#maadd652f60" x="860.473178" y="315" style="stroke: #000000; stroke-width: 0.8"/>
      </g>
     </g>
     <g id="text_21">
      <!-- Sep -->
      <g transform="translate(844.450678 334.917344)scale(0.17 -0.17)">
       <use xlink:href="#DejaVuSans-53"/>
       <use xlink:href="#DejaVuSans-65" x="63.476562"/>
       <use xlink:href="#DejaVuSans-70" x="125"/>
      </g>
     </g>
    </g>
    <g id="xtick_12">
     <g id="line2d_20">
      <g>
       <use xlink:href="#maadd652f60" x="923.640644" y="315" style="stroke: #000000; stroke-width: 0.8"/>
      </g>
     </g>
     <g id="text_22">
      <!-- Nov -->
      <g transform="translate(907.049707 334.917344)scale(0.17 -0.17)">
       <use xlink:href="#DejaVuSans-4e"/>
       <use xlink:href="#DejaVuSans-6f" x="74.804688"/>
       <use xlink:href="#DejaVuSans-76" x="135.986328"/>
      </g>
     </g>
    </g>
   </g>
   <g id="matplotlib.axis_4">
    <g id="ytick_7">
     <g id="line2d_21">
      <g>
       <use xlink:href="#m617dab2ee4" x="591.545455" y="302.294935" style="stroke: #000000; stroke-width: 0.8"/>
      </g>
     </g>
     <g id="text_23">
      <!-- 0 -->
      <g transform="translate(573.729205 308.753607)scale(0.17 -0.17)">
       <use xlink:href="#DejaVuSans-30"/>
      </g>
     </g>
    </g>
    <g id="ytick_8">
     <g id="line2d_22">
      <g>
       <use xlink:href="#m617dab2ee4" x="591.545455" y="226.698141" style="stroke: #000000; stroke-width: 0.8"/>
      </g>
     </g>
     <g id="text_24">
      <!-- 200 -->
      <g transform="translate(552.096705 233.156812)scale(0.17 -0.17)">
       <use xlink:href="#DejaVuSans-32"/>
       <use xlink:href="#DejaVuSans-30" x="63.623047"/>
       <use xlink:href="#DejaVuSans-30" x="127.246094"/>
      </g>
     </g>
    </g>
    <g id="ytick_9">
     <g id="line2d_23">
      <g>
       <use xlink:href="#m617dab2ee4" x="591.545455" y="151.101346" style="stroke: #000000; stroke-width: 0.8"/>
      </g>
     </g>
     <g id="text_25">
      <!-- 400 -->
      <g transform="translate(552.096705 157.560018)scale(0.17 -0.17)">
       <use xlink:href="#DejaVuSans-34"/>
       <use xlink:href="#DejaVuSans-30" x="63.623047"/>
       <use xlink:href="#DejaVuSans-30" x="127.246094"/>
      </g>
     </g>
    </g>
    <g id="ytick_10">
     <g id="line2d_24">
      <g>
       <use xlink:href="#m617dab2ee4" x="591.545455" y="75.504551" style="stroke: #000000; stroke-width: 0.8"/>
      </g>
     </g>
     <g id="text_26">
      <!-- 600 -->
      <g transform="translate(552.096705 81.963223)scale(0.17 -0.17)">
       <defs>
        <path id="DejaVuSans-36" d="M 2113 2584 
Q 1688 2584 1439 2293 
Q 1191 2003 1191 1497 
Q 1191 994 1439 701 
Q 1688 409 2113 409 
Q 2538 409 2786 701 
Q 3034 994 3034 1497 
Q 3034 2003 2786 2293 
Q 2538 2584 2113 2584 
z
M 3366 4563 
L 3366 3988 
Q 3128 4100 2886 4159 
Q 2644 4219 2406 4219 
Q 1781 4219 1451 3797 
Q 1122 3375 1075 2522 
Q 1259 2794 1537 2939 
Q 1816 3084 2150 3084 
Q 2853 3084 3261 2657 
Q 3669 2231 3669 1497 
Q 3669 778 3244 343 
Q 2819 -91 2113 -91 
Q 1303 -91 875 529 
Q 447 1150 447 2328 
Q 447 3434 972 4092 
Q 1497 4750 2381 4750 
Q 2619 4750 2861 4703 
Q 3103 4656 3366 4563 
z
" transform="scale(0.015625)"/>
       </defs>
       <use xlink:href="#DejaVuSans-36"/>
       <use xlink:href="#DejaVuSans-30" x="63.623047"/>
       <use xlink:href="#DejaVuSans-30" x="127.246094"/>
      </g>
     </g>
    </g>
    <g id="text_27">
     <!-- mesocosm, mm -->
     <g transform="translate(544.561236 246.782578)rotate(-90)scale(0.17 -0.17)">
      <defs>
       <path id="DejaVuSans-73" d="M 2834 3397 
L 2834 2853 
Q 2591 2978 2328 3040 
Q 2066 3103 1784 3103 
Q 1356 3103 1142 2972 
Q 928 2841 928 2578 
Q 928 2378 1081 2264 
Q 1234 2150 1697 2047 
L 1894 2003 
Q 2506 1872 2764 1633 
Q 3022 1394 3022 966 
Q 3022 478 2636 193 
Q 2250 -91 1575 -91 
Q 1294 -91 989 -36 
Q 684 19 347 128 
L 347 722 
Q 666 556 975 473 
Q 1284 391 1588 391 
Q 1994 391 2212 530 
Q 2431 669 2431 922 
Q 2431 1156 2273 1281 
Q 2116 1406 1581 1522 
L 1381 1569 
Q 847 1681 609 1914 
Q 372 2147 372 2553 
Q 372 3047 722 3315 
Q 1072 3584 1716 3584 
Q 2034 3584 2315 3537 
Q 2597 3491 2834 3397 
z
" transform="scale(0.015625)"/>
       <path id="DejaVuSans-2c" d="M 750 794 
L 1409 794 
L 1409 256 
L 897 -744 
L 494 -744 
L 750 256 
L 750 794 
z
" transform="scale(0.015625)"/>
      </defs>
      <use xlink:href="#DejaVuSans-6d"/>
      <use xlink:href="#DejaVuSans-65" x="97.412109"/>
      <use xlink:href="#DejaVuSans-73" x="158.935547"/>
      <use xlink:href="#DejaVuSans-6f" x="211.035156"/>
      <use xlink:href="#DejaVuSans-63" x="272.216797"/>
      <use xlink:href="#DejaVuSans-6f" x="327.197266"/>
      <use xlink:href="#DejaVuSans-73" x="388.378906"/>
      <use xlink:href="#DejaVuSans-6d" x="440.478516"/>
      <use xlink:href="#DejaVuSans-2c" x="537.890625"/>
      <use xlink:href="#DejaVuSans-20" x="569.677734"/>
      <use xlink:href="#DejaVuSans-6d" x="601.464844"/>
      <use xlink:href="#DejaVuSans-6d" x="698.876953"/>
     </g>
    </g>
   </g>
   <g id="line2d_25">
    <path d="M 680.290568 299.653247 
L 685.468229 299.371859 
L 687.539293 299.13247 
L 688.574826 299.13247 
L 690.64589 297.918721 
L 693.752487 297.754928 
L 697.894616 297.418942 
L 701.001212 297.141754 
L 707.214406 278.255155 
L 714.463132 273.601752 
L 716.534196 271.480842 
L 721.711857 269.653919 
L 723.782922 266.029473 
L 726.889518 246.391106 
L 734.138244 242.892654 
L 738.280373 232.796282 
L 744.493567 225.870776 
L 752.777825 222.956099 
L 758.991018 217.492131 
L 767.275276 210.087845 
L 773.488469 205.993018 
L 779.701663 187.580999 
L 784.879324 176.854654 
L 806.625501 174.317961 
L 815.945291 173.687988 
L 860.473178 173.17141 
" clip-path="url(#pecb6d9cee8)" style="fill: none; stroke: #ff0000; stroke-width: 1.5; stroke-linecap: square"/>
   </g>
   <g id="line2d_26">
    <path d="M 608.838843 302.294935 
L 621.26523 302.198928 
L 622.300762 298.070587 
L 623.336294 292.886158 
L 624.371827 292.886158 
L 625.407359 292.502126 
L 626.442891 291.638055 
L 650.260133 291.638055 
L 651.295665 290.677976 
L 673.041842 290.677976 
L 674.077374 282.709317 
L 675.112906 282.037262 
L 676.148439 280.789158 
L 685.468229 280.789158 
L 686.503761 280.213111 
L 687.539293 269.652239 
L 689.610358 269.556232 
L 690.64589 269.556232 
L 691.681422 262.163622 
L 692.716955 261.875598 
L 694.788019 261.779591 
L 698.930148 261.779591 
L 699.96568 259.859431 
L 701.001212 259.379393 
L 702.036745 259.379393 
L 703.072277 253.618915 
L 705.143341 253.522908 
L 707.214406 253.426901 
L 708.249938 252.466824 
L 710.321003 252.370817 
L 713.427599 252.370817 
L 714.463132 246.322318 
L 717.569728 246.322318 
L 718.605261 245.362241 
L 719.640793 244.594179 
L 720.676325 244.594179 
L 721.711857 240.081805 
L 722.74739 239.889791 
L 723.782922 226.352674 
L 724.818454 223.568445 
L 725.853986 222.416349 
L 729.996115 222.416349 
L 731.031647 219.728127 
L 732.06718 217.71196 
L 733.102712 217.423939 
L 734.138244 216.079828 
L 735.173776 209.455281 
L 739.315905 209.455281 
L 740.351438 203.694803 
L 741.38697 203.598796 
L 742.422502 202.830727 
L 746.564631 202.830727 
L 747.600163 202.638713 
L 749.671228 202.542706 
L 750.70676 197.646298 
L 751.742292 197.646298 
L 752.777825 197.454284 
L 755.884421 197.454284 
L 756.919953 196.782222 
L 757.955486 189.389618 
L 758.991018 185.5493 
L 760.02655 185.5493 
L 761.062082 185.165271 
L 762.097615 184.973257 
L 763.133147 184.973257 
L 764.168679 184.301207 
L 768.310808 184.301207 
L 769.34634 182.189028 
L 770.381873 151.754512 
L 773.488469 151.754512 
L 774.524002 149.738352 
L 775.559534 147.242144 
L 776.595066 146.282061 
L 778.666131 146.282061 
L 779.701663 141.769693 
L 780.737195 141.193651 
L 782.80826 140.713615 
L 784.879324 140.425594 
L 787.985921 140.425594 
L 789.021453 138.50544 
L 790.056985 138.313426 
L 798.341243 138.217419 
L 799.376775 136.873308 
L 800.412308 136.10524 
L 801.44784 133.801046 
L 802.483372 133.801046 
L 803.518904 127.84856 
L 805.589969 127.752553 
L 806.625501 126.696463 
L 808.696566 126.600456 
L 809.732098 126.600456 
L 810.76763 125.064331 
L 819.051888 124.968324 
L 820.08742 122.760138 
L 823.194017 122.760138 
L 824.229549 120.359937 
L 833.549339 120.359937 
L 835.620404 120.071916 
L 841.833597 120.071916 
L 842.86913 118.151762 
L 843.904662 116.999666 
L 845.975726 116.999666 
L 847.011258 113.447368 
L 848.046791 111.047168 
L 855.295516 111.047168 
L 856.331049 79.65257 
L 857.366581 79.364537 
L 868.757436 79.364537 
L 869.792968 76.964348 
L 870.8285 76.580319 
L 873.935097 76.388282 
L 876.006161 76.388282 
L 877.041693 73.892074 
L 879.112758 73.796056 
L 882.219355 73.796056 
L 883.254887 71.491862 
L 894.645742 71.491862 
L 895.681274 71.203829 
L 901.894467 71.203829 
L 902.93 70.243758 
L 914.320854 70.243758 
L 915.356386 68.035584 
L 916.391919 67.459541 
L 925.711709 67.459541 
L 926.747241 61.507055 
L 927.782773 57.858762 
L 937.102563 57.858762 
L 938.138096 55.938597 
L 940.20916 55.842578 
L 951.600015 55.74656 
L 952.635547 55.554545 
L 954.706612 55.554545 
L 954.706612 55.554545 
" clip-path="url(#pecb6d9cee8)" style="fill: none; stroke: #800080; stroke-width: 1.5; stroke-linecap: square"/>
   </g>
   <g id="line2d_27">
    <path d="M 608.838843 302.28811 
L 613.369297 301.682257 
L 617.856771 301.317919 
L 622.473182 301.1488 
L 630.239674 301.140061 
L 642.580104 301.355917 
L 662.514099 301.985437 
L 696.772621 302.63525 
L 702.899857 302.583683 
L 707.084964 302.335351 
L 709.716774 301.982546 
L 710.838769 301.618478 
L 711.701881 301.098874 
L 712.47853 300.370846 
L 713.255179 299.326046 
L 714.031828 297.887321 
L 714.937919 295.672766 
L 717.656191 288.748464 
L 718.993585 285.933795 
L 720.330979 283.617855 
L 721.884277 281.395887 
L 723.65348 279.293334 
L 725.767523 276.799623 
L 726.414731 275.540299 
L 727.19138 273.512825 
L 729.650769 266.82281 
L 730.945185 264.165361 
L 732.326063 261.867336 
L 733.965824 259.59288 
L 738.237395 253.758421 
L 741.041624 249.370016 
L 743.199151 246.571933 
L 747.16886 241.624009 
L 748.894579 239.896469 
L 750.70676 238.386852 
L 752.734846 236.982453 
L 757.43772 234.089499 
L 762.011152 231.314815 
L 764.082216 229.48354 
L 766.671047 227.322642 
L 768.871553 225.809293 
L 771.115543 224.5598 
L 771.805729 224.083859 
L 772.237033 223.462472 
L 772.71182 222.345448 
L 773.66089 219.336416 
L 774.912326 215.658772 
L 775.947858 213.298806 
L 777.156316 211.079454 
L 778.709615 208.66112 
L 780.262913 206.552361 
L 781.643286 204.989889 
L 783.628393 203.108125 
L 785.311133 201.77293 
L 786.950388 200.711004 
L 788.848527 199.751371 
L 790.919592 198.975182 
L 793.336508 198.327126 
L 796.05478 197.824897 
L 799.20385 197.461159 
L 803.13058 197.241887 
L 808.74005 197.17744 
L 818.05984 197.311075 
L 826.473539 197.659044 
L 836.958303 198.336112 
L 855.856767 199.884499 
L 867.807861 200.757191 
L 877.861827 201.267518 
L 888.432548 201.578702 
L 902.067393 201.749722 
L 935.505781 201.847505 
L 943.877007 201.683821 
L 954.663127 201.310694 
L 954.663127 201.310694 
" clip-path="url(#pecb6d9cee8)" style="fill: none; stroke: #008000; stroke-width: 1.5; stroke-linecap: square"/>
   </g>
   <g id="patch_9">
    <path d="M 591.545455 315 
L 591.545455 43.2 
" style="fill: none; stroke: #000000; stroke-width: 0.8; stroke-linejoin: miter; stroke-linecap: square"/>
   </g>
   <g id="patch_10">
    <path d="M 972 315 
L 972 43.2 
" style="fill: none; stroke: #000000; stroke-width: 0.8; stroke-linejoin: miter; stroke-linecap: square"/>
   </g>
   <g id="patch_11">
    <path d="M 591.545455 315 
L 972 315 
" style="fill: none; stroke: #000000; stroke-width: 0.8; stroke-linejoin: miter; stroke-linecap: square"/>
   </g>
   <g id="patch_12">
    <path d="M 591.545455 43.2 
L 972 43.2 
" style="fill: none; stroke: #000000; stroke-width: 0.8; stroke-linejoin: miter; stroke-linecap: square"/>
   </g>
   <g id="text_28">
    <!-- Cumulative runoff and precipitation -->
    <g transform="translate(639.082727 37.2)scale(0.16 -0.16)">
     <defs>
      <path id="DejaVuSans-66" d="M 2375 4863 
L 2375 4384 
L 1825 4384 
Q 1516 4384 1395 4259 
Q 1275 4134 1275 3809 
L 1275 3500 
L 2222 3500 
L 2222 3053 
L 1275 3053 
L 1275 0 
L 697 0 
L 697 3053 
L 147 3053 
L 147 3500 
L 697 3500 
L 697 3744 
Q 697 4328 969 4595 
Q 1241 4863 1831 4863 
L 2375 4863 
z
" transform="scale(0.015625)"/>
      <path id="DejaVuSans-64" d="M 2906 2969 
L 2906 4863 
L 3481 4863 
L 3481 0 
L 2906 0 
L 2906 525 
Q 2725 213 2448 61 
Q 2172 -91 1784 -91 
Q 1150 -91 751 415 
Q 353 922 353 1747 
Q 353 2572 751 3078 
Q 1150 3584 1784 3584 
Q 2172 3584 2448 3432 
Q 2725 3281 2906 2969 
z
M 947 1747 
Q 947 1113 1208 752 
Q 1469 391 1925 391 
Q 2381 391 2643 752 
Q 2906 1113 2906 1747 
Q 2906 2381 2643 2742 
Q 2381 3103 1925 3103 
Q 1469 3103 1208 2742 
Q 947 2381 947 1747 
z
" transform="scale(0.015625)"/>
     </defs>
     <use xlink:href="#DejaVuSans-43"/>
     <use xlink:href="#DejaVuSans-75" x="69.824219"/>
     <use xlink:href="#DejaVuSans-6d" x="133.203125"/>
     <use xlink:href="#DejaVuSans-75" x="230.615234"/>
     <use xlink:href="#DejaVuSans-6c" x="293.994141"/>
     <use xlink:href="#DejaVuSans-61" x="321.777344"/>
     <use xlink:href="#DejaVuSans-74" x="383.056641"/>
     <use xlink:href="#DejaVuSans-69" x="422.265625"/>
     <use xlink:href="#DejaVuSans-76" x="450.048828"/>
     <use xlink:href="#DejaVuSans-65" x="509.228516"/>
     <use xlink:href="#DejaVuSans-20" x="570.751953"/>
     <use xlink:href="#DejaVuSans-72" x="602.539062"/>
     <use xlink:href="#DejaVuSans-75" x="643.652344"/>
     <use xlink:href="#DejaVuSans-6e" x="707.03125"/>
     <use xlink:href="#DejaVuSans-6f" x="770.410156"/>
     <use xlink:href="#DejaVuSans-66" x="831.591797"/>
     <use xlink:href="#DejaVuSans-66" x="866.796875"/>
     <use xlink:href="#DejaVuSans-20" x="902.001953"/>
     <use xlink:href="#DejaVuSans-61" x="933.789062"/>
     <use xlink:href="#DejaVuSans-6e" x="995.068359"/>
     <use xlink:href="#DejaVuSans-64" x="1058.447266"/>
     <use xlink:href="#DejaVuSans-20" x="1121.923828"/>
     <use xlink:href="#DejaVuSans-70" x="1153.710938"/>
     <use xlink:href="#DejaVuSans-72" x="1217.1875"/>
     <use xlink:href="#DejaVuSans-65" x="1256.050781"/>
     <use xlink:href="#DejaVuSans-63" x="1317.574219"/>
     <use xlink:href="#DejaVuSans-69" x="1372.554688"/>
     <use xlink:href="#DejaVuSans-70" x="1400.337891"/>
     <use xlink:href="#DejaVuSans-69" x="1463.814453"/>
     <use xlink:href="#DejaVuSans-74" x="1491.597656"/>
     <use xlink:href="#DejaVuSans-61" x="1530.806641"/>
     <use xlink:href="#DejaVuSans-74" x="1592.085938"/>
     <use xlink:href="#DejaVuSans-69" x="1631.294922"/>
     <use xlink:href="#DejaVuSans-6f" x="1659.078125"/>
     <use xlink:href="#DejaVuSans-6e" x="1720.259766"/>
    </g>
   </g>
   <g id="legend_2">
    <g id="patch_13">
     <path d="M 598.545455 95.234375 
L 745.29858 95.234375 
Q 747.29858 95.234375 747.29858 93.234375 
L 747.29858 50.2 
Q 747.29858 48.2 745.29858 48.2 
L 598.545455 48.2 
Q 596.545455 48.2 596.545455 50.2 
L 596.545455 93.234375 
Q 596.545455 95.234375 598.545455 95.234375 
z
" style="fill: #ffffff; opacity: 0.8; stroke: #cccccc; stroke-linejoin: miter"/>
    </g>
    <g id="line2d_28">
     <path d="M 600.545455 56.298437 
L 610.545455 56.298437 
L 620.545455 56.298437 
" style="fill: none; stroke: #ff0000; stroke-width: 1.5; stroke-linecap: square"/>
    </g>
    <g id="text_29">
     <!-- MESOCOSM drainage -->
     <g transform="translate(628.545455 59.798437)scale(0.1 -0.1)">
      <defs>
       <path id="DejaVuSans-67" d="M 2906 1791 
Q 2906 2416 2648 2759 
Q 2391 3103 1925 3103 
Q 1463 3103 1205 2759 
Q 947 2416 947 1791 
Q 947 1169 1205 825 
Q 1463 481 1925 481 
Q 2391 481 2648 825 
Q 2906 1169 2906 1791 
z
M 3481 434 
Q 3481 -459 3084 -895 
Q 2688 -1331 1869 -1331 
Q 1566 -1331 1297 -1286 
Q 1028 -1241 775 -1147 
L 775 -588 
Q 1028 -725 1275 -790 
Q 1522 -856 1778 -856 
Q 2344 -856 2625 -561 
Q 2906 -266 2906 331 
L 2906 616 
Q 2728 306 2450 153 
Q 2172 0 1784 0 
Q 1141 0 747 490 
Q 353 981 353 1791 
Q 353 2603 747 3093 
Q 1141 3584 1784 3584 
Q 2172 3584 2450 3431 
Q 2728 3278 2906 2969 
L 2906 3500 
L 3481 3500 
L 3481 434 
z
" transform="scale(0.015625)"/>
      </defs>
      <use xlink:href="#DejaVuSans-4d"/>
      <use xlink:href="#DejaVuSans-45" x="86.279297"/>
      <use xlink:href="#DejaVuSans-53" x="149.462891"/>
      <use xlink:href="#DejaVuSans-4f" x="212.939453"/>
      <use xlink:href="#DejaVuSans-43" x="291.650391"/>
      <use xlink:href="#DejaVuSans-4f" x="361.474609"/>
      <use xlink:href="#DejaVuSans-53" x="440.185547"/>
      <use xlink:href="#DejaVuSans-4d" x="503.662109"/>
      <use xlink:href="#DejaVuSans-20" x="589.941406"/>
      <use xlink:href="#DejaVuSans-64" x="621.728516"/>
      <use xlink:href="#DejaVuSans-72" x="685.205078"/>
      <use xlink:href="#DejaVuSans-61" x="726.318359"/>
      <use xlink:href="#DejaVuSans-69" x="787.597656"/>
      <use xlink:href="#DejaVuSans-6e" x="815.380859"/>
      <use xlink:href="#DejaVuSans-61" x="878.759766"/>
      <use xlink:href="#DejaVuSans-67" x="940.039062"/>
      <use xlink:href="#DejaVuSans-65" x="1003.515625"/>
     </g>
    </g>
    <g id="line2d_29">
     <path d="M 600.545455 70.976562 
L 610.545455 70.976562 
L 620.545455 70.976562 
" style="fill: none; stroke: #800080; stroke-width: 1.5; stroke-linecap: square"/>
    </g>
    <g id="text_30">
     <!-- MESONET Precipitation -->
     <g transform="translate(628.545455 74.476562)scale(0.1 -0.1)">
      <defs>
       <path id="DejaVuSans-54" d="M -19 4666 
L 3928 4666 
L 3928 4134 
L 2272 4134 
L 2272 0 
L 1638 0 
L 1638 4134 
L -19 4134 
L -19 4666 
z
" transform="scale(0.015625)"/>
       <path id="DejaVuSans-50" d="M 1259 4147 
L 1259 2394 
L 2053 2394 
Q 2494 2394 2734 2622 
Q 2975 2850 2975 3272 
Q 2975 3691 2734 3919 
Q 2494 4147 2053 4147 
L 1259 4147 
z
M 628 4666 
L 2053 4666 
Q 2838 4666 3239 4311 
Q 3641 3956 3641 3272 
Q 3641 2581 3239 2228 
Q 2838 1875 2053 1875 
L 1259 1875 
L 1259 0 
L 628 0 
L 628 4666 
z
" transform="scale(0.015625)"/>
      </defs>
      <use xlink:href="#DejaVuSans-4d"/>
      <use xlink:href="#DejaVuSans-45" x="86.279297"/>
      <use xlink:href="#DejaVuSans-53" x="149.462891"/>
      <use xlink:href="#DejaVuSans-4f" x="212.939453"/>
      <use xlink:href="#DejaVuSans-4e" x="291.650391"/>
      <use xlink:href="#DejaVuSans-45" x="366.455078"/>
      <use xlink:href="#DejaVuSans-54" x="429.638672"/>
      <use xlink:href="#DejaVuSans-20" x="490.722656"/>
      <use xlink:href="#DejaVuSans-50" x="522.509766"/>
      <use xlink:href="#DejaVuSans-72" x="581.0625"/>
      <use xlink:href="#DejaVuSans-65" x="619.925781"/>
      <use xlink:href="#DejaVuSans-63" x="681.449219"/>
      <use xlink:href="#DejaVuSans-69" x="736.429688"/>
      <use xlink:href="#DejaVuSans-70" x="764.212891"/>
      <use xlink:href="#DejaVuSans-69" x="827.689453"/>
      <use xlink:href="#DejaVuSans-74" x="855.472656"/>
      <use xlink:href="#DejaVuSans-61" x="894.681641"/>
      <use xlink:href="#DejaVuSans-74" x="955.960938"/>
      <use xlink:href="#DejaVuSans-69" x="995.169922"/>
      <use xlink:href="#DejaVuSans-6f" x="1022.953125"/>
      <use xlink:href="#DejaVuSans-6e" x="1084.134766"/>
     </g>
    </g>
    <g id="line2d_30">
     <path d="M 600.545455 85.654687 
L 610.545455 85.654687 
L 620.545455 85.654687 
" style="fill: none; stroke: #008000; stroke-width: 1.5; stroke-linecap: square"/>
    </g>
    <g id="text_31">
     <!-- $Modelling drainage -->
     <g transform="translate(628.545455 89.154687)scale(0.1 -0.1)">
      <defs>
       <path id="DejaVuSans-24" d="M 2163 -941 
L 1850 -941 
L 1847 0 
Q 1519 6 1191 76 
Q 863 147 531 288 
L 531 850 
Q 850 650 1176 548 
Q 1503 447 1850 444 
L 1850 1869 
Q 1159 1981 845 2250 
Q 531 2519 531 2988 
Q 531 3497 872 3790 
Q 1213 4084 1850 4128 
L 1850 4863 
L 2163 4863 
L 2163 4138 
Q 2453 4125 2725 4076 
Q 2997 4028 3256 3944 
L 3256 3397 
Q 2997 3528 2723 3600 
Q 2450 3672 2163 3684 
L 2163 2350 
Q 2872 2241 3206 1959 
Q 3541 1678 3541 1191 
Q 3541 663 3186 358 
Q 2831 53 2163 6 
L 2163 -941 
z
M 1850 2406 
L 1850 3688 
Q 1488 3647 1297 3481 
Q 1106 3316 1106 3041 
Q 1106 2772 1282 2622 
Q 1459 2472 1850 2406 
z
M 2163 1806 
L 2163 453 
Q 2559 506 2761 678 
Q 2963 850 2963 1131 
Q 2963 1406 2770 1568 
Q 2578 1731 2163 1806 
z
" transform="scale(0.015625)"/>
      </defs>
      <use xlink:href="#DejaVuSans-24"/>
      <use xlink:href="#DejaVuSans-4d" x="63.623047"/>
      <use xlink:href="#DejaVuSans-6f" x="149.902344"/>
      <use xlink:href="#DejaVuSans-64" x="211.083984"/>
      <use xlink:href="#DejaVuSans-65" x="274.560547"/>
      <use xlink:href="#DejaVuSans-6c" x="336.083984"/>
      <use xlink:href="#DejaVuSans-6c" x="363.867188"/>
      <use xlink:href="#DejaVuSans-69" x="391.650391"/>
      <use xlink:href="#DejaVuSans-6e" x="419.433594"/>
      <use xlink:href="#DejaVuSans-67" x="482.8125"/>
      <use xlink:href="#DejaVuSans-20" x="546.289062"/>
      <use xlink:href="#DejaVuSans-64" x="578.076172"/>
      <use xlink:href="#DejaVuSans-72" x="641.552734"/>
      <use xlink:href="#DejaVuSans-61" x="682.666016"/>
      <use xlink:href="#DejaVuSans-69" x="743.945312"/>
      <use xlink:href="#DejaVuSans-6e" x="771.728516"/>
      <use xlink:href="#DejaVuSans-61" x="835.107422"/>
      <use xlink:href="#DejaVuSans-67" x="896.386719"/>
      <use xlink:href="#DejaVuSans-65" x="959.863281"/>
     </g>
    </g>
   </g>
  </g>
 </g>
 <defs>
  <clipPath id="p733fc94f70">
   <rect x="135" y="43.2" width="380.454545" height="271.8"/>
  </clipPath>
  <clipPath id="pecb6d9cee8">
   <rect x="591.545455" y="43.2" width="380.454545" height="271.8"/>
  </clipPath>
 </defs>
</svg>
