<?xml version="1.0" encoding="utf-8" standalone="no"?>
<!DOCTYPE svg PUBLIC "-//W3C//DTD SVG 1.1//EN"
  "http://www.w3.org/Graphics/SVG/1.1/DTD/svg11.dtd">
<svg xmlns:xlink="http://www.w3.org/1999/xlink" width="1080pt" height="360pt" viewBox="0 0 1080 360" xmlns="http://www.w3.org/2000/svg" version="1.1">
 <metadata>
  <rdf:RDF xmlns:dc="http://purl.org/dc/elements/1.1/" xmlns:cc="http://creativecommons.org/ns#" xmlns:rdf="http://www.w3.org/1999/02/22-rdf-syntax-ns#">
   <cc:Work>
    <dc:type rdf:resource="http://purl.org/dc/dcmitype/StillImage"/>
    <dc:date>2024-01-29T23:02:22.858302</dc:date>
    <dc:format>image/svg+xml</dc:format>
    <dc:creator>
     <cc:Agent>
      <dc:title>Matplotlib v3.5.2, https://matplotlib.org/</dc:title>
     </cc:Agent>
    </dc:creator>
   </cc:Work>
  </rdf:RDF>
 </metadata>
 <defs>
  <style type="text/css">*{stroke-linejoin: round; stroke-linecap: butt}</style>
 </defs>
 <g id="figure_1">
  <g id="patch_1">
   <path d="M 0 360 
L 1080 360 
L 1080 0 
L 0 0 
L 0 360 
z
" style="fill: none"/>
  </g>
  <g id="axes_1">
   <g id="patch_2">
    <path d="M 135 315 
L 515.454545 315 
L 515.454545 43.2 
L 135 43.2 
z
" style="fill: #ffffff"/>
   </g>
   <g id="line2d_1">
    <path d="M 152.293388 143.290674 
L 152.595288 143.3073 
L 152.983661 143.277122 
L 153.501493 143.393365 
L 154.105798 143.505624 
L 154.710103 143.905367 
L 155.184444 143.994588 
L 155.270918 143.995518 
L 155.357392 145.061715 
L 155.400376 144.730157 
L 155.918207 144.554224 
L 156.220107 144.592007 
L 156.393054 146.075018 
L 156.436038 145.757437 
L 156.65197 144.585474 
L 156.867396 144.360612 
L 157.169801 144.400095 
L 157.989532 144.741099 
L 158.291432 144.830057 
L 158.766279 145.076885 
L 160.276788 145.404216 
L 160.79462 145.297175 
L 161.398419 145.577843 
L 161.95974 145.940995 
L 162.477571 146.232221 
L 162.736487 146.436957 
L 163.297302 146.613982 
L 163.469744 146.656418 
L 163.556218 147.86843 
L 163.642691 149.375025 
L 163.685675 149.102226 
L 163.987575 147.659284 
L 164.246491 147.511446 
L 164.419438 147.49391 
L 164.462422 147.767862 
L 164.678354 153.567642 
L 164.721338 153.444015 
L 164.980253 151.468724 
L 165.325643 149.386999 
L 165.411611 149.350672 
L 165.541069 152.501384 
L 165.627542 154.492311 
L 165.670527 154.24874 
L 165.886458 148.557922 
L 166.188358 145.151502 
L 166.576731 143.957492 
L 166.663205 143.924239 
L 167.094562 142.492099 
L 167.56941 142.076235 
L 167.914799 142.015474 
L 168.259683 141.725239 
L 168.777514 141.700299 
L 170.719381 141.603797 
L 170.892328 141.500842 
L 171.798533 141.529767 
L 172.100433 141.470502 
L 172.704738 141.231057 
L 173.524469 141.181926 
L 174.085284 141.184515 
L 175.250404 141.216939 
L 175.854709 141.212044 
L 192.425308 141.666298 
L 193.719886 141.581102 
L 194.927991 141.516114 
L 195.27338 141.269185 
L 195.920669 141.274585 
L 199.243588 141.423131 
L 199.847387 141.338057 
L 200.063319 141.255774 
L 201.444371 141.209515 
L 202.911391 141.207837 
L 203.127322 141.106561 
L 204.896242 141.045152 
L 204.982716 141.047883 
L 205.155157 141.183585 
L 205.543531 141.037506 
L 205.931904 140.97001 
L 206.147836 141.148633 
L 206.23431 141.129397 
L 206.406751 140.786552 
L 206.708651 140.549453 
L 207.05404 140.477567 
L 207.35594 140.369071 
L 208.089703 140.285696 
L 209.72967 140.304486 
L 210.204012 140.298722 
L 211.671537 140.360413 
L 212.189369 140.398096 
L 212.491268 140.887727 
L 213.138557 140.571157 
L 213.310999 142.013855 
L 213.397473 142.33354 
L 213.440457 142.243713 
L 213.915304 140.947618 
L 214.17422 140.985786 
L 214.433135 143.602005 
L 214.519609 143.519075 
L 214.735035 142.761803 
L 215.080424 141.465021 
L 215.166898 141.80202 
L 215.33934 144.352886 
L 215.598256 149.680814 
L 215.64124 149.676243 
L 215.770698 148.973502 
L 216.159071 146.159202 
L 216.202561 146.314423 
L 216.332018 147.732323 
L 216.50446 149.858385 
L 216.547444 149.715402 
L 216.763376 147.707384 
L 217.022292 145.841115 
L 217.194733 145.756789 
L 217.281207 146.372413 
L 217.626597 150.972803 
L 217.885512 151.329321 
L 218.057954 151.095762 
L 218.187412 150.962669 
L 218.489311 151.70026 
L 218.532801 151.559482 
L 218.921175 148.455695 
L 219.223074 145.000468 
L 219.266058 145.015132 
L 219.568464 147.002903 
L 219.654432 146.595859 
L 219.956837 143.816673 
L 220.215753 141.925525 
L 220.34521 141.648053 
L 220.474668 142.235461 
L 220.64711 143.010998 
L 220.690094 142.842063 
L 220.94901 140.345446 
L 221.164941 138.72732 
L 221.337383 138.410365 
L 221.380873 138.438056 
L 221.466841 139.216081 
L 221.81223 143.188245 
L 221.898704 143.099429 
L 222.071146 142.013147 
L 222.459519 139.023319 
L 222.675451 139.445352 
L 223.149792 136.761232 
L 223.408708 136.477894 
L 223.667624 136.504108 
L 223.797082 136.535925 
L 224.314913 136.148318 
L 224.617318 136.188185 
L 224.746776 136.436106 
L 224.78976 136.356756 
L 224.962202 136.098318 
L 225.350575 135.774729 
L 225.609491 135.837371 
L 225.782438 136.99204 
L 225.825422 136.821063 
L 225.997864 136.160839 
L 226.515695 136.036767 
L 226.602169 136.778303 
L 226.947559 142.582533 
L 227.077016 142.830129 
L 227.12 142.805392 
L 227.292442 142.387647 
L 227.508374 141.770729 
L 227.680816 144.091575 
L 227.810274 145.872224 
L 227.853763 145.691254 
L 228.069189 143.92699 
L 228.285121 142.798252 
L 228.544036 140.979799 
L 228.58702 141.039671 
L 228.673494 141.734887 
L 228.759968 143.683358 
L 228.802952 142.918156 
L 228.845936 142.007808 
L 228.93241 142.341995 
L 229.148341 143.047871 
L 229.234309 142.87392 
L 229.407257 141.476065 
L 229.579699 140.412295 
L 229.666173 143.224289 
L 229.709157 143.162193 
L 229.79563 141.546029 
L 229.881598 129.354997 
L 230.09753 87.252674 
L 230.485903 68.033689 
L 230.615361 56.666637 
L 231.176176 56.572461 
L 231.435092 55.760515 
L 231.478582 55.578514 
L 231.521566 55.620222 
L 232.470755 84.339465 
L 232.514244 84.345047 
L 232.600212 84.111711 
L 232.643702 84.21333 
L 232.72967 85.51074 
L 232.859128 91.585301 
L 233.161533 56.772362 
L 233.463433 56.71775 
L 233.635875 56.212828 
L 233.679365 56.255789 
L 233.851806 56.772362 
L 235.146384 56.772362 
L 235.189368 57.585602 
L 235.448284 86.520139 
L 235.534758 81.442983 
L 235.836658 56.772362 
L 236.613404 56.73288 
L 236.829336 56.267804 
L 236.87232 56.381823 
L 237.001778 56.772362 
L 237.304183 56.754886 
L 237.476625 55.98829 
L 237.563099 55.554545 
L 237.649067 59.542204 
L 237.864998 68.681514 
L 238.03744 77.597843 
L 238.166898 84.458419 
L 238.253372 70.670215 
L 238.38283 56.456723 
L 238.598761 55.595707 
L 238.728219 61.93797 
L 238.987135 74.62899 
L 239.159576 56.772362 
L 239.54795 56.738705 
L 239.677408 55.958779 
L 239.806865 64.395287 
L 239.849849 63.337242 
L 239.936323 62.337511 
L 240.022797 67.795113 
L 240.108765 78.180396 
L 240.152255 72.836933 
L 240.324697 56.772362 
L 240.41117 56.745319 
L 240.497139 55.887337 
L 240.583612 62.018696 
L 240.626596 64.409264 
L 240.670086 63.816031 
L 240.799544 59.552499 
L 240.842528 59.815145 
L 240.929002 62.744798 
L 240.971986 62.565953 
L 241.01497 63.053298 
L 241.101444 67.405302 
L 241.187917 89.911308 
L 241.273885 84.972564 
L 241.576291 62.440122 
L 241.619275 62.853517 
L 241.705749 67.457002 
L 241.748733 67.161933 
L 241.964664 62.868991 
L 242.007648 63.793236 
L 242.050632 64.212477 
L 242.137106 70.431276 
L 242.266564 88.682812 
L 242.309548 86.847834 
L 242.697921 73.340703 
L 242.784395 70.207223 
L 242.827379 70.600433 
L 243.172768 87.663198 
L 243.215752 95.153515 
L 243.302226 93.343295 
L 243.561142 85.977797 
L 243.6906 75.110954 
L 243.733584 75.300176 
L 243.906531 76.85477 
L 244.251415 82.354869 
L 244.510331 88.052847 
L 244.55382 87.994574 
L 244.812736 79.766037 
L 244.85572 81.125968 
L 244.898704 82.425865 
L 244.942194 82.225154 
L 245.114636 78.41533 
L 245.15762 79.343236 
L 245.330567 96.107392 
L 245.460025 107.914439 
L 245.503009 107.071182 
L 246.02084 71.261526 
L 246.150298 68.037795 
L 246.236772 77.499055 
L 246.452198 113.310005 
L 246.754603 115.264908 
L 246.884061 104.39584 
L 246.927045 105.822803 
L 246.970029 105.870578 
L 247.013519 104.603813 
L 247.099487 104.618558 
L 247.142976 104.44038 
L 247.228944 108.202509 
L 247.444876 113.418138 
L 247.617318 113.972434 
L 248.005691 114.372217 
L 248.049181 114.163942 
L 248.135149 112.564121 
L 248.178639 113.146492 
L 248.308097 114.482352 
L 248.437554 114.153484 
L 248.65298 114.435001 
L 249.041354 114.542891 
L 249.170812 111.235319 
L 249.214301 111.241266 
L 249.386743 115.117839 
L 249.645659 116.448906 
L 249.86159 116.541929 
L 250.638337 117.28931 
L 250.767795 117.024723 
L 250.983221 117.455878 
L 251.458068 118.183639 
L 251.889425 119.09775 
L 252.062373 119.448241 
L 252.234815 118.806059 
L 252.321289 118.654398 
L 252.450746 118.058455 
L 252.580204 118.610324 
L 252.623188 118.510161 
L 252.709662 118.509777 
L 252.925088 119.242615 
L 252.968578 119.00859 
L 253.098035 112.739892 
L 253.399935 95.413713 
L 253.486409 97.689272 
L 253.529393 100.156196 
L 253.701835 122.159445 
L 253.874782 123.478213 
L 254.047224 123.951622 
L 254.090208 123.912099 
L 254.176682 120.690896 
L 254.435598 101.436757 
L 254.478582 103.845812 
L 254.651529 126.157661 
L 254.866955 128.611094 
L 254.996413 129.057622 
L 255.298818 131.255894 
L 255.730176 136.221742 
L 256.075565 139.828812 
L 256.93828 148.897732 
L 257.197196 148.687373 
L 257.413127 148.803152 
L 257.585569 149.092901 
L 257.930958 150.337539 
L 258.017432 150.69972 
L 258.232858 126.158086 
L 258.276348 121.835633 
L 258.319332 127.645688 
L 258.535263 141.532174 
L 258.880147 149.14539 
L 259.26852 153.609127 
L 259.31201 153.716612 
L 259.397978 151.464577 
L 259.61391 143.644178 
L 260.002283 158.697954 
L 260.304183 160.574164 
L 260.390657 160.930935 
L 260.47713 159.378364 
L 260.649572 153.639386 
L 260.692556 154.760863 
L 260.865504 162.008378 
L 261.167403 164.592223 
L 261.383335 165.293508 
L 261.469303 163.74929 
L 261.685235 157.104869 
L 261.728219 158.238077 
L 261.901166 165.913065 
L 262.160082 168.414193 
L 262.504966 169.199783 
L 262.548455 169.086624 
L 262.763881 166.309339 
L 262.893339 168.325317 
L 262.936829 168.280474 
L 263.195744 157.520651 
L 263.325202 160.251688 
L 263.368186 159.941236 
L 263.584118 155.162183 
L 263.75656 151.721478 
L 263.799544 151.870773 
L 264.015475 162.537916 
L 264.317375 166.886057 
L 264.446833 167.568651 
L 264.57629 164.422763 
L 264.792222 159.474563 
L 264.835206 160.165956 
L 265.008154 168.414537 
L 265.267069 170.585543 
L 265.611953 171.671633 
L 265.7849 172.007206 
L 266.043816 138.604138 
L 266.0868 140.656696 
L 266.518158 157.11299 
L 266.691105 159.923952 
L 266.734089 159.668488 
L 266.777073 159.624262 
L 267.035989 163.213239 
L 267.338394 166.99869 
L 267.59731 165.038114 
L 267.812736 128.009589 
L 267.856225 126.636572 
L 267.985683 101.596346 
L 268.201109 135.308541 
L 268.503514 146.416103 
L 268.76243 151.296189 
L 269.021346 132.83927 
L 269.06433 136.964107 
L 269.280261 148.707985 
L 269.409719 141.153811 
L 269.452703 143.495895 
L 269.711619 151.995815 
L 270.186466 158.603039 
L 270.488366 161.261957 
L 271.524028 165.949019 
L 271.782944 166.728793 
L 271.825928 166.577881 
L 271.998875 164.569165 
L 272.257791 168.431912 
L 272.516706 170.424012 
L 272.90508 170.753264 
L 273.120506 171.022564 
L 273.336437 172.173804 
L 273.552369 173.139575 
L 274.02671 173.391813 
L 274.242642 173.689694 
L 274.415084 174.613119 
L 274.544542 175.377906 
L 274.588031 175.356233 
L 274.976405 175.201194 
L 275.23532 148.61844 
L 275.278304 151.422485 
L 275.494236 161.042789 
L 275.753152 165.160708 
L 275.968577 155.784684 
L 276.012067 155.489777 
L 276.270983 162.290936 
L 276.529898 158.938269 
L 276.659356 160.90019 
L 276.745324 160.803455 
L 276.788814 160.755902 
L 277.133698 165.375487 
L 277.651529 168.821258 
L 278.298818 170.991678 
L 278.471765 171.610234 
L 278.687191 154.127298 
L 278.730681 153.268912 
L 278.773665 153.828001 
L 278.860139 154.71248 
L 279.119055 123.395809 
L 279.162039 129.985689 
L 279.37797 146.347615 
L 279.67987 154.693993 
L 280.068243 159.612206 
L 280.802006 165.655558 
L 282.139568 170.098552 
L 282.570926 171.336212 
L 282.916315 173.378777 
L 283.218215 173.476179 
L 283.434146 173.675818 
L 283.563604 174.427629 
L 283.865504 177.466123 
L 283.908993 177.422211 
L 284.340351 176.876592 
L 284.426825 176.823254 
L 284.556282 130.147706 
L 284.599266 133.903302 
L 284.901166 151.45319 
L 285.333029 160.54258 
L 285.85086 167.752291 
L 285.980318 160.280208 
L 286.023302 161.17836 
L 286.282218 165.460713 
L 287.015981 171.871464 
L 287.145439 171.852087 
L 287.360864 171.945959 
L 287.61978 172.314684 
L 287.792728 174.172832 
L 288.008153 176.635327 
L 288.051643 176.59724 
L 288.483001 175.920278 
L 288.612458 175.935913 
L 288.741916 176.981064 
L 289.043816 181.210564 
L 289.087306 181.124165 
L 289.518663 179.971833 
L 289.648121 179.812041 
L 289.691105 179.855781 
L 289.820563 180.44064 
L 290.079478 183.263658 
L 290.165952 183.143743 
L 290.683783 181.884249 
L 290.770257 182.346462 
L 291.115141 185.839949 
L 291.158631 185.779683 
L 291.288088 185.325783 
L 291.46053 182.159142 
L 291.503514 182.315141 
L 291.978361 183.341501 
L 292.194293 184.699156 
L 292.237277 184.669898 
L 292.755108 184.013143 
L 292.798092 184.144799 
L 292.97104 186.164913 
L 293.186466 188.65703 
L 293.229955 188.602286 
L 293.833755 186.849005 
L 294.006702 187.189402 
L 294.179144 185.896109 
L 294.265618 185.996252 
L 294.481044 185.912169 
L 294.524533 185.878178 
L 294.653991 137.259904 
L 294.696975 141.718584 
L 294.955891 159.288587 
L 295.30128 170.175525 
L 295.732638 172.790773 
L 295.948569 174.143018 
L 296.293453 179.458092 
L 296.422911 179.315563 
L 296.681826 179.163377 
L 296.725316 179.157076 
L 296.854774 176.547118 
L 296.940742 177.023267 
L 297.545047 180.191092 
L 297.976405 180.47186 
L 298.494236 181.755384 
L 298.969083 181.830223 
L 299.098541 182.492824 
L 299.44393 185.319108 
L 299.486914 185.237048 
L 299.961761 184.437016 
L 300.047729 184.486714 
L 300.177187 185.013086 
L 300.436103 186.734389 
L 300.565561 186.572737 
L 301.083392 185.795106 
L 301.256339 185.959752 
L 301.385797 176.931427 
L 301.515255 136.553502 
L 301.558239 137.250478 
L 302.42146 161.137117 
L 302.550917 135.080949 
L 302.593901 137.593404 
L 302.982275 153.832674 
L 303.370648 160.621586 
L 303.759022 164.234694 
L 304.319837 168.629892 
L 304.622242 173.515682 
L 304.665226 173.458228 
L 304.924142 173.174769 
L 305.140074 173.20068 
L 305.269531 168.907111 
L 305.312515 169.553308 
L 305.657905 176.64364 
L 305.830347 176.469527 
L 306.132246 176.237141 
L 306.175736 176.241379 
L 306.305194 174.02285 
L 306.348178 174.299159 
L 306.736551 178.716425 
L 306.995467 178.633515 
L 307.211398 178.608009 
L 307.254383 178.660973 
L 307.38384 179.920871 
L 307.72923 184.841603 
L 307.858688 184.341718 
L 307.988145 174.991321 
L 308.074113 176.085946 
L 308.764892 184.051756 
L 308.85086 183.966115 
L 309.325707 183.248609 
L 309.412181 183.617749 
L 309.541639 185.279271 
L 309.800555 187.950477 
L 310.05947 187.276185 
L 310.36137 186.624497 
L 310.447844 187.095378 
L 310.620285 189.98478 
L 310.836217 193.162 
L 311.051643 192.300398 
L 311.397032 190.939547 
L 311.440016 190.99424 
L 311.569474 192.587356 
L 311.87188 197.969714 
L 311.914864 197.859337 
L 312.389711 195.461416 
L 312.475679 195.127693 
L 312.519169 195.181598 
L 312.778084 196.131126 
L 312.821068 195.872536 
L 313.122968 194.352005 
L 313.468357 193.405672 
L 313.511341 193.434961 
L 313.640799 194.630528 
L 313.684289 195.333087 
L 313.813747 170.99899 
L 313.943204 87.707393 
L 313.986188 99.787704 
L 314.20212 111.579236 
L 314.331578 99.47615 
L 314.50402 128.794795 
L 314.590493 133.023253 
L 314.633477 132.317924 
L 314.719951 131.450071 
L 315.108325 147.208408 
L 315.539682 153.784655 
L 315.755614 158.682581 
L 316.014529 163.759111 
L 316.273445 163.838208 
L 316.532361 164.369748 
L 316.618329 164.778785 
L 316.791276 167.38658 
L 317.050192 171.071432 
L 317.524533 170.562849 
L 317.568023 170.581053 
L 317.653991 171.149306 
L 317.99938 176.558 
L 318.042364 176.486164 
L 318.128838 175.929228 
L 318.34477 171.609041 
L 318.560196 158.441882 
L 318.603685 158.211357 
L 318.992059 168.643242 
L 319.207485 170.769436 
L 319.50989 171.558575 
L 319.639348 166.406934 
L 319.768806 158.710242 
L 319.81179 160.210223 
L 319.898263 163.650897 
L 320.156673 152.10955 
L 320.459079 161.755552 
L 320.761484 164.717397 
L 320.890942 167.317839 
L 321.192336 173.770814 
L 321.408773 173.624058 
L 321.667689 173.538569 
L 321.753657 173.647976 
L 321.883115 175.540661 
L 322.227998 182.510998 
L 322.271488 182.39798 
L 322.659861 181.136696 
L 322.703351 181.189114 
L 322.789319 181.835614 
L 322.962267 186.166713 
L 323.221182 192.277996 
L 323.263661 192.228441 
L 323.652034 157.073173 
L 323.91095 162.852514 
L 324.256845 170.302843 
L 324.386303 170.95887 
L 324.428781 170.979491 
L 324.601729 172.176505 
L 324.645218 172.006893 
L 324.774676 171.795229 
L 324.860644 172.649924 
L 325.11956 179.803283 
L 325.334986 183.541999 
L 325.680881 182.653748 
L 325.810339 181.948864 
L 325.896307 182.314089 
L 326.069254 185.71516 
L 326.370648 191.469651 
L 326.888479 189.300698 
L 326.931969 189.377034 
L 327.061427 191.302274 
L 327.363832 197.34872 
L 327.406311 197.312282 
L 327.924142 194.98914 
L 327.967632 195.057466 
L 328.097089 197.058718 
L 328.441973 203.472251 
L 328.787868 201.569948 
L 328.959804 200.809834 
L 329.003294 200.870909 
L 329.132752 203.112931 
L 329.477635 210.110008 
L 329.736551 208.799785 
L 329.952988 207.637632 
L 329.995467 207.663037 
L 330.082446 208.365221 
L 330.513298 217.358362 
L 330.600277 217.049468 
L 331.031129 214.704279 
L 331.074619 214.801084 
L 331.204077 216.564176 
L 331.54896 222.745515 
L 331.807876 221.342562 
L 332.066792 219.722737 
L 332.110281 219.786117 
L 332.239739 221.905292 
L 332.542144 227.4811 
L 332.584623 227.44895 
L 332.843538 225.957029 
L 333.102454 203.506363 
L 333.189434 204.285895 
L 333.707265 211.38628 
L 333.922691 211.521193 
L 334.267574 211.487546 
L 334.440522 212.189255 
L 334.699437 213.916191 
L 334.914863 213.767756 
L 335.131301 213.461128 
L 335.173779 213.541408 
L 335.260758 214.060701 
L 335.519674 218.527189 
L 335.69161 220.198937 
L 335.908047 219.637137 
L 336.252931 218.559168 
L 336.382389 220.254621 
L 336.727273 225.868668 
L 336.986188 224.92446 
L 337.245104 224.023193 
L 337.332083 224.534294 
L 337.762935 230.549004 
L 337.849915 230.216273 
L 338.280766 228.204776 
L 338.324256 228.267418 
L 338.453714 229.887799 
L 338.798598 235.07503 
L 339.144493 233.83912 
L 339.27395 233.455367 
L 339.316429 233.52254 
L 339.403408 234.058571 
L 339.791782 238.07305 
L 339.83426 238.002226 
L 340.439071 235.720994 
L 340.481549 235.790149 
L 340.654497 236.394052 
L 340.827444 237.633703 
L 340.869922 237.60305 
L 341.387754 235.599067 
L 341.431243 235.643525 
L 341.604191 237.516196 
L 341.863107 240.316205 
L 341.905585 240.312352 
L 342.25148 239.082895 
L 342.466906 238.531491 
L 342.596364 239.372371 
L 342.898769 241.58508 
L 342.984737 241.443239 
L 343.329621 240.21226 
L 343.37311 238.167813 
L 343.546058 221.250105 
L 343.632026 222.112951 
L 344.0204 227.923977 
L 344.365283 228.758414 
L 344.494741 229.048042 
L 344.58172 229.625023 
L 344.667689 230.694739 
L 344.711178 230.610524 
L 344.753657 229.857752 
L 344.797146 230.188653 
L 344.883114 231.621916 
L 345.012572 202.018559 
L 345.099552 205.163183 
L 345.400946 212.054129 
L 346.005756 219.558778 
L 346.35064 221.289992 
L 346.739013 222.833612 
L 347.127387 225.653313 
L 347.213355 225.697468 
L 347.51576 195.118804 
L 347.601728 164.268361 
L 347.688708 166.615968 
L 347.818166 174.777169 
L 348.163049 189.830045 
L 348.594912 196.649853 
L 348.810338 201.211397 
L 349.198712 209.703984 
L 349.630575 210.896932 
L 349.760033 211.547923 
L 349.931969 214.933823 
L 350.190884 218.955563 
L 350.363832 218.969429 
L 350.4498 218.930462 
L 350.49329 217.998126 
L 350.666237 206.82154 
L 350.708716 206.732583 
L 350.967631 211.524085 
L 351.313526 216.659616 
L 351.61492 217.351424 
L 351.7019 217.522553 
L 351.831358 218.600279 
L 352.262209 225.269863 
L 352.305699 225.252792 
L 352.564615 224.946921 
L 352.737562 224.706303 
L 352.780041 224.798012 
L 352.86702 225.44346 
L 353.255393 230.840655 
L 353.297872 230.830683 
L 353.815703 229.673789 
L 353.859193 229.73808 
L 353.988651 231.15593 
L 354.291056 235.319501 
L 354.377024 235.229866 
L 354.506482 234.904629 
L 354.59245 229.947499 
L 354.721908 212.344253 
L 354.808887 214.117509 
L 355.456176 227.062688 
L 355.80106 227.895325 
L 355.930518 228.201499 
L 356.404859 230.972139 
L 356.534317 230.916313 
L 356.96618 230.63693 
L 357.052148 231.203989 
L 357.440522 235.676141 
L 357.484011 235.627425 
L 357.915875 234.951484 
L 357.958353 235.000565 
L 358.045332 235.480042 
L 358.476184 240.014775 
L 358.519674 239.969204 
L 358.864557 239.396947 
L 358.951537 239.257604 
L 358.994015 239.282362 
L 359.080995 239.653595 
L 359.511847 243.712517 
L 359.598826 243.657793 
L 360.029678 243.218442 
L 360.073167 243.303703 
L 360.246115 244.832381 
L 360.505031 247.161995 
L 360.634488 247.138401 
L 360.979372 246.605929 
L 361.10883 246.537988 
L 361.238288 247.387479 
L 361.583171 250.367032 
L 361.799609 250.156284 
L 362.144492 249.764682 
L 362.27395 250.218198 
L 362.618834 252.414452 
L 362.921239 252.014785 
L 363.136665 251.756676 
L 363.223645 252.035518 
L 363.654496 254.539523 
L 363.783954 220.399334 
L 363.913412 224.048729 
L 364.560701 237.922856 
L 364.819617 239.987155 
L 365.466906 243.230911 
L 365.725821 244.801009 
L 366.157684 245.255379 
L 366.287142 245.466765 
L 366.46009 246.688207 
L 366.761484 248.651979 
L 367.149857 248.603819 
L 367.279315 248.621229 
L 367.366294 248.932318 
L 367.926604 252.264111 
L 368.056062 216.422487 
L 368.143041 219.583819 
L 368.573893 231.686531 
L 368.876298 237.120164 
L 369.609555 243.186412 
L 369.868471 245.500109 
L 370.300334 246.163518 
L 370.429792 246.472736 
L 370.60274 248.071019 
L 370.904133 250.638046 
L 371.206539 250.810996 
L 371.465454 250.885683 
L 371.638402 251.88326 
L 371.939796 253.512112 
L 372.501117 253.599754 
L 372.674064 254.597867 
L 372.975458 256.435141 
L 373.321353 256.412497 
L 373.536779 256.405524 
L 373.666237 257.010832 
L 374.011121 259.13163 
L 374.313526 259.198206 
L 374.572442 259.230104 
L 374.7019 259.513057 
L 375.176241 261.495964 
L 375.478646 261.544372 
L 375.608104 261.627595 
L 375.781052 262.465633 
L 376.082446 263.938257 
L 376.384851 263.901015 
L 376.643767 263.864748 
L 376.773224 264.383965 
L 377.161598 266.29888 
L 377.377024 266.285333 
L 377.722919 266.151724 
L 377.894855 266.775909 
L 378.24075 267.884865 
L 378.499666 267.82954 
L 378.80106 267.762488 
L 379.276413 267.976599 
L 379.664786 267.916495 
L 379.794244 268.0926 
L 380.398043 269.880934 
L 380.786416 269.860308 
L 380.959364 270.511121 
L 381.260758 271.785558 
L 381.519674 271.782625 
L 381.822079 271.717151 
L 381.951537 272.182555 
L 382.29642 273.762837 
L 382.555336 273.752698 
L 382.857741 273.666845 
L 383.073167 274.407542 
L 383.332083 274.975759 
L 383.634488 274.899428 
L 383.979372 274.827481 
L 384.152319 275.418357 
L 384.367745 275.916291 
L 384.540693 275.788892 
L 384.929066 275.329602 
L 385.102014 275.773555 
L 385.31744 276.247151 
L 385.490387 276.255824 
L 386.050697 276.101993 
L 386.180155 276.445506 
L 386.396592 276.842088 
L 386.655507 276.679727 
L 387.215817 276.279979 
L 387.60419 234.233826 
L 387.950086 236.13175 
L 388.338459 243.227796 
L 388.553885 245.667895 
L 389.201174 249.902953 
L 389.546058 253.486155 
L 390.193347 255.295324 
L 390.62521 258.12574 
L 390.711178 258.24263 
L 390.840636 210.26177 
L 390.927615 213.170812 
L 391.487925 231.736511 
L 391.617382 207.321487 
L 391.74684 212.58209 
L 392.005756 218.97312 
L 392.135214 217.746505 
L 392.264672 219.974581 
L 392.782503 230.690754 
L 393.861655 242.942042 
L 394.293518 245.511233 
L 394.72437 251.139758 
L 395.156233 251.983864 
L 395.285691 252.1962 
L 395.458638 253.404722 
L 395.760032 255.648697 
L 396.191895 256.065167 
L 396.364843 256.239462 
L 396.925153 258.529174 
L 397.400505 258.856793 
L 397.659421 260.237987 
L 397.874847 260.829581 
L 398.436168 261.186529 
L 398.996477 263.390919 
L 399.47183 263.499927 
L 399.902682 265.020903 
L 400.291055 82.186966 
L 400.334545 105.356311 
L 400.593461 145.248469 
L 400.895866 162.743036 
L 401.326718 172.578614 
L 402.146955 184.831015 
L 402.578818 188.434222 
L 403.096649 196.497009 
L 403.57099 197.740393 
L 403.743938 200.798477 
L 404.002854 205.181913 
L 404.261769 205.282046 
L 404.563163 205.427477 
L 404.650143 205.805557 
L 405.167974 209.586649 
L 405.642315 209.803713 
L 405.815263 211.953905 
L 406.074178 215.462057 
L 406.419062 215.461268 
L 406.634488 215.516709 
L 406.721467 215.886911 
L 406.936893 218.816777 
L 407.109841 220.301669 
L 407.281777 220.212084 
L 407.71364 219.669742 
L 407.75713 219.729644 
L 407.886588 220.515042 
L 408.145503 222.497028 
L 408.404419 222.296054 
L 408.792792 221.836804 
L 408.87876 222.10481 
L 409.181166 224.42428 
L 409.223644 224.400463 
L 409.784965 223.776405 
L 409.828455 223.868912 
L 410.000391 225.200616 
L 410.216828 226.791082 
L 410.259307 226.755311 
L 410.820628 226.100427 
L 410.950085 227.190582 
L 411.252491 230.384297 
L 411.85629 229.583113 
L 411.89978 229.759035 
L 412.115206 232.05476 
L 412.288153 233.108709 
L 412.547069 232.767017 
L 412.891952 232.27321 
L 413.02141 233.042426 
L 413.366294 235.440832 
L 413.62521 235.376804 
L 413.754667 235.289606 
L 413.971105 218.612395 
L 414.23002 202.565411 
L 414.272499 201.751747 
L 414.315988 202.137422 
L 414.531414 204.916557 
L 414.618394 204.73574 
L 414.660872 204.691868 
L 414.919788 207.522713 
L 414.963277 207.171121 
L 415.006767 207.147344 
L 415.092735 208.12702 
L 415.351651 211.559422 
L 415.567077 212.965136 
L 415.696534 211.932506 
L 415.783514 212.356935 
L 416.128398 214.84973 
L 416.473281 219.076853 
L 416.861655 219.663755 
L 417.078092 219.976108 
L 417.595923 223.239909 
L 417.940807 223.326672 
L 418.113754 223.418785 
L 418.243212 224.58025 
L 418.502128 227.131085 
L 418.674064 227.147317 
L 419.105927 226.830009 
L 419.149417 226.94158 
L 419.321353 228.518908 
L 419.53779 229.855376 
L 419.709726 229.763799 
L 420.185079 229.270638 
L 420.573453 230.825414 
L 420.702911 230.734515 
L 420.874847 230.533753 
L 421.004304 226.54481 
L 421.30671 197.134306 
L 421.3502 197.286462 
L 421.392678 197.230323 
L 421.738573 203.341211 
L 421.781051 203.798196 
L 421.824541 203.738628 
L 421.910509 203.365847 
L 422.385862 208.102404 
L 422.687256 211.250396 
L 423.378035 214.243623 
L 423.68044 217.918382 
L 423.895866 218.016199 
L 424.198271 218.07517 
L 424.284239 218.200081 
L 424.413697 219.458018 
L 424.758581 223.643565 
L 424.888039 223.624057 
L 425.233934 223.438395 
L 425.319902 223.526867 
L 425.44936 224.17989 
L 425.708275 225.573801 
L 425.881223 225.516509 
L 426.399054 225.175737 
L 426.528512 225.719445 
L 426.787427 227.239046 
L 426.959364 227.148187 
L 427.218279 226.878341 
L 427.477195 194.023764 
L 427.952548 202.393028 
L 428.426889 205.92799 
L 428.599837 207.944513 
L 428.858752 210.829041 
L 429.247126 211.939878 
L 429.506041 212.691274 
L 429.764957 215.690205 
L 429.936893 216.485939 
L 430.282788 216.708818 
L 430.498214 216.851427 
L 430.627672 217.518397 
L 430.930077 219.623837 
L 431.188993 219.620753 
L 431.533877 219.558383 
L 431.619845 219.876825 
L 432.051708 222.434921 
L 432.095197 222.417243 
L 432.440081 222.107217 
L 432.569539 221.968592 
L 432.613029 222.007862 
L 432.742487 222.714234 
L 433.001402 224.27088 
L 433.216828 224.132832 
L 433.648691 223.746095 
L 433.778149 224.354599 
L 434.037065 225.751848 
L 434.25249 225.538 
L 434.640864 225.05562 
L 434.684354 225.0904 
L 434.813811 225.76542 
L 435.072727 227.236538 
L 435.288153 227.050936 
L 435.720016 226.557199 
L 435.849474 227.209201 
L 436.108389 228.735912 
L 436.280326 228.602243 
L 436.755679 227.978528 
L 436.798157 228.113654 
L 436.971104 229.38939 
L 437.144052 230.180846 
L 437.315988 230.084616 
L 437.791341 229.370529 
L 437.833819 229.473564 
L 437.963277 230.288715 
L 438.179714 231.230962 
L 438.39514 230.973343 
L 438.827003 230.36224 
L 438.956461 230.925688 
L 439.215377 232.225444 
L 439.387313 232.077616 
L 439.775686 231.418181 
L 439.948634 225.35257 
L 439.992124 225.658188 
L 440.293518 227.360275 
L 440.509955 227.370298 
L 440.940807 227.269366 
L 441.027786 227.568359 
L 441.286702 228.656754 
L 441.502128 228.602577 
L 441.933991 228.343956 
L 441.976469 228.429374 
L 442.322364 229.418709 
L 442.408332 229.37512 
L 442.710738 229.054312 
L 442.969653 228.614298 
L 443.012132 228.680318 
L 443.228569 229.923206 
L 443.358027 230.167809 
L 443.616942 229.938599 
L 444.005316 229.209725 
L 444.047794 229.310526 
L 444.220742 230.599592 
L 444.393689 231.320172 
L 444.565625 231.237384 
L 445.040978 230.735496 
L 445.083456 230.867445 
L 445.256404 232.30089 
L 445.429352 233.132759 
L 445.601288 233.029066 
L 445.947183 232.469916 
L 446.033151 232.292385 
L 446.076641 232.325506 
L 446.206098 232.681923 
L 446.421524 233.468413 
L 446.465014 233.440247 
L 446.63695 233.222697 
L 446.895866 216.073776 
L 446.939355 216.359713 
L 447.327729 220.210911 
L 447.586645 221.04369 
L 447.931528 221.491117 
L 448.147965 221.838635 
L 448.708275 223.605569 
L 449.01068 223.61274 
L 449.183628 223.549086 
L 449.572001 224.297327 
L 449.873395 224.288437 
L 449.960375 224.191642 
L 450.089833 223.801436 
L 450.175801 223.8571 
L 450.261769 223.872503 
L 450.7796 225.225263 
L 451.038516 225.154348 
L 451.297431 225.022438 
L 451.772784 225.755489 
L 452.0317 225.646042 
L 452.203636 224.973813 
L 452.247126 225.217809 
L 452.462551 225.776282 
L 452.678989 226.237828 
L 452.808446 226.221404 
L 452.894415 225.723571 
L 453.15333 223.969753 
L 453.282788 223.719022 
L 453.455736 225.791432 
L 453.714651 226.412244 
L 453.844109 226.415794 
L 453.930077 225.96518 
L 454.232482 223.88827 
L 454.274961 223.828297 
L 454.31845 223.9124 
L 454.491398 226.076994 
L 454.750314 226.776752 
L 455.051708 226.762249 
L 455.224655 226.298984 
L 455.268145 226.161644 
L 455.310623 226.199164 
L 455.871944 227.806965 
L 455.915434 227.790186 
L 456.260318 227.493702 
L 456.433265 227.31254 
L 456.475743 227.374778 
L 456.605201 228.249881 
L 456.821638 229.415897 
L 456.993575 229.354853 
L 457.468928 228.917053 
L 457.511406 228.991842 
L 457.640864 229.833076 
L 457.857301 230.815735 
L 458.072727 230.615318 
L 458.50459 230.059282 
L 458.547068 230.142556 
L 458.849474 231.150247 
L 458.935442 231.073638 
L 459.453273 230.420028 
L 459.582731 228.196998 
L 459.971104 192.545779 
L 460.014594 193.584366 
L 460.316999 199.645224 
L 460.791341 204.441894 
L 461.136224 206.782007 
L 462.258866 211.733332 
L 462.819176 213.202022 
L 463.078092 213.991192 
L 463.466465 214.386576 
L 463.725381 214.517605 
L 463.854838 215.164399 
L 464.113754 216.132353 
L 464.545617 216.369826 
L 464.761043 216.436939 
L 464.933991 217.444923 
L 465.106938 218.021519 
L 465.451822 218.097147 
L 465.840195 218.199181 
L 466.185079 218.98469 
L 466.70291 218.981524 
L 466.832368 219.042943 
L 467.005315 219.992997 
L 467.178263 220.535541 
L 467.479657 220.508761 
L 467.86803 220.329804 
L 467.91152 220.460237 
L 468.213925 221.842195 
L 468.472841 221.724393 
L 468.861214 221.509979 
L 468.990672 221.953108 
L 469.249588 222.826644 
L 469.508503 222.675014 
L 470.112303 222.229235 
L 470.28525 222.262285 
L 470.586644 222.163316 
L 470.759592 213.843132 
L 470.88905 190.967642 
L 471.061997 161.110124 
L 471.104476 159.260877 
L 471.450371 177.677352 
L 471.579828 178.923163 
L 471.622307 179.040195 
L 471.881222 155.630798 
L 471.968202 157.276766 
L 472.01068 157.816742 
L 472.356575 173.316418 
L 472.744949 180.14544 
L 473.392238 187.074008 
L 473.910069 189.972431 
L 474.858752 193.649325 
L 475.204647 194.510886 
L 475.506041 195.661924 
L 476.067362 196.501833 
L 476.240309 196.624206 
L 476.628683 197.372113 
L 477.232482 198.130234 
L 477.577366 198.877221 
L 477.664345 198.972308 
L 477.750313 198.042319 
L 478.052719 194.018404 
L 478.311634 192.663328 
L 478.441092 192.787965 
L 478.57055 192.195572 
L 479.217839 188.834632 
L 479.347297 188.396054 
L 479.476755 189.203893 
L 479.648691 188.570682 
L 479.821638 187.999416 
L 480.339469 185.409532 
L 480.554895 189.857715 
L 480.598385 189.336237 
L 480.90079 186.23419 
L 481.245674 184.922966 
L 481.289164 184.348524 
L 481.331642 184.892484 
L 481.590558 189.276113 
L 481.677537 189.104417 
L 481.849473 188.476819 
L 482.022421 186.867826 
L 482.237847 186.433202 
L 482.281337 186.331845 
L 482.410794 181.591547 
L 482.7132 167.203759 
L 482.928626 165.492155 
L 483.446457 162.851452 
L 483.87832 161.240213 
L 484.179714 160.106388 
L 484.525609 159.919776 
L 484.741035 159.799982 
L 485.129408 159.261129 
L 485.388324 159.331246 
L 486.898328 160.39015 
L 487.459649 160.434397 
L 487.589107 160.509266 
L 487.675075 162.857692 
L 487.848022 168.355849 
L 487.891512 168.171694 
L 488.538801 163.533177 
L 488.581279 163.534026 
L 488.710737 168.325529 
L 488.840195 172.024905 
L 488.883685 171.457663 
L 489.445006 164.810056 
L 489.574463 164.405712 
L 489.660432 166.290205 
L 489.875857 172.190957 
L 489.919347 172.680952 
L 489.962837 172.541821 
L 490.566636 165.181461 
L 490.610126 165.382142 
L 490.739584 170.639377 
L 490.825552 172.670221 
L 490.869042 172.019261 
L 490.95501 171.136057 
L 490.998499 171.45643 
L 491.213925 173.359734 
L 491.299893 173.297617 
L 491.516331 172.666398 
L 491.645788 172.109918 
L 491.731756 174.016802 
L 491.904704 180.131281 
L 492.12013 181.792126 
L 492.206098 181.457574 
L 492.681451 176.873225 
L 492.810909 182.246117 
L 493.026335 186.881378 
L 493.32874 189.461481 
L 493.414708 189.137225 
L 493.673624 186.656627 
L 493.717113 186.719755 
L 493.889049 191.314845 
L 494.191455 193.36626 
L 494.406881 194.126971 
L 494.536338 193.094685 
L 494.623318 193.427032 
L 494.709286 193.390057 
L 495.227117 195.781778 
L 495.313085 195.239022 
L 495.788438 190.050557 
L 496.348748 196.651997 
L 496.435727 196.81542 
L 496.478206 196.745475 
L 496.651153 195.797788 
L 496.824101 193.595319 
L 497.772784 183.857639 
L 497.989221 183.025487 
L 498.118679 184.517974 
L 498.161157 183.903807 
" clip-path="url(#p439a0b80c4)" style="fill: none; stroke: #6495ed; stroke-width: 1.5; stroke-linecap: square"/>
   </g>
   <g id="matplotlib.axis_1">
    <g id="xtick_1">
     <g id="line2d_2">
      <defs>
       <path id="m7912adbc34" d="M 0 0 
L 0 3.5 
" style="stroke: #000000; stroke-width: 0.8"/>
      </defs>
      <g>
       <use xlink:href="#m7912adbc34" x="152.293388" y="315" style="stroke: #000000; stroke-width: 0.8"/>
      </g>
     </g>
     <g id="text_1">
      <!-- Jan -->
      <g transform="translate(139.190107 334.917344)scale(0.17 -0.17)">
       <defs>
        <path id="DejaVuSans-4a" d="M 628 4666 
L 1259 4666 
L 1259 325 
Q 1259 -519 939 -900 
Q 619 -1281 -91 -1281 
L -331 -1281 
L -331 -750 
L -134 -750 
Q 284 -750 456 -515 
Q 628 -281 628 325 
L 628 4666 
z
" transform="scale(0.015625)"/>
        <path id="DejaVuSans-61" d="M 2194 1759 
Q 1497 1759 1228 1600 
Q 959 1441 959 1056 
Q 959 750 1161 570 
Q 1363 391 1709 391 
Q 2188 391 2477 730 
Q 2766 1069 2766 1631 
L 2766 1759 
L 2194 1759 
z
M 3341 1997 
L 3341 0 
L 2766 0 
L 2766 531 
Q 2569 213 2275 61 
Q 1981 -91 1556 -91 
Q 1019 -91 701 211 
Q 384 513 384 1019 
Q 384 1609 779 1909 
Q 1175 2209 1959 2209 
L 2766 2209 
L 2766 2266 
Q 2766 2663 2505 2880 
Q 2244 3097 1772 3097 
Q 1472 3097 1187 3025 
Q 903 2953 641 2809 
L 641 3341 
Q 956 3463 1253 3523 
Q 1550 3584 1831 3584 
Q 2591 3584 2966 3190 
Q 3341 2797 3341 1997 
z
" transform="scale(0.015625)"/>
        <path id="DejaVuSans-6e" d="M 3513 2113 
L 3513 0 
L 2938 0 
L 2938 2094 
Q 2938 2591 2744 2837 
Q 2550 3084 2163 3084 
Q 1697 3084 1428 2787 
Q 1159 2491 1159 1978 
L 1159 0 
L 581 0 
L 581 3500 
L 1159 3500 
L 1159 2956 
Q 1366 3272 1645 3428 
Q 1925 3584 2291 3584 
Q 2894 3584 3203 3211 
Q 3513 2838 3513 2113 
z
" transform="scale(0.015625)"/>
       </defs>
       <use xlink:href="#DejaVuSans-4a"/>
       <use xlink:href="#DejaVuSans-61" x="29.492188"/>
       <use xlink:href="#DejaVuSans-6e" x="90.771484"/>
      </g>
     </g>
    </g>
    <g id="xtick_2">
     <g id="line2d_3">
      <g>
       <use xlink:href="#m7912adbc34" x="213.397473" y="315" style="stroke: #000000; stroke-width: 0.8"/>
      </g>
     </g>
     <g id="text_2">
      <!-- Mar -->
      <g transform="translate(197.360364 334.917344)scale(0.17 -0.17)">
       <defs>
        <path id="DejaVuSans-4d" d="M 628 4666 
L 1569 4666 
L 2759 1491 
L 3956 4666 
L 4897 4666 
L 4897 0 
L 4281 0 
L 4281 4097 
L 3078 897 
L 2444 897 
L 1241 4097 
L 1241 0 
L 628 0 
L 628 4666 
z
" transform="scale(0.015625)"/>
        <path id="DejaVuSans-72" d="M 2631 2963 
Q 2534 3019 2420 3045 
Q 2306 3072 2169 3072 
Q 1681 3072 1420 2755 
Q 1159 2438 1159 1844 
L 1159 0 
L 581 0 
L 581 3500 
L 1159 3500 
L 1159 2956 
Q 1341 3275 1631 3429 
Q 1922 3584 2338 3584 
Q 2397 3584 2469 3576 
Q 2541 3569 2628 3553 
L 2631 2963 
z
" transform="scale(0.015625)"/>
       </defs>
       <use xlink:href="#DejaVuSans-4d"/>
       <use xlink:href="#DejaVuSans-61" x="86.279297"/>
       <use xlink:href="#DejaVuSans-72" x="147.558594"/>
      </g>
     </g>
    </g>
    <g id="xtick_3">
     <g id="line2d_4">
      <g>
       <use xlink:href="#m7912adbc34" x="276.572882" y="315" style="stroke: #000000; stroke-width: 0.8"/>
      </g>
     </g>
     <g id="text_3">
      <!-- May -->
      <g transform="translate(258.999132 334.917344)scale(0.17 -0.17)">
       <defs>
        <path id="DejaVuSans-79" d="M 2059 -325 
Q 1816 -950 1584 -1140 
Q 1353 -1331 966 -1331 
L 506 -1331 
L 506 -850 
L 844 -850 
Q 1081 -850 1212 -737 
Q 1344 -625 1503 -206 
L 1606 56 
L 191 3500 
L 800 3500 
L 1894 763 
L 2988 3500 
L 3597 3500 
L 2059 -325 
z
" transform="scale(0.015625)"/>
       </defs>
       <use xlink:href="#DejaVuSans-4d"/>
       <use xlink:href="#DejaVuSans-61" x="86.279297"/>
       <use xlink:href="#DejaVuSans-79" x="147.558594"/>
      </g>
     </g>
    </g>
    <g id="xtick_4">
     <g id="line2d_5">
      <g>
       <use xlink:href="#m7912adbc34" x="339.748292" y="315" style="stroke: #000000; stroke-width: 0.8"/>
      </g>
     </g>
     <g id="text_4">
      <!-- Jul -->
      <g transform="translate(329.492511 334.917344)scale(0.17 -0.17)">
       <defs>
        <path id="DejaVuSans-75" d="M 544 1381 
L 544 3500 
L 1119 3500 
L 1119 1403 
Q 1119 906 1312 657 
Q 1506 409 1894 409 
Q 2359 409 2629 706 
Q 2900 1003 2900 1516 
L 2900 3500 
L 3475 3500 
L 3475 0 
L 2900 0 
L 2900 538 
Q 2691 219 2414 64 
Q 2138 -91 1772 -91 
Q 1169 -91 856 284 
Q 544 659 544 1381 
z
M 1991 3584 
L 1991 3584 
z
" transform="scale(0.015625)"/>
        <path id="DejaVuSans-6c" d="M 603 4863 
L 1178 4863 
L 1178 0 
L 603 0 
L 603 4863 
z
" transform="scale(0.015625)"/>
       </defs>
       <use xlink:href="#DejaVuSans-4a"/>
       <use xlink:href="#DejaVuSans-75" x="29.492188"/>
       <use xlink:href="#DejaVuSans-6c" x="92.871094"/>
      </g>
     </g>
    </g>
    <g id="xtick_5">
     <g id="line2d_6">
      <g>
       <use xlink:href="#m7912adbc34" x="403.959364" y="315" style="stroke: #000000; stroke-width: 0.8"/>
      </g>
     </g>
     <g id="text_5">
      <!-- Sep -->
      <g transform="translate(387.936864 334.917344)scale(0.17 -0.17)">
       <defs>
        <path id="DejaVuSans-53" d="M 3425 4513 
L 3425 3897 
Q 3066 4069 2747 4153 
Q 2428 4238 2131 4238 
Q 1616 4238 1336 4038 
Q 1056 3838 1056 3469 
Q 1056 3159 1242 3001 
Q 1428 2844 1947 2747 
L 2328 2669 
Q 3034 2534 3370 2195 
Q 3706 1856 3706 1288 
Q 3706 609 3251 259 
Q 2797 -91 1919 -91 
Q 1588 -91 1214 -16 
Q 841 59 441 206 
L 441 856 
Q 825 641 1194 531 
Q 1563 422 1919 422 
Q 2459 422 2753 634 
Q 3047 847 3047 1241 
Q 3047 1584 2836 1778 
Q 2625 1972 2144 2069 
L 1759 2144 
Q 1053 2284 737 2584 
Q 422 2884 422 3419 
Q 422 4038 858 4394 
Q 1294 4750 2059 4750 
Q 2388 4750 2728 4690 
Q 3069 4631 3425 4513 
z
" transform="scale(0.015625)"/>
        <path id="DejaVuSans-65" d="M 3597 1894 
L 3597 1613 
L 953 1613 
Q 991 1019 1311 708 
Q 1631 397 2203 397 
Q 2534 397 2845 478 
Q 3156 559 3463 722 
L 3463 178 
Q 3153 47 2828 -22 
Q 2503 -91 2169 -91 
Q 1331 -91 842 396 
Q 353 884 353 1716 
Q 353 2575 817 3079 
Q 1281 3584 2069 3584 
Q 2775 3584 3186 3129 
Q 3597 2675 3597 1894 
z
M 3022 2063 
Q 3016 2534 2758 2815 
Q 2500 3097 2075 3097 
Q 1594 3097 1305 2825 
Q 1016 2553 972 2059 
L 3022 2063 
z
" transform="scale(0.015625)"/>
        <path id="DejaVuSans-70" d="M 1159 525 
L 1159 -1331 
L 581 -1331 
L 581 3500 
L 1159 3500 
L 1159 2969 
Q 1341 3281 1617 3432 
Q 1894 3584 2278 3584 
Q 2916 3584 3314 3078 
Q 3713 2572 3713 1747 
Q 3713 922 3314 415 
Q 2916 -91 2278 -91 
Q 1894 -91 1617 61 
Q 1341 213 1159 525 
z
M 3116 1747 
Q 3116 2381 2855 2742 
Q 2594 3103 2138 3103 
Q 1681 3103 1420 2742 
Q 1159 2381 1159 1747 
Q 1159 1113 1420 752 
Q 1681 391 2138 391 
Q 2594 391 2855 752 
Q 3116 1113 3116 1747 
z
" transform="scale(0.015625)"/>
       </defs>
       <use xlink:href="#DejaVuSans-53"/>
       <use xlink:href="#DejaVuSans-65" x="63.476562"/>
       <use xlink:href="#DejaVuSans-70" x="125"/>
      </g>
     </g>
    </g>
    <g id="xtick_6">
     <g id="line2d_7">
      <g>
       <use xlink:href="#m7912adbc34" x="467.134773" y="315" style="stroke: #000000; stroke-width: 0.8"/>
      </g>
     </g>
     <g id="text_6">
      <!-- Nov -->
      <g transform="translate(450.543836 334.917344)scale(0.17 -0.17)">
       <defs>
        <path id="DejaVuSans-4e" d="M 628 4666 
L 1478 4666 
L 3547 763 
L 3547 4666 
L 4159 4666 
L 4159 0 
L 3309 0 
L 1241 3903 
L 1241 0 
L 628 0 
L 628 4666 
z
" transform="scale(0.015625)"/>
        <path id="DejaVuSans-6f" d="M 1959 3097 
Q 1497 3097 1228 2736 
Q 959 2375 959 1747 
Q 959 1119 1226 758 
Q 1494 397 1959 397 
Q 2419 397 2687 759 
Q 2956 1122 2956 1747 
Q 2956 2369 2687 2733 
Q 2419 3097 1959 3097 
z
M 1959 3584 
Q 2709 3584 3137 3096 
Q 3566 2609 3566 1747 
Q 3566 888 3137 398 
Q 2709 -91 1959 -91 
Q 1206 -91 779 398 
Q 353 888 353 1747 
Q 353 2609 779 3096 
Q 1206 3584 1959 3584 
z
" transform="scale(0.015625)"/>
        <path id="DejaVuSans-76" d="M 191 3500 
L 800 3500 
L 1894 563 
L 2988 3500 
L 3597 3500 
L 2284 0 
L 1503 0 
L 191 3500 
z
" transform="scale(0.015625)"/>
       </defs>
       <use xlink:href="#DejaVuSans-4e"/>
       <use xlink:href="#DejaVuSans-6f" x="74.804688"/>
       <use xlink:href="#DejaVuSans-76" x="135.986328"/>
      </g>
     </g>
    </g>
   </g>
   <g id="matplotlib.axis_2">
    <g id="ytick_1">
     <g id="line2d_8">
      <defs>
       <path id="m560becdf9e" d="M 0 0 
L -3.5 0 
" style="stroke: #000000; stroke-width: 0.8"/>
      </defs>
      <g>
       <use xlink:href="#m560becdf9e" x="135" y="272.952343" style="stroke: #000000; stroke-width: 0.8"/>
      </g>
     </g>
     <g id="text_7">
      <!-- 10 -->
      <g transform="translate(106.3675 279.411015)scale(0.17 -0.17)">
       <defs>
        <path id="DejaVuSans-31" d="M 794 531 
L 1825 531 
L 1825 4091 
L 703 3866 
L 703 4441 
L 1819 4666 
L 2450 4666 
L 2450 531 
L 3481 531 
L 3481 0 
L 794 0 
L 794 531 
z
" transform="scale(0.015625)"/>
        <path id="DejaVuSans-30" d="M 2034 4250 
Q 1547 4250 1301 3770 
Q 1056 3291 1056 2328 
Q 1056 1369 1301 889 
Q 1547 409 2034 409 
Q 2525 409 2770 889 
Q 3016 1369 3016 2328 
Q 3016 3291 2770 3770 
Q 2525 4250 2034 4250 
z
M 2034 4750 
Q 2819 4750 3233 4129 
Q 3647 3509 3647 2328 
Q 3647 1150 3233 529 
Q 2819 -91 2034 -91 
Q 1250 -91 836 529 
Q 422 1150 422 2328 
Q 422 3509 836 4129 
Q 1250 4750 2034 4750 
z
" transform="scale(0.015625)"/>
       </defs>
       <use xlink:href="#DejaVuSans-31"/>
       <use xlink:href="#DejaVuSans-30" x="63.623047"/>
      </g>
     </g>
    </g>
    <g id="ytick_2">
     <g id="line2d_9">
      <g>
       <use xlink:href="#m560becdf9e" x="135" y="219.928929" style="stroke: #000000; stroke-width: 0.8"/>
      </g>
     </g>
     <g id="text_8">
      <!-- 20 -->
      <g transform="translate(106.3675 226.387601)scale(0.17 -0.17)">
       <defs>
        <path id="DejaVuSans-32" d="M 1228 531 
L 3431 531 
L 3431 0 
L 469 0 
L 469 531 
Q 828 903 1448 1529 
Q 2069 2156 2228 2338 
Q 2531 2678 2651 2914 
Q 2772 3150 2772 3378 
Q 2772 3750 2511 3984 
Q 2250 4219 1831 4219 
Q 1534 4219 1204 4116 
Q 875 4013 500 3803 
L 500 4441 
Q 881 4594 1212 4672 
Q 1544 4750 1819 4750 
Q 2544 4750 2975 4387 
Q 3406 4025 3406 3419 
Q 3406 3131 3298 2873 
Q 3191 2616 2906 2266 
Q 2828 2175 2409 1742 
Q 1991 1309 1228 531 
z
" transform="scale(0.015625)"/>
       </defs>
       <use xlink:href="#DejaVuSans-32"/>
       <use xlink:href="#DejaVuSans-30" x="63.623047"/>
      </g>
     </g>
    </g>
    <g id="ytick_3">
     <g id="line2d_10">
      <g>
       <use xlink:href="#m560becdf9e" x="135" y="166.905515" style="stroke: #000000; stroke-width: 0.8"/>
      </g>
     </g>
     <g id="text_9">
      <!-- 30 -->
      <g transform="translate(106.3675 173.364187)scale(0.17 -0.17)">
       <defs>
        <path id="DejaVuSans-33" d="M 2597 2516 
Q 3050 2419 3304 2112 
Q 3559 1806 3559 1356 
Q 3559 666 3084 287 
Q 2609 -91 1734 -91 
Q 1441 -91 1130 -33 
Q 819 25 488 141 
L 488 750 
Q 750 597 1062 519 
Q 1375 441 1716 441 
Q 2309 441 2620 675 
Q 2931 909 2931 1356 
Q 2931 1769 2642 2001 
Q 2353 2234 1838 2234 
L 1294 2234 
L 1294 2753 
L 1863 2753 
Q 2328 2753 2575 2939 
Q 2822 3125 2822 3475 
Q 2822 3834 2567 4026 
Q 2313 4219 1838 4219 
Q 1578 4219 1281 4162 
Q 984 4106 628 3988 
L 628 4550 
Q 988 4650 1302 4700 
Q 1616 4750 1894 4750 
Q 2613 4750 3031 4423 
Q 3450 4097 3450 3541 
Q 3450 3153 3228 2886 
Q 3006 2619 2597 2516 
z
" transform="scale(0.015625)"/>
       </defs>
       <use xlink:href="#DejaVuSans-33"/>
       <use xlink:href="#DejaVuSans-30" x="63.623047"/>
      </g>
     </g>
    </g>
    <g id="ytick_4">
     <g id="line2d_11">
      <g>
       <use xlink:href="#m560becdf9e" x="135" y="113.882101" style="stroke: #000000; stroke-width: 0.8"/>
      </g>
     </g>
     <g id="text_10">
      <!-- 40 -->
      <g transform="translate(106.3675 120.340773)scale(0.17 -0.17)">
       <defs>
        <path id="DejaVuSans-34" d="M 2419 4116 
L 825 1625 
L 2419 1625 
L 2419 4116 
z
M 2253 4666 
L 3047 4666 
L 3047 1625 
L 3713 1625 
L 3713 1100 
L 3047 1100 
L 3047 0 
L 2419 0 
L 2419 1100 
L 313 1100 
L 313 1709 
L 2253 4666 
z
" transform="scale(0.015625)"/>
       </defs>
       <use xlink:href="#DejaVuSans-34"/>
       <use xlink:href="#DejaVuSans-30" x="63.623047"/>
      </g>
     </g>
    </g>
    <g id="ytick_5">
     <g id="line2d_12">
      <g>
       <use xlink:href="#m560becdf9e" x="135" y="60.858687" style="stroke: #000000; stroke-width: 0.8"/>
      </g>
     </g>
     <g id="text_11">
      <!-- 50 -->
      <g transform="translate(106.3675 67.317359)scale(0.17 -0.17)">
       <defs>
        <path id="DejaVuSans-35" d="M 691 4666 
L 3169 4666 
L 3169 4134 
L 1269 4134 
L 1269 2991 
Q 1406 3038 1543 3061 
Q 1681 3084 1819 3084 
Q 2600 3084 3056 2656 
Q 3513 2228 3513 1497 
Q 3513 744 3044 326 
Q 2575 -91 1722 -91 
Q 1428 -91 1123 -41 
Q 819 9 494 109 
L 494 744 
Q 775 591 1075 516 
Q 1375 441 1709 441 
Q 2250 441 2565 725 
Q 2881 1009 2881 1497 
Q 2881 1984 2565 2268 
Q 2250 2553 1709 2553 
Q 1456 2553 1204 2497 
Q 953 2441 691 2322 
L 691 4666 
z
" transform="scale(0.015625)"/>
       </defs>
       <use xlink:href="#DejaVuSans-35"/>
       <use xlink:href="#DejaVuSans-30" x="63.623047"/>
      </g>
     </g>
    </g>
    <g id="text_12">
     <!-- m3/m3 -->
     <g transform="translate(98.832031 209.33875)rotate(-90)scale(0.17 -0.17)">
      <defs>
       <path id="DejaVuSans-6d" d="M 3328 2828 
Q 3544 3216 3844 3400 
Q 4144 3584 4550 3584 
Q 5097 3584 5394 3201 
Q 5691 2819 5691 2113 
L 5691 0 
L 5113 0 
L 5113 2094 
Q 5113 2597 4934 2840 
Q 4756 3084 4391 3084 
Q 3944 3084 3684 2787 
Q 3425 2491 3425 1978 
L 3425 0 
L 2847 0 
L 2847 2094 
Q 2847 2600 2669 2842 
Q 2491 3084 2119 3084 
Q 1678 3084 1418 2786 
Q 1159 2488 1159 1978 
L 1159 0 
L 581 0 
L 581 3500 
L 1159 3500 
L 1159 2956 
Q 1356 3278 1631 3431 
Q 1906 3584 2284 3584 
Q 2666 3584 2933 3390 
Q 3200 3197 3328 2828 
z
" transform="scale(0.015625)"/>
       <path id="DejaVuSans-2f" d="M 1625 4666 
L 2156 4666 
L 531 -594 
L 0 -594 
L 1625 4666 
z
" transform="scale(0.015625)"/>
      </defs>
      <use xlink:href="#DejaVuSans-6d"/>
      <use xlink:href="#DejaVuSans-33" x="97.412109"/>
      <use xlink:href="#DejaVuSans-2f" x="161.035156"/>
      <use xlink:href="#DejaVuSans-6d" x="194.726562"/>
      <use xlink:href="#DejaVuSans-33" x="292.138672"/>
     </g>
    </g>
   </g>
   <g id="PathCollection_1">
    <defs>
     <path id="m73c530e03a" d="M 0 3 
C 0.795609 3 1.55874 2.683901 2.12132 2.12132 
C 2.683901 1.55874 3 0.795609 3 0 
C 3 -0.795609 2.683901 -1.55874 2.12132 -2.12132 
C 1.55874 -2.683901 0.795609 -3 0 -3 
C -0.795609 -3 -1.55874 -2.683901 -2.12132 -2.12132 
C -2.683901 -1.55874 -3 -0.795609 -3 0 
C -3 0.795609 -2.683901 1.55874 -2.12132 2.12132 
C -1.55874 2.683901 -0.795609 3 0 3 
z
" style="stroke: #ff8c00"/>
    </defs>
    <g clip-path="url(#p439a0b80c4)">
     <use xlink:href="#m73c530e03a" x="228.93241" y="250.682509" style="fill: #ff8c00; stroke: #ff8c00"/>
     <use xlink:href="#m73c530e03a" x="236.182047" y="208.970757" style="fill: #ff8c00; stroke: #ff8c00"/>
     <use xlink:href="#m73c530e03a" x="242.396022" y="219.398695" style="fill: #ff8c00; stroke: #ff8c00"/>
     <use xlink:href="#m73c530e03a" x="249.645659" y="235.835953" style="fill: #ff8c00; stroke: #ff8c00"/>
     <use xlink:href="#m73c530e03a" x="256.895296" y="257.045319" style="fill: #ff8c00; stroke: #ff8c00"/>
     <use xlink:href="#m73c530e03a" x="264.144933" y="240.784805" style="fill: #ff8c00; stroke: #ff8c00"/>
     <use xlink:href="#m73c530e03a" x="271.39457" y="241.491784" style="fill: #ff8c00; stroke: #ff8c00"/>
     <use xlink:href="#m73c530e03a" x="278.644207" y="171.677622" style="fill: #ff8c00; stroke: #ff8c00"/>
     <use xlink:href="#m73c530e03a" x="289.000832" y="239.547592" style="fill: #ff8c00; stroke: #ff8c00"/>
     <use xlink:href="#m73c530e03a" x="296.250469" y="249.091806" style="fill: #ff8c00; stroke: #ff8c00"/>
     <use xlink:href="#m73c530e03a" x="300.393119" y="261.817426" style="fill: #ff8c00; stroke: #ff8c00"/>
     <use xlink:href="#m73c530e03a" x="302.464444" y="168.672962" style="fill: #ff8c00; stroke: #ff8c00"/>
     <use xlink:href="#m73c530e03a" x="308.678418" y="249.622041" style="fill: #ff8c00; stroke: #ff8c00"/>
     <use xlink:href="#m73c530e03a" x="310.749743" y="261.287192" style="fill: #ff8c00; stroke: #ff8c00"/>
     <use xlink:href="#m73c530e03a" x="314.892393" y="191.47303" style="fill: #ff8c00; stroke: #ff8c00"/>
     <use xlink:href="#m73c530e03a" x="317.99938" y="223.463823" style="fill: #ff8c00; stroke: #ff8c00"/>
     <use xlink:href="#m73c530e03a" x="322.14203" y="243.082486" style="fill: #ff8c00; stroke: #ff8c00"/>
     <use xlink:href="#m73c530e03a" x="325.249018" y="227.175462" style="fill: #ff8c00; stroke: #ff8c00"/>
     <use xlink:href="#m73c530e03a" x="329.391667" y="254.747637" style="fill: #ff8c00; stroke: #ff8c00"/>
     <use xlink:href="#m73c530e03a" x="336.641305" y="265.882554" style="fill: #ff8c00; stroke: #ff8c00"/>
     <use xlink:href="#m73c530e03a" x="344.926604" y="197.659095" style="fill: #ff8c00; stroke: #ff8c00"/>
     <use xlink:href="#m73c530e03a" x="351.140579" y="236.366187" style="fill: #ff8c00; stroke: #ff8c00"/>
     <use xlink:href="#m73c530e03a" x="358.390216" y="269.063959" style="fill: #ff8c00; stroke: #ff8c00"/>
     <use xlink:href="#m73c530e03a" x="365.639853" y="278.608174" style="fill: #ff8c00; stroke: #ff8c00"/>
     <use xlink:href="#m73c530e03a" x="372.88949" y="278.254684" style="fill: #ff8c00; stroke: #ff8c00"/>
     <use xlink:href="#m73c530e03a" x="380.139127" y="302.645455" style="fill: #ff8c00; stroke: #ff8c00"/>
     <use xlink:href="#m73c530e03a" x="387.388765" y="267.650001" style="fill: #ff8c00; stroke: #ff8c00"/>
     <use xlink:href="#m73c530e03a" x="394.638402" y="269.063959" style="fill: #ff8c00; stroke: #ff8c00"/>
     <use xlink:href="#m73c530e03a" x="402.923701" y="264.645341" style="fill: #ff8c00; stroke: #ff8c00"/>
     <use xlink:href="#m73c530e03a" x="410.173338" y="261.640681" style="fill: #ff8c00; stroke: #ff8c00"/>
     <use xlink:href="#m73c530e03a" x="417.422976" y="243.789465" style="fill: #ff8c00; stroke: #ff8c00"/>
     <use xlink:href="#m73c530e03a" x="424.672613" y="229.826633" style="fill: #ff8c00; stroke: #ff8c00"/>
     <use xlink:href="#m73c530e03a" x="431.92225" y="254.570893" style="fill: #ff8c00; stroke: #ff8c00"/>
     <use xlink:href="#m73c530e03a" x="439.171887" y="265.70581" style="fill: #ff8c00; stroke: #ff8c00"/>
     <use xlink:href="#m73c530e03a" x="460.920799" y="241.845273" style="fill: #ff8c00; stroke: #ff8c00"/>
     <use xlink:href="#m73c530e03a" x="468.170436" y="242.198763" style="fill: #ff8c00; stroke: #ff8c00"/>
    </g>
   </g>
   <g id="patch_3">
    <path d="M 135 315 
L 135 43.2 
" style="fill: none; stroke: #000000; stroke-width: 0.8; stroke-linejoin: miter; stroke-linecap: square"/>
   </g>
   <g id="patch_4">
    <path d="M 515.454545 315 
L 515.454545 43.2 
" style="fill: none; stroke: #000000; stroke-width: 0.8; stroke-linejoin: miter; stroke-linecap: square"/>
   </g>
   <g id="patch_5">
    <path d="M 135 315 
L 515.454545 315 
" style="fill: none; stroke: #000000; stroke-width: 0.8; stroke-linejoin: miter; stroke-linecap: square"/>
   </g>
   <g id="patch_6">
    <path d="M 135 43.2 
L 515.454545 43.2 
" style="fill: none; stroke: #000000; stroke-width: 0.8; stroke-linejoin: miter; stroke-linecap: square"/>
   </g>
   <g id="text_13">
    <!-- Soil water content (10cm) -->
    <g transform="translate(221.146023 37.2)scale(0.16 -0.16)">
     <defs>
      <path id="DejaVuSans-69" d="M 603 3500 
L 1178 3500 
L 1178 0 
L 603 0 
L 603 3500 
z
M 603 4863 
L 1178 4863 
L 1178 4134 
L 603 4134 
L 603 4863 
z
" transform="scale(0.015625)"/>
      <path id="DejaVuSans-20" transform="scale(0.015625)"/>
      <path id="DejaVuSans-77" d="M 269 3500 
L 844 3500 
L 1563 769 
L 2278 3500 
L 2956 3500 
L 3675 769 
L 4391 3500 
L 4966 3500 
L 4050 0 
L 3372 0 
L 2619 2869 
L 1863 0 
L 1184 0 
L 269 3500 
z
" transform="scale(0.015625)"/>
      <path id="DejaVuSans-74" d="M 1172 4494 
L 1172 3500 
L 2356 3500 
L 2356 3053 
L 1172 3053 
L 1172 1153 
Q 1172 725 1289 603 
Q 1406 481 1766 481 
L 2356 481 
L 2356 0 
L 1766 0 
Q 1100 0 847 248 
Q 594 497 594 1153 
L 594 3053 
L 172 3053 
L 172 3500 
L 594 3500 
L 594 4494 
L 1172 4494 
z
" transform="scale(0.015625)"/>
      <path id="DejaVuSans-63" d="M 3122 3366 
L 3122 2828 
Q 2878 2963 2633 3030 
Q 2388 3097 2138 3097 
Q 1578 3097 1268 2742 
Q 959 2388 959 1747 
Q 959 1106 1268 751 
Q 1578 397 2138 397 
Q 2388 397 2633 464 
Q 2878 531 3122 666 
L 3122 134 
Q 2881 22 2623 -34 
Q 2366 -91 2075 -91 
Q 1284 -91 818 406 
Q 353 903 353 1747 
Q 353 2603 823 3093 
Q 1294 3584 2113 3584 
Q 2378 3584 2631 3529 
Q 2884 3475 3122 3366 
z
" transform="scale(0.015625)"/>
      <path id="DejaVuSans-28" d="M 1984 4856 
Q 1566 4138 1362 3434 
Q 1159 2731 1159 2009 
Q 1159 1288 1364 580 
Q 1569 -128 1984 -844 
L 1484 -844 
Q 1016 -109 783 600 
Q 550 1309 550 2009 
Q 550 2706 781 3412 
Q 1013 4119 1484 4856 
L 1984 4856 
z
" transform="scale(0.015625)"/>
      <path id="DejaVuSans-29" d="M 513 4856 
L 1013 4856 
Q 1481 4119 1714 3412 
Q 1947 2706 1947 2009 
Q 1947 1309 1714 600 
Q 1481 -109 1013 -844 
L 513 -844 
Q 928 -128 1133 580 
Q 1338 1288 1338 2009 
Q 1338 2731 1133 3434 
Q 928 4138 513 4856 
z
" transform="scale(0.015625)"/>
     </defs>
     <use xlink:href="#DejaVuSans-53"/>
     <use xlink:href="#DejaVuSans-6f" x="63.476562"/>
     <use xlink:href="#DejaVuSans-69" x="124.658203"/>
     <use xlink:href="#DejaVuSans-6c" x="152.441406"/>
     <use xlink:href="#DejaVuSans-20" x="180.224609"/>
     <use xlink:href="#DejaVuSans-77" x="212.011719"/>
     <use xlink:href="#DejaVuSans-61" x="293.798828"/>
     <use xlink:href="#DejaVuSans-74" x="355.078125"/>
     <use xlink:href="#DejaVuSans-65" x="394.287109"/>
     <use xlink:href="#DejaVuSans-72" x="455.810547"/>
     <use xlink:href="#DejaVuSans-20" x="496.923828"/>
     <use xlink:href="#DejaVuSans-63" x="528.710938"/>
     <use xlink:href="#DejaVuSans-6f" x="583.691406"/>
     <use xlink:href="#DejaVuSans-6e" x="644.873047"/>
     <use xlink:href="#DejaVuSans-74" x="708.251953"/>
     <use xlink:href="#DejaVuSans-65" x="747.460938"/>
     <use xlink:href="#DejaVuSans-6e" x="808.984375"/>
     <use xlink:href="#DejaVuSans-74" x="872.363281"/>
     <use xlink:href="#DejaVuSans-20" x="911.572266"/>
     <use xlink:href="#DejaVuSans-28" x="943.359375"/>
     <use xlink:href="#DejaVuSans-31" x="982.373047"/>
     <use xlink:href="#DejaVuSans-30" x="1045.996094"/>
     <use xlink:href="#DejaVuSans-63" x="1109.619141"/>
     <use xlink:href="#DejaVuSans-6d" x="1164.599609"/>
     <use xlink:href="#DejaVuSans-29" x="1262.011719"/>
    </g>
   </g>
   <g id="legend_1">
    <g id="patch_7">
     <path d="M 388.054545 80.55625 
L 508.454545 80.55625 
Q 510.454545 80.55625 510.454545 78.55625 
L 510.454545 50.2 
Q 510.454545 48.2 508.454545 48.2 
L 388.054545 48.2 
Q 386.054545 48.2 386.054545 50.2 
L 386.054545 78.55625 
Q 386.054545 80.55625 388.054545 80.55625 
z
" style="fill: #ffffff; opacity: 0.8; stroke: #cccccc; stroke-linejoin: miter"/>
    </g>
    <g id="line2d_13">
     <path d="M 390.054545 56.298437 
L 400.054545 56.298437 
L 410.054545 56.298437 
" style="fill: none; stroke: #6495ed; stroke-width: 1.5; stroke-linecap: square"/>
    </g>
    <g id="text_14">
     <!-- $CLM5.0^*-FANv3$ -->
     <g transform="translate(418.054545 59.798437)scale(0.1 -0.1)">
      <defs>
       <path id="DejaVuSans-Oblique-43" d="M 4447 4306 
L 4319 3641 
Q 4019 3944 3683 4091 
Q 3347 4238 2956 4238 
Q 2422 4238 2017 3981 
Q 1613 3725 1319 3200 
Q 1131 2863 1032 2486 
Q 934 2109 934 1728 
Q 934 1091 1264 756 
Q 1594 422 2222 422 
Q 2656 422 3056 561 
Q 3456 700 3834 978 
L 3688 231 
Q 3316 72 2936 -9 
Q 2556 -91 2175 -91 
Q 1278 -91 773 396 
Q 269 884 269 1753 
Q 269 2309 461 2846 
Q 653 3384 1013 3828 
Q 1394 4300 1883 4525 
Q 2372 4750 3022 4750 
Q 3422 4750 3780 4639 
Q 4138 4528 4447 4306 
z
" transform="scale(0.015625)"/>
       <path id="DejaVuSans-Oblique-4c" d="M 1075 4666 
L 1709 4666 
L 909 525 
L 3181 525 
L 3078 0 
L 172 0 
L 1075 4666 
z
" transform="scale(0.015625)"/>
       <path id="DejaVuSans-Oblique-4d" d="M 1081 4666 
L 2028 4666 
L 2572 1522 
L 4378 4666 
L 5350 4666 
L 4441 0 
L 3828 0 
L 4622 4091 
L 2791 897 
L 2175 897 
L 1581 4103 
L 788 0 
L 172 0 
L 1081 4666 
z
" transform="scale(0.015625)"/>
       <path id="DejaVuSans-2e" d="M 684 794 
L 1344 794 
L 1344 0 
L 684 0 
L 684 794 
z
" transform="scale(0.015625)"/>
       <path id="DejaVuSans-2a" d="M 3009 3897 
L 1888 3291 
L 3009 2681 
L 2828 2375 
L 1778 3009 
L 1778 1831 
L 1422 1831 
L 1422 3009 
L 372 2375 
L 191 2681 
L 1313 3291 
L 191 3897 
L 372 4206 
L 1422 3572 
L 1422 4750 
L 1778 4750 
L 1778 3572 
L 2828 4206 
L 3009 3897 
z
" transform="scale(0.015625)"/>
       <path id="DejaVuSans-2212" d="M 678 2272 
L 4684 2272 
L 4684 1741 
L 678 1741 
L 678 2272 
z
" transform="scale(0.015625)"/>
       <path id="DejaVuSans-Oblique-46" d="M 1081 4666 
L 3756 4666 
L 3653 4134 
L 1606 4134 
L 1338 2759 
L 3188 2759 
L 3084 2228 
L 1234 2228 
L 800 0 
L 172 0 
L 1081 4666 
z
" transform="scale(0.015625)"/>
       <path id="DejaVuSans-Oblique-41" d="M 2356 4666 
L 3072 4666 
L 3938 0 
L 3278 0 
L 3084 1197 
L 984 1197 
L 325 0 
L -341 0 
L 2356 4666 
z
M 2584 4044 
L 1275 1722 
L 2988 1722 
L 2584 4044 
z
" transform="scale(0.015625)"/>
       <path id="DejaVuSans-Oblique-4e" d="M 1081 4666 
L 1931 4666 
L 3219 666 
L 4000 4666 
L 4616 4666 
L 3706 0 
L 2853 0 
L 1569 4025 
L 788 0 
L 172 0 
L 1081 4666 
z
" transform="scale(0.015625)"/>
       <path id="DejaVuSans-Oblique-76" d="M 459 3500 
L 1069 3500 
L 1581 525 
L 3256 3500 
L 3866 3500 
L 1875 0 
L 1100 0 
L 459 3500 
z
" transform="scale(0.015625)"/>
      </defs>
      <use xlink:href="#DejaVuSans-Oblique-43" transform="translate(0 0.765625)"/>
      <use xlink:href="#DejaVuSans-Oblique-4c" transform="translate(69.824219 0.765625)"/>
      <use xlink:href="#DejaVuSans-Oblique-4d" transform="translate(125.537109 0.765625)"/>
      <use xlink:href="#DejaVuSans-35" transform="translate(211.816406 0.765625)"/>
      <use xlink:href="#DejaVuSans-2e" transform="translate(275.439453 0.765625)"/>
      <use xlink:href="#DejaVuSans-30" transform="translate(307.226562 0.765625)"/>
      <use xlink:href="#DejaVuSans-2a" transform="translate(385.444336 39.046875)scale(0.7)"/>
      <use xlink:href="#DejaVuSans-2212" transform="translate(456.298828 0.765625)"/>
      <use xlink:href="#DejaVuSans-Oblique-46" transform="translate(559.570312 0.765625)"/>
      <use xlink:href="#DejaVuSans-Oblique-41" transform="translate(617.089844 0.765625)"/>
      <use xlink:href="#DejaVuSans-Oblique-4e" transform="translate(685.498047 0.765625)"/>
      <use xlink:href="#DejaVuSans-Oblique-76" transform="translate(760.302734 0.765625)"/>
      <use xlink:href="#DejaVuSans-33" transform="translate(819.482422 0.765625)"/>
     </g>
    </g>
    <g id="PathCollection_2">
     <g>
      <use xlink:href="#m73c530e03a" x="400.054545" y="71.851562" style="fill: #ff8c00; stroke: #ff8c00"/>
     </g>
    </g>
    <g id="text_15">
     <!-- MESOCOSM -->
     <g transform="translate(418.054545 74.476562)scale(0.1 -0.1)">
      <defs>
       <path id="DejaVuSans-45" d="M 628 4666 
L 3578 4666 
L 3578 4134 
L 1259 4134 
L 1259 2753 
L 3481 2753 
L 3481 2222 
L 1259 2222 
L 1259 531 
L 3634 531 
L 3634 0 
L 628 0 
L 628 4666 
z
" transform="scale(0.015625)"/>
       <path id="DejaVuSans-4f" d="M 2522 4238 
Q 1834 4238 1429 3725 
Q 1025 3213 1025 2328 
Q 1025 1447 1429 934 
Q 1834 422 2522 422 
Q 3209 422 3611 934 
Q 4013 1447 4013 2328 
Q 4013 3213 3611 3725 
Q 3209 4238 2522 4238 
z
M 2522 4750 
Q 3503 4750 4090 4092 
Q 4678 3434 4678 2328 
Q 4678 1225 4090 567 
Q 3503 -91 2522 -91 
Q 1538 -91 948 565 
Q 359 1222 359 2328 
Q 359 3434 948 4092 
Q 1538 4750 2522 4750 
z
" transform="scale(0.015625)"/>
       <path id="DejaVuSans-43" d="M 4122 4306 
L 4122 3641 
Q 3803 3938 3442 4084 
Q 3081 4231 2675 4231 
Q 1875 4231 1450 3742 
Q 1025 3253 1025 2328 
Q 1025 1406 1450 917 
Q 1875 428 2675 428 
Q 3081 428 3442 575 
Q 3803 722 4122 1019 
L 4122 359 
Q 3791 134 3420 21 
Q 3050 -91 2638 -91 
Q 1578 -91 968 557 
Q 359 1206 359 2328 
Q 359 3453 968 4101 
Q 1578 4750 2638 4750 
Q 3056 4750 3426 4639 
Q 3797 4528 4122 4306 
z
" transform="scale(0.015625)"/>
      </defs>
      <use xlink:href="#DejaVuSans-4d"/>
      <use xlink:href="#DejaVuSans-45" x="86.279297"/>
      <use xlink:href="#DejaVuSans-53" x="149.462891"/>
      <use xlink:href="#DejaVuSans-4f" x="212.939453"/>
      <use xlink:href="#DejaVuSans-43" x="291.650391"/>
      <use xlink:href="#DejaVuSans-4f" x="361.474609"/>
      <use xlink:href="#DejaVuSans-53" x="440.185547"/>
      <use xlink:href="#DejaVuSans-4d" x="503.662109"/>
     </g>
    </g>
   </g>
  </g>
  <g id="axes_2">
   <g id="patch_8">
    <path d="M 591.545455 315 
L 972 315 
L 972 43.2 
L 591.545455 43.2 
z
" style="fill: #ffffff"/>
   </g>
   <g id="matplotlib.axis_3">
    <g id="xtick_7">
     <g id="line2d_14">
      <g>
       <use xlink:href="#m7912adbc34" x="608.838843" y="315" style="stroke: #000000; stroke-width: 0.8"/>
      </g>
     </g>
     <g id="text_16">
      <!-- Jan -->
      <g transform="translate(595.735562 334.917344)scale(0.17 -0.17)">
       <use xlink:href="#DejaVuSans-4a"/>
       <use xlink:href="#DejaVuSans-61" x="29.492188"/>
       <use xlink:href="#DejaVuSans-6e" x="90.771484"/>
      </g>
     </g>
    </g>
    <g id="xtick_8">
     <g id="line2d_15">
      <g>
       <use xlink:href="#m7912adbc34" x="669.935245" y="315" style="stroke: #000000; stroke-width: 0.8"/>
      </g>
     </g>
     <g id="text_17">
      <!-- Mar -->
      <g transform="translate(653.898136 334.917344)scale(0.17 -0.17)">
       <use xlink:href="#DejaVuSans-4d"/>
       <use xlink:href="#DejaVuSans-61" x="86.279297"/>
       <use xlink:href="#DejaVuSans-72" x="147.558594"/>
      </g>
     </g>
    </g>
    <g id="xtick_9">
     <g id="line2d_16">
      <g>
       <use xlink:href="#m7912adbc34" x="733.102712" y="315" style="stroke: #000000; stroke-width: 0.8"/>
      </g>
     </g>
     <g id="text_18">
      <!-- May -->
      <g transform="translate(715.528962 334.917344)scale(0.17 -0.17)">
       <use xlink:href="#DejaVuSans-4d"/>
       <use xlink:href="#DejaVuSans-61" x="86.279297"/>
       <use xlink:href="#DejaVuSans-79" x="147.558594"/>
      </g>
     </g>
    </g>
    <g id="xtick_10">
     <g id="line2d_17">
      <g>
       <use xlink:href="#m7912adbc34" x="796.270179" y="315" style="stroke: #000000; stroke-width: 0.8"/>
      </g>
     </g>
     <g id="text_19">
      <!-- Jul -->
      <g transform="translate(786.014397 334.917344)scale(0.17 -0.17)">
       <use xlink:href="#DejaVuSans-4a"/>
       <use xlink:href="#DejaVuSans-75" x="29.492188"/>
       <use xlink:href="#DejaVuSans-6c" x="92.871094"/>
      </g>
     </g>
    </g>
    <g id="xtick_11">
     <g id="line2d_18">
      <g>
       <use xlink:href="#m7912adbc34" x="860.473178" y="315" style="stroke: #000000; stroke-width: 0.8"/>
      </g>
     </g>
     <g id="text_20">
      <!-- Sep -->
      <g transform="translate(844.450678 334.917344)scale(0.17 -0.17)">
       <use xlink:href="#DejaVuSans-53"/>
       <use xlink:href="#DejaVuSans-65" x="63.476562"/>
       <use xlink:href="#DejaVuSans-70" x="125"/>
      </g>
     </g>
    </g>
    <g id="xtick_12">
     <g id="line2d_19">
      <g>
       <use xlink:href="#m7912adbc34" x="923.640644" y="315" style="stroke: #000000; stroke-width: 0.8"/>
      </g>
     </g>
     <g id="text_21">
      <!-- Nov -->
      <g transform="translate(907.049707 334.917344)scale(0.17 -0.17)">
       <use xlink:href="#DejaVuSans-4e"/>
       <use xlink:href="#DejaVuSans-6f" x="74.804688"/>
       <use xlink:href="#DejaVuSans-76" x="135.986328"/>
      </g>
     </g>
    </g>
   </g>
   <g id="matplotlib.axis_4">
    <g id="ytick_6">
     <g id="line2d_20">
      <g>
       <use xlink:href="#m560becdf9e" x="591.545455" y="302.645455" style="stroke: #000000; stroke-width: 0.8"/>
      </g>
     </g>
     <g id="text_22">
      <!-- 0 -->
      <g transform="translate(573.729205 309.104126)scale(0.17 -0.17)">
       <use xlink:href="#DejaVuSans-30"/>
      </g>
     </g>
    </g>
    <g id="ytick_7">
     <g id="line2d_21">
      <g>
       <use xlink:href="#m560becdf9e" x="591.545455" y="226.941267" style="stroke: #000000; stroke-width: 0.8"/>
      </g>
     </g>
     <g id="text_23">
      <!-- 200 -->
      <g transform="translate(552.096705 233.399939)scale(0.17 -0.17)">
       <use xlink:href="#DejaVuSans-32"/>
       <use xlink:href="#DejaVuSans-30" x="63.623047"/>
       <use xlink:href="#DejaVuSans-30" x="127.246094"/>
      </g>
     </g>
    </g>
    <g id="ytick_8">
     <g id="line2d_22">
      <g>
       <use xlink:href="#m560becdf9e" x="591.545455" y="151.237079" style="stroke: #000000; stroke-width: 0.8"/>
      </g>
     </g>
     <g id="text_24">
      <!-- 400 -->
      <g transform="translate(552.096705 157.695751)scale(0.17 -0.17)">
       <use xlink:href="#DejaVuSans-34"/>
       <use xlink:href="#DejaVuSans-30" x="63.623047"/>
       <use xlink:href="#DejaVuSans-30" x="127.246094"/>
      </g>
     </g>
    </g>
    <g id="ytick_9">
     <g id="line2d_23">
      <g>
       <use xlink:href="#m560becdf9e" x="591.545455" y="75.532892" style="stroke: #000000; stroke-width: 0.8"/>
      </g>
     </g>
     <g id="text_25">
      <!-- 600 -->
      <g transform="translate(552.096705 81.991564)scale(0.17 -0.17)">
       <defs>
        <path id="DejaVuSans-36" d="M 2113 2584 
Q 1688 2584 1439 2293 
Q 1191 2003 1191 1497 
Q 1191 994 1439 701 
Q 1688 409 2113 409 
Q 2538 409 2786 701 
Q 3034 994 3034 1497 
Q 3034 2003 2786 2293 
Q 2538 2584 2113 2584 
z
M 3366 4563 
L 3366 3988 
Q 3128 4100 2886 4159 
Q 2644 4219 2406 4219 
Q 1781 4219 1451 3797 
Q 1122 3375 1075 2522 
Q 1259 2794 1537 2939 
Q 1816 3084 2150 3084 
Q 2853 3084 3261 2657 
Q 3669 2231 3669 1497 
Q 3669 778 3244 343 
Q 2819 -91 2113 -91 
Q 1303 -91 875 529 
Q 447 1150 447 2328 
Q 447 3434 972 4092 
Q 1497 4750 2381 4750 
Q 2619 4750 2861 4703 
Q 3103 4656 3366 4563 
z
" transform="scale(0.015625)"/>
       </defs>
       <use xlink:href="#DejaVuSans-36"/>
       <use xlink:href="#DejaVuSans-30" x="63.623047"/>
       <use xlink:href="#DejaVuSans-30" x="127.246094"/>
      </g>
     </g>
    </g>
    <g id="text_26">
     <!-- mesocosm, mm -->
     <g transform="translate(544.561236 246.782578)rotate(-90)scale(0.17 -0.17)">
      <defs>
       <path id="DejaVuSans-73" d="M 2834 3397 
L 2834 2853 
Q 2591 2978 2328 3040 
Q 2066 3103 1784 3103 
Q 1356 3103 1142 2972 
Q 928 2841 928 2578 
Q 928 2378 1081 2264 
Q 1234 2150 1697 2047 
L 1894 2003 
Q 2506 1872 2764 1633 
Q 3022 1394 3022 966 
Q 3022 478 2636 193 
Q 2250 -91 1575 -91 
Q 1294 -91 989 -36 
Q 684 19 347 128 
L 347 722 
Q 666 556 975 473 
Q 1284 391 1588 391 
Q 1994 391 2212 530 
Q 2431 669 2431 922 
Q 2431 1156 2273 1281 
Q 2116 1406 1581 1522 
L 1381 1569 
Q 847 1681 609 1914 
Q 372 2147 372 2553 
Q 372 3047 722 3315 
Q 1072 3584 1716 3584 
Q 2034 3584 2315 3537 
Q 2597 3491 2834 3397 
z
" transform="scale(0.015625)"/>
       <path id="DejaVuSans-2c" d="M 750 794 
L 1409 794 
L 1409 256 
L 897 -744 
L 494 -744 
L 750 256 
L 750 794 
z
" transform="scale(0.015625)"/>
      </defs>
      <use xlink:href="#DejaVuSans-6d"/>
      <use xlink:href="#DejaVuSans-65" x="97.412109"/>
      <use xlink:href="#DejaVuSans-73" x="158.935547"/>
      <use xlink:href="#DejaVuSans-6f" x="211.035156"/>
      <use xlink:href="#DejaVuSans-63" x="272.216797"/>
      <use xlink:href="#DejaVuSans-6f" x="327.197266"/>
      <use xlink:href="#DejaVuSans-73" x="388.378906"/>
      <use xlink:href="#DejaVuSans-6d" x="440.478516"/>
      <use xlink:href="#DejaVuSans-2c" x="537.890625"/>
      <use xlink:href="#DejaVuSans-20" x="569.677734"/>
      <use xlink:href="#DejaVuSans-6d" x="601.464844"/>
      <use xlink:href="#DejaVuSans-6d" x="698.876953"/>
     </g>
    </g>
   </g>
   <g id="line2d_24">
    <path d="M 680.290568 299.680374 
L 685.468229 298.83501 
L 687.539293 298.83501 
L 688.574826 298.83501 
L 690.64589 297.484952 
L 693.752487 297.484952 
L 697.894616 297.484952 
L 701.001212 297.484952 
L 707.214406 274.231149 
L 714.463132 270.408088 
L 716.534196 268.09911 
L 721.711857 266.610261 
L 723.782922 263.670415 
L 726.889518 243.63404 
L 734.138244 239.445075 
L 738.280373 229.691852 
L 744.493567 223.685987 
L 752.777825 221.301305 
L 758.991018 215.472082 
L 767.275276 206.665162 
L 773.488469 204.129072 
L 779.701663 196.293688 
L 784.879324 180.786947 
L 806.625501 177.720928 
L 815.945291 177.645223 
L 860.473178 176.3204 
" clip-path="url(#p96c0e64f67)" style="fill: none; stroke: #ff0000; stroke-width: 1.5; stroke-linecap: square"/>
   </g>
   <g id="line2d_25">
    <path d="M 608.838843 302.645455 
L 621.26523 302.54931 
L 622.300762 298.415105 
L 623.336294 293.223311 
L 624.371827 293.223311 
L 625.407359 292.838734 
L 626.442891 291.973435 
L 650.260133 291.973435 
L 651.295665 291.011992 
L 673.041842 291.011992 
L 674.077374 283.032013 
L 675.112906 282.359003 
L 676.148439 281.109126 
L 685.468229 281.109126 
L 686.503761 280.532261 
L 687.539293 269.956386 
L 689.610358 269.860243 
L 690.64589 269.860243 
L 691.681422 262.457131 
L 692.716955 262.168697 
L 694.788019 262.072554 
L 698.930148 262.072554 
L 699.96568 260.149667 
L 701.001212 259.668946 
L 702.036745 259.668946 
L 703.072277 253.900285 
L 705.143341 253.804142 
L 707.214406 253.707998 
L 708.249938 252.746558 
L 710.321003 252.650414 
L 713.427599 252.650414 
L 714.463132 246.593322 
L 717.569728 246.593322 
L 718.605261 245.631882 
L 719.640793 244.862728 
L 720.676325 244.862728 
L 721.711857 240.343944 
L 722.74739 240.151657 
L 723.782922 226.59531 
L 724.818454 223.807126 
L 725.853986 222.653392 
L 729.996115 222.653392 
L 731.031647 219.961351 
L 732.06718 217.942321 
L 733.102712 217.65389 
L 734.138244 216.30787 
L 735.173776 209.673912 
L 739.315905 209.673912 
L 740.351438 203.905251 
L 741.38697 203.809107 
L 742.422502 203.039948 
L 746.564631 203.039948 
L 747.600163 202.847661 
L 749.671228 202.751517 
L 750.70676 197.848153 
L 751.742292 197.848153 
L 752.777825 197.655866 
L 755.884421 197.655866 
L 756.919953 196.98285 
L 757.955486 189.579744 
L 758.991018 185.73397 
L 760.02655 185.73397 
L 761.062082 185.349396 
L 762.097615 185.157109 
L 763.133147 185.157109 
L 764.168679 184.484105 
L 768.310808 184.484105 
L 769.34634 182.368925 
L 770.381873 151.891174 
L 773.488469 151.891174 
L 774.524002 149.872149 
L 775.559534 147.372395 
L 776.595066 146.410949 
L 778.666131 146.410949 
L 779.701663 141.89217 
L 780.737195 141.315309 
L 782.80826 140.834592 
L 784.879324 140.546162 
L 787.985921 140.546162 
L 789.021453 138.62328 
L 790.056985 138.430993 
L 798.341243 138.33485 
L 799.376775 136.988829 
L 800.412308 136.21967 
L 801.44784 133.912203 
L 802.483372 133.912203 
L 803.518904 127.951261 
L 805.589969 127.855117 
L 806.625501 126.797527 
L 808.696566 126.701384 
L 809.732098 126.701384 
L 810.76763 125.163077 
L 819.051888 125.066933 
L 820.08742 122.85561 
L 823.194017 122.85561 
L 824.229549 120.452 
L 833.549339 120.452 
L 835.620404 120.163569 
L 841.833597 120.163569 
L 842.86913 118.240688 
L 843.904662 117.086954 
L 845.975726 117.086954 
L 847.011258 113.529611 
L 848.046791 111.126001 
L 855.295516 111.126001 
L 856.331049 79.686803 
L 857.366581 79.398361 
L 868.757436 79.398361 
L 869.792968 76.994762 
L 870.8285 76.610188 
L 873.935097 76.417878 
L 876.006161 76.417878 
L 877.041693 73.918125 
L 879.112758 73.82197 
L 882.219355 73.82197 
L 883.254887 71.514503 
L 894.645742 71.514503 
L 895.681274 71.226061 
L 901.894467 71.226061 
L 902.93 70.264626 
L 914.320854 70.264626 
L 915.356386 68.053314 
L 916.391919 67.476453 
L 925.711709 67.476453 
L 926.747241 61.515511 
L 927.782773 57.862035 
L 937.102563 57.862035 
L 938.138096 55.939143 
L 940.20916 55.842987 
L 951.600015 55.746832 
L 952.635547 55.554545 
L 954.706612 55.554545 
L 954.706612 55.554545 
" clip-path="url(#p96c0e64f67)" style="fill: none; stroke: #800080; stroke-width: 1.5; stroke-linecap: square"/>
   </g>
   <g id="patch_9">
    <path d="M 591.545455 315 
L 591.545455 43.2 
" style="fill: none; stroke: #000000; stroke-width: 0.8; stroke-linejoin: miter; stroke-linecap: square"/>
   </g>
   <g id="patch_10">
    <path d="M 972 315 
L 972 43.2 
" style="fill: none; stroke: #000000; stroke-width: 0.8; stroke-linejoin: miter; stroke-linecap: square"/>
   </g>
   <g id="patch_11">
    <path d="M 591.545455 315 
L 972 315 
" style="fill: none; stroke: #000000; stroke-width: 0.8; stroke-linejoin: miter; stroke-linecap: square"/>
   </g>
   <g id="patch_12">
    <path d="M 591.545455 43.2 
L 972 43.2 
" style="fill: none; stroke: #000000; stroke-width: 0.8; stroke-linejoin: miter; stroke-linecap: square"/>
   </g>
   <g id="text_27">
    <!-- Cumulative runoff and precipitation -->
    <g transform="translate(639.082727 37.2)scale(0.16 -0.16)">
     <defs>
      <path id="DejaVuSans-66" d="M 2375 4863 
L 2375 4384 
L 1825 4384 
Q 1516 4384 1395 4259 
Q 1275 4134 1275 3809 
L 1275 3500 
L 2222 3500 
L 2222 3053 
L 1275 3053 
L 1275 0 
L 697 0 
L 697 3053 
L 147 3053 
L 147 3500 
L 697 3500 
L 697 3744 
Q 697 4328 969 4595 
Q 1241 4863 1831 4863 
L 2375 4863 
z
" transform="scale(0.015625)"/>
      <path id="DejaVuSans-64" d="M 2906 2969 
L 2906 4863 
L 3481 4863 
L 3481 0 
L 2906 0 
L 2906 525 
Q 2725 213 2448 61 
Q 2172 -91 1784 -91 
Q 1150 -91 751 415 
Q 353 922 353 1747 
Q 353 2572 751 3078 
Q 1150 3584 1784 3584 
Q 2172 3584 2448 3432 
Q 2725 3281 2906 2969 
z
M 947 1747 
Q 947 1113 1208 752 
Q 1469 391 1925 391 
Q 2381 391 2643 752 
Q 2906 1113 2906 1747 
Q 2906 2381 2643 2742 
Q 2381 3103 1925 3103 
Q 1469 3103 1208 2742 
Q 947 2381 947 1747 
z
" transform="scale(0.015625)"/>
     </defs>
     <use xlink:href="#DejaVuSans-43"/>
     <use xlink:href="#DejaVuSans-75" x="69.824219"/>
     <use xlink:href="#DejaVuSans-6d" x="133.203125"/>
     <use xlink:href="#DejaVuSans-75" x="230.615234"/>
     <use xlink:href="#DejaVuSans-6c" x="293.994141"/>
     <use xlink:href="#DejaVuSans-61" x="321.777344"/>
     <use xlink:href="#DejaVuSans-74" x="383.056641"/>
     <use xlink:href="#DejaVuSans-69" x="422.265625"/>
     <use xlink:href="#DejaVuSans-76" x="450.048828"/>
     <use xlink:href="#DejaVuSans-65" x="509.228516"/>
     <use xlink:href="#DejaVuSans-20" x="570.751953"/>
     <use xlink:href="#DejaVuSans-72" x="602.539062"/>
     <use xlink:href="#DejaVuSans-75" x="643.652344"/>
     <use xlink:href="#DejaVuSans-6e" x="707.03125"/>
     <use xlink:href="#DejaVuSans-6f" x="770.410156"/>
     <use xlink:href="#DejaVuSans-66" x="831.591797"/>
     <use xlink:href="#DejaVuSans-66" x="866.796875"/>
     <use xlink:href="#DejaVuSans-20" x="902.001953"/>
     <use xlink:href="#DejaVuSans-61" x="933.789062"/>
     <use xlink:href="#DejaVuSans-6e" x="995.068359"/>
     <use xlink:href="#DejaVuSans-64" x="1058.447266"/>
     <use xlink:href="#DejaVuSans-20" x="1121.923828"/>
     <use xlink:href="#DejaVuSans-70" x="1153.710938"/>
     <use xlink:href="#DejaVuSans-72" x="1217.1875"/>
     <use xlink:href="#DejaVuSans-65" x="1256.050781"/>
     <use xlink:href="#DejaVuSans-63" x="1317.574219"/>
     <use xlink:href="#DejaVuSans-69" x="1372.554688"/>
     <use xlink:href="#DejaVuSans-70" x="1400.337891"/>
     <use xlink:href="#DejaVuSans-69" x="1463.814453"/>
     <use xlink:href="#DejaVuSans-74" x="1491.597656"/>
     <use xlink:href="#DejaVuSans-61" x="1530.806641"/>
     <use xlink:href="#DejaVuSans-74" x="1592.085938"/>
     <use xlink:href="#DejaVuSans-69" x="1631.294922"/>
     <use xlink:href="#DejaVuSans-6f" x="1659.078125"/>
     <use xlink:href="#DejaVuSans-6e" x="1720.259766"/>
    </g>
   </g>
   <g id="legend_2">
    <g id="patch_13">
     <path d="M 598.545455 80.55625 
L 745.29858 80.55625 
Q 747.29858 80.55625 747.29858 78.55625 
L 747.29858 50.2 
Q 747.29858 48.2 745.29858 48.2 
L 598.545455 48.2 
Q 596.545455 48.2 596.545455 50.2 
L 596.545455 78.55625 
Q 596.545455 80.55625 598.545455 80.55625 
z
" style="fill: #ffffff; opacity: 0.8; stroke: #cccccc; stroke-linejoin: miter"/>
    </g>
    <g id="line2d_26">
     <path d="M 600.545455 56.298437 
L 610.545455 56.298437 
L 620.545455 56.298437 
" style="fill: none; stroke: #ff0000; stroke-width: 1.5; stroke-linecap: square"/>
    </g>
    <g id="text_28">
     <!-- MESOCOSM Runoff -->
     <g transform="translate(628.545455 59.798437)scale(0.1 -0.1)">
      <defs>
       <path id="DejaVuSans-52" d="M 2841 2188 
Q 3044 2119 3236 1894 
Q 3428 1669 3622 1275 
L 4263 0 
L 3584 0 
L 2988 1197 
Q 2756 1666 2539 1819 
Q 2322 1972 1947 1972 
L 1259 1972 
L 1259 0 
L 628 0 
L 628 4666 
L 2053 4666 
Q 2853 4666 3247 4331 
Q 3641 3997 3641 3322 
Q 3641 2881 3436 2590 
Q 3231 2300 2841 2188 
z
M 1259 4147 
L 1259 2491 
L 2053 2491 
Q 2509 2491 2742 2702 
Q 2975 2913 2975 3322 
Q 2975 3731 2742 3939 
Q 2509 4147 2053 4147 
L 1259 4147 
z
" transform="scale(0.015625)"/>
      </defs>
      <use xlink:href="#DejaVuSans-4d"/>
      <use xlink:href="#DejaVuSans-45" x="86.279297"/>
      <use xlink:href="#DejaVuSans-53" x="149.462891"/>
      <use xlink:href="#DejaVuSans-4f" x="212.939453"/>
      <use xlink:href="#DejaVuSans-43" x="291.650391"/>
      <use xlink:href="#DejaVuSans-4f" x="361.474609"/>
      <use xlink:href="#DejaVuSans-53" x="440.185547"/>
      <use xlink:href="#DejaVuSans-4d" x="503.662109"/>
      <use xlink:href="#DejaVuSans-20" x="589.941406"/>
      <use xlink:href="#DejaVuSans-52" x="621.728516"/>
      <use xlink:href="#DejaVuSans-75" x="686.710938"/>
      <use xlink:href="#DejaVuSans-6e" x="750.089844"/>
      <use xlink:href="#DejaVuSans-6f" x="813.46875"/>
      <use xlink:href="#DejaVuSans-66" x="874.650391"/>
      <use xlink:href="#DejaVuSans-66" x="909.855469"/>
     </g>
    </g>
    <g id="line2d_27">
     <path d="M 600.545455 70.976562 
L 610.545455 70.976562 
L 620.545455 70.976562 
" style="fill: none; stroke: #800080; stroke-width: 1.5; stroke-linecap: square"/>
    </g>
    <g id="text_29">
     <!-- MESONET Precipitation -->
     <g transform="translate(628.545455 74.476562)scale(0.1 -0.1)">
      <defs>
       <path id="DejaVuSans-54" d="M -19 4666 
L 3928 4666 
L 3928 4134 
L 2272 4134 
L 2272 0 
L 1638 0 
L 1638 4134 
L -19 4134 
L -19 4666 
z
" transform="scale(0.015625)"/>
       <path id="DejaVuSans-50" d="M 1259 4147 
L 1259 2394 
L 2053 2394 
Q 2494 2394 2734 2622 
Q 2975 2850 2975 3272 
Q 2975 3691 2734 3919 
Q 2494 4147 2053 4147 
L 1259 4147 
z
M 628 4666 
L 2053 4666 
Q 2838 4666 3239 4311 
Q 3641 3956 3641 3272 
Q 3641 2581 3239 2228 
Q 2838 1875 2053 1875 
L 1259 1875 
L 1259 0 
L 628 0 
L 628 4666 
z
" transform="scale(0.015625)"/>
      </defs>
      <use xlink:href="#DejaVuSans-4d"/>
      <use xlink:href="#DejaVuSans-45" x="86.279297"/>
      <use xlink:href="#DejaVuSans-53" x="149.462891"/>
      <use xlink:href="#DejaVuSans-4f" x="212.939453"/>
      <use xlink:href="#DejaVuSans-4e" x="291.650391"/>
      <use xlink:href="#DejaVuSans-45" x="366.455078"/>
      <use xlink:href="#DejaVuSans-54" x="429.638672"/>
      <use xlink:href="#DejaVuSans-20" x="490.722656"/>
      <use xlink:href="#DejaVuSans-50" x="522.509766"/>
      <use xlink:href="#DejaVuSans-72" x="581.0625"/>
      <use xlink:href="#DejaVuSans-65" x="619.925781"/>
      <use xlink:href="#DejaVuSans-63" x="681.449219"/>
      <use xlink:href="#DejaVuSans-69" x="736.429688"/>
      <use xlink:href="#DejaVuSans-70" x="764.212891"/>
      <use xlink:href="#DejaVuSans-69" x="827.689453"/>
      <use xlink:href="#DejaVuSans-74" x="855.472656"/>
      <use xlink:href="#DejaVuSans-61" x="894.681641"/>
      <use xlink:href="#DejaVuSans-74" x="955.960938"/>
      <use xlink:href="#DejaVuSans-69" x="995.169922"/>
      <use xlink:href="#DejaVuSans-6f" x="1022.953125"/>
      <use xlink:href="#DejaVuSans-6e" x="1084.134766"/>
     </g>
    </g>
   </g>
  </g>
  <g id="axes_3">
   <g id="matplotlib.axis_5">
    <g id="ytick_10">
     <g id="line2d_28">
      <defs>
       <path id="m39a5546132" d="M 0 0 
L 3.5 0 
" style="stroke: #008000; stroke-width: 0.8"/>
      </defs>
      <g>
       <use xlink:href="#m39a5546132" x="972" y="302.645455" style="fill: #008000; stroke: #008000; stroke-width: 0.8"/>
      </g>
     </g>
     <g id="text_30">
      <!-- 0 -->
      <g style="fill: #008000" transform="translate(979 309.104126)scale(0.17 -0.17)">
       <use xlink:href="#DejaVuSans-30"/>
      </g>
     </g>
    </g>
    <g id="ytick_11">
     <g id="line2d_29">
      <g>
       <use xlink:href="#m39a5546132" x="972" y="237.562554" style="fill: #008000; stroke: #008000; stroke-width: 0.8"/>
      </g>
     </g>
     <g id="text_31">
      <!-- 20 -->
      <g style="fill: #008000" transform="translate(979 244.021225)scale(0.17 -0.17)">
       <use xlink:href="#DejaVuSans-32"/>
       <use xlink:href="#DejaVuSans-30" x="63.623047"/>
      </g>
     </g>
    </g>
    <g id="ytick_12">
     <g id="line2d_30">
      <g>
       <use xlink:href="#m39a5546132" x="972" y="172.479653" style="fill: #008000; stroke: #008000; stroke-width: 0.8"/>
      </g>
     </g>
     <g id="text_32">
      <!-- 40 -->
      <g style="fill: #008000" transform="translate(979 178.938324)scale(0.17 -0.17)">
       <use xlink:href="#DejaVuSans-34"/>
       <use xlink:href="#DejaVuSans-30" x="63.623047"/>
      </g>
     </g>
    </g>
    <g id="ytick_13">
     <g id="line2d_31">
      <g>
       <use xlink:href="#m39a5546132" x="972" y="107.396752" style="fill: #008000; stroke: #008000; stroke-width: 0.8"/>
      </g>
     </g>
     <g id="text_33">
      <!-- 60 -->
      <g style="fill: #008000" transform="translate(979 113.855423)scale(0.17 -0.17)">
       <use xlink:href="#DejaVuSans-36"/>
       <use xlink:href="#DejaVuSans-30" x="63.623047"/>
      </g>
     </g>
    </g>
    <g id="text_34">
     <!-- Modelled runoff, mm -->
     <g style="fill: #008000" transform="translate(1017.549844 267.727109)rotate(-90)scale(0.17 -0.17)">
      <use xlink:href="#DejaVuSans-4d"/>
      <use xlink:href="#DejaVuSans-6f" x="86.279297"/>
      <use xlink:href="#DejaVuSans-64" x="147.460938"/>
      <use xlink:href="#DejaVuSans-65" x="210.9375"/>
      <use xlink:href="#DejaVuSans-6c" x="272.460938"/>
      <use xlink:href="#DejaVuSans-6c" x="300.244141"/>
      <use xlink:href="#DejaVuSans-65" x="328.027344"/>
      <use xlink:href="#DejaVuSans-64" x="389.550781"/>
      <use xlink:href="#DejaVuSans-20" x="453.027344"/>
      <use xlink:href="#DejaVuSans-72" x="484.814453"/>
      <use xlink:href="#DejaVuSans-75" x="525.927734"/>
      <use xlink:href="#DejaVuSans-6e" x="589.306641"/>
      <use xlink:href="#DejaVuSans-6f" x="652.685547"/>
      <use xlink:href="#DejaVuSans-66" x="713.867188"/>
      <use xlink:href="#DejaVuSans-66" x="749.072266"/>
      <use xlink:href="#DejaVuSans-2c" x="784.277344"/>
      <use xlink:href="#DejaVuSans-20" x="816.064453"/>
      <use xlink:href="#DejaVuSans-6d" x="847.851562"/>
      <use xlink:href="#DejaVuSans-6d" x="945.263672"/>
     </g>
    </g>
   </g>
   <g id="line2d_32">
    <path d="M 608.838843 302.645455 
L 611.729535 302.552597 
L 611.902461 302.169512 
L 612.722089 302.169512 
L 612.894509 301.923549 
L 618.029192 301.921318 
L 618.158633 301.782867 
L 619.064724 301.782867 
L 619.194165 301.670786 
L 619.970815 301.661817 
L 620.143235 301.12297 
L 621.912438 301.020779 
L 622.084858 300.95934 
L 656.386863 300.752522 
L 656.516305 300.671924 
L 659.407503 300.664192 
L 659.579923 300.23838 
L 661.392104 300.197774 
L 661.693966 298.59779 
L 662.427636 298.59779 
L 662.68652 297.715753 
L 669.805804 297.620199 
L 669.978224 296.959135 
L 670.711894 296.922057 
L 670.970777 296.183561 
L 671.660964 296.1764 
L 671.876868 295.507263 
L 672.00631 293.942378 
L 672.73998 293.881367 
L 672.9124 293.438605 
L 673.041842 293.220105 
L 673.818491 293.220105 
L 673.904954 292.653602 
L 674.120353 292.058424 
L 674.163837 292.056014 
L 674.336257 291.270085 
L 675.414768 286.02693 
L 676.968066 285.919059 
L 677.183971 285.300897 
L 677.917641 285.243871 
L 678.391923 284.27111 
L 684.346234 284.174842 
L 684.69158 283.52444 
L 685.252324 283.52444 
L 685.295809 283.367107 
L 685.640649 279.259622 
L 686.115436 279.219336 
L 686.244878 278.564841 
L 686.676181 275.33233 
L 686.892086 274.673182 
L 687.150969 274.605065 
L 687.237432 273.742027 
L 687.409852 270.945399 
L 687.625756 270.93747 
L 688.014081 266.948069 
L 688.661288 264.18373 
L 689.222033 264.14944 
L 689.480916 263.230221 
L 691.897327 263.184511 
L 692.199188 256.233668 
L 692.50105 245.539146 
L 692.544534 245.332547 
L 692.759933 238.882725 
L 693.018816 238.404672 
L 693.364162 238.368033 
L 693.493604 238.134608 
L 693.623045 238.006264 
L 693.795465 237.781604 
L 694.054348 237.697092 
L 694.270253 237.664711 
L 694.399694 237.664711 
L 694.658577 236.464821 
L 695.392248 236.389377 
L 695.607647 235.828563 
L 696.470759 235.819929 
L 696.6002 234.561813 
L 697.074988 234.537365 
L 697.506291 234.537365 
L 697.635733 232.661052 
L 698.153499 232.603888 
L 698.541823 232.603888 
L 698.671265 231.662231 
L 699.016611 231.596724 
L 699.577356 231.593826 
L 699.706797 231.252223 
L 700.052143 231.237749 
L 700.267542 225.040437 
L 701.64842 224.908264 
L 701.82084 223.217311 
L 702.209165 223.146268 
L 702.640974 223.07844 
L 702.813394 222.565635 
L 703.072277 222.495548 
L 703.288181 222.49111 
L 703.590043 205.864798 
L 703.805947 204.244274 
L 704.237251 204.209255 
L 704.84148 204.140707 
L 705.056879 203.78584 
L 707.171427 203.545805 
L 707.386826 203.216858 
L 708.465843 203.108084 
L 708.595284 203.085243 
L 709.371933 199.703263 
L 710.148582 199.486956 
L 710.838769 199.464221 
L 711.097652 199.358277 
L 711.701881 199.336504 
L 713.514062 199.245965 
L 714.549594 199.207539 
L 714.722015 191.151511 
L 714.894435 182.263687 
L 715.023876 182.070768 
L 718.303399 182.020356 
L 719.468373 181.959219 
L 719.770234 181.139886 
L 720.330979 181.029976 
L 721.409996 180.933324 
L 722.316086 180.917782 
L 722.833852 178.03247 
L 723.912363 177.921951 
L 724.128268 177.774577 
L 724.689012 169.505645 
L 725.293241 169.505645 
L 725.465662 168.594128 
L 725.638082 167.756609 
L 725.811008 167.756609 
L 726.026406 167.054609 
L 731.506435 167.02098 
L 731.937738 165.322728 
L 732.283084 165.322728 
L 732.584946 164.4685 
L 732.843829 164.401256 
L 733.361595 163.858025 
L 735.001356 163.85476 
L 735.303218 162.419577 
L 735.389681 162.254985 
L 735.60508 159.714236 
L 735.734521 158.869604 
L 735.907447 158.827224 
L 740.955667 158.824729 
L 741.21455 155.292098 
L 741.732316 155.17001 
L 742.379523 155.17001 
L 742.594922 154.718652 
L 747.902025 154.644556 
L 748.074951 154.60415 
L 751.052106 154.553043 
L 751.267505 151.555685 
L 751.440431 151.495045 
L 753.338569 151.415461 
L 753.511495 151.375676 
L 757.783066 151.375676 
L 757.912507 150.96316 
L 758.17139 147.375499 
L 758.51623 146.471915 
L 758.732135 146.349207 
L 758.948039 146.349207 
L 759.206922 144.075188 
L 759.465805 143.952517 
L 761.70929 143.877552 
L 761.88171 143.719552 
L 762.787801 143.645778 
L 762.960727 143.606824 
L 764.384584 143.606824 
L 764.599982 143.197461 
L 770.209452 143.161375 
L 770.338894 141.937955 
L 770.597777 129.891099 
L 770.813176 125.114577 
L 770.942617 123.758952 
L 771.02908 123.6928 
L 771.158522 123.351737 
L 771.374426 122.734137 
L 774.739906 122.64466 
L 774.869348 122.52477 
L 775.128231 121.489465 
L 776.0773 121.416647 
L 776.508603 120.216353 
L 776.724508 119.453626 
L 779.78762 119.406218 
L 780.34887 116.936499 
L 780.607754 116.771598 
L 781.039562 116.662395 
L 782.161052 116.552324 
L 787.554112 116.52592 
L 789.366293 116.52592 
L 789.712145 115.616042 
L 799.894541 115.475198 
L 800.10994 114.891375 
L 801.404356 114.80983 
L 801.663239 113.419559 
L 803.734303 113.419547 
L 804.03667 111.861767 
L 804.252069 109.454041 
L 807.013826 109.392346 
L 807.229224 108.878722 
L 811.069997 108.799287 
L 811.199439 108.178385 
L 811.32888 107.924316 
L 820.173377 107.924316 
L 820.432261 106.430131 
L 824.444948 106.430119 
L 824.661358 104.768511 
L 843.731736 104.768499 
L 844.077588 102.895054 
L 844.378944 102.684892 
L 847.226657 102.676141 
L 847.48554 100.097307 
L 848.003306 100.097307 
L 848.26219 98.73041 
L 848.564557 98.659231 
L 848.82344 98.524209 
L 856.417006 98.524209 
L 856.589932 93.475296 
L 856.762858 80.434956 
L 856.892299 75.128747 
L 857.021741 74.714705 
L 870.26725 74.625402 
L 870.526133 73.728645 
L 870.8285 72.761478 
L 871.302782 72.625872 
L 871.734591 72.532174 
L 872.252357 72.424102 
L 877.430018 72.317022 
L 877.515975 72.216497 
L 877.9043 70.481898 
L 883.729169 70.404562 
L 884.031536 68.660727 
L 896.328481 68.576811 
L 896.54388 68.436438 
L 903.145398 68.409128 
L 903.447766 67.706594 
L 915.96011 67.623076 
L 916.089551 67.543927 
L 916.607317 65.637127 
L 927.092081 65.564979 
L 927.308491 65.043733 
L 927.350964 64.863289 
L 927.609848 61.45246 
L 927.955699 61.379294 
L 928.085141 61.273977 
L 928.127614 61.228147 
L 928.64538 58.803775 
L 938.785303 58.628421 
L 938.914745 58.391371 
L 939.130144 57.703013 
L 940.985809 57.6187 
L 941.158735 57.438256 
L 942.150783 57.332368 
L 942.409666 57.308162 
L 943.056874 57.308162 
L 943.272273 56.79059 
L 944.048922 56.733041 
L 944.221848 56.231805 
L 945.041981 56.187117 
L 945.171423 56.088156 
L 947.069561 55.968538 
L 947.242487 55.909648 
L 952.33318 55.742015 
L 954.23233 55.709169 
L 954.447729 55.709169 
L 954.57717 55.554968 
L 954.663127 55.554545 
L 954.663127 55.554545 
" clip-path="url(#p96c0e64f67)" style="fill: none; stroke: #008000; stroke-width: 1.5; stroke-linecap: square"/>
   </g>
   <g id="patch_14">
    <path d="M 591.545455 315 
L 591.545455 43.2 
" style="fill: none; stroke: #000000; stroke-width: 0.8; stroke-linejoin: miter; stroke-linecap: square"/>
   </g>
   <g id="patch_15">
    <path d="M 972 315 
L 972 43.2 
" style="fill: none; stroke: #000000; stroke-width: 0.8; stroke-linejoin: miter; stroke-linecap: square"/>
   </g>
   <g id="patch_16">
    <path d="M 591.545455 315 
L 972 315 
" style="fill: none; stroke: #000000; stroke-width: 0.8; stroke-linejoin: miter; stroke-linecap: square"/>
   </g>
   <g id="patch_17">
    <path d="M 591.545455 43.2 
L 972 43.2 
" style="fill: none; stroke: #000000; stroke-width: 0.8; stroke-linejoin: miter; stroke-linecap: square"/>
   </g>
   <g id="legend_3">
    <g id="patch_18">
     <path d="M 597.35 108.432 
L 717.75 108.432 
Q 719.75 108.432 719.75 106.432 
L 719.75 92.753875 
Q 719.75 90.753875 717.75 90.753875 
L 597.35 90.753875 
Q 595.35 90.753875 595.35 92.753875 
L 595.35 106.432 
Q 595.35 108.432 597.35 108.432 
z
" style="fill: #ffffff; opacity: 0.8; stroke: #cccccc; stroke-linejoin: miter"/>
    </g>
    <g id="line2d_33">
     <path d="M 599.35 98.852312 
L 609.35 98.852312 
L 619.35 98.852312 
" style="fill: none; stroke: #008000; stroke-width: 1.5; stroke-linecap: square"/>
    </g>
    <g id="text_35">
     <!-- $CLM5.0^*-FANv3$ -->
     <g transform="translate(627.35 102.352312)scale(0.1 -0.1)">
      <use xlink:href="#DejaVuSans-Oblique-43" transform="translate(0 0.765625)"/>
      <use xlink:href="#DejaVuSans-Oblique-4c" transform="translate(69.824219 0.765625)"/>
      <use xlink:href="#DejaVuSans-Oblique-4d" transform="translate(125.537109 0.765625)"/>
      <use xlink:href="#DejaVuSans-35" transform="translate(211.816406 0.765625)"/>
      <use xlink:href="#DejaVuSans-2e" transform="translate(275.439453 0.765625)"/>
      <use xlink:href="#DejaVuSans-30" transform="translate(307.226562 0.765625)"/>
      <use xlink:href="#DejaVuSans-2a" transform="translate(385.444336 39.046875)scale(0.7)"/>
      <use xlink:href="#DejaVuSans-2212" transform="translate(456.298828 0.765625)"/>
      <use xlink:href="#DejaVuSans-Oblique-46" transform="translate(559.570312 0.765625)"/>
      <use xlink:href="#DejaVuSans-Oblique-41" transform="translate(617.089844 0.765625)"/>
      <use xlink:href="#DejaVuSans-Oblique-4e" transform="translate(685.498047 0.765625)"/>
      <use xlink:href="#DejaVuSans-Oblique-76" transform="translate(760.302734 0.765625)"/>
      <use xlink:href="#DejaVuSans-33" transform="translate(819.482422 0.765625)"/>
     </g>
    </g>
   </g>
  </g>
 </g>
 <defs>
  <clipPath id="p439a0b80c4">
   <rect x="135" y="43.2" width="380.454545" height="271.8"/>
  </clipPath>
  <clipPath id="p96c0e64f67">
   <rect x="591.545455" y="43.2" width="380.454545" height="271.8"/>
  </clipPath>
 </defs>
</svg>
