<?xml version="1.0" encoding="utf-8" standalone="no"?>
<!DOCTYPE svg PUBLIC "-//W3C//DTD SVG 1.1//EN"
  "http://www.w3.org/Graphics/SVG/1.1/DTD/svg11.dtd">
<svg xmlns:xlink="http://www.w3.org/1999/xlink" width="1080pt" height="360pt" viewBox="0 0 1080 360" xmlns="http://www.w3.org/2000/svg" version="1.1">
 <metadata>
  <rdf:RDF xmlns:dc="http://purl.org/dc/elements/1.1/" xmlns:cc="http://creativecommons.org/ns#" xmlns:rdf="http://www.w3.org/1999/02/22-rdf-syntax-ns#">
   <cc:Work>
    <dc:type rdf:resource="http://purl.org/dc/dcmitype/StillImage"/>
    <dc:date>2024-09-02T08:44:06.004962</dc:date>
    <dc:format>image/svg+xml</dc:format>
    <dc:creator>
     <cc:Agent>
      <dc:title>Matplotlib v3.5.2, https://matplotlib.org/</dc:title>
     </cc:Agent>
    </dc:creator>
   </cc:Work>
  </rdf:RDF>
 </metadata>
 <defs>
  <style type="text/css">*{stroke-linejoin: round; stroke-linecap: butt}</style>
 </defs>
 <g id="figure_1">
  <g id="patch_1">
   <path d="M 0 360 
L 1080 360 
L 1080 0 
L 0 0 
L 0 360 
z
" style="fill: none"/>
  </g>
  <g id="axes_1">
   <g id="patch_2">
    <path d="M 135 315 
L 515.454545 315 
L 515.454545 43.2 
L 135 43.2 
z
" style="fill: #ffffff"/>
   </g>
   <g id="line2d_1">
    <path d="M 152.293388 297.860734 
L 152.379357 297.863225 
L 152.681762 298.487595 
L 153.415019 298.455776 
L 153.717424 298.607379 
L 154.062308 298.415779 
L 154.149287 298.129334 
L 154.191766 298.150816 
L 154.364713 298.27498 
L 154.537661 298.279528 
L 154.623629 298.177778 
L 154.839055 298.087423 
L 154.968513 298.222533 
L 155.270918 298.044632 
L 155.745259 298.582895 
L 157.428211 299.007946 
L 157.860074 299.281329 
L 158.809768 299.547259 
L 159.154652 299.627259 
L 159.715973 299.734843 
L 160.190315 299.739588 
L 160.49272 299.6966 
L 161.05303 299.612707 
L 161.65784 299.120089 
L 163.556218 298.773019 
L 163.858623 298.888336 
L 164.117539 299.016457 
L 166.188863 299.62312 
L 166.404289 299.433483 
L 166.749173 299.265493 
L 167.353984 298.997842 
L 167.784835 298.649742 
L 167.914293 298.539699 
L 167.957783 297.891674 
L 168.043751 297.970955 
L 168.389646 297.970955 
L 168.561582 297.507562 
L 169.208871 297.567493 
L 169.467787 297.80344 
L 169.726703 297.825364 
L 170.029108 298.341127 
L 170.288023 298.467542 
L 171.237718 298.522854 
L 171.453144 298.580758 
L 172.229891 298.685613 
L 172.618264 298.978808 
L 173.092606 299.093889 
L 173.524469 299.139839 
L 174.0423 299.151058 
L 174.474163 299.354844 
L 175.20742 299.587645 
L 175.595794 299.650654 
L 176.199593 299.348055 
L 177.149287 299.349709 
L 177.926034 299.42802 
L 178.961697 300.360387 
L 179.30658 300.378549 
L 179.565496 300.053879 
L 179.824411 299.442182 
L 181.162479 300.073595 
L 181.853258 300.601646 
L 182.025194 300.741937 
L 182.28411 300.88961 
L 183.104346 301.252883 
L 183.536209 301.570117 
L 184.830788 301.802449 
L 186.167844 301.969925 
L 186.599707 302.45999 
L 186.902112 302.530158 
L 188.023743 302.558451 
L 188.326148 302.284848 
L 189.491269 301.831127 
L 189.96561 301.780907 
L 191.087241 300.79913 
L 191.303678 300.750889 
L 191.475614 300.269737 
L 192.166393 300.214055 
L 192.33934 300.117823 
L 192.511276 299.102644 
L 192.89965 299.089426 
L 193.029108 298.285269 
L 193.072597 298.377992 
L 193.375003 298.440843 
L 193.590429 298.489607 
L 193.935312 299.260382 
L 194.237718 299.448103 
L 195.446328 299.485629 
L 195.575785 298.769902 
L 195.618264 298.77928 
L 196.265553 298.790597 
L 196.48199 298.714622 
L 196.653926 298.429766 
L 197.0423 298.532181 
L 197.258737 298.674002 
L 197.430673 298.573577 
L 197.474163 298.156086 
L 197.560131 291.926152 
L 197.64711 294.269334 
L 197.906026 297.213112 
L 198.121452 297.779139 
L 198.423857 297.79875 
L 199.243082 297.903294 
L 200.365724 298.789398 
L 200.710608 299.067066 
L 201.228439 299.788151 
L 201.530845 299.902138 
L 202.523017 299.916878 
L 202.738443 299.358626 
L 203.602169 299.126447 
L 203.688138 299.077065 
L 203.731627 298.431482 
L 203.817595 295.337685 
L 203.861085 295.758422 
L 204.033021 297.959653 
L 204.291937 298.69697 
L 204.508374 298.790975 
L 204.637832 298.790975 
L 204.68031 298.452947 
L 204.853258 289.571519 
L 204.896748 291.082871 
L 205.155663 297.586974 
L 205.544037 299.113648 
L 205.759462 299.174397 
L 206.579699 299.129147 
L 206.838615 299.037755 
L 207.140009 299.121379 
L 208.046213 299.79472 
L 208.478076 300.11754 
L 208.86645 300.164094 
L 209.858622 300.152995 
L 210.117538 299.413435 
L 210.808317 299.248714 
L 210.937775 299.040481 
L 211.067232 294.631864 
L 211.153201 295.702554 
L 211.326148 296.452377 
L 211.628553 296.471606 
L 213.915304 296.483241 
L 213.958794 295.843435 
L 214.17422 280.374503 
L 214.347167 286.873095 
L 214.562593 295.492965 
L 214.821509 296.29319 
L 215.036935 296.397928 
L 215.123914 296.389986 
L 215.209882 295.249535 
L 215.29585 295.265877 
L 215.38283 295.374727 
L 215.598256 296.161675 
L 215.857171 296.442204 
L 216.072597 296.356462 
L 216.159577 293.017629 
L 216.245545 289.027038 
L 216.289034 289.073106 
L 216.54795 293.480698 
L 216.763376 295.588257 
L 216.978802 295.911772 
L 217.151749 295.876475 
L 217.281207 291.111768 
L 217.410665 291.578589 
L 217.626091 295.30376 
L 217.885006 296.204492 
L 218.014464 296.199521 
L 218.143922 295.881303 
L 218.187412 295.881303 
L 218.489817 292.083251 
L 218.532296 292.083251 
L 219.050127 295.365679 
L 219.567958 295.402343 
L 219.826874 295.933773 
L 220.085789 296.024121 
L 220.302226 296.02412 
L 220.474163 295.453953 
L 220.862536 295.484946 
L 221.121452 295.857302 
L 221.81223 296.057783 
L 222.373551 296.248076 
L 222.804403 296.35547 
L 223.106808 296.660701 
L 224.013013 296.689434 
L 224.530844 296.67681 
L 225.092165 296.775248 
L 225.307591 296.894535 
L 225.437049 296.923864 
L 225.95488 297.426269 
L 226.472711 297.492527 
L 226.516201 297.321749 
L 226.602169 294.099165 
L 226.645659 294.166458 
L 226.947053 296.639003 
L 227.249458 297.138374 
L 227.508374 297.148158 
L 227.551864 297.009709 
L 227.637832 294.097988 
L 227.681321 294.130795 
L 227.767289 294.177255 
L 228.069695 296.213304 
L 228.241631 296.42634 
L 228.32861 296.067254 
L 228.371089 296.177079 
L 228.458068 296.284549 
L 228.500547 295.854667 
L 228.759462 280.209657 
L 228.802952 280.63188 
L 229.277293 289.864229 
L 229.665667 289.864221 
L 229.882104 294.40056 
L 230.09753 296.146383 
L 230.356446 296.577656 
L 230.658851 296.831862 
L 231.348618 298.209064 
L 231.736992 298.489144 
L 232.082887 299.080098 
L 232.47126 299.270438 
L 232.730176 299.300273 
L 232.816144 297.220239 
L 232.859634 297.26267 
L 233.248007 297.51075 
L 233.549401 297.54531 
L 233.63638 297.513057 
L 233.678859 296.7839 
L 233.937774 280.13043 
L 234.154212 288.476031 
L 234.28367 290.72201 
L 234.369638 290.731316 
L 234.413127 290.942101 
L 234.585063 292.433835 
L 234.628553 292.441312 
L 234.801501 271.519187 
L 234.973437 263.868546 
L 235.060416 264.679889 
L 235.491268 272.090059 
L 235.664216 275.255817 
L 235.837163 251.517969 
L 236.009099 241.064229 
L 236.182047 246.54791 
L 236.699878 270.340381 
L 236.743368 268.379541 
L 237.044762 246.591879 
L 237.261199 255.442242 
L 237.520115 274.2704 
L 237.735541 288.636665 
L 237.821509 279.956467 
L 238.080424 255.124894 
L 238.167404 256.337678 
L 238.771203 270.727984 
L 239.116087 239.144052 
L 239.159576 239.760249 
L 239.677408 256.419985 
L 239.806865 261.659827 
L 239.850355 259.842749 
L 240.151749 234.69177 
L 240.324697 240.214608 
L 240.540123 252.340678 
L 240.842528 283.596968 
L 240.886018 281.141785 
L 241.144933 251.094373 
L 241.187412 250.044519 
L 241.230901 250.526863 
L 241.489817 259.274301 
L 241.705243 274.019338 
L 241.87819 286.070441 
L 241.92168 284.742527 
L 242.223074 251.123122 
L 242.266564 251.393159 
L 242.525479 258.712224 
L 242.740905 273.155311 
L 242.913853 286.436181 
L 242.957343 286.542743 
L 243.258736 262.769044 
L 243.302226 263.43942 
L 243.604632 275.177682 
L 243.820057 285.460243 
L 243.949515 285.833393 
L 243.993005 285.726824 
L 244.078973 278.022545 
L 244.337889 254.025652 
L 244.985178 228.087669 
L 245.028667 222.229315 
L 245.200604 144.687782 
L 245.244093 144.964739 
L 245.97735 170.92333 
L 246.02084 170.399414 
L 246.06433 162.074818 
L 246.193788 82.035695 
L 246.365724 78.155344 
L 246.538671 88.571799 
L 246.841077 102.296094 
L 247.013013 106.516387 
L 247.056503 104.109454 
L 247.271928 70.626135 
L 247.444876 65.371771 
L 247.574334 68.246 
L 247.617824 67.696881 
L 247.660302 66.580042 
L 247.703792 67.06265 
L 248.048675 76.880285 
L 248.092165 76.502968 
L 248.351081 62.514894 
L 248.566507 61.267693 
L 248.653486 61.992035 
L 248.868912 64.480256 
L 248.912402 64.188677 
L 248.99837 63.209998 
L 249.472711 55.554545 
L 249.861085 55.554545 
L 249.904574 55.749813 
L 250.034032 61.707953 
L 250.16349 71.114234 
L 250.336438 55.554545 
L 250.551863 55.554545 
L 250.595353 55.969643 
L 250.724811 70.426244 
L 251.155663 147.291096 
L 251.199152 147.014537 
L 251.587526 55.554545 
L 251.760473 55.598062 
L 251.846441 57.78491 
L 252.191325 70.319012 
L 252.407762 55.554545 
L 252.968072 55.554545 
L 253.011562 55.737606 
L 253.09753 58.101381 
L 253.14102 57.108867 
L 253.270477 55.554545 
L 254.953429 55.554545 
L 254.996919 56.391202 
L 255.168855 77.485187 
L 255.255834 86.040526 
L 255.298312 83.113431 
L 255.51475 76.806537 
L 255.557228 77.036279 
L 255.600718 76.966335 
L 255.686686 76.611232 
L 255.730176 76.648338 
L 255.816144 76.833075 
L 256.032581 78.075401 
L 256.420954 81.560159 
L 257.110722 106.690974 
L 257.628553 132.861776 
L 258.016926 143.531251 
L 258.492279 151.387774 
L 258.707705 153.131004 
L 258.837163 153.043904 
L 259.010111 152.901415 
L 259.225536 153.119231 
L 259.484452 153.566553 
L 259.829336 155.305938 
L 259.958794 155.453913 
L 260.088251 154.979762 
L 260.217709 146.694708 
L 260.261199 149.359081 
L 260.476625 155.242295 
L 260.606083 156.72108 
L 260.73554 146.977881 
L 260.77903 148.451099 
L 261.210893 158.667581 
L 261.296861 159.307062 
L 261.512287 162.943941 
L 261.599267 157.933248 
L 261.771203 158.340861 
L 262.073608 162.73265 
L 262.289034 165.93451 
L 262.461982 169.392586 
L 262.505471 169.27595 
L 262.54795 169.28065 
L 262.634929 163.845881 
L 262.677407 165.314358 
L 262.936323 168.816523 
L 263.195239 169.644079 
L 263.411676 170.075973 
L 263.454154 170.639865 
L 263.497644 170.127305 
L 263.541134 169.599062 
L 263.627102 169.754668 
L 263.929507 170.863476 
L 264.058965 170.771173 
L 264.360359 170.577555 
L 264.706254 170.525725 
L 264.96517 170.881535 
L 265.007648 170.8798 
L 265.224085 148.915377 
L 265.266564 148.140729 
L 265.396021 154.240223 
L 265.525479 124.039085 
L 265.568969 131.632541 
L 265.871374 154.236226 
L 266.0868 157.053852 
L 266.389205 157.958455 
L 266.949515 159.431676 
L 267.381378 160.814811 
L 267.726262 168.548578 
L 267.769752 166.440986 
L 267.85572 157.574499 
L 267.899209 159.299038 
L 268.158125 163.091143 
L 268.244093 164.610492 
L 268.417041 173.274337 
L 268.761924 202.762716 
L 268.848904 159.718247 
L 268.934872 163.290671 
L 269.193787 169.663942 
L 269.538671 175.344437 
L 269.711619 180.052168 
L 269.755108 179.581234 
L 269.797587 179.242667 
L 269.841077 171.253613 
L 269.927045 173.48468 
L 270.18596 177.125732 
L 270.661313 179.413427 
L 270.962707 180.991225 
L 271.221623 182.635431 
L 271.912401 184.199967 
L 272.300775 186.482388 
L 272.732638 187.145547 
L 272.948064 187.565738 
L 273.292948 189.673909 
L 273.724811 190.174586 
L 274.069694 190.998189 
L 274.415589 191.813153 
L 274.975899 192.802233 
L 275.234815 189.964516 
L 275.364272 191.368445 
L 275.49373 188.348673 
L 275.53722 188.890918 
L 275.796136 191.541391 
L 276.529393 194.951719 
L 277.134203 196.35568 
L 277.435597 197.937009 
L 277.867461 198.190904 
L 278.082886 198.326929 
L 278.169866 198.754699 
L 278.47126 200.383617 
L 278.730175 200.358981 
L 279.162039 200.453155 
L 279.506922 202.682005 
L 279.550412 202.672189 
L 280.154211 202.270122 
L 280.241191 202.729909 
L 280.500106 204.677032 
L 280.542585 204.741645 
L 280.586074 204.705641 
L 281.233363 203.812304 
L 281.319332 204.072584 
L 281.621737 143.914664 
L 281.707705 142.382947 
L 281.924142 168.214027 
L 282.225536 178.564703 
L 282.657399 185.171707 
L 282.872825 187.220352 
L 282.916315 186.325217 
L 283.002283 186.43184 
L 283.131741 187.917127 
L 283.175231 187.712777 
L 283.261199 187.546709 
L 283.649572 191.706559 
L 283.866009 148.788192 
L 283.908488 147.406016 
L 284.167403 170.853295 
L 284.555777 182.182435 
L 284.858182 185.359502 
L 285.807876 191.668355 
L 286.411676 193.505057 
L 286.756559 196.365853 
L 287.403848 196.557127 
L 287.662764 198.655217 
L 287.792222 198.634592 
L 287.92168 175.998806 
L 287.965169 178.148126 
L 288.180595 186.862274 
L 288.52649 190.963394 
L 288.871374 194.770462 
L 289.0868 195.477216 
L 289.259747 162.669254 
L 289.345716 140.792516 
L 289.389205 150.502216 
L 289.604631 172.095716 
L 289.863547 180.914876 
L 289.993005 176.372339 
L 290.036494 177.762351 
L 290.29541 183.758452 
L 290.727273 188.320229 
L 291.158125 190.875632 
L 291.978361 194.360892 
L 292.62565 196.064141 
L 293.014024 200.004012 
L 293.531855 199.530343 
L 293.617823 199.540185 
L 293.704803 200.226361 
L 294.006197 202.891771 
L 294.135654 202.708022 
L 294.611007 202.092707 
L 294.653486 202.06657 
L 294.740465 202.864621 
L 294.912401 204.260228 
L 294.999381 204.234883 
L 295.60318 203.702688 
L 295.689148 203.697827 
L 295.776127 204.280588 
L 296.035043 205.980264 
L 296.121011 205.95616 
L 296.638842 205.253473 
L 296.72481 205.196044 
L 296.854268 206.599231 
L 297.113184 208.878478 
L 297.242642 208.605723 
L 297.760473 207.498253 
L 297.847452 208.220672 
L 298.106368 210.588959 
L 298.148846 210.733497 
L 298.192336 210.706451 
L 298.796135 209.169026 
L 298.925593 210.801108 
L 299.184509 213.153904 
L 299.313967 212.813874 
L 299.831798 211.25734 
L 299.918777 212.14041 
L 300.220171 215.651647 
L 300.307151 215.490325 
L 300.86746 213.466779 
L 300.95444 214.41867 
L 301.255834 218.345323 
L 301.342813 218.208061 
L 301.903123 216.160124 
L 301.990102 216.902196 
L 302.291496 220.039201 
L 302.378476 219.900899 
L 302.938785 217.87211 
L 302.982275 218.089449 
L 303.327159 222.440831 
L 303.370648 222.425537 
L 303.629564 221.398315 
L 303.974448 220.005743 
L 304.017937 220.195175 
L 304.406311 224.913459 
L 304.621737 224.008187 
L 305.01011 222.293689 
L 305.0536 222.462483 
L 305.441973 227.45033 
L 305.485463 227.331301 
L 306.045773 224.740151 
L 306.089262 224.884982 
L 306.434146 229.044521 
L 306.477636 229.036882 
L 306.693062 228.186859 
L 307.081435 226.317005 
L 307.124925 226.437732 
L 307.340351 229.159851 
L 307.599266 177.336876 
L 307.901672 194.885904 
L 308.548961 209.607654 
L 308.893844 210.633239 
L 309.023302 210.85664 
L 309.282218 198.19356 
L 309.411675 195.7536 
L 309.455165 196.212051 
L 309.929507 199.83839 
L 310.231912 200.739279 
L 310.576796 207.616532 
L 310.835711 208.786602 
L 311.138117 209.383607 
L 311.181606 209.306277 
L 311.224085 208.857192 
L 311.267575 209.231153 
L 311.655948 215.290327 
L 311.785406 215.207632 
L 312.259747 214.618826 
L 312.346727 215.858449 
L 312.562153 220.04588 
L 312.777578 214.818442 
L 312.821068 214.866518 
L 313.036494 215.504556 
L 313.338899 215.802591 
L 313.727273 221.18612 
L 313.856731 221.004499 
L 314.331072 219.816054 
L 314.374562 220.079011 
L 314.719446 225.617825 
L 314.848903 225.281083 
L 315.366735 223.387854 
L 315.453714 223.556516 
L 315.539682 224.072457 
L 315.755108 226.046643 
L 315.798598 226.037704 
L 316.143481 225.089466 
L 316.445887 224.410975 
L 316.575345 225.29967 
L 316.83426 227.573946 
L 317.007208 227.162565 
L 317.438059 225.811616 
L 317.481549 225.937709 
L 317.869923 229.116021 
L 318.04287 228.636799 
L 318.473722 227.150708 
L 318.517212 227.279961 
L 318.776127 229.473103 
L 318.949075 229.113721 
L 319.552874 227.359112 
L 319.682332 227.783888 
L 319.941248 229.5794 
L 319.984737 229.532813 
L 320.243653 228.932615 
L 320.545047 228.146512 
L 320.674505 229.981 
L 320.97691 233.583344 
L 321.192336 232.988204 
L 321.580709 231.693174 
L 321.710167 233.905972 
L 321.969083 237.888955 
L 322.056062 237.795258 
L 322.616372 235.661256 
L 322.659861 235.825737 
L 323.048235 241.619797 
L 323.35064 240.505435 
L 323.652034 239.199772 
L 323.739014 240.347514 
L 324.040408 244.952868 
L 324.083897 244.945193 
L 324.386303 243.828865 
L 324.687697 242.555395 
L 324.731186 242.787884 
L 325.07607 246.12219 
L 325.11956 246.075326 
L 325.464443 244.639221 
L 325.723359 243.531351 
L 325.896307 245.208616 
L 325.982275 246.292235 
L 326.111733 226.47556 
L 326.24119 116.583127 
L 326.28468 134.445166 
L 326.543596 170.678316 
L 326.888479 186.515188 
L 327.234374 195.480695 
L 327.708716 199.394067 
L 327.752206 199.402396 
L 327.794684 198.592663 
L 327.838174 199.358274 
L 328.270037 207.879751 
L 328.830346 208.490168 
L 329.26221 216.430694 
L 329.348178 216.263959 
L 329.823531 215.118489 
L 329.866009 215.163114 
L 330.297872 222.062415 
L 330.38384 221.801182 
L 330.901671 220.081492 
L 331.333534 227.318396 
L 331.419503 227.02138 
L 331.937334 224.891055 
L 331.980824 225.308274 
L 332.369197 230.667223 
L 332.412687 230.538696 
L 332.843538 228.707068 
L 332.972996 141.659355 
L 333.016486 152.249131 
L 333.102454 167.80925 
L 333.231912 138.887165 
L 333.275402 149.64081 
L 333.490827 173.415803 
L 333.793233 184.17846 
L 334.397032 195.641136 
L 334.785406 197.922579 
L 335.131301 200.048611 
L 335.562152 203.691779 
L 336.079984 204.356289 
L 336.511847 210.697101 
L 336.597815 210.518972 
L 337.115646 209.736811 
L 337.288594 211.490043 
L 337.547509 213.977847 
L 338.151308 212.640434 
L 338.194798 212.788674 
L 338.367746 215.200009 
L 338.583172 217.615841 
L 338.885577 216.729769 
L 338.928055 216.602137 
L 338.971545 216.003783 
L 339.186971 190.50154 
L 339.27395 195.191364 
L 339.575344 206.414925 
L 339.83426 208.324842 
L 340.222633 209.72565 
L 340.481549 190.912761 
L 340.568528 194.511585 
L 340.611007 196.015116 
L 340.740465 181.537388 
L 340.783954 183.774554 
L 341.04287 194.119992 
L 341.819617 208.218421 
L 342.293958 208.822224 
L 342.725821 216.138355 
L 342.81179 215.952103 
L 343.329621 214.818681 
L 343.761484 220.216708 
L 343.804974 220.106927 
L 344.365283 218.47586 
L 344.494741 219.241043 
L 344.797146 221.931632 
L 345.14203 221.058773 
L 345.400946 220.428535 
L 345.617383 223.522226 
L 345.832809 225.353087 
L 346.135214 224.317387 
L 346.39413 223.083703 
L 346.782503 209.354056 
L 346.824982 209.046686 
L 346.954439 202.314767 
L 346.997929 203.195957 
L 347.256845 208.186688 
L 347.688708 214.161693 
L 347.904134 216.617981 
L 348.163049 216.920997 
L 348.507933 217.1572 
L 348.939796 223.143158 
L 349.069254 222.917922 
L 349.543595 221.885612 
L 349.760033 225.756995 
L 349.931969 227.496675 
L 350.018948 227.341367 
L 350.579258 225.590167 
L 350.752205 227.710943 
L 350.967631 229.459899 
L 351.054611 229.315775 
L 351.140579 229.061997 
L 351.356005 223.160418 
L 351.485463 83.588596 
L 351.528952 102.046583 
L 351.65841 125.756914 
L 351.873836 156.126079 
L 352.176241 169.194009 
L 352.608104 177.507494 
L 352.82353 182.014659 
L 353.082446 186.092825 
L 353.686245 188.662325 
L 354.118108 192.70566 
L 354.59245 193.649425 
L 354.721908 193.953574 
L 355.153771 199.011085 
L 355.197261 198.950298 
L 355.456176 198.7079 
L 355.715092 198.708492 
L 355.75757 198.755576 
L 356.145944 202.783066 
L 356.232923 202.659237 
L 356.577807 202.171329 
L 356.793233 202.122269 
L 357.181606 206.820602 
L 357.268585 206.670497 
L 357.656959 205.716094 
L 357.828895 205.472668 
L 358.001843 207.872096 
L 358.217268 210.187368 
L 358.304248 209.996149 
L 358.778589 208.576623 
L 358.864557 208.41599 
L 359.252931 211.511868 
L 359.296421 211.419089 
L 359.814252 210.110693 
L 359.90022 210.037863 
L 360.288593 214.601715 
L 360.375573 214.419812 
L 360.935882 212.744937 
L 361.10883 214.776944 
L 361.324256 216.884649 
L 361.411235 216.713804 
L 361.971545 214.873427 
L 362.144492 217.495233 
L 362.359918 219.925262 
L 362.446898 219.725651 
L 362.618834 219.007533 
L 362.748292 188.708881 
L 362.835271 191.99505 
L 363.395581 209.025999 
L 363.612018 209.929887 
L 363.956902 210.562102 
L 364.04287 210.687721 
L 364.259307 215.156361 
L 364.431243 217.513701 
L 364.474733 217.569054 
L 364.518223 217.478747 
L 365.078532 216.116641 
L 365.466906 219.403982 
L 365.553885 219.27837 
L 366.114195 217.748223 
L 366.243652 219.428188 
L 366.546058 223.109302 
L 367.063889 221.332301 
L 367.149857 221.016672 
L 367.279315 168.02838 
L 367.322805 172.46759 
L 367.538231 189.861737 
L 367.840636 197.604644 
L 368.703351 210.055287 
L 369.091724 210.528745 
L 369.221182 210.608717 
L 369.39413 213.302286 
L 369.653045 216.262179 
L 369.95545 215.760673 
L 370.256844 215.263373 
L 370.429792 218.136031 
L 370.645218 220.721818 
L 370.732197 220.595803 
L 371.292507 218.974343 
L 371.421965 220.473847 
L 371.68088 223.766562 
L 371.72437 223.761407 
L 372.328169 221.694915 
L 372.371659 221.89951 
L 372.630575 224.530844 
L 372.674064 224.492989 
L 372.803522 224.194959 
L 373.407322 222.45299 
L 373.49329 222.440759 
L 373.752205 223.084291 
L 373.839185 222.958582 
L 374.399494 221.796989 
L 374.486474 222.492999 
L 374.787868 225.080994 
L 374.874847 224.975197 
L 375.435157 223.575138 
L 375.564614 225.185625 
L 375.82353 227.334393 
L 375.91051 227.189581 
L 376.341361 225.666565 
L 376.470819 225.173924 
L 376.557799 225.668542 
L 376.902682 229.097881 
L 376.98865 228.875927 
L 377.03214 227.523454 
L 377.247566 210.599245 
L 377.377024 213.063646 
L 377.635939 114.348385 
L 377.852377 160.923426 
L 378.153771 176.42678 
L 378.542144 184.72469 
L 379.059975 193.353684 
L 379.664786 196.9189 
L 379.96618 200.910264 
L 380.139127 201.018705 
L 380.354553 201.1759 
L 380.613469 168.011657 
L 380.915874 182.717791 
L 381.17479 189.219492 
L 381.563163 193.411719 
L 381.692621 194.607331 
L 382.080995 200.690523 
L 382.166963 200.738717 
L 382.425878 172.839554 
L 382.469368 176.017973 
L 382.728284 187.312426 
L 383.116657 197.23036 
L 383.634488 199.014983 
L 383.720456 199.232419 
L 383.849914 201.681298 
L 384.10883 205.93022 
L 384.152319 205.971655 
L 384.195809 205.896436 
L 384.626661 205.235664 
L 384.670151 205.198266 
L 384.756119 203.036805 
L 384.799608 203.263684 
L 385.144492 206.39905 
L 385.31744 206.380783 
L 385.749303 206.374425 
L 385.791781 206.379441 
L 385.921239 181.411223 
L 386.008218 186.755052 
L 386.267134 195.167671 
L 386.612018 199.030701 
L 386.914423 201.717896 
L 387.215817 206.081486 
L 387.388765 206.21179 
L 387.863106 206.258515 
L 387.992564 207.898516 
L 388.25148 210.759528 
L 388.338459 210.670482 
L 388.769311 209.945998 
L 388.898769 209.820373 
L 389.071716 211.989926 
L 389.287142 213.964193 
L 389.374121 213.855984 
L 389.934431 212.543193 
L 390.063889 213.716618 
L 390.322804 215.896716 
L 390.409784 215.74873 
L 390.970093 214.231581 
L 391.013583 214.300546 
L 391.358467 217.588211 
L 391.401957 217.548282 
L 392.005756 215.893764 
L 392.049246 216.068506 
L 392.394129 219.388541 
L 392.481109 219.291316 
L 393.084908 217.737088 
L 393.429792 220.919908 
L 393.516771 220.782344 
L 394.120571 219.140471 
L 394.465454 222.875319 
L 394.552434 222.727995 
L 395.112743 220.989496 
L 395.156233 221.015817 
L 395.501117 225.322956 
L 395.544606 225.291418 
L 396.148406 223.421086 
L 396.191895 223.457091 
L 396.536779 227.627666 
L 396.580269 227.588583 
L 397.0981 225.932028 
L 397.227558 225.575538 
L 397.271048 225.610347 
L 397.357016 224.834195 
L 397.400505 225.160262 
L 397.615931 226.005266 
L 398.219731 224.831965 
L 398.26322 224.867809 
L 398.608104 228.19157 
L 398.651594 228.167569 
L 399.125935 226.845014 
L 399.298883 226.443407 
L 399.643766 229.427186 
L 399.730746 229.296046 
L 400.334545 227.549193 
L 400.679429 230.82717 
L 400.766408 230.676309 
L 401.326718 228.896104 
L 401.370208 228.910003 
L 401.715091 232.432424 
L 401.758581 232.392022 
L 402.40587 230.466177 
L 402.750754 233.685968 
L 402.794244 233.648215 
L 403.441533 231.727702 
L 403.786416 234.94087 
L 403.873396 234.793432 
L 404.477195 232.905379 
L 404.822079 236.399159 
L 404.909058 236.245958 
L 405.512857 234.270283 
L 405.857741 238.636498 
L 405.944721 238.46381 
L 406.50503 236.475264 
L 406.54852 236.547043 
L 406.893404 241.234114 
L 406.936893 241.174938 
L 407.411235 239.346128 
L 407.584182 238.757912 
L 407.929066 242.90729 
L 407.972556 242.850138 
L 408.619845 240.534752 
L 408.964729 242.958869 
L 409.137676 242.568198 
L 409.741475 240.778618 
L 409.784965 240.90527 
L 410.000391 241.3858 
L 410.216828 240.826164 
L 410.69117 239.513292 
L 411.036053 242.124012 
L 411.123033 241.957942 
L 411.726832 240.246018 
L 412.071716 243.021549 
L 412.115206 242.973998 
L 412.762495 241.108322 
L 412.805984 241.387196 
L 412.977921 242.238263 
L 413.0649 242.153387 
L 413.798157 240.305848 
L 413.841647 240.431082 
L 413.927615 240.645335 
L 414.057073 230.119958 
L 414.315988 210.114469 
L 414.359478 210.160623 
L 414.401956 209.977136 
L 414.79033 218.17806 
L 414.83382 217.631353 
L 414.877309 218.398693 
L 415.265683 224.134447 
L 415.696534 226.145122 
L 415.869482 226.745739 
L 416.301345 230.816506 
L 416.689719 231.003697 
L 416.905144 231.01993 
L 417.078092 232.91553 
L 417.250028 234.020692 
L 417.379486 234.009871 
L 417.897317 233.509915 
L 417.940807 233.460908 
L 418.113754 235.225652 
L 418.285691 235.941029 
L 418.415148 235.824194 
L 418.976469 234.953748 
L 419.019959 235.004799 
L 419.191895 235.499822 
L 419.321353 235.361745 
L 420.012132 234.481739 
L 420.185079 236.401553 
L 420.357015 237.226577 
L 420.529963 237.006825 
L 421.047794 236.11972 
L 421.177252 236.919928 
L 421.392678 238.067674 
L 421.479657 238.000223 
L 422.083457 236.869665 
L 422.42834 239.398662 
L 422.51532 239.307047 
L 422.687256 238.938472 
L 422.816714 228.755047 
L 423.205087 132.181312 
L 423.421524 170.434112 
L 423.68044 184.923078 
L 424.025324 193.610314 
L 424.629123 202.118436 
L 425.751765 209.882063 
L 426.399054 211.152147 
L 426.485022 211.094214 
L 427.088821 212.36724 
L 427.347737 212.788514 
L 427.650142 213.6805 
L 428.340921 214.729962 
L 428.642315 217.362439 
L 429.160146 217.239511 
L 429.333094 217.1837 
L 429.462552 218.182864 
L 429.677978 219.357067 
L 429.850925 219.247427 
L 430.368756 218.928718 
L 430.454724 219.29211 
L 430.71364 220.536101 
L 430.930077 220.383981 
L 431.447908 220.09611 
L 431.577366 220.807142 
L 431.706824 221.287944 
L 431.749302 221.275162 
L 431.96574 221.140326 
L 432.440081 220.803565 
L 432.483571 220.876556 
L 432.828455 222.4212 
L 433.519233 221.747422 
L 433.820627 223.487468 
L 433.864117 223.466228 
L 434.554896 222.607152 
L 434.85629 224.413349 
L 435.029237 224.200116 
L 435.590558 223.473985 
L 435.891952 225.376023 
L 436.0649 225.09743 
L 436.626221 224.194132 
L 436.927615 225.647784 
L 437.100562 225.396063 
L 437.618393 224.590649 
L 437.661883 224.62222 
L 437.920799 225.523761 
L 438.092735 225.37731 
L 438.265682 223.337803 
L 438.351651 223.429925 
L 438.610566 223.438247 
L 438.697546 223.432846 
L 438.99894 224.371737 
L 439.387313 224.135248 
L 439.733208 223.966247 
L 440.034602 225.072252 
L 440.078092 225.054617 
L 440.422975 224.73565 
L 440.552433 217.6181 
L 440.639413 218.224753 
L 440.940807 220.006334 
L 441.286702 220.853026 
L 441.675075 221.283504 
L 441.847011 221.533508 
L 442.105927 222.447488 
L 442.451822 222.530871 
L 442.710738 222.427639 
L 442.840195 222.380811 
L 442.969653 222.936305 
L 443.141589 223.372034 
L 443.487484 223.331848 
L 443.918336 223.233379 
L 444.177252 223.882257 
L 444.479657 223.759097 
L 444.91152 223.345418 
L 444.953999 223.446015 
L 445.212914 224.259325 
L 445.51532 224.131268 
L 446.248577 223.837807 
L 446.378035 223.790383 
L 446.550982 221.562698 
L 446.594472 221.698834 
L 446.766408 221.946287 
L 446.895866 216.481457 
L 447.025324 181.078618 
L 447.068813 183.730675 
L 447.327729 197.558255 
L 447.413697 199.744104 
L 447.457187 198.693915 
L 447.672613 196.387715 
L 448.060986 203.593172 
L 448.277423 153.661796 
L 448.319902 152.65647 
L 448.795254 180.685787 
L 449.05417 186.049204 
L 449.269596 190.053217 
L 449.701459 195.182728 
L 450.261769 199.241273 
L 450.7796 201.607707 
L 451.94472 205.26224 
L 452.203636 205.723441 
L 452.506041 206.854594 
L 453.326278 208.181301 
L 453.498214 208.493289 
L 453.627672 208.592866 
L 453.844109 205.950185 
L 454.016045 204.736049 
L 454.059535 205.017079 
L 454.404419 207.021608 
L 454.792792 208.119089 
L 455.397603 209.549473 
L 455.569539 210.057497 
L 456.216828 210.581317 
L 456.346286 210.806218 
L 456.605201 211.576846 
L 457.210012 211.704087 
L 457.381948 211.737291 
L 457.640864 212.276332 
L 457.770321 212.325931 
L 457.899779 210.688947 
L 457.986759 210.916393 
L 458.288153 211.484413 
L 458.417611 211.585228 
L 458.676526 212.39307 
L 459.108389 212.46204 
L 459.410795 212.385545 
L 459.799168 212.980025 
L 459.841646 213.002921 
L 459.971104 209.496333 
L 460.014594 209.647796 
L 460.27351 210.955499 
L 460.661883 211.826988 
L 460.877309 212.141129 
L 461.093746 204.2443 
L 461.265682 199.807117 
L 461.39514 200.84432 
L 461.611577 191.717166 
L 461.654056 191.524255 
L 461.999951 199.822318 
L 462.388324 203.716358 
L 462.862666 206.296053 
L 463.078092 207.073076 
L 463.251039 213.993565 
L 463.553444 230.737613 
L 463.595923 227.403666 
L 463.76887 215.04798 
L 463.81236 215.921806 
L 463.984296 223.055131 
L 464.286702 237.430936 
L 464.589107 242.392912 
L 464.804533 211.07036 
L 464.890501 214.603849 
L 465.278874 244.041693 
L 465.624769 252.554414 
L 465.796705 198.202123 
L 465.840195 199.650352 
L 465.969653 206.133315 
L 466.358026 239.310055 
L 466.660432 252.249339 
L 466.832368 208.509407 
L 466.919347 214.461342 
L 467.523147 265.345815 
L 467.652604 266.545232 
L 467.696094 266.414185 
L 467.91152 208.370677 
L 467.95501 209.379195 
L 468.040978 213.549702 
L 468.558809 251.439026 
L 468.688267 253.994759 
L 468.731757 253.902151 
L 468.903693 199.224027 
L 468.990672 200.939589 
L 469.292066 206.824772 
L 469.335556 206.742729 
L 469.379046 206.373711 
L 469.421524 206.627524 
L 469.767419 208.59851 
L 470.457186 211.625145 
L 470.716102 217.327935 
L 470.803082 215.573973 
L 470.84556 209.372151 
L 470.932539 210.523406 
L 471.147965 211.6157 
L 471.492849 212.276429 
L 471.968202 212.787117 
L 472.183628 213.090709 
L 472.442543 213.058838 
L 472.615491 213.195968 
L 473.478206 214.153807 
L 473.737121 214.140418 
L 473.996037 213.990128 
L 474.38441 214.425279 
L 474.816274 214.59244 
L 475.075189 214.642249 
L 475.463563 215.004428 
L 475.549531 215.13797 
L 475.722478 221.180452 
L 475.764957 223.13758 
L 475.808446 222.360137 
L 475.981394 213.428473 
L 476.067362 214.065478 
L 476.326277 214.801551 
L 476.499225 215.213829 
L 476.585193 218.538678 
L 476.844109 238.156205 
L 476.930077 237.731614 
L 477.017056 237.326291 
L 477.146514 212.7222 
L 477.188992 213.223624 
L 477.40543 215.415967 
L 477.793803 230.149815 
L 477.879771 232.582676 
L 477.923261 232.387921 
L 477.965739 232.142413 
L 478.052719 228.6764 
L 478.182177 211.915223 
L 478.224655 212.502278 
L 478.48357 213.824414 
L 478.700008 214.682276 
L 478.871944 217.179164 
L 478.958923 213.930953 
L 479.044891 214.269488 
L 479.562723 215.339569 
L 479.69218 215.444852 
L 479.821638 216.95249 
L 479.907606 218.095655 
L 479.951096 217.501759 
L 480.080554 214.989522 
L 480.124044 215.147306 
L 480.29598 215.541904 
L 480.598385 215.932147 
L 480.684353 216.030083 
L 480.857301 220.329036 
L 480.943269 223.012249 
L 481.072727 214.791635 
L 481.159706 215.318412 
L 481.50459 216.16105 
L 481.936453 216.455434 
L 482.195369 216.455206 
L 482.237847 216.382907 
L 482.281337 216.430514 
L 482.62622 216.754193 
L 483.058083 216.720754 
L 483.273509 216.715892 
L 483.661883 217.002673 
L 483.87832 217.080666 
L 483.920798 217.548922 
L 484.266693 234.542605 
L 484.396151 215.375558 
L 484.43863 215.741069 
L 484.568087 216.401583 
L 484.741035 224.994001 
L 485.129408 245.15542 
L 485.215376 244.733036 
L 485.302356 239.769676 
L 485.431814 213.479593 
L 485.474292 213.991153 
L 485.820187 217.012444 
L 485.992123 224.404824 
L 486.165071 230.511633 
L 486.208561 229.719022 
L 486.294529 225.917657 
L 486.423986 214.023674 
L 486.509954 214.895154 
L 486.76887 215.838579 
L 487.071275 216.225326 
L 487.330191 216.244219 
L 487.503139 216.358434 
L 487.675075 216.561231 
L 487.804533 214.405927 
L 487.93399 216.523127 
L 488.409343 227.548766 
L 488.538801 212.837591 
L 488.668259 214.408364 
L 488.754227 218.923399 
L 489.272058 262.147208 
L 489.401516 263.363245 
L 489.445006 263.228679 
L 489.574463 241.250765 
L 489.660432 232.508204 
L 489.703921 234.654618 
L 490.35121 263.638193 
L 490.480668 264.946158 
L 490.652604 247.808288 
L 490.696094 252.312584 
L 490.869042 265.672054 
L 491.343383 283.388237 
L 491.516331 287.59472 
L 491.558809 287.810177 
L 491.602299 287.716999 
L 491.731756 287.397762 
L 491.775246 287.480725 
L 492.12013 289.486606 
L 492.422535 289.754846 
L 493.28525 289.763377 
L 493.630134 289.977923 
L 493.976029 290.052748 
L 494.018507 290.064819 
L 494.406881 292.199089 
L 494.623318 292.28741 
L 495.05417 292.401047 
L 495.141149 292.47289 
L 495.400065 293.044131 
L 495.572001 293.119622 
L 495.744948 293.075961 
L 495.788438 292.830413 
L 495.874406 290.948579 
L 495.917896 291.529145 
L 496.133322 292.196939 
L 496.521695 292.379654 
L 496.694643 292.261812 
L 496.824101 276.49675 
L 496.866579 269.543471 
L 496.910069 270.276931 
L 497.212474 288.863387 
L 497.513868 290.736641 
L 497.686816 290.740228 
L 497.730305 290.714032 
L 497.859763 280.136104 
L 497.902241 274.709541 
L 497.945731 276.013132 
L 498.161157 288.982058 
L 498.161157 288.982058 
" clip-path="url(#p2962444ce2)" style="fill: none; stroke: #6495ed; stroke-width: 1.5; stroke-linecap: square"/>
   </g>
   <g id="matplotlib.axis_1">
    <g id="xtick_1">
     <g id="line2d_2">
      <defs>
       <path id="mb75ffd6a77" d="M 0 0 
L 0 3.5 
" style="stroke: #000000; stroke-width: 0.8"/>
      </defs>
      <g>
       <use xlink:href="#mb75ffd6a77" x="152.293388" y="315" style="stroke: #000000; stroke-width: 0.8"/>
      </g>
     </g>
     <g id="text_1">
      <!-- Jan -->
      <g transform="translate(139.190107 334.917344)scale(0.17 -0.17)">
       <defs>
        <path id="DejaVuSans-4a" d="M 628 4666 
L 1259 4666 
L 1259 325 
Q 1259 -519 939 -900 
Q 619 -1281 -91 -1281 
L -331 -1281 
L -331 -750 
L -134 -750 
Q 284 -750 456 -515 
Q 628 -281 628 325 
L 628 4666 
z
" transform="scale(0.015625)"/>
        <path id="DejaVuSans-61" d="M 2194 1759 
Q 1497 1759 1228 1600 
Q 959 1441 959 1056 
Q 959 750 1161 570 
Q 1363 391 1709 391 
Q 2188 391 2477 730 
Q 2766 1069 2766 1631 
L 2766 1759 
L 2194 1759 
z
M 3341 1997 
L 3341 0 
L 2766 0 
L 2766 531 
Q 2569 213 2275 61 
Q 1981 -91 1556 -91 
Q 1019 -91 701 211 
Q 384 513 384 1019 
Q 384 1609 779 1909 
Q 1175 2209 1959 2209 
L 2766 2209 
L 2766 2266 
Q 2766 2663 2505 2880 
Q 2244 3097 1772 3097 
Q 1472 3097 1187 3025 
Q 903 2953 641 2809 
L 641 3341 
Q 956 3463 1253 3523 
Q 1550 3584 1831 3584 
Q 2591 3584 2966 3190 
Q 3341 2797 3341 1997 
z
" transform="scale(0.015625)"/>
        <path id="DejaVuSans-6e" d="M 3513 2113 
L 3513 0 
L 2938 0 
L 2938 2094 
Q 2938 2591 2744 2837 
Q 2550 3084 2163 3084 
Q 1697 3084 1428 2787 
Q 1159 2491 1159 1978 
L 1159 0 
L 581 0 
L 581 3500 
L 1159 3500 
L 1159 2956 
Q 1366 3272 1645 3428 
Q 1925 3584 2291 3584 
Q 2894 3584 3203 3211 
Q 3513 2838 3513 2113 
z
" transform="scale(0.015625)"/>
       </defs>
       <use xlink:href="#DejaVuSans-4a"/>
       <use xlink:href="#DejaVuSans-61" x="29.492188"/>
       <use xlink:href="#DejaVuSans-6e" x="90.771484"/>
      </g>
     </g>
    </g>
    <g id="xtick_2">
     <g id="line2d_3">
      <g>
       <use xlink:href="#mb75ffd6a77" x="213.397473" y="315" style="stroke: #000000; stroke-width: 0.8"/>
      </g>
     </g>
     <g id="text_2">
      <!-- Mar -->
      <g transform="translate(197.360364 334.917344)scale(0.17 -0.17)">
       <defs>
        <path id="DejaVuSans-4d" d="M 628 4666 
L 1569 4666 
L 2759 1491 
L 3956 4666 
L 4897 4666 
L 4897 0 
L 4281 0 
L 4281 4097 
L 3078 897 
L 2444 897 
L 1241 4097 
L 1241 0 
L 628 0 
L 628 4666 
z
" transform="scale(0.015625)"/>
        <path id="DejaVuSans-72" d="M 2631 2963 
Q 2534 3019 2420 3045 
Q 2306 3072 2169 3072 
Q 1681 3072 1420 2755 
Q 1159 2438 1159 1844 
L 1159 0 
L 581 0 
L 581 3500 
L 1159 3500 
L 1159 2956 
Q 1341 3275 1631 3429 
Q 1922 3584 2338 3584 
Q 2397 3584 2469 3576 
Q 2541 3569 2628 3553 
L 2631 2963 
z
" transform="scale(0.015625)"/>
       </defs>
       <use xlink:href="#DejaVuSans-4d"/>
       <use xlink:href="#DejaVuSans-61" x="86.279297"/>
       <use xlink:href="#DejaVuSans-72" x="147.558594"/>
      </g>
     </g>
    </g>
    <g id="xtick_3">
     <g id="line2d_4">
      <g>
       <use xlink:href="#mb75ffd6a77" x="276.572882" y="315" style="stroke: #000000; stroke-width: 0.8"/>
      </g>
     </g>
     <g id="text_3">
      <!-- May -->
      <g transform="translate(258.999132 334.917344)scale(0.17 -0.17)">
       <defs>
        <path id="DejaVuSans-79" d="M 2059 -325 
Q 1816 -950 1584 -1140 
Q 1353 -1331 966 -1331 
L 506 -1331 
L 506 -850 
L 844 -850 
Q 1081 -850 1212 -737 
Q 1344 -625 1503 -206 
L 1606 56 
L 191 3500 
L 800 3500 
L 1894 763 
L 2988 3500 
L 3597 3500 
L 2059 -325 
z
" transform="scale(0.015625)"/>
       </defs>
       <use xlink:href="#DejaVuSans-4d"/>
       <use xlink:href="#DejaVuSans-61" x="86.279297"/>
       <use xlink:href="#DejaVuSans-79" x="147.558594"/>
      </g>
     </g>
    </g>
    <g id="xtick_4">
     <g id="line2d_5">
      <g>
       <use xlink:href="#mb75ffd6a77" x="339.748292" y="315" style="stroke: #000000; stroke-width: 0.8"/>
      </g>
     </g>
     <g id="text_4">
      <!-- Jul -->
      <g transform="translate(329.492511 334.917344)scale(0.17 -0.17)">
       <defs>
        <path id="DejaVuSans-75" d="M 544 1381 
L 544 3500 
L 1119 3500 
L 1119 1403 
Q 1119 906 1312 657 
Q 1506 409 1894 409 
Q 2359 409 2629 706 
Q 2900 1003 2900 1516 
L 2900 3500 
L 3475 3500 
L 3475 0 
L 2900 0 
L 2900 538 
Q 2691 219 2414 64 
Q 2138 -91 1772 -91 
Q 1169 -91 856 284 
Q 544 659 544 1381 
z
M 1991 3584 
L 1991 3584 
z
" transform="scale(0.015625)"/>
        <path id="DejaVuSans-6c" d="M 603 4863 
L 1178 4863 
L 1178 0 
L 603 0 
L 603 4863 
z
" transform="scale(0.015625)"/>
       </defs>
       <use xlink:href="#DejaVuSans-4a"/>
       <use xlink:href="#DejaVuSans-75" x="29.492188"/>
       <use xlink:href="#DejaVuSans-6c" x="92.871094"/>
      </g>
     </g>
    </g>
    <g id="xtick_5">
     <g id="line2d_6">
      <g>
       <use xlink:href="#mb75ffd6a77" x="403.959364" y="315" style="stroke: #000000; stroke-width: 0.8"/>
      </g>
     </g>
     <g id="text_5">
      <!-- Sep -->
      <g transform="translate(387.936864 334.917344)scale(0.17 -0.17)">
       <defs>
        <path id="DejaVuSans-53" d="M 3425 4513 
L 3425 3897 
Q 3066 4069 2747 4153 
Q 2428 4238 2131 4238 
Q 1616 4238 1336 4038 
Q 1056 3838 1056 3469 
Q 1056 3159 1242 3001 
Q 1428 2844 1947 2747 
L 2328 2669 
Q 3034 2534 3370 2195 
Q 3706 1856 3706 1288 
Q 3706 609 3251 259 
Q 2797 -91 1919 -91 
Q 1588 -91 1214 -16 
Q 841 59 441 206 
L 441 856 
Q 825 641 1194 531 
Q 1563 422 1919 422 
Q 2459 422 2753 634 
Q 3047 847 3047 1241 
Q 3047 1584 2836 1778 
Q 2625 1972 2144 2069 
L 1759 2144 
Q 1053 2284 737 2584 
Q 422 2884 422 3419 
Q 422 4038 858 4394 
Q 1294 4750 2059 4750 
Q 2388 4750 2728 4690 
Q 3069 4631 3425 4513 
z
" transform="scale(0.015625)"/>
        <path id="DejaVuSans-65" d="M 3597 1894 
L 3597 1613 
L 953 1613 
Q 991 1019 1311 708 
Q 1631 397 2203 397 
Q 2534 397 2845 478 
Q 3156 559 3463 722 
L 3463 178 
Q 3153 47 2828 -22 
Q 2503 -91 2169 -91 
Q 1331 -91 842 396 
Q 353 884 353 1716 
Q 353 2575 817 3079 
Q 1281 3584 2069 3584 
Q 2775 3584 3186 3129 
Q 3597 2675 3597 1894 
z
M 3022 2063 
Q 3016 2534 2758 2815 
Q 2500 3097 2075 3097 
Q 1594 3097 1305 2825 
Q 1016 2553 972 2059 
L 3022 2063 
z
" transform="scale(0.015625)"/>
        <path id="DejaVuSans-70" d="M 1159 525 
L 1159 -1331 
L 581 -1331 
L 581 3500 
L 1159 3500 
L 1159 2969 
Q 1341 3281 1617 3432 
Q 1894 3584 2278 3584 
Q 2916 3584 3314 3078 
Q 3713 2572 3713 1747 
Q 3713 922 3314 415 
Q 2916 -91 2278 -91 
Q 1894 -91 1617 61 
Q 1341 213 1159 525 
z
M 3116 1747 
Q 3116 2381 2855 2742 
Q 2594 3103 2138 3103 
Q 1681 3103 1420 2742 
Q 1159 2381 1159 1747 
Q 1159 1113 1420 752 
Q 1681 391 2138 391 
Q 2594 391 2855 752 
Q 3116 1113 3116 1747 
z
" transform="scale(0.015625)"/>
       </defs>
       <use xlink:href="#DejaVuSans-53"/>
       <use xlink:href="#DejaVuSans-65" x="63.476562"/>
       <use xlink:href="#DejaVuSans-70" x="125"/>
      </g>
     </g>
    </g>
    <g id="xtick_6">
     <g id="line2d_7">
      <g>
       <use xlink:href="#mb75ffd6a77" x="467.134773" y="315" style="stroke: #000000; stroke-width: 0.8"/>
      </g>
     </g>
     <g id="text_6">
      <!-- Nov -->
      <g transform="translate(450.543836 334.917344)scale(0.17 -0.17)">
       <defs>
        <path id="DejaVuSans-4e" d="M 628 4666 
L 1478 4666 
L 3547 763 
L 3547 4666 
L 4159 4666 
L 4159 0 
L 3309 0 
L 1241 3903 
L 1241 0 
L 628 0 
L 628 4666 
z
" transform="scale(0.015625)"/>
        <path id="DejaVuSans-6f" d="M 1959 3097 
Q 1497 3097 1228 2736 
Q 959 2375 959 1747 
Q 959 1119 1226 758 
Q 1494 397 1959 397 
Q 2419 397 2687 759 
Q 2956 1122 2956 1747 
Q 2956 2369 2687 2733 
Q 2419 3097 1959 3097 
z
M 1959 3584 
Q 2709 3584 3137 3096 
Q 3566 2609 3566 1747 
Q 3566 888 3137 398 
Q 2709 -91 1959 -91 
Q 1206 -91 779 398 
Q 353 888 353 1747 
Q 353 2609 779 3096 
Q 1206 3584 1959 3584 
z
" transform="scale(0.015625)"/>
        <path id="DejaVuSans-76" d="M 191 3500 
L 800 3500 
L 1894 563 
L 2988 3500 
L 3597 3500 
L 2284 0 
L 1503 0 
L 191 3500 
z
" transform="scale(0.015625)"/>
       </defs>
       <use xlink:href="#DejaVuSans-4e"/>
       <use xlink:href="#DejaVuSans-6f" x="74.804688"/>
       <use xlink:href="#DejaVuSans-76" x="135.986328"/>
      </g>
     </g>
    </g>
   </g>
   <g id="matplotlib.axis_2">
    <g id="ytick_1">
     <g id="line2d_8">
      <defs>
       <path id="m9ff00fe5ff" d="M 0 0 
L -3.5 0 
" style="stroke: #000000; stroke-width: 0.8"/>
      </defs>
      <g>
       <use xlink:href="#m9ff00fe5ff" x="135" y="305.247022" style="stroke: #000000; stroke-width: 0.8"/>
      </g>
     </g>
     <g id="text_7">
      <!-- 0 -->
      <g transform="translate(117.18375 311.705694)scale(0.17 -0.17)">
       <defs>
        <path id="DejaVuSans-30" d="M 2034 4250 
Q 1547 4250 1301 3770 
Q 1056 3291 1056 2328 
Q 1056 1369 1301 889 
Q 1547 409 2034 409 
Q 2525 409 2770 889 
Q 3016 1369 3016 2328 
Q 3016 3291 2770 3770 
Q 2525 4250 2034 4250 
z
M 2034 4750 
Q 2819 4750 3233 4129 
Q 3647 3509 3647 2328 
Q 3647 1150 3233 529 
Q 2819 -91 2034 -91 
Q 1250 -91 836 529 
Q 422 1150 422 2328 
Q 422 3509 836 4129 
Q 1250 4750 2034 4750 
z
" transform="scale(0.015625)"/>
       </defs>
       <use xlink:href="#DejaVuSans-30"/>
      </g>
     </g>
    </g>
    <g id="ytick_2">
     <g id="line2d_9">
      <g>
       <use xlink:href="#m9ff00fe5ff" x="135" y="252.42968" style="stroke: #000000; stroke-width: 0.8"/>
      </g>
     </g>
     <g id="text_8">
      <!-- 10 -->
      <g transform="translate(106.3675 258.888352)scale(0.17 -0.17)">
       <defs>
        <path id="DejaVuSans-31" d="M 794 531 
L 1825 531 
L 1825 4091 
L 703 3866 
L 703 4441 
L 1819 4666 
L 2450 4666 
L 2450 531 
L 3481 531 
L 3481 0 
L 794 0 
L 794 531 
z
" transform="scale(0.015625)"/>
       </defs>
       <use xlink:href="#DejaVuSans-31"/>
       <use xlink:href="#DejaVuSans-30" x="63.623047"/>
      </g>
     </g>
    </g>
    <g id="ytick_3">
     <g id="line2d_10">
      <g>
       <use xlink:href="#m9ff00fe5ff" x="135" y="199.612338" style="stroke: #000000; stroke-width: 0.8"/>
      </g>
     </g>
     <g id="text_9">
      <!-- 20 -->
      <g transform="translate(106.3675 206.07101)scale(0.17 -0.17)">
       <defs>
        <path id="DejaVuSans-32" d="M 1228 531 
L 3431 531 
L 3431 0 
L 469 0 
L 469 531 
Q 828 903 1448 1529 
Q 2069 2156 2228 2338 
Q 2531 2678 2651 2914 
Q 2772 3150 2772 3378 
Q 2772 3750 2511 3984 
Q 2250 4219 1831 4219 
Q 1534 4219 1204 4116 
Q 875 4013 500 3803 
L 500 4441 
Q 881 4594 1212 4672 
Q 1544 4750 1819 4750 
Q 2544 4750 2975 4387 
Q 3406 4025 3406 3419 
Q 3406 3131 3298 2873 
Q 3191 2616 2906 2266 
Q 2828 2175 2409 1742 
Q 1991 1309 1228 531 
z
" transform="scale(0.015625)"/>
       </defs>
       <use xlink:href="#DejaVuSans-32"/>
       <use xlink:href="#DejaVuSans-30" x="63.623047"/>
      </g>
     </g>
    </g>
    <g id="ytick_4">
     <g id="line2d_11">
      <g>
       <use xlink:href="#m9ff00fe5ff" x="135" y="146.794995" style="stroke: #000000; stroke-width: 0.8"/>
      </g>
     </g>
     <g id="text_10">
      <!-- 30 -->
      <g transform="translate(106.3675 153.253667)scale(0.17 -0.17)">
       <defs>
        <path id="DejaVuSans-33" d="M 2597 2516 
Q 3050 2419 3304 2112 
Q 3559 1806 3559 1356 
Q 3559 666 3084 287 
Q 2609 -91 1734 -91 
Q 1441 -91 1130 -33 
Q 819 25 488 141 
L 488 750 
Q 750 597 1062 519 
Q 1375 441 1716 441 
Q 2309 441 2620 675 
Q 2931 909 2931 1356 
Q 2931 1769 2642 2001 
Q 2353 2234 1838 2234 
L 1294 2234 
L 1294 2753 
L 1863 2753 
Q 2328 2753 2575 2939 
Q 2822 3125 2822 3475 
Q 2822 3834 2567 4026 
Q 2313 4219 1838 4219 
Q 1578 4219 1281 4162 
Q 984 4106 628 3988 
L 628 4550 
Q 988 4650 1302 4700 
Q 1616 4750 1894 4750 
Q 2613 4750 3031 4423 
Q 3450 4097 3450 3541 
Q 3450 3153 3228 2886 
Q 3006 2619 2597 2516 
z
" transform="scale(0.015625)"/>
       </defs>
       <use xlink:href="#DejaVuSans-33"/>
       <use xlink:href="#DejaVuSans-30" x="63.623047"/>
      </g>
     </g>
    </g>
    <g id="ytick_5">
     <g id="line2d_12">
      <g>
       <use xlink:href="#m9ff00fe5ff" x="135" y="93.977653" style="stroke: #000000; stroke-width: 0.8"/>
      </g>
     </g>
     <g id="text_11">
      <!-- 40 -->
      <g transform="translate(106.3675 100.436325)scale(0.17 -0.17)">
       <defs>
        <path id="DejaVuSans-34" d="M 2419 4116 
L 825 1625 
L 2419 1625 
L 2419 4116 
z
M 2253 4666 
L 3047 4666 
L 3047 1625 
L 3713 1625 
L 3713 1100 
L 3047 1100 
L 3047 0 
L 2419 0 
L 2419 1100 
L 313 1100 
L 313 1709 
L 2253 4666 
z
" transform="scale(0.015625)"/>
       </defs>
       <use xlink:href="#DejaVuSans-34"/>
       <use xlink:href="#DejaVuSans-30" x="63.623047"/>
      </g>
     </g>
    </g>
    <g id="text_12">
     <!-- m3/m3 -->
     <g transform="translate(98.832031 209.33875)rotate(-90)scale(0.17 -0.17)">
      <defs>
       <path id="DejaVuSans-6d" d="M 3328 2828 
Q 3544 3216 3844 3400 
Q 4144 3584 4550 3584 
Q 5097 3584 5394 3201 
Q 5691 2819 5691 2113 
L 5691 0 
L 5113 0 
L 5113 2094 
Q 5113 2597 4934 2840 
Q 4756 3084 4391 3084 
Q 3944 3084 3684 2787 
Q 3425 2491 3425 1978 
L 3425 0 
L 2847 0 
L 2847 2094 
Q 2847 2600 2669 2842 
Q 2491 3084 2119 3084 
Q 1678 3084 1418 2786 
Q 1159 2488 1159 1978 
L 1159 0 
L 581 0 
L 581 3500 
L 1159 3500 
L 1159 2956 
Q 1356 3278 1631 3431 
Q 1906 3584 2284 3584 
Q 2666 3584 2933 3390 
Q 3200 3197 3328 2828 
z
" transform="scale(0.015625)"/>
       <path id="DejaVuSans-2f" d="M 1625 4666 
L 2156 4666 
L 531 -594 
L 0 -594 
L 1625 4666 
z
" transform="scale(0.015625)"/>
      </defs>
      <use xlink:href="#DejaVuSans-6d"/>
      <use xlink:href="#DejaVuSans-33" x="97.412109"/>
      <use xlink:href="#DejaVuSans-2f" x="161.035156"/>
      <use xlink:href="#DejaVuSans-6d" x="194.726562"/>
      <use xlink:href="#DejaVuSans-33" x="292.138672"/>
     </g>
    </g>
   </g>
   <g id="PathCollection_1">
    <defs>
     <path id="m4f2e6c2e02" d="M 0 3 
C 0.795609 3 1.55874 2.683901 2.12132 2.12132 
C 2.683901 1.55874 3 0.795609 3 0 
C 3 -0.795609 2.683901 -1.55874 2.12132 -2.12132 
C 1.55874 -2.683901 0.795609 -3 0 -3 
C -0.795609 -3 -1.55874 -2.683901 -2.12132 -2.12132 
C -2.683901 -1.55874 -3 -0.795609 -3 0 
C -3 0.795609 -2.683901 1.55874 -2.12132 2.12132 
C -1.55874 2.683901 -0.795609 3 0 3 
z
" style="stroke: #ff8c00"/>
    </defs>
    <g clip-path="url(#p2962444ce2)">
     <use xlink:href="#m4f2e6c2e02" x="241.360359" y="196.267239" style="fill: #ff8c00; stroke: #ff8c00"/>
     <use xlink:href="#m4f2e6c2e02" x="248.609996" y="198.732049" style="fill: #ff8c00; stroke: #ff8c00"/>
     <use xlink:href="#m4f2e6c2e02" x="255.859633" y="197.323586" style="fill: #ff8c00; stroke: #ff8c00"/>
     <use xlink:href="#m4f2e6c2e02" x="263.109271" y="182.358673" style="fill: #ff8c00; stroke: #ff8c00"/>
     <use xlink:href="#m4f2e6c2e02" x="270.358908" y="194.154546" style="fill: #ff8c00; stroke: #ff8c00"/>
     <use xlink:href="#m4f2e6c2e02" x="292.107819" y="198.027818" style="fill: #ff8c00; stroke: #ff8c00"/>
     <use xlink:href="#m4f2e6c2e02" x="294.179144" y="208.23917" style="fill: #ff8c00; stroke: #ff8c00"/>
     <use xlink:href="#m4f2e6c2e02" x="299.357456" y="228.485818" style="fill: #ff8c00; stroke: #ff8c00"/>
     <use xlink:href="#m4f2e6c2e02" x="302.464444" y="231.830917" style="fill: #ff8c00; stroke: #ff8c00"/>
     <use xlink:href="#m4f2e6c2e02" x="307.642756" y="174.964245" style="fill: #ff8c00; stroke: #ff8c00"/>
     <use xlink:href="#m4f2e6c2e02" x="313.856731" y="222.147737" style="fill: #ff8c00; stroke: #ff8c00"/>
     <use xlink:href="#m4f2e6c2e02" x="315.928056" y="221.971679" style="fill: #ff8c00; stroke: #ff8c00"/>
     <use xlink:href="#m4f2e6c2e02" x="321.106368" y="233.063321" style="fill: #ff8c00; stroke: #ff8c00"/>
     <use xlink:href="#m4f2e6c2e02" x="323.177693" y="244.154963" style="fill: #ff8c00; stroke: #ff8c00"/>
     <use xlink:href="#m4f2e6c2e02" x="328.356005" y="211.760327" style="fill: #ff8c00; stroke: #ff8c00"/>
     <use xlink:href="#m4f2e6c2e02" x="330.42733" y="217.218119" style="fill: #ff8c00; stroke: #ff8c00"/>
     <use xlink:href="#m4f2e6c2e02" x="335.605642" y="215.281483" style="fill: #ff8c00; stroke: #ff8c00"/>
     <use xlink:href="#m4f2e6c2e02" x="344.926604" y="246.091599" style="fill: #ff8c00; stroke: #ff8c00"/>
     <use xlink:href="#m4f2e6c2e02" x="350.104916" y="242.746501" style="fill: #ff8c00; stroke: #ff8c00"/>
     <use xlink:href="#m4f2e6c2e02" x="358.390216" y="219.154754" style="fill: #ff8c00; stroke: #ff8c00"/>
     <use xlink:href="#m4f2e6c2e02" x="366.675516" y="231.654859" style="fill: #ff8c00; stroke: #ff8c00"/>
     <use xlink:href="#m4f2e6c2e02" x="374.960815" y="221.795622" style="fill: #ff8c00; stroke: #ff8c00"/>
     <use xlink:href="#m4f2e6c2e02" x="382.210452" y="138.872394" style="fill: #ff8c00; stroke: #ff8c00"/>
     <use xlink:href="#m4f2e6c2e02" x="388.424427" y="205.422245" style="fill: #ff8c00; stroke: #ff8c00"/>
     <use xlink:href="#m4f2e6c2e02" x="408.102014" y="226.021009" style="fill: #ff8c00; stroke: #ff8c00"/>
     <use xlink:href="#m4f2e6c2e02" x="437.100562" y="217.746292" style="fill: #ff8c00; stroke: #ff8c00"/>
     <use xlink:href="#m4f2e6c2e02" x="451.599837" y="193.80243" style="fill: #ff8c00; stroke: #ff8c00"/>
     <use xlink:href="#m4f2e6c2e02" x="473.348748" y="227.781587" style="fill: #ff8c00; stroke: #ff8c00"/>
    </g>
   </g>
   <g id="patch_3">
    <path d="M 135 315 
L 135 43.2 
" style="fill: none; stroke: #000000; stroke-width: 0.8; stroke-linejoin: miter; stroke-linecap: square"/>
   </g>
   <g id="patch_4">
    <path d="M 515.454545 315 
L 515.454545 43.2 
" style="fill: none; stroke: #000000; stroke-width: 0.8; stroke-linejoin: miter; stroke-linecap: square"/>
   </g>
   <g id="patch_5">
    <path d="M 135 315 
L 515.454545 315 
" style="fill: none; stroke: #000000; stroke-width: 0.8; stroke-linejoin: miter; stroke-linecap: square"/>
   </g>
   <g id="patch_6">
    <path d="M 135 43.2 
L 515.454545 43.2 
" style="fill: none; stroke: #000000; stroke-width: 0.8; stroke-linejoin: miter; stroke-linecap: square"/>
   </g>
   <g id="text_13">
    <!-- Webster Soil water content (10cm) -->
    <g transform="translate(185.647273 37.2)scale(0.16 -0.16)">
     <defs>
      <path id="DejaVuSans-57" d="M 213 4666 
L 850 4666 
L 1831 722 
L 2809 4666 
L 3519 4666 
L 4500 722 
L 5478 4666 
L 6119 4666 
L 4947 0 
L 4153 0 
L 3169 4050 
L 2175 0 
L 1381 0 
L 213 4666 
z
" transform="scale(0.015625)"/>
      <path id="DejaVuSans-62" d="M 3116 1747 
Q 3116 2381 2855 2742 
Q 2594 3103 2138 3103 
Q 1681 3103 1420 2742 
Q 1159 2381 1159 1747 
Q 1159 1113 1420 752 
Q 1681 391 2138 391 
Q 2594 391 2855 752 
Q 3116 1113 3116 1747 
z
M 1159 2969 
Q 1341 3281 1617 3432 
Q 1894 3584 2278 3584 
Q 2916 3584 3314 3078 
Q 3713 2572 3713 1747 
Q 3713 922 3314 415 
Q 2916 -91 2278 -91 
Q 1894 -91 1617 61 
Q 1341 213 1159 525 
L 1159 0 
L 581 0 
L 581 4863 
L 1159 4863 
L 1159 2969 
z
" transform="scale(0.015625)"/>
      <path id="DejaVuSans-73" d="M 2834 3397 
L 2834 2853 
Q 2591 2978 2328 3040 
Q 2066 3103 1784 3103 
Q 1356 3103 1142 2972 
Q 928 2841 928 2578 
Q 928 2378 1081 2264 
Q 1234 2150 1697 2047 
L 1894 2003 
Q 2506 1872 2764 1633 
Q 3022 1394 3022 966 
Q 3022 478 2636 193 
Q 2250 -91 1575 -91 
Q 1294 -91 989 -36 
Q 684 19 347 128 
L 347 722 
Q 666 556 975 473 
Q 1284 391 1588 391 
Q 1994 391 2212 530 
Q 2431 669 2431 922 
Q 2431 1156 2273 1281 
Q 2116 1406 1581 1522 
L 1381 1569 
Q 847 1681 609 1914 
Q 372 2147 372 2553 
Q 372 3047 722 3315 
Q 1072 3584 1716 3584 
Q 2034 3584 2315 3537 
Q 2597 3491 2834 3397 
z
" transform="scale(0.015625)"/>
      <path id="DejaVuSans-74" d="M 1172 4494 
L 1172 3500 
L 2356 3500 
L 2356 3053 
L 1172 3053 
L 1172 1153 
Q 1172 725 1289 603 
Q 1406 481 1766 481 
L 2356 481 
L 2356 0 
L 1766 0 
Q 1100 0 847 248 
Q 594 497 594 1153 
L 594 3053 
L 172 3053 
L 172 3500 
L 594 3500 
L 594 4494 
L 1172 4494 
z
" transform="scale(0.015625)"/>
      <path id="DejaVuSans-20" transform="scale(0.015625)"/>
      <path id="DejaVuSans-69" d="M 603 3500 
L 1178 3500 
L 1178 0 
L 603 0 
L 603 3500 
z
M 603 4863 
L 1178 4863 
L 1178 4134 
L 603 4134 
L 603 4863 
z
" transform="scale(0.015625)"/>
      <path id="DejaVuSans-77" d="M 269 3500 
L 844 3500 
L 1563 769 
L 2278 3500 
L 2956 3500 
L 3675 769 
L 4391 3500 
L 4966 3500 
L 4050 0 
L 3372 0 
L 2619 2869 
L 1863 0 
L 1184 0 
L 269 3500 
z
" transform="scale(0.015625)"/>
      <path id="DejaVuSans-63" d="M 3122 3366 
L 3122 2828 
Q 2878 2963 2633 3030 
Q 2388 3097 2138 3097 
Q 1578 3097 1268 2742 
Q 959 2388 959 1747 
Q 959 1106 1268 751 
Q 1578 397 2138 397 
Q 2388 397 2633 464 
Q 2878 531 3122 666 
L 3122 134 
Q 2881 22 2623 -34 
Q 2366 -91 2075 -91 
Q 1284 -91 818 406 
Q 353 903 353 1747 
Q 353 2603 823 3093 
Q 1294 3584 2113 3584 
Q 2378 3584 2631 3529 
Q 2884 3475 3122 3366 
z
" transform="scale(0.015625)"/>
      <path id="DejaVuSans-28" d="M 1984 4856 
Q 1566 4138 1362 3434 
Q 1159 2731 1159 2009 
Q 1159 1288 1364 580 
Q 1569 -128 1984 -844 
L 1484 -844 
Q 1016 -109 783 600 
Q 550 1309 550 2009 
Q 550 2706 781 3412 
Q 1013 4119 1484 4856 
L 1984 4856 
z
" transform="scale(0.015625)"/>
      <path id="DejaVuSans-29" d="M 513 4856 
L 1013 4856 
Q 1481 4119 1714 3412 
Q 1947 2706 1947 2009 
Q 1947 1309 1714 600 
Q 1481 -109 1013 -844 
L 513 -844 
Q 928 -128 1133 580 
Q 1338 1288 1338 2009 
Q 1338 2731 1133 3434 
Q 928 4138 513 4856 
z
" transform="scale(0.015625)"/>
     </defs>
     <use xlink:href="#DejaVuSans-57"/>
     <use xlink:href="#DejaVuSans-65" x="93.001953"/>
     <use xlink:href="#DejaVuSans-62" x="154.525391"/>
     <use xlink:href="#DejaVuSans-73" x="218.001953"/>
     <use xlink:href="#DejaVuSans-74" x="270.101562"/>
     <use xlink:href="#DejaVuSans-65" x="309.310547"/>
     <use xlink:href="#DejaVuSans-72" x="370.833984"/>
     <use xlink:href="#DejaVuSans-20" x="411.947266"/>
     <use xlink:href="#DejaVuSans-53" x="443.734375"/>
     <use xlink:href="#DejaVuSans-6f" x="507.210938"/>
     <use xlink:href="#DejaVuSans-69" x="568.392578"/>
     <use xlink:href="#DejaVuSans-6c" x="596.175781"/>
     <use xlink:href="#DejaVuSans-20" x="623.958984"/>
     <use xlink:href="#DejaVuSans-77" x="655.746094"/>
     <use xlink:href="#DejaVuSans-61" x="737.533203"/>
     <use xlink:href="#DejaVuSans-74" x="798.8125"/>
     <use xlink:href="#DejaVuSans-65" x="838.021484"/>
     <use xlink:href="#DejaVuSans-72" x="899.544922"/>
     <use xlink:href="#DejaVuSans-20" x="940.658203"/>
     <use xlink:href="#DejaVuSans-63" x="972.445312"/>
     <use xlink:href="#DejaVuSans-6f" x="1027.425781"/>
     <use xlink:href="#DejaVuSans-6e" x="1088.607422"/>
     <use xlink:href="#DejaVuSans-74" x="1151.986328"/>
     <use xlink:href="#DejaVuSans-65" x="1191.195312"/>
     <use xlink:href="#DejaVuSans-6e" x="1252.71875"/>
     <use xlink:href="#DejaVuSans-74" x="1316.097656"/>
     <use xlink:href="#DejaVuSans-20" x="1355.306641"/>
     <use xlink:href="#DejaVuSans-28" x="1387.09375"/>
     <use xlink:href="#DejaVuSans-31" x="1426.107422"/>
     <use xlink:href="#DejaVuSans-30" x="1489.730469"/>
     <use xlink:href="#DejaVuSans-63" x="1553.353516"/>
     <use xlink:href="#DejaVuSans-6d" x="1608.333984"/>
     <use xlink:href="#DejaVuSans-29" x="1705.746094"/>
    </g>
   </g>
   <g id="legend_1">
    <g id="patch_7">
     <path d="M 388.054545 80.55625 
L 508.454545 80.55625 
Q 510.454545 80.55625 510.454545 78.55625 
L 510.454545 50.2 
Q 510.454545 48.2 508.454545 48.2 
L 388.054545 48.2 
Q 386.054545 48.2 386.054545 50.2 
L 386.054545 78.55625 
Q 386.054545 80.55625 388.054545 80.55625 
z
" style="fill: #ffffff; opacity: 0.8; stroke: #cccccc; stroke-linejoin: miter"/>
    </g>
    <g id="line2d_13">
     <path d="M 390.054545 56.298437 
L 400.054545 56.298437 
L 410.054545 56.298437 
" style="fill: none; stroke: #6495ed; stroke-width: 1.5; stroke-linecap: square"/>
    </g>
    <g id="text_14">
     <!-- $CLM5.0^*-FANv3$ -->
     <g transform="translate(418.054545 59.798437)scale(0.1 -0.1)">
      <defs>
       <path id="DejaVuSans-Oblique-43" d="M 4447 4306 
L 4319 3641 
Q 4019 3944 3683 4091 
Q 3347 4238 2956 4238 
Q 2422 4238 2017 3981 
Q 1613 3725 1319 3200 
Q 1131 2863 1032 2486 
Q 934 2109 934 1728 
Q 934 1091 1264 756 
Q 1594 422 2222 422 
Q 2656 422 3056 561 
Q 3456 700 3834 978 
L 3688 231 
Q 3316 72 2936 -9 
Q 2556 -91 2175 -91 
Q 1278 -91 773 396 
Q 269 884 269 1753 
Q 269 2309 461 2846 
Q 653 3384 1013 3828 
Q 1394 4300 1883 4525 
Q 2372 4750 3022 4750 
Q 3422 4750 3780 4639 
Q 4138 4528 4447 4306 
z
" transform="scale(0.015625)"/>
       <path id="DejaVuSans-Oblique-4c" d="M 1075 4666 
L 1709 4666 
L 909 525 
L 3181 525 
L 3078 0 
L 172 0 
L 1075 4666 
z
" transform="scale(0.015625)"/>
       <path id="DejaVuSans-Oblique-4d" d="M 1081 4666 
L 2028 4666 
L 2572 1522 
L 4378 4666 
L 5350 4666 
L 4441 0 
L 3828 0 
L 4622 4091 
L 2791 897 
L 2175 897 
L 1581 4103 
L 788 0 
L 172 0 
L 1081 4666 
z
" transform="scale(0.015625)"/>
       <path id="DejaVuSans-35" d="M 691 4666 
L 3169 4666 
L 3169 4134 
L 1269 4134 
L 1269 2991 
Q 1406 3038 1543 3061 
Q 1681 3084 1819 3084 
Q 2600 3084 3056 2656 
Q 3513 2228 3513 1497 
Q 3513 744 3044 326 
Q 2575 -91 1722 -91 
Q 1428 -91 1123 -41 
Q 819 9 494 109 
L 494 744 
Q 775 591 1075 516 
Q 1375 441 1709 441 
Q 2250 441 2565 725 
Q 2881 1009 2881 1497 
Q 2881 1984 2565 2268 
Q 2250 2553 1709 2553 
Q 1456 2553 1204 2497 
Q 953 2441 691 2322 
L 691 4666 
z
" transform="scale(0.015625)"/>
       <path id="DejaVuSans-2e" d="M 684 794 
L 1344 794 
L 1344 0 
L 684 0 
L 684 794 
z
" transform="scale(0.015625)"/>
       <path id="DejaVuSans-2a" d="M 3009 3897 
L 1888 3291 
L 3009 2681 
L 2828 2375 
L 1778 3009 
L 1778 1831 
L 1422 1831 
L 1422 3009 
L 372 2375 
L 191 2681 
L 1313 3291 
L 191 3897 
L 372 4206 
L 1422 3572 
L 1422 4750 
L 1778 4750 
L 1778 3572 
L 2828 4206 
L 3009 3897 
z
" transform="scale(0.015625)"/>
       <path id="DejaVuSans-2212" d="M 678 2272 
L 4684 2272 
L 4684 1741 
L 678 1741 
L 678 2272 
z
" transform="scale(0.015625)"/>
       <path id="DejaVuSans-Oblique-46" d="M 1081 4666 
L 3756 4666 
L 3653 4134 
L 1606 4134 
L 1338 2759 
L 3188 2759 
L 3084 2228 
L 1234 2228 
L 800 0 
L 172 0 
L 1081 4666 
z
" transform="scale(0.015625)"/>
       <path id="DejaVuSans-Oblique-41" d="M 2356 4666 
L 3072 4666 
L 3938 0 
L 3278 0 
L 3084 1197 
L 984 1197 
L 325 0 
L -341 0 
L 2356 4666 
z
M 2584 4044 
L 1275 1722 
L 2988 1722 
L 2584 4044 
z
" transform="scale(0.015625)"/>
       <path id="DejaVuSans-Oblique-4e" d="M 1081 4666 
L 1931 4666 
L 3219 666 
L 4000 4666 
L 4616 4666 
L 3706 0 
L 2853 0 
L 1569 4025 
L 788 0 
L 172 0 
L 1081 4666 
z
" transform="scale(0.015625)"/>
       <path id="DejaVuSans-Oblique-76" d="M 459 3500 
L 1069 3500 
L 1581 525 
L 3256 3500 
L 3866 3500 
L 1875 0 
L 1100 0 
L 459 3500 
z
" transform="scale(0.015625)"/>
      </defs>
      <use xlink:href="#DejaVuSans-Oblique-43" transform="translate(0 0.765625)"/>
      <use xlink:href="#DejaVuSans-Oblique-4c" transform="translate(69.824219 0.765625)"/>
      <use xlink:href="#DejaVuSans-Oblique-4d" transform="translate(125.537109 0.765625)"/>
      <use xlink:href="#DejaVuSans-35" transform="translate(211.816406 0.765625)"/>
      <use xlink:href="#DejaVuSans-2e" transform="translate(275.439453 0.765625)"/>
      <use xlink:href="#DejaVuSans-30" transform="translate(307.226562 0.765625)"/>
      <use xlink:href="#DejaVuSans-2a" transform="translate(385.444336 39.046875)scale(0.7)"/>
      <use xlink:href="#DejaVuSans-2212" transform="translate(456.298828 0.765625)"/>
      <use xlink:href="#DejaVuSans-Oblique-46" transform="translate(559.570312 0.765625)"/>
      <use xlink:href="#DejaVuSans-Oblique-41" transform="translate(617.089844 0.765625)"/>
      <use xlink:href="#DejaVuSans-Oblique-4e" transform="translate(685.498047 0.765625)"/>
      <use xlink:href="#DejaVuSans-Oblique-76" transform="translate(760.302734 0.765625)"/>
      <use xlink:href="#DejaVuSans-33" transform="translate(819.482422 0.765625)"/>
     </g>
    </g>
    <g id="PathCollection_2">
     <g>
      <use xlink:href="#m4f2e6c2e02" x="400.054545" y="71.851562" style="fill: #ff8c00; stroke: #ff8c00"/>
     </g>
    </g>
    <g id="text_15">
     <!-- MESOCOSM -->
     <g transform="translate(418.054545 74.476562)scale(0.1 -0.1)">
      <defs>
       <path id="DejaVuSans-45" d="M 628 4666 
L 3578 4666 
L 3578 4134 
L 1259 4134 
L 1259 2753 
L 3481 2753 
L 3481 2222 
L 1259 2222 
L 1259 531 
L 3634 531 
L 3634 0 
L 628 0 
L 628 4666 
z
" transform="scale(0.015625)"/>
       <path id="DejaVuSans-4f" d="M 2522 4238 
Q 1834 4238 1429 3725 
Q 1025 3213 1025 2328 
Q 1025 1447 1429 934 
Q 1834 422 2522 422 
Q 3209 422 3611 934 
Q 4013 1447 4013 2328 
Q 4013 3213 3611 3725 
Q 3209 4238 2522 4238 
z
M 2522 4750 
Q 3503 4750 4090 4092 
Q 4678 3434 4678 2328 
Q 4678 1225 4090 567 
Q 3503 -91 2522 -91 
Q 1538 -91 948 565 
Q 359 1222 359 2328 
Q 359 3434 948 4092 
Q 1538 4750 2522 4750 
z
" transform="scale(0.015625)"/>
       <path id="DejaVuSans-43" d="M 4122 4306 
L 4122 3641 
Q 3803 3938 3442 4084 
Q 3081 4231 2675 4231 
Q 1875 4231 1450 3742 
Q 1025 3253 1025 2328 
Q 1025 1406 1450 917 
Q 1875 428 2675 428 
Q 3081 428 3442 575 
Q 3803 722 4122 1019 
L 4122 359 
Q 3791 134 3420 21 
Q 3050 -91 2638 -91 
Q 1578 -91 968 557 
Q 359 1206 359 2328 
Q 359 3453 968 4101 
Q 1578 4750 2638 4750 
Q 3056 4750 3426 4639 
Q 3797 4528 4122 4306 
z
" transform="scale(0.015625)"/>
      </defs>
      <use xlink:href="#DejaVuSans-4d"/>
      <use xlink:href="#DejaVuSans-45" x="86.279297"/>
      <use xlink:href="#DejaVuSans-53" x="149.462891"/>
      <use xlink:href="#DejaVuSans-4f" x="212.939453"/>
      <use xlink:href="#DejaVuSans-43" x="291.650391"/>
      <use xlink:href="#DejaVuSans-4f" x="361.474609"/>
      <use xlink:href="#DejaVuSans-53" x="440.185547"/>
      <use xlink:href="#DejaVuSans-4d" x="503.662109"/>
     </g>
    </g>
   </g>
  </g>
  <g id="axes_2">
   <g id="patch_8">
    <path d="M 591.545455 315 
L 972 315 
L 972 43.2 
L 591.545455 43.2 
z
" style="fill: #ffffff"/>
   </g>
   <g id="matplotlib.axis_3">
    <g id="xtick_7">
     <g id="line2d_14">
      <g>
       <use xlink:href="#mb75ffd6a77" x="608.838843" y="315" style="stroke: #000000; stroke-width: 0.8"/>
      </g>
     </g>
     <g id="text_16">
      <!-- Jan -->
      <g transform="translate(595.735562 334.917344)scale(0.17 -0.17)">
       <use xlink:href="#DejaVuSans-4a"/>
       <use xlink:href="#DejaVuSans-61" x="29.492188"/>
       <use xlink:href="#DejaVuSans-6e" x="90.771484"/>
      </g>
     </g>
    </g>
    <g id="xtick_8">
     <g id="line2d_15">
      <g>
       <use xlink:href="#mb75ffd6a77" x="669.935245" y="315" style="stroke: #000000; stroke-width: 0.8"/>
      </g>
     </g>
     <g id="text_17">
      <!-- Mar -->
      <g transform="translate(653.898136 334.917344)scale(0.17 -0.17)">
       <use xlink:href="#DejaVuSans-4d"/>
       <use xlink:href="#DejaVuSans-61" x="86.279297"/>
       <use xlink:href="#DejaVuSans-72" x="147.558594"/>
      </g>
     </g>
    </g>
    <g id="xtick_9">
     <g id="line2d_16">
      <g>
       <use xlink:href="#mb75ffd6a77" x="733.102712" y="315" style="stroke: #000000; stroke-width: 0.8"/>
      </g>
     </g>
     <g id="text_18">
      <!-- May -->
      <g transform="translate(715.528962 334.917344)scale(0.17 -0.17)">
       <use xlink:href="#DejaVuSans-4d"/>
       <use xlink:href="#DejaVuSans-61" x="86.279297"/>
       <use xlink:href="#DejaVuSans-79" x="147.558594"/>
      </g>
     </g>
    </g>
    <g id="xtick_10">
     <g id="line2d_17">
      <g>
       <use xlink:href="#mb75ffd6a77" x="796.270179" y="315" style="stroke: #000000; stroke-width: 0.8"/>
      </g>
     </g>
     <g id="text_19">
      <!-- Jul -->
      <g transform="translate(786.014397 334.917344)scale(0.17 -0.17)">
       <use xlink:href="#DejaVuSans-4a"/>
       <use xlink:href="#DejaVuSans-75" x="29.492188"/>
       <use xlink:href="#DejaVuSans-6c" x="92.871094"/>
      </g>
     </g>
    </g>
    <g id="xtick_11">
     <g id="line2d_18">
      <g>
       <use xlink:href="#mb75ffd6a77" x="860.473178" y="315" style="stroke: #000000; stroke-width: 0.8"/>
      </g>
     </g>
     <g id="text_20">
      <!-- Sep -->
      <g transform="translate(844.450678 334.917344)scale(0.17 -0.17)">
       <use xlink:href="#DejaVuSans-53"/>
       <use xlink:href="#DejaVuSans-65" x="63.476562"/>
       <use xlink:href="#DejaVuSans-70" x="125"/>
      </g>
     </g>
    </g>
    <g id="xtick_12">
     <g id="line2d_19">
      <g>
       <use xlink:href="#mb75ffd6a77" x="923.640644" y="315" style="stroke: #000000; stroke-width: 0.8"/>
      </g>
     </g>
     <g id="text_21">
      <!-- Nov -->
      <g transform="translate(907.049707 334.917344)scale(0.17 -0.17)">
       <use xlink:href="#DejaVuSans-4e"/>
       <use xlink:href="#DejaVuSans-6f" x="74.804688"/>
       <use xlink:href="#DejaVuSans-76" x="135.986328"/>
      </g>
     </g>
    </g>
   </g>
   <g id="matplotlib.axis_4">
    <g id="ytick_6">
     <g id="line2d_20">
      <g>
       <use xlink:href="#m9ff00fe5ff" x="591.545455" y="295.813259" style="stroke: #000000; stroke-width: 0.8"/>
      </g>
     </g>
     <g id="text_22">
      <!-- 0 -->
      <g transform="translate(573.729205 302.27193)scale(0.17 -0.17)">
       <use xlink:href="#DejaVuSans-30"/>
      </g>
     </g>
    </g>
    <g id="ytick_7">
     <g id="line2d_21">
      <g>
       <use xlink:href="#m9ff00fe5ff" x="591.545455" y="224.959317" style="stroke: #000000; stroke-width: 0.8"/>
      </g>
     </g>
     <g id="text_23">
      <!-- 200 -->
      <g transform="translate(552.096705 231.417989)scale(0.17 -0.17)">
       <use xlink:href="#DejaVuSans-32"/>
       <use xlink:href="#DejaVuSans-30" x="63.623047"/>
       <use xlink:href="#DejaVuSans-30" x="127.246094"/>
      </g>
     </g>
    </g>
    <g id="ytick_8">
     <g id="line2d_22">
      <g>
       <use xlink:href="#m9ff00fe5ff" x="591.545455" y="154.105376" style="stroke: #000000; stroke-width: 0.8"/>
      </g>
     </g>
     <g id="text_24">
      <!-- 400 -->
      <g transform="translate(552.096705 160.564048)scale(0.17 -0.17)">
       <use xlink:href="#DejaVuSans-34"/>
       <use xlink:href="#DejaVuSans-30" x="63.623047"/>
       <use xlink:href="#DejaVuSans-30" x="127.246094"/>
      </g>
     </g>
    </g>
    <g id="ytick_9">
     <g id="line2d_23">
      <g>
       <use xlink:href="#m9ff00fe5ff" x="591.545455" y="83.251435" style="stroke: #000000; stroke-width: 0.8"/>
      </g>
     </g>
     <g id="text_25">
      <!-- 600 -->
      <g transform="translate(552.096705 89.710107)scale(0.17 -0.17)">
       <defs>
        <path id="DejaVuSans-36" d="M 2113 2584 
Q 1688 2584 1439 2293 
Q 1191 2003 1191 1497 
Q 1191 994 1439 701 
Q 1688 409 2113 409 
Q 2538 409 2786 701 
Q 3034 994 3034 1497 
Q 3034 2003 2786 2293 
Q 2538 2584 2113 2584 
z
M 3366 4563 
L 3366 3988 
Q 3128 4100 2886 4159 
Q 2644 4219 2406 4219 
Q 1781 4219 1451 3797 
Q 1122 3375 1075 2522 
Q 1259 2794 1537 2939 
Q 1816 3084 2150 3084 
Q 2853 3084 3261 2657 
Q 3669 2231 3669 1497 
Q 3669 778 3244 343 
Q 2819 -91 2113 -91 
Q 1303 -91 875 529 
Q 447 1150 447 2328 
Q 447 3434 972 4092 
Q 1497 4750 2381 4750 
Q 2619 4750 2861 4703 
Q 3103 4656 3366 4563 
z
" transform="scale(0.015625)"/>
       </defs>
       <use xlink:href="#DejaVuSans-36"/>
       <use xlink:href="#DejaVuSans-30" x="63.623047"/>
       <use xlink:href="#DejaVuSans-30" x="127.246094"/>
      </g>
     </g>
    </g>
    <g id="text_26">
     <!-- $H_2O$, mm -->
     <g transform="translate(544.561236 218.2)rotate(-90)scale(0.17 -0.17)">
      <defs>
       <path id="DejaVuSans-Oblique-48" d="M 1081 4666 
L 1716 4666 
L 1344 2753 
L 3634 2753 
L 4006 4666 
L 4641 4666 
L 3731 0 
L 3097 0 
L 3531 2222 
L 1241 2222 
L 806 0 
L 172 0 
L 1081 4666 
z
" transform="scale(0.015625)"/>
       <path id="DejaVuSans-Oblique-4f" d="M 2919 4238 
Q 2400 4238 2003 3986 
Q 1606 3734 1313 3219 
Q 1125 2891 1026 2522 
Q 928 2153 928 1778 
Q 928 1128 1239 775 
Q 1550 422 2119 422 
Q 2631 422 3032 676 
Q 3434 931 3719 1434 
Q 3909 1772 4009 2142 
Q 4109 2513 4109 2881 
Q 4109 3528 3796 3883 
Q 3484 4238 2919 4238 
z
M 2100 -91 
Q 1241 -91 748 418 
Q 256 928 256 1813 
Q 256 2319 448 2847 
Q 641 3375 978 3788 
Q 1375 4272 1862 4511 
Q 2350 4750 2938 4750 
Q 3794 4750 4287 4245 
Q 4781 3741 4781 2869 
Q 4781 2331 4593 1812 
Q 4406 1294 4056 872 
Q 3656 384 3173 146 
Q 2691 -91 2100 -91 
z
" transform="scale(0.015625)"/>
       <path id="DejaVuSans-2c" d="M 750 794 
L 1409 794 
L 1409 256 
L 897 -744 
L 494 -744 
L 750 256 
L 750 794 
z
" transform="scale(0.015625)"/>
      </defs>
      <use xlink:href="#DejaVuSans-Oblique-48" transform="translate(0 0.78125)"/>
      <use xlink:href="#DejaVuSans-32" transform="translate(75.195312 -15.625)scale(0.7)"/>
      <use xlink:href="#DejaVuSans-Oblique-4f" transform="translate(122.46582 0.78125)"/>
      <use xlink:href="#DejaVuSans-2c" transform="translate(201.176758 0.78125)"/>
      <use xlink:href="#DejaVuSans-20" transform="translate(232.963867 0.78125)"/>
      <use xlink:href="#DejaVuSans-6d" transform="translate(264.750977 0.78125)"/>
      <use xlink:href="#DejaVuSans-6d" transform="translate(362.163086 0.78125)"/>
     </g>
    </g>
   </g>
   <g id="line2d_24">
    <path d="M 696.859083 260.929502 
L 704.107809 255.154905 
L 711.356535 253.607928 
L 725.853986 247.254691 
L 740.351438 242.625567 
L 744.493567 238.586892 
L 747.600163 234.536408 
L 751.742292 227.805284 
L 766.239744 227.805284 
L 771.417405 227.61634 
L 785.914856 227.226643 
L 794.199114 227.226643 
L 809.732098 213.728968 
L 815.945291 213.339271 
L 830.442743 213.339271 
L 834.584872 197.940348 
L 836.655936 196.204426 
L 838.727001 194.267752 
L 843.904662 192.909718 
L 852.18892 192.909718 
L 880.14829 192.909718 
L 886.361484 192.153943 
L 907.072128 186.757234 
L 915.356386 185.210256 
L 918.462983 185.021313 
L 921.56958 184.442672 
L 929.853838 184.442672 
L 944.351289 184.442672 
" clip-path="url(#pf5b967214d)" style="fill: none; stroke: #ff0000; stroke-width: 1.5; stroke-linecap: square"/>
   </g>
   <g id="line2d_25">
    <path d="M 608.838843 295.813259 
L 609.874375 293.563646 
L 610.909907 285.555025 
L 611.94544 284.295242 
L 623.336294 284.205256 
L 624.371827 282.225597 
L 625.407359 282.225597 
L 626.442891 274.756883 
L 627.478423 274.486929 
L 631.620552 274.486929 
L 632.656085 273.587083 
L 635.762681 273.497098 
L 636.798213 271.967363 
L 639.90481 271.967363 
L 640.940342 271.787393 
L 648.189068 271.787393 
L 649.2246 271.607423 
L 653.366729 271.607423 
L 654.402262 264.94857 
L 655.437794 264.94857 
L 656.473326 262.249034 
L 657.508858 262.249034 
L 658.544391 262.069064 
L 661.650987 262.069064 
L 662.68652 259.369528 
L 664.757584 259.369528 
L 665.793116 258.289715 
L 666.828648 258.199731 
L 667.864181 245.691885 
L 673.041842 245.691885 
L 674.077374 245.511917 
L 676.148439 245.511917 
L 677.183971 245.151977 
L 678.219503 242.812379 
L 679.255035 242.452438 
L 680.290568 238.94304 
L 682.361632 238.853057 
L 683.397164 238.313149 
L 684.432697 238.043198 
L 685.468229 236.603447 
L 694.788019 236.513464 
L 695.823551 234.983729 
L 699.96568 234.983729 
L 701.001212 233.364006 
L 703.072277 233.364006 
L 704.107809 233.184039 
L 705.143341 230.754456 
L 715.498664 230.754456 
L 716.534196 227.87495 
L 717.569728 225.805308 
L 719.640793 225.805308 
L 720.676325 223.735666 
L 721.711857 215.367109 
L 729.996115 215.367109 
L 731.031647 214.827202 
L 736.209309 214.827202 
L 737.244841 205.468813 
L 738.280373 205.468813 
L 739.315905 201.599475 
L 740.351438 199.079909 
L 742.422502 199.079909 
L 743.458034 197.370207 
L 744.493567 197.280224 
L 745.529099 190.801341 
L 762.097615 190.801341 
L 763.133147 186.662057 
L 764.168679 186.662057 
L 765.204211 184.862372 
L 766.239744 184.142491 
L 767.275276 184.052508 
L 768.310808 183.602589 
L 780.737195 183.512605 
L 781.772727 170.104911 
L 782.80826 168.755144 
L 783.843792 168.575177 
L 787.985921 168.575177 
L 789.021453 155.977347 
L 794.199114 155.977347 
L 795.234646 154.087667 
L 796.270179 150.938204 
L 801.44784 150.938204 
L 802.483372 149.138519 
L 806.625501 149.138519 
L 807.661033 118.453808 
L 818.016356 118.453808 
L 819.051888 116.204194 
L 822.158485 116.204194 
L 823.194017 111.884942 
L 831.478275 111.884942 
L 832.513807 111.704975 
L 833.549339 94.607915 
L 835.620404 94.517921 
L 836.655936 90.558594 
L 837.691468 90.558594 
L 838.727001 87.769066 
L 839.762533 87.769066 
L 840.798065 87.499104 
L 841.833597 85.429467 
L 852.18892 85.429467 
L 853.224452 85.159505 
L 868.757436 85.159505 
L 869.792968 83.089869 
L 870.8285 82.729934 
L 878.077226 82.729934 
L 879.112758 70.851974 
L 893.610209 70.761979 
L 895.681274 70.671985 
L 896.716806 70.31205 
L 901.894467 70.31205 
L 902.93 67.342554 
L 903.965532 59.153959 
L 905.001064 58.70403 
L 909.143193 58.70403 
L 910.178725 58.434068 
L 915.356386 58.344073 
L 916.391919 58.164106 
L 917.427451 56.094469 
L 947.457886 56.004475 
L 950.564483 55.554545 
L 954.706612 55.554545 
L 954.706612 55.554545 
" clip-path="url(#pf5b967214d)" style="fill: none; stroke: #800080; stroke-width: 1.5; stroke-linecap: square"/>
   </g>
   <g id="line2d_26">
    <path d="M 608.838843 295.815478 
L 621.049831 296.548319 
L 629.808371 297.230369 
L 641.372151 298.105839 
L 645.815636 298.747513 
L 651.381622 299.208749 
L 665.27535 300.136304 
L 676.536763 300.660519 
L 712.262626 302.343502 
L 719.123027 302.640864 
L 722.229623 302.569474 
L 723.567523 302.354741 
L 724.257204 302.026097 
L 724.732497 301.553051 
L 725.163294 300.770163 
L 725.595103 299.44822 
L 726.112869 297.055421 
L 728.442817 285.450055 
L 730.340956 277.643054 
L 731.764812 272.800818 
L 732.670903 270.861748 
L 733.922845 268.746052 
L 735.130292 267.090097 
L 736.597633 265.454857 
L 738.236889 263.98031 
L 739.100507 263.16614 
L 739.877156 261.998876 
L 741.516411 259.028059 
L 743.372077 255.195369 
L 744.493567 253.438143 
L 746.262264 251.176665 
L 747.038913 250.032148 
L 749.973595 245.296629 
L 751.181042 243.884313 
L 752.648383 242.516069 
L 754.331123 241.272244 
L 756.186789 240.193434 
L 758.041443 239.355557 
L 760.241949 238.613837 
L 762.658865 238.047885 
L 765.290169 237.658132 
L 768.310808 237.183379 
L 773.876794 236.176352 
L 777.285758 235.873874 
L 781.082035 235.754548 
L 785.699457 235.644888 
L 788.460203 234.989216 
L 792.084565 234.065837 
L 794.285071 232.869523 
L 796.270179 231.966577 
L 799.074408 231.010704 
L 802.698771 229.909547 
L 805.417043 229.381337 
L 808.74005 228.772831 
L 809.041406 228.300959 
L 809.516699 227.010704 
L 810.811114 223.253011 
L 811.673721 221.421075 
L 812.709253 219.733493 
L 813.874227 218.288797 
L 815.168642 217.06767 
L 816.592499 216.052615 
L 818.231755 215.176482 
L 820.08742 214.453952 
L 822.935134 213.64138 
L 828.50112 212.414026 
L 831.348833 211.926856 
L 835.835803 211.224798 
L 836.69942 210.583885 
L 840.625139 207.077546 
L 842.437321 205.610097 
L 844.551869 204.261125 
L 846.708891 203.109997 
L 848.737483 202.307312 
L 850.85102 201.704551 
L 853.439851 201.203678 
L 856.46049 200.862177 
L 860.214295 200.670944 
L 864.529349 200.682123 
L 869.4906 200.934041 
L 882.95252 201.741289 
L 885.023584 201.508486 
L 894.818667 200.139907 
L 901.074334 199.627963 
L 906.899203 199.110646 
L 908.151145 198.676382 
L 916.089551 195.37744 
L 920.361122 194.114133 
L 926.833198 192.303949 
L 935.376339 190.42241 
L 941.805943 189.305447 
L 948.320492 188.37324 
L 952.54959 187.944706 
L 954.663127 187.84816 
L 954.663127 187.84816 
" clip-path="url(#pf5b967214d)" style="fill: none; stroke: #008000; stroke-width: 1.5; stroke-linecap: square"/>
   </g>
   <g id="patch_9">
    <path d="M 591.545455 315 
L 591.545455 43.2 
" style="fill: none; stroke: #000000; stroke-width: 0.8; stroke-linejoin: miter; stroke-linecap: square"/>
   </g>
   <g id="patch_10">
    <path d="M 972 315 
L 972 43.2 
" style="fill: none; stroke: #000000; stroke-width: 0.8; stroke-linejoin: miter; stroke-linecap: square"/>
   </g>
   <g id="patch_11">
    <path d="M 591.545455 315 
L 972 315 
" style="fill: none; stroke: #000000; stroke-width: 0.8; stroke-linejoin: miter; stroke-linecap: square"/>
   </g>
   <g id="patch_12">
    <path d="M 591.545455 43.2 
L 972 43.2 
" style="fill: none; stroke: #000000; stroke-width: 0.8; stroke-linejoin: miter; stroke-linecap: square"/>
   </g>
   <g id="text_27">
    <!-- Cumulative runoff and precipitation -->
    <g transform="translate(639.082727 37.2)scale(0.16 -0.16)">
     <defs>
      <path id="DejaVuSans-66" d="M 2375 4863 
L 2375 4384 
L 1825 4384 
Q 1516 4384 1395 4259 
Q 1275 4134 1275 3809 
L 1275 3500 
L 2222 3500 
L 2222 3053 
L 1275 3053 
L 1275 0 
L 697 0 
L 697 3053 
L 147 3053 
L 147 3500 
L 697 3500 
L 697 3744 
Q 697 4328 969 4595 
Q 1241 4863 1831 4863 
L 2375 4863 
z
" transform="scale(0.015625)"/>
      <path id="DejaVuSans-64" d="M 2906 2969 
L 2906 4863 
L 3481 4863 
L 3481 0 
L 2906 0 
L 2906 525 
Q 2725 213 2448 61 
Q 2172 -91 1784 -91 
Q 1150 -91 751 415 
Q 353 922 353 1747 
Q 353 2572 751 3078 
Q 1150 3584 1784 3584 
Q 2172 3584 2448 3432 
Q 2725 3281 2906 2969 
z
M 947 1747 
Q 947 1113 1208 752 
Q 1469 391 1925 391 
Q 2381 391 2643 752 
Q 2906 1113 2906 1747 
Q 2906 2381 2643 2742 
Q 2381 3103 1925 3103 
Q 1469 3103 1208 2742 
Q 947 2381 947 1747 
z
" transform="scale(0.015625)"/>
     </defs>
     <use xlink:href="#DejaVuSans-43"/>
     <use xlink:href="#DejaVuSans-75" x="69.824219"/>
     <use xlink:href="#DejaVuSans-6d" x="133.203125"/>
     <use xlink:href="#DejaVuSans-75" x="230.615234"/>
     <use xlink:href="#DejaVuSans-6c" x="293.994141"/>
     <use xlink:href="#DejaVuSans-61" x="321.777344"/>
     <use xlink:href="#DejaVuSans-74" x="383.056641"/>
     <use xlink:href="#DejaVuSans-69" x="422.265625"/>
     <use xlink:href="#DejaVuSans-76" x="450.048828"/>
     <use xlink:href="#DejaVuSans-65" x="509.228516"/>
     <use xlink:href="#DejaVuSans-20" x="570.751953"/>
     <use xlink:href="#DejaVuSans-72" x="602.539062"/>
     <use xlink:href="#DejaVuSans-75" x="643.652344"/>
     <use xlink:href="#DejaVuSans-6e" x="707.03125"/>
     <use xlink:href="#DejaVuSans-6f" x="770.410156"/>
     <use xlink:href="#DejaVuSans-66" x="831.591797"/>
     <use xlink:href="#DejaVuSans-66" x="866.796875"/>
     <use xlink:href="#DejaVuSans-20" x="902.001953"/>
     <use xlink:href="#DejaVuSans-61" x="933.789062"/>
     <use xlink:href="#DejaVuSans-6e" x="995.068359"/>
     <use xlink:href="#DejaVuSans-64" x="1058.447266"/>
     <use xlink:href="#DejaVuSans-20" x="1121.923828"/>
     <use xlink:href="#DejaVuSans-70" x="1153.710938"/>
     <use xlink:href="#DejaVuSans-72" x="1217.1875"/>
     <use xlink:href="#DejaVuSans-65" x="1256.050781"/>
     <use xlink:href="#DejaVuSans-63" x="1317.574219"/>
     <use xlink:href="#DejaVuSans-69" x="1372.554688"/>
     <use xlink:href="#DejaVuSans-70" x="1400.337891"/>
     <use xlink:href="#DejaVuSans-69" x="1463.814453"/>
     <use xlink:href="#DejaVuSans-74" x="1491.597656"/>
     <use xlink:href="#DejaVuSans-61" x="1530.806641"/>
     <use xlink:href="#DejaVuSans-74" x="1592.085938"/>
     <use xlink:href="#DejaVuSans-69" x="1631.294922"/>
     <use xlink:href="#DejaVuSans-6f" x="1659.078125"/>
     <use xlink:href="#DejaVuSans-6e" x="1720.259766"/>
    </g>
   </g>
   <g id="legend_2">
    <g id="patch_13">
     <path d="M 598.545455 95.234375 
L 754.845455 95.234375 
Q 756.845455 95.234375 756.845455 93.234375 
L 756.845455 50.2 
Q 756.845455 48.2 754.845455 48.2 
L 598.545455 48.2 
Q 596.545455 48.2 596.545455 50.2 
L 596.545455 93.234375 
Q 596.545455 95.234375 598.545455 95.234375 
z
" style="fill: #ffffff; opacity: 0.8; stroke: #cccccc; stroke-linejoin: miter"/>
    </g>
    <g id="line2d_27">
     <path d="M 600.545455 56.298437 
L 610.545455 56.298437 
L 620.545455 56.298437 
" style="fill: none; stroke: #ff0000; stroke-width: 1.5; stroke-linecap: square"/>
    </g>
    <g id="text_28">
     <!-- MESOCOSM Runoff -->
     <g transform="translate(628.545455 59.798437)scale(0.1 -0.1)">
      <defs>
       <path id="DejaVuSans-52" d="M 2841 2188 
Q 3044 2119 3236 1894 
Q 3428 1669 3622 1275 
L 4263 0 
L 3584 0 
L 2988 1197 
Q 2756 1666 2539 1819 
Q 2322 1972 1947 1972 
L 1259 1972 
L 1259 0 
L 628 0 
L 628 4666 
L 2053 4666 
Q 2853 4666 3247 4331 
Q 3641 3997 3641 3322 
Q 3641 2881 3436 2590 
Q 3231 2300 2841 2188 
z
M 1259 4147 
L 1259 2491 
L 2053 2491 
Q 2509 2491 2742 2702 
Q 2975 2913 2975 3322 
Q 2975 3731 2742 3939 
Q 2509 4147 2053 4147 
L 1259 4147 
z
" transform="scale(0.015625)"/>
      </defs>
      <use xlink:href="#DejaVuSans-4d"/>
      <use xlink:href="#DejaVuSans-45" x="86.279297"/>
      <use xlink:href="#DejaVuSans-53" x="149.462891"/>
      <use xlink:href="#DejaVuSans-4f" x="212.939453"/>
      <use xlink:href="#DejaVuSans-43" x="291.650391"/>
      <use xlink:href="#DejaVuSans-4f" x="361.474609"/>
      <use xlink:href="#DejaVuSans-53" x="440.185547"/>
      <use xlink:href="#DejaVuSans-4d" x="503.662109"/>
      <use xlink:href="#DejaVuSans-20" x="589.941406"/>
      <use xlink:href="#DejaVuSans-52" x="621.728516"/>
      <use xlink:href="#DejaVuSans-75" x="686.710938"/>
      <use xlink:href="#DejaVuSans-6e" x="750.089844"/>
      <use xlink:href="#DejaVuSans-6f" x="813.46875"/>
      <use xlink:href="#DejaVuSans-66" x="874.650391"/>
      <use xlink:href="#DejaVuSans-66" x="909.855469"/>
     </g>
    </g>
    <g id="line2d_28">
     <path d="M 600.545455 70.976562 
L 610.545455 70.976562 
L 620.545455 70.976562 
" style="fill: none; stroke: #800080; stroke-width: 1.5; stroke-linecap: square"/>
    </g>
    <g id="text_29">
     <!-- MESONET Precipitation -->
     <g transform="translate(628.545455 74.476562)scale(0.1 -0.1)">
      <defs>
       <path id="DejaVuSans-54" d="M -19 4666 
L 3928 4666 
L 3928 4134 
L 2272 4134 
L 2272 0 
L 1638 0 
L 1638 4134 
L -19 4134 
L -19 4666 
z
" transform="scale(0.015625)"/>
       <path id="DejaVuSans-50" d="M 1259 4147 
L 1259 2394 
L 2053 2394 
Q 2494 2394 2734 2622 
Q 2975 2850 2975 3272 
Q 2975 3691 2734 3919 
Q 2494 4147 2053 4147 
L 1259 4147 
z
M 628 4666 
L 2053 4666 
Q 2838 4666 3239 4311 
Q 3641 3956 3641 3272 
Q 3641 2581 3239 2228 
Q 2838 1875 2053 1875 
L 1259 1875 
L 1259 0 
L 628 0 
L 628 4666 
z
" transform="scale(0.015625)"/>
      </defs>
      <use xlink:href="#DejaVuSans-4d"/>
      <use xlink:href="#DejaVuSans-45" x="86.279297"/>
      <use xlink:href="#DejaVuSans-53" x="149.462891"/>
      <use xlink:href="#DejaVuSans-4f" x="212.939453"/>
      <use xlink:href="#DejaVuSans-4e" x="291.650391"/>
      <use xlink:href="#DejaVuSans-45" x="366.455078"/>
      <use xlink:href="#DejaVuSans-54" x="429.638672"/>
      <use xlink:href="#DejaVuSans-20" x="490.722656"/>
      <use xlink:href="#DejaVuSans-50" x="522.509766"/>
      <use xlink:href="#DejaVuSans-72" x="581.0625"/>
      <use xlink:href="#DejaVuSans-65" x="619.925781"/>
      <use xlink:href="#DejaVuSans-63" x="681.449219"/>
      <use xlink:href="#DejaVuSans-69" x="736.429688"/>
      <use xlink:href="#DejaVuSans-70" x="764.212891"/>
      <use xlink:href="#DejaVuSans-69" x="827.689453"/>
      <use xlink:href="#DejaVuSans-74" x="855.472656"/>
      <use xlink:href="#DejaVuSans-61" x="894.681641"/>
      <use xlink:href="#DejaVuSans-74" x="955.960938"/>
      <use xlink:href="#DejaVuSans-69" x="995.169922"/>
      <use xlink:href="#DejaVuSans-6f" x="1022.953125"/>
      <use xlink:href="#DejaVuSans-6e" x="1084.134766"/>
     </g>
    </g>
    <g id="line2d_29">
     <path d="M 600.545455 85.654687 
L 610.545455 85.654687 
L 620.545455 85.654687 
" style="fill: none; stroke: #008000; stroke-width: 1.5; stroke-linecap: square"/>
    </g>
    <g id="text_30">
     <!-- $CLM5.0^*-FANv3$ Runoff -->
     <g transform="translate(628.545455 89.154687)scale(0.1 -0.1)">
      <use xlink:href="#DejaVuSans-Oblique-43" transform="translate(0 0.765625)"/>
      <use xlink:href="#DejaVuSans-Oblique-4c" transform="translate(69.824219 0.765625)"/>
      <use xlink:href="#DejaVuSans-Oblique-4d" transform="translate(125.537109 0.765625)"/>
      <use xlink:href="#DejaVuSans-35" transform="translate(211.816406 0.765625)"/>
      <use xlink:href="#DejaVuSans-2e" transform="translate(275.439453 0.765625)"/>
      <use xlink:href="#DejaVuSans-30" transform="translate(307.226562 0.765625)"/>
      <use xlink:href="#DejaVuSans-2a" transform="translate(385.444336 39.046875)scale(0.7)"/>
      <use xlink:href="#DejaVuSans-2212" transform="translate(456.298828 0.765625)"/>
      <use xlink:href="#DejaVuSans-Oblique-46" transform="translate(559.570312 0.765625)"/>
      <use xlink:href="#DejaVuSans-Oblique-41" transform="translate(617.089844 0.765625)"/>
      <use xlink:href="#DejaVuSans-Oblique-4e" transform="translate(685.498047 0.765625)"/>
      <use xlink:href="#DejaVuSans-Oblique-76" transform="translate(760.302734 0.765625)"/>
      <use xlink:href="#DejaVuSans-33" transform="translate(819.482422 0.765625)"/>
      <use xlink:href="#DejaVuSans-20" transform="translate(883.105469 0.765625)"/>
      <use xlink:href="#DejaVuSans-52" transform="translate(914.892578 0.765625)"/>
      <use xlink:href="#DejaVuSans-75" transform="translate(984.375 0.765625)"/>
      <use xlink:href="#DejaVuSans-6e" transform="translate(1047.753906 0.765625)"/>
      <use xlink:href="#DejaVuSans-6f" transform="translate(1111.132812 0.765625)"/>
      <use xlink:href="#DejaVuSans-66" transform="translate(1172.314453 0.765625)"/>
      <use xlink:href="#DejaVuSans-66" transform="translate(1207.519531 0.765625)"/>
     </g>
    </g>
   </g>
  </g>
 </g>
 <defs>
  <clipPath id="p2962444ce2">
   <rect x="135" y="43.2" width="380.454545" height="271.8"/>
  </clipPath>
  <clipPath id="pf5b967214d">
   <rect x="591.545455" y="43.2" width="380.454545" height="271.8"/>
  </clipPath>
 </defs>
</svg>
