<?xml version="1.0" encoding="utf-8" standalone="no"?>
<!DOCTYPE svg PUBLIC "-//W3C//DTD SVG 1.1//EN"
  "http://www.w3.org/Graphics/SVG/1.1/DTD/svg11.dtd">
<svg xmlns:xlink="http://www.w3.org/1999/xlink" width="1080pt" height="360pt" viewBox="0 0 1080 360" xmlns="http://www.w3.org/2000/svg" version="1.1">
 <metadata>
  <rdf:RDF xmlns:dc="http://purl.org/dc/elements/1.1/" xmlns:cc="http://creativecommons.org/ns#" xmlns:rdf="http://www.w3.org/1999/02/22-rdf-syntax-ns#">
   <cc:Work>
    <dc:type rdf:resource="http://purl.org/dc/dcmitype/StillImage"/>
    <dc:date>2024-01-30T01:40:00.675742</dc:date>
    <dc:format>image/svg+xml</dc:format>
    <dc:creator>
     <cc:Agent>
      <dc:title>Matplotlib v3.5.2, https://matplotlib.org/</dc:title>
     </cc:Agent>
    </dc:creator>
   </cc:Work>
  </rdf:RDF>
 </metadata>
 <defs>
  <style type="text/css">*{stroke-linejoin: round; stroke-linecap: butt}</style>
 </defs>
 <g id="figure_1">
  <g id="patch_1">
   <path d="M 0 360 
L 1080 360 
L 1080 0 
L 0 0 
L 0 360 
z
" style="fill: none"/>
  </g>
  <g id="axes_1">
   <g id="patch_2">
    <path d="M 135 315 
L 515.454545 315 
L 515.454545 43.2 
L 135 43.2 
z
" style="fill: #ffffff"/>
   </g>
   <g id="line2d_1">
    <path d="M 152.293388 155.126749 
L 152.638778 155.145611 
L 152.983661 155.16201 
L 153.587966 155.317616 
L 154.105798 155.427407 
L 154.623629 155.834153 
L 155.227934 155.982531 
L 155.357392 157.607821 
L 155.400376 157.145659 
L 155.529834 156.714873 
L 156.220107 156.704336 
L 156.393054 158.440281 
L 156.436038 158.177257 
L 156.694954 156.666702 
L 156.910885 156.517911 
L 157.169801 156.577553 
L 157.989532 156.966048 
L 158.291432 157.06951 
L 158.723295 157.328021 
L 160.276788 157.70436 
L 160.79462 157.633929 
L 161.355435 157.875897 
L 161.700824 158.215124 
L 163.469744 159.139395 
L 163.642691 162.447747 
L 163.728659 161.946441 
L 164.074049 160.210946 
L 164.28998 160.122157 
L 164.419438 160.148624 
L 164.505406 162.155864 
L 164.678354 165.594524 
L 164.807812 164.98143 
L 165.368627 161.793082 
L 165.411611 161.895123 
L 165.670527 166.600265 
L 165.714016 165.262777 
L 165.972932 160.131147 
L 166.274832 157.958591 
L 166.533747 157.245237 
L 166.706189 157.076702 
L 166.879136 156.501476 
L 167.22402 155.969405 
L 167.655883 155.71618 
L 167.914799 155.661644 
L 168.303172 155.305911 
L 168.73453 155.277501 
L 170.676397 155.285467 
L 170.892328 155.134589 
L 171.884501 155.170443 
L 172.100433 155.107672 
L 172.704738 154.833661 
L 173.481485 154.779935 
L 173.955826 154.758124 
L 190.181542 155.406172 
L 195.014464 155.296938 
L 195.27338 155.179613 
L 196.050127 155.205506 
L 199.674946 155.361238 
L 200.88305 155.186464 
L 202.997864 155.118748 
L 203.429222 155.118155 
L 204.939732 155.196965 
L 205.198647 155.586412 
L 205.241631 155.582259 
L 205.414073 155.2394 
L 205.672989 155.103806 
L 205.931904 155.152858 
L 206.147836 155.562282 
L 206.23431 155.51501 
L 206.493225 154.89102 
L 206.924583 154.677731 
L 207.312956 154.56296 
L 207.744314 154.363732 
L 208.219161 154.373819 
L 211.283164 154.633373 
L 211.973437 154.575906 
L 212.145879 154.612335 
L 212.318826 155.455224 
L 212.404795 155.223846 
L 212.577742 154.807158 
L 213.052084 154.571393 
L 213.138557 154.580419 
L 213.310999 156.290561 
L 213.397473 156.744631 
L 213.440457 156.709425 
L 213.613405 156.196862 
L 214.001778 155.043498 
L 214.131236 155.126354 
L 214.217204 155.790675 
L 214.476119 158.349064 
L 214.562593 158.332198 
L 214.735035 157.876131 
L 215.080424 156.508848 
L 215.123409 156.610332 
L 215.252866 158.102402 
L 215.598256 163.218461 
L 215.684729 163.00341 
L 215.986629 160.801366 
L 216.116087 159.915916 
L 216.159071 159.953352 
L 216.288529 161.148055 
L 216.50446 163.813448 
L 216.547444 163.669601 
L 216.84985 160.827905 
L 217.065276 159.535998 
L 217.151749 159.209196 
L 217.194733 159.359408 
L 217.324191 161.402735 
L 217.453649 162.543891 
L 217.626597 163.090113 
L 217.799038 163.090509 
L 217.97148 162.746553 
L 218.532801 160.740644 
L 219.309548 153.796957 
L 219.352532 153.831984 
L 219.439006 153.890278 
L 219.568464 155.417878 
L 219.611448 155.183209 
L 220.172263 150.388433 
L 220.34521 149.639026 
L 220.388195 149.657403 
L 220.517652 150.121777 
L 220.64711 152.408691 
L 220.690094 152.078706 
L 221.337383 146.923449 
L 221.423857 147.143445 
L 221.553315 153.03331 
L 221.639789 155.821224 
L 221.682773 155.402612 
L 221.769246 155.556978 
L 221.81223 155.440965 
L 221.941688 154.205446 
L 222.459519 146.883783 
L 222.502503 147.241458 
L 222.631961 150.497163 
L 222.718435 153.260893 
L 222.761419 152.083794 
L 223.063824 145.986934 
L 223.452198 143.704263 
L 223.62464 143.70919 
L 223.711113 144.001235 
L 223.754097 143.967143 
L 224.185455 142.162512 
L 224.358402 142.028285 
L 224.530844 142.217318 
L 224.746776 143.029873 
L 224.78976 143.01396 
L 224.962202 142.573681 
L 225.221117 142.390492 
L 225.437049 142.455025 
L 225.609491 142.709148 
L 225.868406 143.394004 
L 226.041354 143.364281 
L 226.472711 143.377012 
L 226.559185 143.424913 
L 226.688643 144.447736 
L 226.861085 145.822139 
L 226.904069 145.784829 
L 227.335932 145.134767 
L 227.508374 144.833857 
L 227.637832 145.62577 
L 227.767289 149.707695 
L 227.939731 155.92839 
L 228.112679 156.289806 
L 228.198647 155.929937 
L 228.414579 152.84496 
L 228.58702 151.065286 
L 228.759968 155.955883 
L 228.802952 155.822753 
L 228.889426 147.833694 
L 229.148341 81.642996 
L 229.191325 83.045341 
L 229.234309 83.379138 
L 229.536715 61.272837 
L 229.579699 61.205229 
L 229.709157 56.757285 
L 229.881598 56.757285 
L 229.925088 58.906951 
L 230.313462 112.025042 
L 230.356446 112.407531 
L 230.442919 112.266489 
L 230.615361 111.036778 
L 230.701835 111.63385 
L 230.831293 109.842866 
L 230.874277 110.14009 
L 231.090208 110.438824 
L 231.219666 106.3332 
L 231.56455 68.825392 
L 231.60804 68.970732 
L 231.952923 74.71256 
L 232.039397 68.661101 
L 232.255329 57.013405 
L 232.384786 55.554545 
L 232.427771 55.748613 
L 232.72967 73.517246 
L 232.77316 80.361895 
L 232.816144 77.820696 
L 233.118044 56.757285 
L 233.506417 56.704475 
L 233.635875 56.296184 
L 233.679365 56.35491 
L 233.808822 56.757285 
L 233.851806 56.757285 
L 233.89479 57.333374 
L 234.110722 73.708886 
L 234.283164 89.137221 
L 234.671537 121.993721 
L 234.887469 126.799286 
L 235.059911 127.77847 
L 235.1034 127.773454 
L 235.275842 127.630757 
L 235.362316 127.729221 
L 235.880147 114.596647 
L 235.923131 116.35753 
L 236.009605 117.182744 
L 236.182047 107.989975 
L 236.225031 107.997005 
L 236.397978 107.635194 
L 236.440962 107.738638 
L 236.57042 107.981721 
L 236.699878 106.088031 
L 236.829336 104.607577 
L 237.045267 109.096643 
L 237.174725 108.978239 
L 237.260693 109.234016 
L 237.347167 107.886009 
L 237.606083 96.5827 
L 237.864998 86.846351 
L 237.907982 87.064513 
L 238.03744 92.521057 
L 238.210388 114.358454 
L 238.253372 113.925097 
L 238.339846 112.455162 
L 238.555271 103.603058 
L 238.857677 88.443214 
L 238.900661 88.659038 
L 239.116592 116.231449 
L 239.332018 117.747775 
L 239.504966 118.003858 
L 239.54795 117.833543 
L 239.634424 113.434076 
L 239.936323 92.74607 
L 240.022797 97.730185 
L 240.281713 122.416164 
L 240.41117 122.943057 
L 240.454154 122.186135 
L 240.971986 91.317203 
L 241.01497 91.582151 
L 241.101444 95.899571 
L 241.317375 130.535548 
L 241.446833 131.773188 
L 241.489817 131.670967 
L 241.619275 123.74664 
L 241.921174 106.685157 
L 242.007648 104.737345 
L 242.050632 105.106689 
L 242.137106 109.819024 
L 242.396022 138.139834 
L 242.611953 139.821026 
L 242.697921 138.456117 
L 243.086295 124.940767 
L 243.129784 128.559739 
L 243.302226 143.64534 
L 243.518158 145.793729 
L 243.647616 135.808903 
L 243.6906 137.872926 
L 243.863041 141.862574 
L 244.035989 142.354368 
L 244.510331 142.626041 
L 244.596804 141.326043 
L 244.85572 128.749365 
L 245.15762 117.309401 
L 245.201109 117.513628 
L 245.287077 128.333288 
L 245.460025 141.095528 
L 245.503009 141.707596 
L 245.545993 141.028226 
L 246.150298 113.01167 
L 246.193282 114.335583 
L 246.236772 116.799788 
L 246.409214 137.548551 
L 246.711113 141.972149 
L 246.754603 142.100442 
L 246.884061 123.547178 
L 246.927045 125.21938 
L 247.272434 132.595273 
L 247.315418 132.58738 
L 247.358402 131.612943 
L 247.401892 132.077496 
L 247.574334 134.016822 
L 247.876233 133.752216 
L 248.005691 133.792277 
L 248.092165 132.782652 
L 248.135149 132.096179 
L 248.178639 132.4823 
L 248.308097 133.733786 
L 248.437554 133.437371 
L 248.65298 133.918467 
L 249.041354 133.948046 
L 249.214301 130.916832 
L 249.429727 134.807369 
L 249.602675 135.842815 
L 249.645659 135.752011 
L 249.86159 135.371464 
L 250.120506 135.462448 
L 250.379422 135.738544 
L 250.638337 136.272629 
L 250.681321 136.196372 
L 250.767795 136.05204 
L 251.156168 137.407096 
L 251.458068 138.7546 
L 252.321289 143.65852 
L 252.364273 143.468318 
L 252.407257 143.55308 
L 252.450746 143.69236 
L 252.925088 149.124001 
L 252.968578 149.153651 
L 253.098035 146.024837 
L 253.442919 136.042852 
L 253.486409 136.571058 
L 253.572377 147.334168 
L 253.788309 157.662195 
L 254.047224 161.278146 
L 254.090208 161.314467 
L 254.176682 159.652299 
L 254.435598 151.657594 
L 254.478582 152.072179 
L 254.651529 164.11594 
L 254.910445 168.360592 
L 255.428276 170.558177 
L 255.557734 171.266461 
L 256.032075 174.642134 
L 256.463938 175.335997 
L 256.549907 175.587388 
L 256.722854 177.24792 
L 256.98177 179.492723 
L 257.326653 179.635329 
L 257.585569 179.972416 
L 258.017432 181.386755 
L 258.189874 153.329562 
L 258.276348 134.150942 
L 258.319332 140.407113 
L 258.535263 157.763733 
L 258.837163 166.17268 
L 259.182552 171.197936 
L 259.26852 171.953204 
L 259.31201 171.776955 
L 259.61391 164.902836 
L 259.656894 166.085491 
L 259.829841 174.598332 
L 260.131741 178.011891 
L 260.347673 178.980772 
L 260.390657 178.879845 
L 260.563099 175.086405 
L 260.649572 173.326384 
L 260.692556 173.78718 
L 260.865504 179.712755 
L 261.167403 182.193323 
L 261.339845 182.646404 
L 261.426319 181.860335 
L 261.685235 176.268413 
L 261.728219 177.001403 
L 261.901166 183.057357 
L 262.160082 185.578076 
L 262.461982 185.999997 
L 262.548455 185.399094 
L 262.763881 182.119637 
L 262.807371 182.538861 
L 262.936829 184.18972 
L 263.152255 173.267677 
L 263.195744 173.27825 
L 263.325202 175.61301 
L 263.368186 175.456829 
L 263.540628 172.969123 
L 263.75656 169.767594 
L 263.799544 169.795536 
L 264.015475 177.84733 
L 264.317375 182.0432 
L 264.403849 182.623569 
L 264.446833 182.442088 
L 264.792222 176.376424 
L 264.835206 177.006455 
L 265.008154 183.6497 
L 265.267069 185.773474 
L 265.611953 186.797862 
L 265.7849 187.101891 
L 266.043816 153.027826 
L 266.129784 156.000763 
L 266.216258 159.432734 
L 266.518158 170.162184 
L 266.691105 173.057301 
L 266.734089 172.788379 
L 266.777073 172.663915 
L 266.993005 175.946663 
L 267.338394 181.239726 
L 267.59731 179.163655 
L 267.812736 140.404919 
L 267.856225 138.618161 
L 267.985683 111.187907 
L 268.201109 145.074135 
L 268.503514 157.308601 
L 268.76243 162.672418 
L 269.021346 144.448293 
L 269.06433 147.978494 
L 269.280261 160.002997 
L 269.409719 152.850408 
L 269.452703 154.92477 
L 269.711619 163.47503 
L 270.22945 171.315135 
L 270.488366 173.667643 
L 271.567012 178.774082 
L 271.73996 179.261939 
L 271.825928 178.491297 
L 271.998875 175.437409 
L 272.041859 175.492736 
L 272.214301 180.102076 
L 272.516706 183.487225 
L 273.077522 183.990582 
L 273.206979 184.530061 
L 273.595353 186.633418 
L 273.983726 186.733265 
L 274.199658 186.967205 
L 274.329116 187.484407 
L 274.544542 189.126293 
L 274.673999 188.981592 
L 274.976405 188.762145 
L 275.23532 162.322403 
L 275.278304 164.547912 
L 275.53722 174.625735 
L 275.753152 177.841684 
L 275.968577 168.552699 
L 276.012067 168.183498 
L 276.270983 174.717905 
L 276.529898 171.611981 
L 276.572882 172.204001 
L 276.70234 173.429954 
L 276.745324 173.360494 
L 276.788814 173.316531 
L 277.177187 178.303846 
L 277.738003 182.035073 
L 278.471765 184.610975 
L 278.687191 167.21798 
L 278.730681 166.209559 
L 278.773665 166.548409 
L 278.860139 167.251712 
L 279.119055 135.149401 
L 279.162039 140.88544 
L 279.420954 159.052061 
L 279.766344 167.802502 
L 280.197701 172.843292 
L 281.060922 179.276287 
L 281.664721 181.698633 
L 281.923637 182.564304 
L 282.527942 184.074229 
L 282.916315 186.855634 
L 282.959299 186.83875 
L 283.218215 186.84205 
L 283.434146 187.000731 
L 283.563604 187.899846 
L 283.865504 191.645565 
L 283.908993 191.590139 
L 284.426825 190.671452 
L 284.556282 144.170129 
L 284.599266 146.580374 
L 284.944656 164.384951 
L 285.289539 172.121559 
L 285.85086 181.030752 
L 285.980318 173.873092 
L 286.023302 174.492803 
L 286.282218 178.390532 
L 286.800049 183.489239 
L 287.015981 185.609992 
L 287.360864 185.478552 
L 287.576796 185.634644 
L 287.66327 186.154524 
L 287.835712 188.714406 
L 288.008153 191.010535 
L 288.051643 190.961816 
L 288.525985 189.868696 
L 288.612458 189.873497 
L 288.741916 191.125486 
L 289.043816 196.334785 
L 289.087306 196.238066 
L 289.561647 194.551083 
L 289.648121 194.386522 
L 289.691105 194.409169 
L 289.820563 195.089385 
L 290.079478 198.566965 
L 290.165952 198.405614 
L 290.683783 196.645143 
L 290.770257 197.189604 
L 291.115141 201.563997 
L 291.158631 201.491435 
L 291.288088 200.909592 
L 291.46053 197.524497 
L 291.547004 197.616748 
L 291.76243 197.509969 
L 292.021345 198.761554 
L 292.194293 199.974911 
L 292.237277 199.926696 
L 292.755108 198.931976 
L 292.798092 199.0828 
L 292.97104 201.607636 
L 293.186466 204.758818 
L 293.229955 204.704678 
L 293.833755 202.325199 
L 293.877244 202.40801 
L 294.006702 202.71862 
L 294.308602 201.35942 
L 294.524533 201.064902 
L 294.653991 152.930441 
L 294.696975 155.865116 
L 294.998875 174.16244 
L 295.30128 184.188821 
L 295.689654 186.456126 
L 295.90508 187.549318 
L 296.078027 190.910993 
L 296.293453 194.545266 
L 296.336943 194.519752 
L 296.681826 193.985387 
L 296.725316 193.949228 
L 296.854774 191.330288 
L 296.940742 191.649961 
L 297.199658 193.410449 
L 297.415589 194.919223 
L 297.674505 194.95149 
L 297.93342 194.994851 
L 298.062878 195.393163 
L 298.408268 196.528331 
L 298.710167 196.408066 
L 298.926099 196.37668 
L 299.012067 196.606826 
L 299.185014 198.318658 
L 299.44393 200.794902 
L 300.004745 199.506141 
L 300.047729 199.560704 
L 300.177187 200.209148 
L 300.436103 202.204511 
L 300.565561 201.968494 
L 301.083392 200.834073 
L 301.256339 201.007561 
L 301.385797 192.241801 
L 301.558239 151.26259 
L 301.601223 151.622423 
L 301.644713 151.411562 
L 302.033086 163.253416 
L 302.42146 173.686559 
L 302.550917 148.047522 
L 302.593901 149.813153 
L 303.068749 167.772384 
L 303.500106 174.659863 
L 303.845496 177.565157 
L 304.276853 180.990619 
L 304.622242 187.531517 
L 304.665226 187.460987 
L 304.967126 187.015178 
L 305.140074 186.981896 
L 305.269531 182.86097 
L 305.312515 183.414223 
L 305.657905 191.042649 
L 305.787363 190.880093 
L 306.175736 190.386005 
L 306.305194 188.22529 
L 306.348178 188.443884 
L 306.736551 193.177696 
L 306.908993 193.066799 
L 307.211398 192.904315 
L 307.254383 192.953762 
L 307.38384 194.386522 
L 307.72923 199.923189 
L 307.858688 199.392412 
L 307.988145 190.12326 
L 308.074113 190.900968 
L 308.635434 197.354183 
L 308.764892 198.969431 
L 308.85086 198.880227 
L 309.325707 197.963707 
L 309.368691 198.061397 
L 309.498149 199.414394 
L 309.800555 203.159385 
L 309.972996 202.694948 
L 310.36137 201.621698 
L 310.447844 202.158723 
L 310.620285 205.385308 
L 310.836217 208.808864 
L 311.008659 208.145424 
L 311.397032 206.40413 
L 311.440016 206.464555 
L 311.569474 208.238529 
L 311.87188 214.032025 
L 311.914864 213.939082 
L 312.173779 212.509433 
L 312.475679 210.877859 
L 312.519169 210.940342 
L 312.778084 211.978188 
L 312.821068 211.723867 
L 313.122968 210.037379 
L 313.468357 208.936096 
L 313.511341 208.955516 
L 313.640799 210.247728 
L 313.684289 211.000407 
L 313.813747 187.307394 
L 313.943204 96.986964 
L 313.986188 107.903145 
L 314.20212 120.166758 
L 314.331578 107.194411 
L 314.547004 140.01459 
L 314.590493 142.221633 
L 314.676462 141.328164 
L 314.719951 141.168027 
L 315.151309 158.732955 
L 316.100497 175.875963 
L 316.273445 176.035884 
L 316.532361 176.61102 
L 316.618329 177.040925 
L 316.791276 179.836086 
L 317.050192 183.757568 
L 317.265618 183.520436 
L 317.568023 183.356487 
L 317.653991 183.951437 
L 317.99938 189.650606 
L 318.042364 189.593139 
L 318.128838 189.057588 
L 318.34477 184.753258 
L 318.560196 171.393783 
L 318.603685 171.036306 
L 319.078027 182.767038 
L 319.293959 183.880341 
L 319.50989 184.439762 
L 319.639348 179.424378 
L 319.768806 171.754192 
L 319.81179 173.040686 
L 319.898263 176.316943 
L 320.156673 164.719683 
L 320.459079 174.05576 
L 321.279315 186.656865 
L 321.321794 186.643082 
L 321.710167 186.616579 
L 321.753657 186.689985 
L 321.883115 188.614216 
L 322.227998 195.774564 
L 322.271488 195.7217 
L 322.659861 194.675987 
L 322.703351 194.726909 
L 322.789319 195.362856 
L 322.962267 199.676465 
L 323.221182 205.802545 
L 323.263661 205.799811 
L 323.652034 170.467895 
L 324.040408 179.231893 
L 324.472271 184.216241 
L 324.601729 185.037337 
L 324.645218 184.895684 
L 324.774676 184.706777 
L 324.860644 185.538734 
L 325.11956 192.800053 
L 325.334986 196.668438 
L 325.507933 196.36626 
L 325.637391 196.095747 
L 325.766849 195.050888 
L 325.852817 195.173554 
L 325.939796 195.994946 
L 326.370648 204.724907 
L 326.457628 204.463366 
L 326.888479 202.858044 
L 326.931969 202.939605 
L 327.061427 204.816061 
L 327.363832 210.804416 
L 327.406311 210.799768 
L 327.752206 209.334831 
L 327.924142 208.766339 
L 327.967632 208.837211 
L 328.097089 210.75914 
L 328.441973 217.041419 
L 328.700889 215.864581 
L 328.959804 214.670301 
L 329.003294 214.733854 
L 329.132752 216.877533 
L 329.477635 223.663411 
L 329.694073 222.795142 
L 329.952988 221.562194 
L 329.995467 221.592798 
L 330.082446 222.268617 
L 330.513298 230.942666 
L 330.600277 230.701345 
L 331.031129 228.452524 
L 331.074619 228.545682 
L 331.204077 230.264149 
L 331.54896 236.291927 
L 331.721908 235.499637 
L 332.066792 233.384521 
L 332.110281 233.446456 
L 332.239739 235.505768 
L 332.542144 240.977902 
L 332.584623 240.972085 
L 332.843538 239.562862 
L 333.102454 217.651006 
L 333.189434 218.248987 
L 333.707265 224.825073 
L 333.922691 224.94016 
L 334.267574 224.91077 
L 334.440522 225.56842 
L 334.699437 227.261993 
L 334.914863 227.172673 
L 335.131301 226.900146 
L 335.173779 226.985735 
L 335.260758 227.501705 
L 335.519674 231.846429 
L 335.69161 233.512419 
L 335.821068 233.236754 
L 336.252931 231.941952 
L 336.338899 232.833363 
L 336.727273 239.063354 
L 336.770762 238.9746 
L 337.073168 237.89832 
L 337.202626 237.414104 
L 337.245104 237.42661 
L 337.332083 237.932357 
L 337.762935 243.879842 
L 337.849915 243.590009 
L 338.280766 241.694772 
L 338.324256 241.760609 
L 338.453714 243.332496 
L 338.798598 248.522563 
L 339.015035 247.878705 
L 339.27395 247.11067 
L 339.316429 247.187278 
L 339.403408 247.726209 
L 339.791782 251.800744 
L 339.83426 251.751621 
L 340.439071 249.603546 
L 340.481549 249.680828 
L 340.654497 250.316397 
L 340.827444 251.577251 
L 340.869922 251.564215 
L 341.387754 249.659511 
L 341.474733 249.990215 
L 341.905585 254.414604 
L 341.949075 254.308041 
L 342.466906 252.690941 
L 342.510396 252.869949 
L 342.898769 255.801216 
L 342.984737 255.68159 
L 343.329621 254.480234 
L 343.37311 252.545071 
L 343.546058 236.08334 
L 343.588536 236.031196 
L 343.761484 238.603439 
L 343.97691 241.075196 
L 344.322805 241.713832 
L 344.494741 241.976478 
L 344.58172 242.481533 
L 344.667689 243.466345 
L 344.711178 243.304284 
L 344.753657 242.628554 
L 344.797146 242.941493 
L 344.883114 244.284196 
L 345.012572 216.159071 
L 345.14203 220.392728 
L 345.444435 225.742772 
L 346.135214 232.719858 
L 346.566066 234.33801 
L 346.653045 234.619456 
L 346.911961 237.008456 
L 347.083897 237.968418 
L 347.213355 238.080403 
L 347.51576 209.099677 
L 347.645218 179.575291 
L 347.688708 180.979471 
L 347.774676 184.93188 
L 348.11956 201.141932 
L 348.507933 208.061228 
L 348.766849 212.487146 
L 349.242201 222.048262 
L 349.802511 224.55056 
L 350.320342 231.227114 
L 350.4498 231.245392 
L 350.49329 230.380899 
L 350.666237 219.708628 
L 350.708716 219.560538 
L 350.925153 223.086162 
L 351.270037 228.71642 
L 351.61492 229.687863 
L 351.7019 229.878514 
L 351.831358 230.9291 
L 352.305699 237.41948 
L 352.521125 237.284048 
L 352.737562 237.081953 
L 352.780041 237.170733 
L 352.86702 237.800989 
L 353.297872 243.113219 
L 353.341362 243.035802 
L 353.815703 242.175131 
L 353.859193 242.245481 
L 353.988651 243.615236 
L 354.333534 247.787272 
L 354.506482 247.444062 
L 354.59245 242.822927 
L 354.765397 226.030169 
L 354.808887 227.17163 
L 355.456176 238.973045 
L 355.80106 239.826956 
L 355.930518 240.145972 
L 356.534317 242.943633 
L 356.96618 242.816274 
L 357.052148 243.361292 
L 357.440522 247.802484 
L 357.527501 247.722505 
L 357.915875 247.222466 
L 357.958353 247.265351 
L 358.045332 247.736314 
L 358.476184 252.278388 
L 358.519674 252.244314 
L 358.822079 251.794469 
L 358.951537 251.585262 
L 358.994015 251.613833 
L 359.080995 251.982854 
L 359.511847 256.0906 
L 359.598826 256.03975 
L 360.029678 255.64543 
L 360.073167 255.73457 
L 360.246115 257.268455 
L 360.505031 259.656987 
L 360.634488 259.644482 
L 361.10883 259.060212 
L 361.238288 259.919031 
L 361.583171 262.991134 
L 361.799609 262.78038 
L 362.144492 262.389269 
L 362.27395 262.860143 
L 362.618834 265.143964 
L 362.877749 264.820039 
L 363.136665 264.511011 
L 363.223645 264.79928 
L 363.654496 267.406069 
L 363.827444 234.632114 
L 363.956902 238.432091 
L 364.733649 251.09683 
L 365.596363 255.664112 
L 365.812801 256.345245 
L 366.330632 257.16119 
L 366.890941 260.20463 
L 367.322805 260.325956 
L 367.495752 261.699137 
L 367.797146 263.987395 
L 367.926604 263.997235 
L 368.056062 230.237708 
L 368.143041 232.527032 
L 368.531415 242.175418 
L 368.832809 248.061435 
L 369.308161 250.803957 
L 369.480098 252.379261 
L 369.911961 256.749698 
L 370.473282 257.996724 
L 371.033591 262.112643 
L 371.508944 262.459889 
L 372.069254 265.071029 
L 372.457627 265.109791 
L 372.544607 265.347076 
L 372.760032 267.02576 
L 372.975458 268.165666 
L 373.321353 268.145806 
L 373.536779 268.115724 
L 373.666237 268.755973 
L 374.054611 271.067476 
L 374.399494 271.093085 
L 374.572442 271.151748 
L 374.7019 271.457773 
L 375.176241 273.540316 
L 375.651594 273.764475 
L 376.211904 276.099694 
L 376.643767 276.019212 
L 376.773224 276.584251 
L 377.161598 278.662893 
L 377.377024 278.627988 
L 377.679429 278.40088 
L 377.722919 278.491018 
L 377.894855 279.187795 
L 378.19726 280.393964 
L 378.412686 280.351844 
L 378.80106 280.207395 
L 379.276413 280.446473 
L 379.664786 280.354717 
L 379.794244 280.535024 
L 380.354553 282.412626 
L 380.786416 282.342577 
L 380.959364 283.066244 
L 381.260758 284.457226 
L 381.519674 284.411087 
L 381.822079 284.309414 
L 381.951537 284.83757 
L 382.29642 286.586488 
L 382.555336 286.509642 
L 382.857741 286.344659 
L 383.073167 287.173846 
L 383.332083 287.747885 
L 383.54852 287.612561 
L 383.893404 287.17497 
L 383.936894 287.231407 
L 384.066351 287.5839 
L 384.367745 288.483298 
L 384.497203 288.334987 
L 384.929066 287.818204 
L 385.102014 288.313176 
L 385.31744 288.803465 
L 385.490387 288.763786 
L 385.964729 288.270144 
L 386.094187 288.419798 
L 386.396592 289.160655 
L 386.697986 288.93575 
L 386.956901 288.647526 
L 387.129849 288.570622 
L 387.215817 288.523391 
L 387.60419 248.450892 
L 387.820628 248.873316 
L 387.863106 248.842236 
L 388.209001 253.228919 
L 388.510395 257.59665 
L 389.244664 262.276394 
L 389.546058 265.17953 
L 390.193347 266.968141 
L 390.62521 269.858838 
L 390.711178 269.975646 
L 390.840636 224.785938 
L 390.927615 227.537657 
L 391.487925 244.664653 
L 391.617382 221.83447 
L 391.74684 226.80482 
L 392.005756 233.164957 
L 392.135214 231.971441 
L 392.264672 234.042189 
L 392.782503 244.052971 
L 393.775687 254.86044 
L 394.335996 258.326997 
L 394.72437 262.975099 
L 395.199723 263.918393 
L 395.329181 264.241055 
L 395.544606 266.125184 
L 395.760032 267.44876 
L 396.191895 267.907465 
L 396.364843 268.075069 
L 396.925153 270.410383 
L 397.400505 270.767128 
L 397.615931 271.899199 
L 397.831357 272.778499 
L 398.436168 273.182448 
L 398.996477 275.507036 
L 399.47183 275.614723 
L 399.902682 277.253229 
L 400.161598 153.851763 
L 400.291055 89.403068 
L 400.507493 145.235693 
L 400.808887 169.559879 
L 401.154782 180.00061 
L 401.413697 185.062241 
L 401.456176 184.532291 
L 401.715091 190.066692 
L 402.060986 196.076274 
L 402.664786 202.476409 
L 403.009669 208.489479 
L 403.57099 210.24424 
L 403.743938 213.134178 
L 404.002854 217.324995 
L 404.391227 217.748274 
L 404.606653 218.005976 
L 404.7796 219.590575 
L 405.038516 221.7951 
L 405.33991 222.055697 
L 405.642315 222.296173 
L 405.815263 224.296634 
L 406.074178 227.600222 
L 406.462552 227.752933 
L 406.634488 227.867264 
L 406.721467 228.238003 
L 406.980383 231.621219 
L 407.152319 232.486746 
L 407.411235 232.341946 
L 407.75713 232.115027 
L 407.886588 232.872102 
L 408.145503 234.797736 
L 408.446897 234.593356 
L 408.792792 234.274322 
L 408.835271 234.368793 
L 408.92225 234.877274 
L 409.181166 236.750979 
L 409.223644 236.73547 
L 409.784965 236.25771 
L 409.828455 236.327107 
L 410.000391 237.587565 
L 410.216828 239.127132 
L 410.259307 239.101006 
L 410.820628 238.579111 
L 410.950085 239.591182 
L 411.252491 242.669344 
L 411.683342 242.170366 
L 411.85629 241.983922 
L 411.985748 242.807059 
L 412.288153 245.414122 
L 412.547069 245.118049 
L 412.891952 244.676358 
L 413.02141 245.413097 
L 413.280326 247.283988 
L 413.409784 247.254661 
L 413.798157 246.809734 
L 413.884125 243.085663 
L 414.23002 218.780375 
L 414.272499 218.555857 
L 414.618394 222.73211 
L 414.660872 222.791582 
L 415.222193 230.59488 
L 415.481109 233.479037 
L 416.128398 236.808428 
L 416.473281 240.674762 
L 416.861655 241.034074 
L 417.078092 241.276528 
L 417.552433 244.917392 
L 417.595923 244.908311 
L 418.113754 244.777141 
L 418.285691 246.468106 
L 418.502128 247.929779 
L 418.847012 247.649233 
L 419.105927 247.365882 
L 419.149417 247.517011 
L 419.53779 250.161546 
L 419.623758 250.095251 
L 420.14159 249.469642 
L 420.185079 249.515188 
L 420.529963 250.778937 
L 420.615931 250.717272 
L 420.961826 250.352485 
L 421.004304 249.866939 
L 421.30671 220.418054 
L 421.3502 221.117977 
L 422.039967 231.48149 
L 422.51532 236.451157 
L 422.730746 237.920436 
L 423.378035 241.037841 
L 423.68044 244.500559 
L 423.981834 244.677806 
L 424.284239 244.80761 
L 424.457187 246.931509 
L 424.716103 249.67885 
L 424.888039 249.689818 
L 425.146954 249.619072 
L 425.276412 249.764529 
L 425.40587 250.359551 
L 425.751765 252.102409 
L 426.053159 251.958643 
L 426.399054 251.800421 
L 426.528512 252.267752 
L 426.829906 254.226632 
L 427.088821 254.281546 
L 427.218279 254.258818 
L 427.477195 220.650475 
L 427.952548 227.329223 
L 428.599837 232.029942 
L 428.858752 235.331839 
L 429.203636 236.30036 
L 429.506041 237.125331 
L 429.721467 240.102099 
L 429.936893 241.81732 
L 430.239298 242.164387 
L 430.498214 242.347162 
L 430.627672 243.1434 
L 430.930077 245.810393 
L 431.145503 245.947479 
L 431.577366 246.049916 
L 431.749302 247.784027 
L 431.96574 249.515476 
L 432.181166 249.617427 
L 432.396591 249.489125 
L 432.569539 249.285536 
L 432.613029 249.339758 
L 432.742487 250.222753 
L 433.001402 252.180707 
L 433.216828 252.193177 
L 433.648691 251.973343 
L 433.778149 252.73859 
L 434.037065 254.486213 
L 434.209001 254.442654 
L 434.684354 254.129545 
L 434.813811 254.968666 
L 435.072727 256.773927 
L 435.244663 256.754526 
L 435.720016 256.430843 
L 435.849474 257.245979 
L 436.108389 259.089745 
L 436.280326 259.065938 
L 436.755679 258.695236 
L 436.885136 259.537666 
L 437.144052 261.352079 
L 437.315988 261.334143 
L 437.704362 260.930967 
L 437.791341 260.917913 
L 437.920799 261.644097 
L 438.179714 263.161291 
L 438.39514 263.022739 
L 438.827003 262.65041 
L 438.956461 263.364147 
L 439.215377 264.840438 
L 439.430803 264.683146 
L 439.775686 264.248441 
L 439.948634 258.484285 
L 439.992124 258.668984 
L 440.251039 259.920659 
L 440.466465 259.771651 
L 440.940807 259.372305 
L 441.027786 259.660494 
L 441.286702 260.737943 
L 441.545617 260.632413 
L 441.933991 260.357423 
L 442.105927 261.000382 
L 442.322364 261.502939 
L 442.58128 261.289425 
L 442.969653 260.651904 
L 443.012132 260.731065 
L 443.228569 262.085496 
L 443.358027 262.345261 
L 443.573453 262.192266 
L 443.875858 261.644196 
L 444.005316 261.432121 
L 444.134773 262.212284 
L 444.393689 263.818186 
L 444.565625 263.733667 
L 445.040978 263.350598 
L 445.170436 264.239666 
L 445.429352 266.079432 
L 445.601288 266.017263 
L 445.947183 265.595873 
L 446.033151 265.453986 
L 446.076641 265.534149 
L 446.248577 266.223643 
L 446.421524 266.873026 
L 446.465014 266.847691 
L 446.63695 266.658802 
L 446.939355 248.096561 
L 446.982845 248.188515 
L 447.112303 248.567767 
L 447.500676 250.593419 
L 447.759592 250.701619 
L 448.147965 250.704433 
L 448.363391 251.790163 
L 448.578817 252.299381 
L 448.837733 252.283063 
L 449.096648 252.033201 
L 449.183628 251.977235 
L 449.572001 252.628835 
L 449.830917 252.50999 
L 449.960375 251.994668 
L 450.132311 251.44484 
L 450.434716 252.744605 
L 450.650142 253.30639 
L 450.909058 253.260601 
L 451.297431 252.958244 
L 451.340921 253.04992 
L 451.643326 253.717288 
L 451.902242 253.624579 
L 451.98821 253.490352 
L 452.203636 252.593341 
L 452.247126 252.710747 
L 452.420073 253.532301 
L 452.678989 254.166648 
L 452.764957 254.130219 
L 453.239298 252.426298 
L 453.282788 252.41284 
L 453.455736 254.017371 
L 453.714651 254.626482 
L 453.800619 254.592642 
L 454.274961 252.871289 
L 454.31845 252.884945 
L 454.491398 254.575083 
L 454.750314 255.268084 
L 454.92225 255.210635 
L 455.095197 254.691563 
L 455.268145 254.366982 
L 455.310623 254.27928 
L 455.698997 256.373844 
L 455.871944 256.423938 
L 456.174349 256.148355 
L 456.433265 255.779711 
L 456.475743 255.887102 
L 456.648691 257.455168 
L 456.821638 258.38966 
L 457.123032 258.25297 
L 457.468928 257.977566 
L 457.598385 258.724806 
L 457.857301 260.347057 
L 458.116217 260.1773 
L 458.50459 259.777055 
L 458.676526 260.54116 
L 458.849474 261.150343 
L 458.892963 261.132802 
L 459.323815 260.655465 
L 459.453273 260.522361 
L 459.582731 258.382926 
L 459.971104 219.730619 
L 460.058084 221.529748 
L 460.316999 224.686306 
L 460.964288 228.960798 
L 461.43863 230.695079 
L 461.697545 231.69494 
L 462.042429 234.022994 
L 462.862666 236.156343 
L 463.078092 236.798709 
L 463.466465 237.145955 
L 463.725381 237.324398 
L 463.854838 238.138229 
L 464.071276 239.255947 
L 464.416159 239.500217 
L 464.761043 239.588575 
L 464.933991 240.859507 
L 465.106938 241.585511 
L 465.365854 241.66789 
L 465.840195 241.764205 
L 466.185079 242.728132 
L 466.660432 242.675583 
L 466.78989 242.635701 
L 466.919347 243.233484 
L 467.178263 244.64108 
L 467.393689 244.669822 
L 467.696094 244.491776 
L 467.825552 244.371646 
L 467.86803 244.444621 
L 467.997488 245.36739 
L 468.213925 246.426193 
L 468.472841 246.339714 
L 468.861214 246.112571 
L 468.990672 246.691608 
L 469.249588 247.814315 
L 469.465014 247.730444 
L 469.853387 247.275222 
L 470.068813 247.186523 
L 470.28525 247.265198 
L 470.586644 247.093193 
L 470.759592 238.989416 
L 470.88905 215.617272 
L 471.104476 181.346316 
L 471.536339 197.020638 
L 471.622307 197.16114 
L 471.881222 173.161518 
L 472.01068 174.101665 
L 472.356575 189.500196 
L 472.744949 196.757596 
L 473.392238 204.488171 
L 473.866579 207.316956 
L 473.996037 207.201779 
L 474.340921 210.257222 
L 474.772784 211.760728 
L 475.247125 213.362139 
L 475.506041 214.452355 
L 476.067362 215.404262 
L 476.240309 215.592791 
L 476.585193 216.442144 
L 477.188992 217.138075 
L 477.577366 218.107442 
L 477.620856 218.167408 
L 477.664345 218.059091 
L 478.182177 213.754419 
L 478.268145 213.763697 
L 478.311634 213.399261 
L 478.397602 213.578566 
L 478.48357 213.552134 
L 479.347297 210.82691 
L 479.433265 211.526275 
L 479.476755 211.471209 
L 479.648691 210.770072 
L 479.907606 210.169619 
L 480.339469 208.550721 
L 480.554895 212.434309 
L 480.598385 211.960181 
L 480.857301 209.735732 
L 481.159706 209.027925 
L 481.245674 208.762257 
L 481.289164 208.095122 
L 481.331642 208.610751 
L 481.590558 212.445574 
L 481.634048 212.368346 
L 481.849473 211.367441 
L 482.022421 209.639175 
L 482.281337 209.019797 
L 482.324826 209.157423 
L 482.454284 210.8701 
L 482.62622 212.595309 
L 483.360489 208.661726 
L 483.446457 208.785408 
L 483.619404 209.419017 
L 484.007778 207.682884 
L 484.396151 206.509507 
L 484.43863 206.693442 
L 484.655067 207.9458 
L 485.302356 204.12217 
L 485.474292 203.694855 
L 485.517782 203.672379 
L 485.690729 204.955943 
L 485.733208 204.630192 
L 485.906155 203.55464 
L 486.165071 203.120645 
L 486.509954 203.029437 
L 486.553444 203.116267 
L 486.726392 205.327167 
L 486.76887 205.163145 
L 486.985307 203.218083 
L 487.200733 202.862062 
L 487.459649 202.8603 
L 487.503139 202.883999 
L 487.589107 203.715155 
L 487.675075 205.971385 
L 487.718564 205.95673 
L 487.891512 203.655675 
L 488.451822 200.557168 
L 488.538801 200.579707 
L 488.668259 203.032683 
L 488.710737 203.682367 
L 488.754227 202.831297 
L 488.883685 201.43547 
L 489.056632 200.093396 
L 489.445006 197.154469 
L 489.530974 196.859601 
L 489.574463 196.984173 
L 489.703921 198.677502 
L 489.875857 192.593273 
L 489.919347 192.895325 
L 490.005315 192.550092 
L 490.566636 188.51142 
L 490.652604 189.741464 
L 490.696094 188.637987 
L 490.782062 172.230145 
L 490.825552 177.84386 
L 491.127957 188.034504 
L 491.386873 189.87044 
L 491.602299 190.363592 
L 491.645788 190.330957 
L 491.731756 192.096849 
L 491.947182 199.651166 
L 492.206098 202.891866 
L 492.249588 202.886786 
L 492.379045 202.048186 
L 492.637961 200.544662 
L 492.681451 200.621359 
L 493.199282 209.111041 
L 493.32874 209.548722 
L 493.458198 209.014745 
L 493.673624 207.624797 
L 493.717113 207.796262 
L 493.932539 211.536857 
L 494.191455 212.954747 
L 494.406881 213.567121 
L 494.709286 212.32859 
L 494.795254 212.835624 
L 495.183627 214.785702 
L 495.227117 214.769942 
L 495.356575 213.69332 
L 495.701459 210.749727 
L 495.744948 210.621838 
L 495.788438 210.674711 
L 496.21929 215.523196 
L 496.348748 215.809433 
L 496.392237 215.751346 
L 496.565185 215.039358 
L 496.780611 213.469557 
L 497.083016 210.951616 
L 497.902241 205.600377 
L 497.945731 205.578431 
L 497.989221 205.408314 
L 498.031699 204.216722 
L 498.075189 204.588989 
L 498.118679 205.187689 
L 498.161157 204.631181 
" clip-path="url(#pb4e154ced9)" style="fill: none; stroke: #6495ed; stroke-width: 1.5; stroke-linecap: square"/>
   </g>
   <g id="matplotlib.axis_1">
    <g id="xtick_1">
     <g id="line2d_2">
      <defs>
       <path id="mcb2a70b4ae" d="M 0 0 
L 0 3.5 
" style="stroke: #000000; stroke-width: 0.8"/>
      </defs>
      <g>
       <use xlink:href="#mcb2a70b4ae" x="152.293388" y="315" style="stroke: #000000; stroke-width: 0.8"/>
      </g>
     </g>
     <g id="text_1">
      <!-- Jan -->
      <g transform="translate(139.190107 334.917344)scale(0.17 -0.17)">
       <defs>
        <path id="DejaVuSans-4a" d="M 628 4666 
L 1259 4666 
L 1259 325 
Q 1259 -519 939 -900 
Q 619 -1281 -91 -1281 
L -331 -1281 
L -331 -750 
L -134 -750 
Q 284 -750 456 -515 
Q 628 -281 628 325 
L 628 4666 
z
" transform="scale(0.015625)"/>
        <path id="DejaVuSans-61" d="M 2194 1759 
Q 1497 1759 1228 1600 
Q 959 1441 959 1056 
Q 959 750 1161 570 
Q 1363 391 1709 391 
Q 2188 391 2477 730 
Q 2766 1069 2766 1631 
L 2766 1759 
L 2194 1759 
z
M 3341 1997 
L 3341 0 
L 2766 0 
L 2766 531 
Q 2569 213 2275 61 
Q 1981 -91 1556 -91 
Q 1019 -91 701 211 
Q 384 513 384 1019 
Q 384 1609 779 1909 
Q 1175 2209 1959 2209 
L 2766 2209 
L 2766 2266 
Q 2766 2663 2505 2880 
Q 2244 3097 1772 3097 
Q 1472 3097 1187 3025 
Q 903 2953 641 2809 
L 641 3341 
Q 956 3463 1253 3523 
Q 1550 3584 1831 3584 
Q 2591 3584 2966 3190 
Q 3341 2797 3341 1997 
z
" transform="scale(0.015625)"/>
        <path id="DejaVuSans-6e" d="M 3513 2113 
L 3513 0 
L 2938 0 
L 2938 2094 
Q 2938 2591 2744 2837 
Q 2550 3084 2163 3084 
Q 1697 3084 1428 2787 
Q 1159 2491 1159 1978 
L 1159 0 
L 581 0 
L 581 3500 
L 1159 3500 
L 1159 2956 
Q 1366 3272 1645 3428 
Q 1925 3584 2291 3584 
Q 2894 3584 3203 3211 
Q 3513 2838 3513 2113 
z
" transform="scale(0.015625)"/>
       </defs>
       <use xlink:href="#DejaVuSans-4a"/>
       <use xlink:href="#DejaVuSans-61" x="29.492188"/>
       <use xlink:href="#DejaVuSans-6e" x="90.771484"/>
      </g>
     </g>
    </g>
    <g id="xtick_2">
     <g id="line2d_3">
      <g>
       <use xlink:href="#mcb2a70b4ae" x="213.397473" y="315" style="stroke: #000000; stroke-width: 0.8"/>
      </g>
     </g>
     <g id="text_2">
      <!-- Mar -->
      <g transform="translate(197.360364 334.917344)scale(0.17 -0.17)">
       <defs>
        <path id="DejaVuSans-4d" d="M 628 4666 
L 1569 4666 
L 2759 1491 
L 3956 4666 
L 4897 4666 
L 4897 0 
L 4281 0 
L 4281 4097 
L 3078 897 
L 2444 897 
L 1241 4097 
L 1241 0 
L 628 0 
L 628 4666 
z
" transform="scale(0.015625)"/>
        <path id="DejaVuSans-72" d="M 2631 2963 
Q 2534 3019 2420 3045 
Q 2306 3072 2169 3072 
Q 1681 3072 1420 2755 
Q 1159 2438 1159 1844 
L 1159 0 
L 581 0 
L 581 3500 
L 1159 3500 
L 1159 2956 
Q 1341 3275 1631 3429 
Q 1922 3584 2338 3584 
Q 2397 3584 2469 3576 
Q 2541 3569 2628 3553 
L 2631 2963 
z
" transform="scale(0.015625)"/>
       </defs>
       <use xlink:href="#DejaVuSans-4d"/>
       <use xlink:href="#DejaVuSans-61" x="86.279297"/>
       <use xlink:href="#DejaVuSans-72" x="147.558594"/>
      </g>
     </g>
    </g>
    <g id="xtick_3">
     <g id="line2d_4">
      <g>
       <use xlink:href="#mcb2a70b4ae" x="276.572882" y="315" style="stroke: #000000; stroke-width: 0.8"/>
      </g>
     </g>
     <g id="text_3">
      <!-- May -->
      <g transform="translate(258.999132 334.917344)scale(0.17 -0.17)">
       <defs>
        <path id="DejaVuSans-79" d="M 2059 -325 
Q 1816 -950 1584 -1140 
Q 1353 -1331 966 -1331 
L 506 -1331 
L 506 -850 
L 844 -850 
Q 1081 -850 1212 -737 
Q 1344 -625 1503 -206 
L 1606 56 
L 191 3500 
L 800 3500 
L 1894 763 
L 2988 3500 
L 3597 3500 
L 2059 -325 
z
" transform="scale(0.015625)"/>
       </defs>
       <use xlink:href="#DejaVuSans-4d"/>
       <use xlink:href="#DejaVuSans-61" x="86.279297"/>
       <use xlink:href="#DejaVuSans-79" x="147.558594"/>
      </g>
     </g>
    </g>
    <g id="xtick_4">
     <g id="line2d_5">
      <g>
       <use xlink:href="#mcb2a70b4ae" x="339.748292" y="315" style="stroke: #000000; stroke-width: 0.8"/>
      </g>
     </g>
     <g id="text_4">
      <!-- Jul -->
      <g transform="translate(329.492511 334.917344)scale(0.17 -0.17)">
       <defs>
        <path id="DejaVuSans-75" d="M 544 1381 
L 544 3500 
L 1119 3500 
L 1119 1403 
Q 1119 906 1312 657 
Q 1506 409 1894 409 
Q 2359 409 2629 706 
Q 2900 1003 2900 1516 
L 2900 3500 
L 3475 3500 
L 3475 0 
L 2900 0 
L 2900 538 
Q 2691 219 2414 64 
Q 2138 -91 1772 -91 
Q 1169 -91 856 284 
Q 544 659 544 1381 
z
M 1991 3584 
L 1991 3584 
z
" transform="scale(0.015625)"/>
        <path id="DejaVuSans-6c" d="M 603 4863 
L 1178 4863 
L 1178 0 
L 603 0 
L 603 4863 
z
" transform="scale(0.015625)"/>
       </defs>
       <use xlink:href="#DejaVuSans-4a"/>
       <use xlink:href="#DejaVuSans-75" x="29.492188"/>
       <use xlink:href="#DejaVuSans-6c" x="92.871094"/>
      </g>
     </g>
    </g>
    <g id="xtick_5">
     <g id="line2d_6">
      <g>
       <use xlink:href="#mcb2a70b4ae" x="403.959364" y="315" style="stroke: #000000; stroke-width: 0.8"/>
      </g>
     </g>
     <g id="text_5">
      <!-- Sep -->
      <g transform="translate(387.936864 334.917344)scale(0.17 -0.17)">
       <defs>
        <path id="DejaVuSans-53" d="M 3425 4513 
L 3425 3897 
Q 3066 4069 2747 4153 
Q 2428 4238 2131 4238 
Q 1616 4238 1336 4038 
Q 1056 3838 1056 3469 
Q 1056 3159 1242 3001 
Q 1428 2844 1947 2747 
L 2328 2669 
Q 3034 2534 3370 2195 
Q 3706 1856 3706 1288 
Q 3706 609 3251 259 
Q 2797 -91 1919 -91 
Q 1588 -91 1214 -16 
Q 841 59 441 206 
L 441 856 
Q 825 641 1194 531 
Q 1563 422 1919 422 
Q 2459 422 2753 634 
Q 3047 847 3047 1241 
Q 3047 1584 2836 1778 
Q 2625 1972 2144 2069 
L 1759 2144 
Q 1053 2284 737 2584 
Q 422 2884 422 3419 
Q 422 4038 858 4394 
Q 1294 4750 2059 4750 
Q 2388 4750 2728 4690 
Q 3069 4631 3425 4513 
z
" transform="scale(0.015625)"/>
        <path id="DejaVuSans-65" d="M 3597 1894 
L 3597 1613 
L 953 1613 
Q 991 1019 1311 708 
Q 1631 397 2203 397 
Q 2534 397 2845 478 
Q 3156 559 3463 722 
L 3463 178 
Q 3153 47 2828 -22 
Q 2503 -91 2169 -91 
Q 1331 -91 842 396 
Q 353 884 353 1716 
Q 353 2575 817 3079 
Q 1281 3584 2069 3584 
Q 2775 3584 3186 3129 
Q 3597 2675 3597 1894 
z
M 3022 2063 
Q 3016 2534 2758 2815 
Q 2500 3097 2075 3097 
Q 1594 3097 1305 2825 
Q 1016 2553 972 2059 
L 3022 2063 
z
" transform="scale(0.015625)"/>
        <path id="DejaVuSans-70" d="M 1159 525 
L 1159 -1331 
L 581 -1331 
L 581 3500 
L 1159 3500 
L 1159 2969 
Q 1341 3281 1617 3432 
Q 1894 3584 2278 3584 
Q 2916 3584 3314 3078 
Q 3713 2572 3713 1747 
Q 3713 922 3314 415 
Q 2916 -91 2278 -91 
Q 1894 -91 1617 61 
Q 1341 213 1159 525 
z
M 3116 1747 
Q 3116 2381 2855 2742 
Q 2594 3103 2138 3103 
Q 1681 3103 1420 2742 
Q 1159 2381 1159 1747 
Q 1159 1113 1420 752 
Q 1681 391 2138 391 
Q 2594 391 2855 752 
Q 3116 1113 3116 1747 
z
" transform="scale(0.015625)"/>
       </defs>
       <use xlink:href="#DejaVuSans-53"/>
       <use xlink:href="#DejaVuSans-65" x="63.476562"/>
       <use xlink:href="#DejaVuSans-70" x="125"/>
      </g>
     </g>
    </g>
    <g id="xtick_6">
     <g id="line2d_7">
      <g>
       <use xlink:href="#mcb2a70b4ae" x="467.134773" y="315" style="stroke: #000000; stroke-width: 0.8"/>
      </g>
     </g>
     <g id="text_6">
      <!-- Nov -->
      <g transform="translate(450.543836 334.917344)scale(0.17 -0.17)">
       <defs>
        <path id="DejaVuSans-4e" d="M 628 4666 
L 1478 4666 
L 3547 763 
L 3547 4666 
L 4159 4666 
L 4159 0 
L 3309 0 
L 1241 3903 
L 1241 0 
L 628 0 
L 628 4666 
z
" transform="scale(0.015625)"/>
        <path id="DejaVuSans-6f" d="M 1959 3097 
Q 1497 3097 1228 2736 
Q 959 2375 959 1747 
Q 959 1119 1226 758 
Q 1494 397 1959 397 
Q 2419 397 2687 759 
Q 2956 1122 2956 1747 
Q 2956 2369 2687 2733 
Q 2419 3097 1959 3097 
z
M 1959 3584 
Q 2709 3584 3137 3096 
Q 3566 2609 3566 1747 
Q 3566 888 3137 398 
Q 2709 -91 1959 -91 
Q 1206 -91 779 398 
Q 353 888 353 1747 
Q 353 2609 779 3096 
Q 1206 3584 1959 3584 
z
" transform="scale(0.015625)"/>
        <path id="DejaVuSans-76" d="M 191 3500 
L 800 3500 
L 1894 563 
L 2988 3500 
L 3597 3500 
L 2284 0 
L 1503 0 
L 191 3500 
z
" transform="scale(0.015625)"/>
       </defs>
       <use xlink:href="#DejaVuSans-4e"/>
       <use xlink:href="#DejaVuSans-6f" x="74.804688"/>
       <use xlink:href="#DejaVuSans-76" x="135.986328"/>
      </g>
     </g>
    </g>
   </g>
   <g id="matplotlib.axis_2">
    <g id="ytick_1">
     <g id="line2d_8">
      <defs>
       <path id="mc4d153f700" d="M 0 0 
L -3.5 0 
" style="stroke: #000000; stroke-width: 0.8"/>
      </defs>
      <g>
       <use xlink:href="#mc4d153f700" x="135" y="290.075921" style="stroke: #000000; stroke-width: 0.8"/>
      </g>
     </g>
     <g id="text_7">
      <!-- 10 -->
      <g transform="translate(106.3675 296.534593)scale(0.17 -0.17)">
       <defs>
        <path id="DejaVuSans-31" d="M 794 531 
L 1825 531 
L 1825 4091 
L 703 3866 
L 703 4441 
L 1819 4666 
L 2450 4666 
L 2450 531 
L 3481 531 
L 3481 0 
L 794 0 
L 794 531 
z
" transform="scale(0.015625)"/>
        <path id="DejaVuSans-30" d="M 2034 4250 
Q 1547 4250 1301 3770 
Q 1056 3291 1056 2328 
Q 1056 1369 1301 889 
Q 1547 409 2034 409 
Q 2525 409 2770 889 
Q 3016 1369 3016 2328 
Q 3016 3291 2770 3770 
Q 2525 4250 2034 4250 
z
M 2034 4750 
Q 2819 4750 3233 4129 
Q 3647 3509 3647 2328 
Q 3647 1150 3233 529 
Q 2819 -91 2034 -91 
Q 1250 -91 836 529 
Q 422 1150 422 2328 
Q 422 3509 836 4129 
Q 1250 4750 2034 4750 
z
" transform="scale(0.015625)"/>
       </defs>
       <use xlink:href="#DejaVuSans-31"/>
       <use xlink:href="#DejaVuSans-30" x="63.623047"/>
      </g>
     </g>
    </g>
    <g id="ytick_2">
     <g id="line2d_9">
      <g>
       <use xlink:href="#mc4d153f700" x="135" y="242.940171" style="stroke: #000000; stroke-width: 0.8"/>
      </g>
     </g>
     <g id="text_8">
      <!-- 20 -->
      <g transform="translate(106.3675 249.398843)scale(0.17 -0.17)">
       <defs>
        <path id="DejaVuSans-32" d="M 1228 531 
L 3431 531 
L 3431 0 
L 469 0 
L 469 531 
Q 828 903 1448 1529 
Q 2069 2156 2228 2338 
Q 2531 2678 2651 2914 
Q 2772 3150 2772 3378 
Q 2772 3750 2511 3984 
Q 2250 4219 1831 4219 
Q 1534 4219 1204 4116 
Q 875 4013 500 3803 
L 500 4441 
Q 881 4594 1212 4672 
Q 1544 4750 1819 4750 
Q 2544 4750 2975 4387 
Q 3406 4025 3406 3419 
Q 3406 3131 3298 2873 
Q 3191 2616 2906 2266 
Q 2828 2175 2409 1742 
Q 1991 1309 1228 531 
z
" transform="scale(0.015625)"/>
       </defs>
       <use xlink:href="#DejaVuSans-32"/>
       <use xlink:href="#DejaVuSans-30" x="63.623047"/>
      </g>
     </g>
    </g>
    <g id="ytick_3">
     <g id="line2d_10">
      <g>
       <use xlink:href="#mc4d153f700" x="135" y="195.804421" style="stroke: #000000; stroke-width: 0.8"/>
      </g>
     </g>
     <g id="text_9">
      <!-- 30 -->
      <g transform="translate(106.3675 202.263093)scale(0.17 -0.17)">
       <defs>
        <path id="DejaVuSans-33" d="M 2597 2516 
Q 3050 2419 3304 2112 
Q 3559 1806 3559 1356 
Q 3559 666 3084 287 
Q 2609 -91 1734 -91 
Q 1441 -91 1130 -33 
Q 819 25 488 141 
L 488 750 
Q 750 597 1062 519 
Q 1375 441 1716 441 
Q 2309 441 2620 675 
Q 2931 909 2931 1356 
Q 2931 1769 2642 2001 
Q 2353 2234 1838 2234 
L 1294 2234 
L 1294 2753 
L 1863 2753 
Q 2328 2753 2575 2939 
Q 2822 3125 2822 3475 
Q 2822 3834 2567 4026 
Q 2313 4219 1838 4219 
Q 1578 4219 1281 4162 
Q 984 4106 628 3988 
L 628 4550 
Q 988 4650 1302 4700 
Q 1616 4750 1894 4750 
Q 2613 4750 3031 4423 
Q 3450 4097 3450 3541 
Q 3450 3153 3228 2886 
Q 3006 2619 2597 2516 
z
" transform="scale(0.015625)"/>
       </defs>
       <use xlink:href="#DejaVuSans-33"/>
       <use xlink:href="#DejaVuSans-30" x="63.623047"/>
      </g>
     </g>
    </g>
    <g id="ytick_4">
     <g id="line2d_11">
      <g>
       <use xlink:href="#mc4d153f700" x="135" y="148.668671" style="stroke: #000000; stroke-width: 0.8"/>
      </g>
     </g>
     <g id="text_10">
      <!-- 40 -->
      <g transform="translate(106.3675 155.127343)scale(0.17 -0.17)">
       <defs>
        <path id="DejaVuSans-34" d="M 2419 4116 
L 825 1625 
L 2419 1625 
L 2419 4116 
z
M 2253 4666 
L 3047 4666 
L 3047 1625 
L 3713 1625 
L 3713 1100 
L 3047 1100 
L 3047 0 
L 2419 0 
L 2419 1100 
L 313 1100 
L 313 1709 
L 2253 4666 
z
" transform="scale(0.015625)"/>
       </defs>
       <use xlink:href="#DejaVuSans-34"/>
       <use xlink:href="#DejaVuSans-30" x="63.623047"/>
      </g>
     </g>
    </g>
    <g id="ytick_5">
     <g id="line2d_12">
      <g>
       <use xlink:href="#mc4d153f700" x="135" y="101.532921" style="stroke: #000000; stroke-width: 0.8"/>
      </g>
     </g>
     <g id="text_11">
      <!-- 50 -->
      <g transform="translate(106.3675 107.991593)scale(0.17 -0.17)">
       <defs>
        <path id="DejaVuSans-35" d="M 691 4666 
L 3169 4666 
L 3169 4134 
L 1269 4134 
L 1269 2991 
Q 1406 3038 1543 3061 
Q 1681 3084 1819 3084 
Q 2600 3084 3056 2656 
Q 3513 2228 3513 1497 
Q 3513 744 3044 326 
Q 2575 -91 1722 -91 
Q 1428 -91 1123 -41 
Q 819 9 494 109 
L 494 744 
Q 775 591 1075 516 
Q 1375 441 1709 441 
Q 2250 441 2565 725 
Q 2881 1009 2881 1497 
Q 2881 1984 2565 2268 
Q 2250 2553 1709 2553 
Q 1456 2553 1204 2497 
Q 953 2441 691 2322 
L 691 4666 
z
" transform="scale(0.015625)"/>
       </defs>
       <use xlink:href="#DejaVuSans-35"/>
       <use xlink:href="#DejaVuSans-30" x="63.623047"/>
      </g>
     </g>
    </g>
    <g id="ytick_6">
     <g id="line2d_13">
      <g>
       <use xlink:href="#mc4d153f700" x="135" y="54.397171" style="stroke: #000000; stroke-width: 0.8"/>
      </g>
     </g>
     <g id="text_12">
      <!-- 60 -->
      <g transform="translate(106.3675 60.855843)scale(0.17 -0.17)">
       <defs>
        <path id="DejaVuSans-36" d="M 2113 2584 
Q 1688 2584 1439 2293 
Q 1191 2003 1191 1497 
Q 1191 994 1439 701 
Q 1688 409 2113 409 
Q 2538 409 2786 701 
Q 3034 994 3034 1497 
Q 3034 2003 2786 2293 
Q 2538 2584 2113 2584 
z
M 3366 4563 
L 3366 3988 
Q 3128 4100 2886 4159 
Q 2644 4219 2406 4219 
Q 1781 4219 1451 3797 
Q 1122 3375 1075 2522 
Q 1259 2794 1537 2939 
Q 1816 3084 2150 3084 
Q 2853 3084 3261 2657 
Q 3669 2231 3669 1497 
Q 3669 778 3244 343 
Q 2819 -91 2113 -91 
Q 1303 -91 875 529 
Q 447 1150 447 2328 
Q 447 3434 972 4092 
Q 1497 4750 2381 4750 
Q 2619 4750 2861 4703 
Q 3103 4656 3366 4563 
z
" transform="scale(0.015625)"/>
       </defs>
       <use xlink:href="#DejaVuSans-36"/>
       <use xlink:href="#DejaVuSans-30" x="63.623047"/>
      </g>
     </g>
    </g>
    <g id="text_13">
     <!-- m3/m3 -->
     <g transform="translate(98.832031 209.33875)rotate(-90)scale(0.17 -0.17)">
      <defs>
       <path id="DejaVuSans-6d" d="M 3328 2828 
Q 3544 3216 3844 3400 
Q 4144 3584 4550 3584 
Q 5097 3584 5394 3201 
Q 5691 2819 5691 2113 
L 5691 0 
L 5113 0 
L 5113 2094 
Q 5113 2597 4934 2840 
Q 4756 3084 4391 3084 
Q 3944 3084 3684 2787 
Q 3425 2491 3425 1978 
L 3425 0 
L 2847 0 
L 2847 2094 
Q 2847 2600 2669 2842 
Q 2491 3084 2119 3084 
Q 1678 3084 1418 2786 
Q 1159 2488 1159 1978 
L 1159 0 
L 581 0 
L 581 3500 
L 1159 3500 
L 1159 2956 
Q 1356 3278 1631 3431 
Q 1906 3584 2284 3584 
Q 2666 3584 2933 3390 
Q 3200 3197 3328 2828 
z
" transform="scale(0.015625)"/>
       <path id="DejaVuSans-2f" d="M 1625 4666 
L 2156 4666 
L 531 -594 
L 0 -594 
L 1625 4666 
z
" transform="scale(0.015625)"/>
      </defs>
      <use xlink:href="#DejaVuSans-6d"/>
      <use xlink:href="#DejaVuSans-33" x="97.412109"/>
      <use xlink:href="#DejaVuSans-2f" x="161.035156"/>
      <use xlink:href="#DejaVuSans-6d" x="194.726562"/>
      <use xlink:href="#DejaVuSans-33" x="292.138672"/>
     </g>
    </g>
   </g>
   <g id="PathCollection_1">
    <defs>
     <path id="mb488db1666" d="M 0 3 
C 0.795609 3 1.55874 2.683901 2.12132 2.12132 
C 2.683901 1.55874 3 0.795609 3 0 
C 3 -0.795609 2.683901 -1.55874 2.12132 -2.12132 
C 1.55874 -2.683901 0.795609 -3 0 -3 
C -0.795609 -3 -1.55874 -2.683901 -2.12132 -2.12132 
C -2.683901 -1.55874 -3 -0.795609 -3 0 
C -3 0.795609 -2.683901 1.55874 -2.12132 2.12132 
C -1.55874 2.683901 -0.795609 3 0 3 
z
" style="stroke: #ff8c00"/>
    </defs>
    <g clip-path="url(#pb4e154ced9)">
     <use xlink:href="#mb488db1666" x="228.93241" y="228.799446" style="fill: #ff8c00; stroke: #ff8c00"/>
     <use xlink:href="#mb488db1666" x="236.182047" y="197.375613" style="fill: #ff8c00; stroke: #ff8c00"/>
     <use xlink:href="#mb488db1666" x="242.396022" y="236.655405" style="fill: #ff8c00; stroke: #ff8c00"/>
     <use xlink:href="#mb488db1666" x="249.645659" y="254.252751" style="fill: #ff8c00; stroke: #ff8c00"/>
     <use xlink:href="#mb488db1666" x="256.895296" y="247.653746" style="fill: #ff8c00; stroke: #ff8c00"/>
     <use xlink:href="#mb488db1666" x="264.144933" y="249.853415" style="fill: #ff8c00; stroke: #ff8c00"/>
     <use xlink:href="#mb488db1666" x="271.39457" y="235.241332" style="fill: #ff8c00; stroke: #ff8c00"/>
     <use xlink:href="#mb488db1666" x="278.644207" y="188.891178" style="fill: #ff8c00; stroke: #ff8c00"/>
     <use xlink:href="#mb488db1666" x="289.000832" y="269.336191" style="fill: #ff8c00; stroke: #ff8c00"/>
     <use xlink:href="#mb488db1666" x="296.250469" y="255.038347" style="fill: #ff8c00; stroke: #ff8c00"/>
     <use xlink:href="#mb488db1666" x="300.393119" y="262.737186" style="fill: #ff8c00; stroke: #ff8c00"/>
     <use xlink:href="#mb488db1666" x="302.464444" y="191.090846" style="fill: #ff8c00; stroke: #ff8c00"/>
     <use xlink:href="#mb488db1666" x="308.678418" y="248.282223" style="fill: #ff8c00; stroke: #ff8c00"/>
     <use xlink:href="#mb488db1666" x="310.749743" y="260.851756" style="fill: #ff8c00; stroke: #ff8c00"/>
     <use xlink:href="#mb488db1666" x="314.892393" y="206.802763" style="fill: #ff8c00; stroke: #ff8c00"/>
     <use xlink:href="#mb488db1666" x="317.99938" y="232.098949" style="fill: #ff8c00; stroke: #ff8c00"/>
     <use xlink:href="#mb488db1666" x="322.14203" y="238.697954" style="fill: #ff8c00; stroke: #ff8c00"/>
     <use xlink:href="#mb488db1666" x="325.249018" y="211.830576" style="fill: #ff8c00; stroke: #ff8c00"/>
     <use xlink:href="#mb488db1666" x="329.391667" y="248.439342" style="fill: #ff8c00; stroke: #ff8c00"/>
     <use xlink:href="#mb488db1666" x="336.641305" y="250.010534" style="fill: #ff8c00; stroke: #ff8c00"/>
     <use xlink:href="#mb488db1666" x="344.926604" y="199.261043" style="fill: #ff8c00; stroke: #ff8c00"/>
     <use xlink:href="#mb488db1666" x="351.140579" y="255.038347" style="fill: #ff8c00; stroke: #ff8c00"/>
     <use xlink:href="#mb488db1666" x="358.390216" y="277.506388" style="fill: #ff8c00; stroke: #ff8c00"/>
     <use xlink:href="#mb488db1666" x="365.639853" y="291.175755" style="fill: #ff8c00; stroke: #ff8c00"/>
     <use xlink:href="#mb488db1666" x="372.88949" y="282.69132" style="fill: #ff8c00; stroke: #ff8c00"/>
     <use xlink:href="#mb488db1666" x="380.139127" y="302.645455" style="fill: #ff8c00; stroke: #ff8c00"/>
     <use xlink:href="#mb488db1666" x="387.388765" y="285.676585" style="fill: #ff8c00; stroke: #ff8c00"/>
     <use xlink:href="#mb488db1666" x="394.638402" y="281.277248" style="fill: #ff8c00; stroke: #ff8c00"/>
     <use xlink:href="#mb488db1666" x="402.923701" y="273.735528" style="fill: #ff8c00; stroke: #ff8c00"/>
     <use xlink:href="#mb488db1666" x="410.173338" y="270.750264" style="fill: #ff8c00; stroke: #ff8c00"/>
     <use xlink:href="#mb488db1666" x="417.422976" y="269.179072" style="fill: #ff8c00; stroke: #ff8c00"/>
     <use xlink:href="#mb488db1666" x="424.672613" y="250.167653" style="fill: #ff8c00; stroke: #ff8c00"/>
     <use xlink:href="#mb488db1666" x="431.92225" y="268.864834" style="fill: #ff8c00; stroke: #ff8c00"/>
     <use xlink:href="#mb488db1666" x="439.171887" y="279.548937" style="fill: #ff8c00; stroke: #ff8c00"/>
     <use xlink:href="#mb488db1666" x="460.920799" y="271.064502" style="fill: #ff8c00; stroke: #ff8c00"/>
     <use xlink:href="#mb488db1666" x="468.170436" y="267.922119" style="fill: #ff8c00; stroke: #ff8c00"/>
    </g>
   </g>
   <g id="patch_3">
    <path d="M 135 315 
L 135 43.2 
" style="fill: none; stroke: #000000; stroke-width: 0.8; stroke-linejoin: miter; stroke-linecap: square"/>
   </g>
   <g id="patch_4">
    <path d="M 515.454545 315 
L 515.454545 43.2 
" style="fill: none; stroke: #000000; stroke-width: 0.8; stroke-linejoin: miter; stroke-linecap: square"/>
   </g>
   <g id="patch_5">
    <path d="M 135 315 
L 515.454545 315 
" style="fill: none; stroke: #000000; stroke-width: 0.8; stroke-linejoin: miter; stroke-linecap: square"/>
   </g>
   <g id="patch_6">
    <path d="M 135 43.2 
L 515.454545 43.2 
" style="fill: none; stroke: #000000; stroke-width: 0.8; stroke-linejoin: miter; stroke-linecap: square"/>
   </g>
   <g id="text_14">
    <!-- Webster Soil water content (10cm) -->
    <g transform="translate(185.647273 37.2)scale(0.16 -0.16)">
     <defs>
      <path id="DejaVuSans-57" d="M 213 4666 
L 850 4666 
L 1831 722 
L 2809 4666 
L 3519 4666 
L 4500 722 
L 5478 4666 
L 6119 4666 
L 4947 0 
L 4153 0 
L 3169 4050 
L 2175 0 
L 1381 0 
L 213 4666 
z
" transform="scale(0.015625)"/>
      <path id="DejaVuSans-62" d="M 3116 1747 
Q 3116 2381 2855 2742 
Q 2594 3103 2138 3103 
Q 1681 3103 1420 2742 
Q 1159 2381 1159 1747 
Q 1159 1113 1420 752 
Q 1681 391 2138 391 
Q 2594 391 2855 752 
Q 3116 1113 3116 1747 
z
M 1159 2969 
Q 1341 3281 1617 3432 
Q 1894 3584 2278 3584 
Q 2916 3584 3314 3078 
Q 3713 2572 3713 1747 
Q 3713 922 3314 415 
Q 2916 -91 2278 -91 
Q 1894 -91 1617 61 
Q 1341 213 1159 525 
L 1159 0 
L 581 0 
L 581 4863 
L 1159 4863 
L 1159 2969 
z
" transform="scale(0.015625)"/>
      <path id="DejaVuSans-73" d="M 2834 3397 
L 2834 2853 
Q 2591 2978 2328 3040 
Q 2066 3103 1784 3103 
Q 1356 3103 1142 2972 
Q 928 2841 928 2578 
Q 928 2378 1081 2264 
Q 1234 2150 1697 2047 
L 1894 2003 
Q 2506 1872 2764 1633 
Q 3022 1394 3022 966 
Q 3022 478 2636 193 
Q 2250 -91 1575 -91 
Q 1294 -91 989 -36 
Q 684 19 347 128 
L 347 722 
Q 666 556 975 473 
Q 1284 391 1588 391 
Q 1994 391 2212 530 
Q 2431 669 2431 922 
Q 2431 1156 2273 1281 
Q 2116 1406 1581 1522 
L 1381 1569 
Q 847 1681 609 1914 
Q 372 2147 372 2553 
Q 372 3047 722 3315 
Q 1072 3584 1716 3584 
Q 2034 3584 2315 3537 
Q 2597 3491 2834 3397 
z
" transform="scale(0.015625)"/>
      <path id="DejaVuSans-74" d="M 1172 4494 
L 1172 3500 
L 2356 3500 
L 2356 3053 
L 1172 3053 
L 1172 1153 
Q 1172 725 1289 603 
Q 1406 481 1766 481 
L 2356 481 
L 2356 0 
L 1766 0 
Q 1100 0 847 248 
Q 594 497 594 1153 
L 594 3053 
L 172 3053 
L 172 3500 
L 594 3500 
L 594 4494 
L 1172 4494 
z
" transform="scale(0.015625)"/>
      <path id="DejaVuSans-20" transform="scale(0.015625)"/>
      <path id="DejaVuSans-69" d="M 603 3500 
L 1178 3500 
L 1178 0 
L 603 0 
L 603 3500 
z
M 603 4863 
L 1178 4863 
L 1178 4134 
L 603 4134 
L 603 4863 
z
" transform="scale(0.015625)"/>
      <path id="DejaVuSans-77" d="M 269 3500 
L 844 3500 
L 1563 769 
L 2278 3500 
L 2956 3500 
L 3675 769 
L 4391 3500 
L 4966 3500 
L 4050 0 
L 3372 0 
L 2619 2869 
L 1863 0 
L 1184 0 
L 269 3500 
z
" transform="scale(0.015625)"/>
      <path id="DejaVuSans-63" d="M 3122 3366 
L 3122 2828 
Q 2878 2963 2633 3030 
Q 2388 3097 2138 3097 
Q 1578 3097 1268 2742 
Q 959 2388 959 1747 
Q 959 1106 1268 751 
Q 1578 397 2138 397 
Q 2388 397 2633 464 
Q 2878 531 3122 666 
L 3122 134 
Q 2881 22 2623 -34 
Q 2366 -91 2075 -91 
Q 1284 -91 818 406 
Q 353 903 353 1747 
Q 353 2603 823 3093 
Q 1294 3584 2113 3584 
Q 2378 3584 2631 3529 
Q 2884 3475 3122 3366 
z
" transform="scale(0.015625)"/>
      <path id="DejaVuSans-28" d="M 1984 4856 
Q 1566 4138 1362 3434 
Q 1159 2731 1159 2009 
Q 1159 1288 1364 580 
Q 1569 -128 1984 -844 
L 1484 -844 
Q 1016 -109 783 600 
Q 550 1309 550 2009 
Q 550 2706 781 3412 
Q 1013 4119 1484 4856 
L 1984 4856 
z
" transform="scale(0.015625)"/>
      <path id="DejaVuSans-29" d="M 513 4856 
L 1013 4856 
Q 1481 4119 1714 3412 
Q 1947 2706 1947 2009 
Q 1947 1309 1714 600 
Q 1481 -109 1013 -844 
L 513 -844 
Q 928 -128 1133 580 
Q 1338 1288 1338 2009 
Q 1338 2731 1133 3434 
Q 928 4138 513 4856 
z
" transform="scale(0.015625)"/>
     </defs>
     <use xlink:href="#DejaVuSans-57"/>
     <use xlink:href="#DejaVuSans-65" x="93.001953"/>
     <use xlink:href="#DejaVuSans-62" x="154.525391"/>
     <use xlink:href="#DejaVuSans-73" x="218.001953"/>
     <use xlink:href="#DejaVuSans-74" x="270.101562"/>
     <use xlink:href="#DejaVuSans-65" x="309.310547"/>
     <use xlink:href="#DejaVuSans-72" x="370.833984"/>
     <use xlink:href="#DejaVuSans-20" x="411.947266"/>
     <use xlink:href="#DejaVuSans-53" x="443.734375"/>
     <use xlink:href="#DejaVuSans-6f" x="507.210938"/>
     <use xlink:href="#DejaVuSans-69" x="568.392578"/>
     <use xlink:href="#DejaVuSans-6c" x="596.175781"/>
     <use xlink:href="#DejaVuSans-20" x="623.958984"/>
     <use xlink:href="#DejaVuSans-77" x="655.746094"/>
     <use xlink:href="#DejaVuSans-61" x="737.533203"/>
     <use xlink:href="#DejaVuSans-74" x="798.8125"/>
     <use xlink:href="#DejaVuSans-65" x="838.021484"/>
     <use xlink:href="#DejaVuSans-72" x="899.544922"/>
     <use xlink:href="#DejaVuSans-20" x="940.658203"/>
     <use xlink:href="#DejaVuSans-63" x="972.445312"/>
     <use xlink:href="#DejaVuSans-6f" x="1027.425781"/>
     <use xlink:href="#DejaVuSans-6e" x="1088.607422"/>
     <use xlink:href="#DejaVuSans-74" x="1151.986328"/>
     <use xlink:href="#DejaVuSans-65" x="1191.195312"/>
     <use xlink:href="#DejaVuSans-6e" x="1252.71875"/>
     <use xlink:href="#DejaVuSans-74" x="1316.097656"/>
     <use xlink:href="#DejaVuSans-20" x="1355.306641"/>
     <use xlink:href="#DejaVuSans-28" x="1387.09375"/>
     <use xlink:href="#DejaVuSans-31" x="1426.107422"/>
     <use xlink:href="#DejaVuSans-30" x="1489.730469"/>
     <use xlink:href="#DejaVuSans-63" x="1553.353516"/>
     <use xlink:href="#DejaVuSans-6d" x="1608.333984"/>
     <use xlink:href="#DejaVuSans-29" x="1705.746094"/>
    </g>
   </g>
   <g id="legend_1">
    <g id="patch_7">
     <path d="M 388.054545 80.55625 
L 508.454545 80.55625 
Q 510.454545 80.55625 510.454545 78.55625 
L 510.454545 50.2 
Q 510.454545 48.2 508.454545 48.2 
L 388.054545 48.2 
Q 386.054545 48.2 386.054545 50.2 
L 386.054545 78.55625 
Q 386.054545 80.55625 388.054545 80.55625 
z
" style="fill: #ffffff; opacity: 0.8; stroke: #cccccc; stroke-linejoin: miter"/>
    </g>
    <g id="line2d_14">
     <path d="M 390.054545 56.298437 
L 400.054545 56.298437 
L 410.054545 56.298437 
" style="fill: none; stroke: #6495ed; stroke-width: 1.5; stroke-linecap: square"/>
    </g>
    <g id="text_15">
     <!-- $CLM5.0^*-FANv3$ -->
     <g transform="translate(418.054545 59.798437)scale(0.1 -0.1)">
      <defs>
       <path id="DejaVuSans-Oblique-43" d="M 4447 4306 
L 4319 3641 
Q 4019 3944 3683 4091 
Q 3347 4238 2956 4238 
Q 2422 4238 2017 3981 
Q 1613 3725 1319 3200 
Q 1131 2863 1032 2486 
Q 934 2109 934 1728 
Q 934 1091 1264 756 
Q 1594 422 2222 422 
Q 2656 422 3056 561 
Q 3456 700 3834 978 
L 3688 231 
Q 3316 72 2936 -9 
Q 2556 -91 2175 -91 
Q 1278 -91 773 396 
Q 269 884 269 1753 
Q 269 2309 461 2846 
Q 653 3384 1013 3828 
Q 1394 4300 1883 4525 
Q 2372 4750 3022 4750 
Q 3422 4750 3780 4639 
Q 4138 4528 4447 4306 
z
" transform="scale(0.015625)"/>
       <path id="DejaVuSans-Oblique-4c" d="M 1075 4666 
L 1709 4666 
L 909 525 
L 3181 525 
L 3078 0 
L 172 0 
L 1075 4666 
z
" transform="scale(0.015625)"/>
       <path id="DejaVuSans-Oblique-4d" d="M 1081 4666 
L 2028 4666 
L 2572 1522 
L 4378 4666 
L 5350 4666 
L 4441 0 
L 3828 0 
L 4622 4091 
L 2791 897 
L 2175 897 
L 1581 4103 
L 788 0 
L 172 0 
L 1081 4666 
z
" transform="scale(0.015625)"/>
       <path id="DejaVuSans-2e" d="M 684 794 
L 1344 794 
L 1344 0 
L 684 0 
L 684 794 
z
" transform="scale(0.015625)"/>
       <path id="DejaVuSans-2a" d="M 3009 3897 
L 1888 3291 
L 3009 2681 
L 2828 2375 
L 1778 3009 
L 1778 1831 
L 1422 1831 
L 1422 3009 
L 372 2375 
L 191 2681 
L 1313 3291 
L 191 3897 
L 372 4206 
L 1422 3572 
L 1422 4750 
L 1778 4750 
L 1778 3572 
L 2828 4206 
L 3009 3897 
z
" transform="scale(0.015625)"/>
       <path id="DejaVuSans-2212" d="M 678 2272 
L 4684 2272 
L 4684 1741 
L 678 1741 
L 678 2272 
z
" transform="scale(0.015625)"/>
       <path id="DejaVuSans-Oblique-46" d="M 1081 4666 
L 3756 4666 
L 3653 4134 
L 1606 4134 
L 1338 2759 
L 3188 2759 
L 3084 2228 
L 1234 2228 
L 800 0 
L 172 0 
L 1081 4666 
z
" transform="scale(0.015625)"/>
       <path id="DejaVuSans-Oblique-41" d="M 2356 4666 
L 3072 4666 
L 3938 0 
L 3278 0 
L 3084 1197 
L 984 1197 
L 325 0 
L -341 0 
L 2356 4666 
z
M 2584 4044 
L 1275 1722 
L 2988 1722 
L 2584 4044 
z
" transform="scale(0.015625)"/>
       <path id="DejaVuSans-Oblique-4e" d="M 1081 4666 
L 1931 4666 
L 3219 666 
L 4000 4666 
L 4616 4666 
L 3706 0 
L 2853 0 
L 1569 4025 
L 788 0 
L 172 0 
L 1081 4666 
z
" transform="scale(0.015625)"/>
       <path id="DejaVuSans-Oblique-76" d="M 459 3500 
L 1069 3500 
L 1581 525 
L 3256 3500 
L 3866 3500 
L 1875 0 
L 1100 0 
L 459 3500 
z
" transform="scale(0.015625)"/>
      </defs>
      <use xlink:href="#DejaVuSans-Oblique-43" transform="translate(0 0.765625)"/>
      <use xlink:href="#DejaVuSans-Oblique-4c" transform="translate(69.824219 0.765625)"/>
      <use xlink:href="#DejaVuSans-Oblique-4d" transform="translate(125.537109 0.765625)"/>
      <use xlink:href="#DejaVuSans-35" transform="translate(211.816406 0.765625)"/>
      <use xlink:href="#DejaVuSans-2e" transform="translate(275.439453 0.765625)"/>
      <use xlink:href="#DejaVuSans-30" transform="translate(307.226562 0.765625)"/>
      <use xlink:href="#DejaVuSans-2a" transform="translate(385.444336 39.046875)scale(0.7)"/>
      <use xlink:href="#DejaVuSans-2212" transform="translate(456.298828 0.765625)"/>
      <use xlink:href="#DejaVuSans-Oblique-46" transform="translate(559.570312 0.765625)"/>
      <use xlink:href="#DejaVuSans-Oblique-41" transform="translate(617.089844 0.765625)"/>
      <use xlink:href="#DejaVuSans-Oblique-4e" transform="translate(685.498047 0.765625)"/>
      <use xlink:href="#DejaVuSans-Oblique-76" transform="translate(760.302734 0.765625)"/>
      <use xlink:href="#DejaVuSans-33" transform="translate(819.482422 0.765625)"/>
     </g>
    </g>
    <g id="PathCollection_2">
     <g>
      <use xlink:href="#mb488db1666" x="400.054545" y="71.851562" style="fill: #ff8c00; stroke: #ff8c00"/>
     </g>
    </g>
    <g id="text_16">
     <!-- MESOCOSM -->
     <g transform="translate(418.054545 74.476562)scale(0.1 -0.1)">
      <defs>
       <path id="DejaVuSans-45" d="M 628 4666 
L 3578 4666 
L 3578 4134 
L 1259 4134 
L 1259 2753 
L 3481 2753 
L 3481 2222 
L 1259 2222 
L 1259 531 
L 3634 531 
L 3634 0 
L 628 0 
L 628 4666 
z
" transform="scale(0.015625)"/>
       <path id="DejaVuSans-4f" d="M 2522 4238 
Q 1834 4238 1429 3725 
Q 1025 3213 1025 2328 
Q 1025 1447 1429 934 
Q 1834 422 2522 422 
Q 3209 422 3611 934 
Q 4013 1447 4013 2328 
Q 4013 3213 3611 3725 
Q 3209 4238 2522 4238 
z
M 2522 4750 
Q 3503 4750 4090 4092 
Q 4678 3434 4678 2328 
Q 4678 1225 4090 567 
Q 3503 -91 2522 -91 
Q 1538 -91 948 565 
Q 359 1222 359 2328 
Q 359 3434 948 4092 
Q 1538 4750 2522 4750 
z
" transform="scale(0.015625)"/>
       <path id="DejaVuSans-43" d="M 4122 4306 
L 4122 3641 
Q 3803 3938 3442 4084 
Q 3081 4231 2675 4231 
Q 1875 4231 1450 3742 
Q 1025 3253 1025 2328 
Q 1025 1406 1450 917 
Q 1875 428 2675 428 
Q 3081 428 3442 575 
Q 3803 722 4122 1019 
L 4122 359 
Q 3791 134 3420 21 
Q 3050 -91 2638 -91 
Q 1578 -91 968 557 
Q 359 1206 359 2328 
Q 359 3453 968 4101 
Q 1578 4750 2638 4750 
Q 3056 4750 3426 4639 
Q 3797 4528 4122 4306 
z
" transform="scale(0.015625)"/>
      </defs>
      <use xlink:href="#DejaVuSans-4d"/>
      <use xlink:href="#DejaVuSans-45" x="86.279297"/>
      <use xlink:href="#DejaVuSans-53" x="149.462891"/>
      <use xlink:href="#DejaVuSans-4f" x="212.939453"/>
      <use xlink:href="#DejaVuSans-43" x="291.650391"/>
      <use xlink:href="#DejaVuSans-4f" x="361.474609"/>
      <use xlink:href="#DejaVuSans-53" x="440.185547"/>
      <use xlink:href="#DejaVuSans-4d" x="503.662109"/>
     </g>
    </g>
   </g>
  </g>
  <g id="axes_2">
   <g id="patch_8">
    <path d="M 591.545455 315 
L 972 315 
L 972 43.2 
L 591.545455 43.2 
z
" style="fill: #ffffff"/>
   </g>
   <g id="matplotlib.axis_3">
    <g id="xtick_7">
     <g id="line2d_15">
      <g>
       <use xlink:href="#mcb2a70b4ae" x="608.838843" y="315" style="stroke: #000000; stroke-width: 0.8"/>
      </g>
     </g>
     <g id="text_17">
      <!-- Jan -->
      <g transform="translate(595.735562 334.917344)scale(0.17 -0.17)">
       <use xlink:href="#DejaVuSans-4a"/>
       <use xlink:href="#DejaVuSans-61" x="29.492188"/>
       <use xlink:href="#DejaVuSans-6e" x="90.771484"/>
      </g>
     </g>
    </g>
    <g id="xtick_8">
     <g id="line2d_16">
      <g>
       <use xlink:href="#mcb2a70b4ae" x="669.935245" y="315" style="stroke: #000000; stroke-width: 0.8"/>
      </g>
     </g>
     <g id="text_18">
      <!-- Mar -->
      <g transform="translate(653.898136 334.917344)scale(0.17 -0.17)">
       <use xlink:href="#DejaVuSans-4d"/>
       <use xlink:href="#DejaVuSans-61" x="86.279297"/>
       <use xlink:href="#DejaVuSans-72" x="147.558594"/>
      </g>
     </g>
    </g>
    <g id="xtick_9">
     <g id="line2d_17">
      <g>
       <use xlink:href="#mcb2a70b4ae" x="733.102712" y="315" style="stroke: #000000; stroke-width: 0.8"/>
      </g>
     </g>
     <g id="text_19">
      <!-- May -->
      <g transform="translate(715.528962 334.917344)scale(0.17 -0.17)">
       <use xlink:href="#DejaVuSans-4d"/>
       <use xlink:href="#DejaVuSans-61" x="86.279297"/>
       <use xlink:href="#DejaVuSans-79" x="147.558594"/>
      </g>
     </g>
    </g>
    <g id="xtick_10">
     <g id="line2d_18">
      <g>
       <use xlink:href="#mcb2a70b4ae" x="796.270179" y="315" style="stroke: #000000; stroke-width: 0.8"/>
      </g>
     </g>
     <g id="text_20">
      <!-- Jul -->
      <g transform="translate(786.014397 334.917344)scale(0.17 -0.17)">
       <use xlink:href="#DejaVuSans-4a"/>
       <use xlink:href="#DejaVuSans-75" x="29.492188"/>
       <use xlink:href="#DejaVuSans-6c" x="92.871094"/>
      </g>
     </g>
    </g>
    <g id="xtick_11">
     <g id="line2d_19">
      <g>
       <use xlink:href="#mcb2a70b4ae" x="860.473178" y="315" style="stroke: #000000; stroke-width: 0.8"/>
      </g>
     </g>
     <g id="text_21">
      <!-- Sep -->
      <g transform="translate(844.450678 334.917344)scale(0.17 -0.17)">
       <use xlink:href="#DejaVuSans-53"/>
       <use xlink:href="#DejaVuSans-65" x="63.476562"/>
       <use xlink:href="#DejaVuSans-70" x="125"/>
      </g>
     </g>
    </g>
    <g id="xtick_12">
     <g id="line2d_20">
      <g>
       <use xlink:href="#mcb2a70b4ae" x="923.640644" y="315" style="stroke: #000000; stroke-width: 0.8"/>
      </g>
     </g>
     <g id="text_22">
      <!-- Nov -->
      <g transform="translate(907.049707 334.917344)scale(0.17 -0.17)">
       <use xlink:href="#DejaVuSans-4e"/>
       <use xlink:href="#DejaVuSans-6f" x="74.804688"/>
       <use xlink:href="#DejaVuSans-76" x="135.986328"/>
      </g>
     </g>
    </g>
   </g>
   <g id="matplotlib.axis_4">
    <g id="ytick_7">
     <g id="line2d_21">
      <g>
       <use xlink:href="#mc4d153f700" x="591.545455" y="302.645455" style="stroke: #000000; stroke-width: 0.8"/>
      </g>
     </g>
     <g id="text_23">
      <!-- 0 -->
      <g transform="translate(573.729205 309.104126)scale(0.17 -0.17)">
       <use xlink:href="#DejaVuSans-30"/>
      </g>
     </g>
    </g>
    <g id="ytick_8">
     <g id="line2d_22">
      <g>
       <use xlink:href="#mc4d153f700" x="591.545455" y="226.941267" style="stroke: #000000; stroke-width: 0.8"/>
      </g>
     </g>
     <g id="text_24">
      <!-- 200 -->
      <g transform="translate(552.096705 233.399939)scale(0.17 -0.17)">
       <use xlink:href="#DejaVuSans-32"/>
       <use xlink:href="#DejaVuSans-30" x="63.623047"/>
       <use xlink:href="#DejaVuSans-30" x="127.246094"/>
      </g>
     </g>
    </g>
    <g id="ytick_9">
     <g id="line2d_23">
      <g>
       <use xlink:href="#mc4d153f700" x="591.545455" y="151.237079" style="stroke: #000000; stroke-width: 0.8"/>
      </g>
     </g>
     <g id="text_25">
      <!-- 400 -->
      <g transform="translate(552.096705 157.695751)scale(0.17 -0.17)">
       <use xlink:href="#DejaVuSans-34"/>
       <use xlink:href="#DejaVuSans-30" x="63.623047"/>
       <use xlink:href="#DejaVuSans-30" x="127.246094"/>
      </g>
     </g>
    </g>
    <g id="ytick_10">
     <g id="line2d_24">
      <g>
       <use xlink:href="#mc4d153f700" x="591.545455" y="75.532892" style="stroke: #000000; stroke-width: 0.8"/>
      </g>
     </g>
     <g id="text_26">
      <!-- 600 -->
      <g transform="translate(552.096705 81.991564)scale(0.17 -0.17)">
       <use xlink:href="#DejaVuSans-36"/>
       <use xlink:href="#DejaVuSans-30" x="63.623047"/>
       <use xlink:href="#DejaVuSans-30" x="127.246094"/>
      </g>
     </g>
    </g>
    <g id="text_27">
     <!-- mesocosm, mm -->
     <g transform="translate(544.561236 246.782578)rotate(-90)scale(0.17 -0.17)">
      <defs>
       <path id="DejaVuSans-2c" d="M 750 794 
L 1409 794 
L 1409 256 
L 897 -744 
L 494 -744 
L 750 256 
L 750 794 
z
" transform="scale(0.015625)"/>
      </defs>
      <use xlink:href="#DejaVuSans-6d"/>
      <use xlink:href="#DejaVuSans-65" x="97.412109"/>
      <use xlink:href="#DejaVuSans-73" x="158.935547"/>
      <use xlink:href="#DejaVuSans-6f" x="211.035156"/>
      <use xlink:href="#DejaVuSans-63" x="272.216797"/>
      <use xlink:href="#DejaVuSans-6f" x="327.197266"/>
      <use xlink:href="#DejaVuSans-73" x="388.378906"/>
      <use xlink:href="#DejaVuSans-6d" x="440.478516"/>
      <use xlink:href="#DejaVuSans-2c" x="537.890625"/>
      <use xlink:href="#DejaVuSans-20" x="569.677734"/>
      <use xlink:href="#DejaVuSans-6d" x="601.464844"/>
      <use xlink:href="#DejaVuSans-6d" x="698.876953"/>
     </g>
    </g>
   </g>
   <g id="line2d_25">
    <path d="M 680.290568 300.651911 
L 685.468229 300.071512 
L 687.539293 298.494342 
L 688.574826 296.399859 
L 690.64589 294.418933 
L 693.752487 294.217055 
L 697.894616 294.015177 
L 701.001212 294.015177 
L 707.214406 279.883729 
L 714.463132 277.713542 
L 716.534196 275.745233 
L 721.711857 272.199754 
L 723.782922 267.644885 
L 726.889518 246.864086 
L 734.138244 242.220895 
L 738.280373 232.593846 
L 744.493567 225.263157 
L 752.777825 221.629356 
L 758.991018 215.421613 
L 767.275276 209.1634 
L 773.488469 198.097971 
L 779.701663 184.874973 
L 784.879324 174.528734 
L 806.625501 173.759075 
L 815.945291 172.358548 
L 860.473178 172.030496 
" clip-path="url(#p9f3098667c)" style="fill: none; stroke: #ff0000; stroke-width: 1.5; stroke-linecap: square"/>
   </g>
   <g id="line2d_26">
    <path d="M 608.838843 302.645455 
L 621.26523 302.54931 
L 622.300762 298.415105 
L 623.336294 293.223311 
L 624.371827 293.223311 
L 625.407359 292.838734 
L 626.442891 291.973435 
L 650.260133 291.973435 
L 651.295665 291.011992 
L 673.041842 291.011992 
L 674.077374 283.032013 
L 675.112906 282.359003 
L 676.148439 281.109126 
L 685.468229 281.109126 
L 686.503761 280.532261 
L 687.539293 269.956386 
L 689.610358 269.860243 
L 690.64589 269.860243 
L 691.681422 262.457131 
L 692.716955 262.168697 
L 694.788019 262.072554 
L 698.930148 262.072554 
L 699.96568 260.149667 
L 701.001212 259.668946 
L 702.036745 259.668946 
L 703.072277 253.900285 
L 705.143341 253.804142 
L 707.214406 253.707998 
L 708.249938 252.746558 
L 710.321003 252.650414 
L 713.427599 252.650414 
L 714.463132 246.593322 
L 717.569728 246.593322 
L 718.605261 245.631882 
L 719.640793 244.862728 
L 720.676325 244.862728 
L 721.711857 240.343944 
L 722.74739 240.151657 
L 723.782922 226.59531 
L 724.818454 223.807126 
L 725.853986 222.653392 
L 729.996115 222.653392 
L 731.031647 219.961351 
L 732.06718 217.942321 
L 733.102712 217.65389 
L 734.138244 216.30787 
L 735.173776 209.673912 
L 739.315905 209.673912 
L 740.351438 203.905251 
L 741.38697 203.809107 
L 742.422502 203.039948 
L 746.564631 203.039948 
L 747.600163 202.847661 
L 749.671228 202.751517 
L 750.70676 197.848153 
L 751.742292 197.848153 
L 752.777825 197.655866 
L 755.884421 197.655866 
L 756.919953 196.98285 
L 757.955486 189.579744 
L 758.991018 185.73397 
L 760.02655 185.73397 
L 761.062082 185.349396 
L 762.097615 185.157109 
L 763.133147 185.157109 
L 764.168679 184.484105 
L 768.310808 184.484105 
L 769.34634 182.368925 
L 770.381873 151.891174 
L 773.488469 151.891174 
L 774.524002 149.872149 
L 775.559534 147.372395 
L 776.595066 146.410949 
L 778.666131 146.410949 
L 779.701663 141.89217 
L 780.737195 141.315309 
L 782.80826 140.834592 
L 784.879324 140.546162 
L 787.985921 140.546162 
L 789.021453 138.62328 
L 790.056985 138.430993 
L 798.341243 138.33485 
L 799.376775 136.988829 
L 800.412308 136.21967 
L 801.44784 133.912203 
L 802.483372 133.912203 
L 803.518904 127.951261 
L 805.589969 127.855117 
L 806.625501 126.797527 
L 808.696566 126.701384 
L 809.732098 126.701384 
L 810.76763 125.163077 
L 819.051888 125.066933 
L 820.08742 122.85561 
L 823.194017 122.85561 
L 824.229549 120.452 
L 833.549339 120.452 
L 835.620404 120.163569 
L 841.833597 120.163569 
L 842.86913 118.240688 
L 843.904662 117.086954 
L 845.975726 117.086954 
L 847.011258 113.529611 
L 848.046791 111.126001 
L 855.295516 111.126001 
L 856.331049 79.686803 
L 857.366581 79.398361 
L 868.757436 79.398361 
L 869.792968 76.994762 
L 870.8285 76.610188 
L 873.935097 76.417878 
L 876.006161 76.417878 
L 877.041693 73.918125 
L 879.112758 73.82197 
L 882.219355 73.82197 
L 883.254887 71.514503 
L 894.645742 71.514503 
L 895.681274 71.226061 
L 901.894467 71.226061 
L 902.93 70.264626 
L 914.320854 70.264626 
L 915.356386 68.053314 
L 916.391919 67.476453 
L 925.711709 67.476453 
L 926.747241 61.515511 
L 927.782773 57.862035 
L 937.102563 57.862035 
L 938.138096 55.939143 
L 940.20916 55.842987 
L 951.600015 55.746832 
L 952.635547 55.554545 
L 954.706612 55.554545 
L 954.706612 55.554545 
" clip-path="url(#p9f3098667c)" style="fill: none; stroke: #800080; stroke-width: 1.5; stroke-linecap: square"/>
   </g>
   <g id="patch_9">
    <path d="M 591.545455 315 
L 591.545455 43.2 
" style="fill: none; stroke: #000000; stroke-width: 0.8; stroke-linejoin: miter; stroke-linecap: square"/>
   </g>
   <g id="patch_10">
    <path d="M 972 315 
L 972 43.2 
" style="fill: none; stroke: #000000; stroke-width: 0.8; stroke-linejoin: miter; stroke-linecap: square"/>
   </g>
   <g id="patch_11">
    <path d="M 591.545455 315 
L 972 315 
" style="fill: none; stroke: #000000; stroke-width: 0.8; stroke-linejoin: miter; stroke-linecap: square"/>
   </g>
   <g id="patch_12">
    <path d="M 591.545455 43.2 
L 972 43.2 
" style="fill: none; stroke: #000000; stroke-width: 0.8; stroke-linejoin: miter; stroke-linecap: square"/>
   </g>
   <g id="text_28">
    <!-- Cumulative runoff and precipitation -->
    <g transform="translate(639.082727 37.2)scale(0.16 -0.16)">
     <defs>
      <path id="DejaVuSans-66" d="M 2375 4863 
L 2375 4384 
L 1825 4384 
Q 1516 4384 1395 4259 
Q 1275 4134 1275 3809 
L 1275 3500 
L 2222 3500 
L 2222 3053 
L 1275 3053 
L 1275 0 
L 697 0 
L 697 3053 
L 147 3053 
L 147 3500 
L 697 3500 
L 697 3744 
Q 697 4328 969 4595 
Q 1241 4863 1831 4863 
L 2375 4863 
z
" transform="scale(0.015625)"/>
      <path id="DejaVuSans-64" d="M 2906 2969 
L 2906 4863 
L 3481 4863 
L 3481 0 
L 2906 0 
L 2906 525 
Q 2725 213 2448 61 
Q 2172 -91 1784 -91 
Q 1150 -91 751 415 
Q 353 922 353 1747 
Q 353 2572 751 3078 
Q 1150 3584 1784 3584 
Q 2172 3584 2448 3432 
Q 2725 3281 2906 2969 
z
M 947 1747 
Q 947 1113 1208 752 
Q 1469 391 1925 391 
Q 2381 391 2643 752 
Q 2906 1113 2906 1747 
Q 2906 2381 2643 2742 
Q 2381 3103 1925 3103 
Q 1469 3103 1208 2742 
Q 947 2381 947 1747 
z
" transform="scale(0.015625)"/>
     </defs>
     <use xlink:href="#DejaVuSans-43"/>
     <use xlink:href="#DejaVuSans-75" x="69.824219"/>
     <use xlink:href="#DejaVuSans-6d" x="133.203125"/>
     <use xlink:href="#DejaVuSans-75" x="230.615234"/>
     <use xlink:href="#DejaVuSans-6c" x="293.994141"/>
     <use xlink:href="#DejaVuSans-61" x="321.777344"/>
     <use xlink:href="#DejaVuSans-74" x="383.056641"/>
     <use xlink:href="#DejaVuSans-69" x="422.265625"/>
     <use xlink:href="#DejaVuSans-76" x="450.048828"/>
     <use xlink:href="#DejaVuSans-65" x="509.228516"/>
     <use xlink:href="#DejaVuSans-20" x="570.751953"/>
     <use xlink:href="#DejaVuSans-72" x="602.539062"/>
     <use xlink:href="#DejaVuSans-75" x="643.652344"/>
     <use xlink:href="#DejaVuSans-6e" x="707.03125"/>
     <use xlink:href="#DejaVuSans-6f" x="770.410156"/>
     <use xlink:href="#DejaVuSans-66" x="831.591797"/>
     <use xlink:href="#DejaVuSans-66" x="866.796875"/>
     <use xlink:href="#DejaVuSans-20" x="902.001953"/>
     <use xlink:href="#DejaVuSans-61" x="933.789062"/>
     <use xlink:href="#DejaVuSans-6e" x="995.068359"/>
     <use xlink:href="#DejaVuSans-64" x="1058.447266"/>
     <use xlink:href="#DejaVuSans-20" x="1121.923828"/>
     <use xlink:href="#DejaVuSans-70" x="1153.710938"/>
     <use xlink:href="#DejaVuSans-72" x="1217.1875"/>
     <use xlink:href="#DejaVuSans-65" x="1256.050781"/>
     <use xlink:href="#DejaVuSans-63" x="1317.574219"/>
     <use xlink:href="#DejaVuSans-69" x="1372.554688"/>
     <use xlink:href="#DejaVuSans-70" x="1400.337891"/>
     <use xlink:href="#DejaVuSans-69" x="1463.814453"/>
     <use xlink:href="#DejaVuSans-74" x="1491.597656"/>
     <use xlink:href="#DejaVuSans-61" x="1530.806641"/>
     <use xlink:href="#DejaVuSans-74" x="1592.085938"/>
     <use xlink:href="#DejaVuSans-69" x="1631.294922"/>
     <use xlink:href="#DejaVuSans-6f" x="1659.078125"/>
     <use xlink:href="#DejaVuSans-6e" x="1720.259766"/>
    </g>
   </g>
   <g id="legend_2">
    <g id="patch_13">
     <path d="M 598.545455 80.55625 
L 745.29858 80.55625 
Q 747.29858 80.55625 747.29858 78.55625 
L 747.29858 50.2 
Q 747.29858 48.2 745.29858 48.2 
L 598.545455 48.2 
Q 596.545455 48.2 596.545455 50.2 
L 596.545455 78.55625 
Q 596.545455 80.55625 598.545455 80.55625 
z
" style="fill: #ffffff; opacity: 0.8; stroke: #cccccc; stroke-linejoin: miter"/>
    </g>
    <g id="line2d_27">
     <path d="M 600.545455 56.298437 
L 610.545455 56.298437 
L 620.545455 56.298437 
" style="fill: none; stroke: #ff0000; stroke-width: 1.5; stroke-linecap: square"/>
    </g>
    <g id="text_29">
     <!-- MESOCOSM Runoff -->
     <g transform="translate(628.545455 59.798437)scale(0.1 -0.1)">
      <defs>
       <path id="DejaVuSans-52" d="M 2841 2188 
Q 3044 2119 3236 1894 
Q 3428 1669 3622 1275 
L 4263 0 
L 3584 0 
L 2988 1197 
Q 2756 1666 2539 1819 
Q 2322 1972 1947 1972 
L 1259 1972 
L 1259 0 
L 628 0 
L 628 4666 
L 2053 4666 
Q 2853 4666 3247 4331 
Q 3641 3997 3641 3322 
Q 3641 2881 3436 2590 
Q 3231 2300 2841 2188 
z
M 1259 4147 
L 1259 2491 
L 2053 2491 
Q 2509 2491 2742 2702 
Q 2975 2913 2975 3322 
Q 2975 3731 2742 3939 
Q 2509 4147 2053 4147 
L 1259 4147 
z
" transform="scale(0.015625)"/>
      </defs>
      <use xlink:href="#DejaVuSans-4d"/>
      <use xlink:href="#DejaVuSans-45" x="86.279297"/>
      <use xlink:href="#DejaVuSans-53" x="149.462891"/>
      <use xlink:href="#DejaVuSans-4f" x="212.939453"/>
      <use xlink:href="#DejaVuSans-43" x="291.650391"/>
      <use xlink:href="#DejaVuSans-4f" x="361.474609"/>
      <use xlink:href="#DejaVuSans-53" x="440.185547"/>
      <use xlink:href="#DejaVuSans-4d" x="503.662109"/>
      <use xlink:href="#DejaVuSans-20" x="589.941406"/>
      <use xlink:href="#DejaVuSans-52" x="621.728516"/>
      <use xlink:href="#DejaVuSans-75" x="686.710938"/>
      <use xlink:href="#DejaVuSans-6e" x="750.089844"/>
      <use xlink:href="#DejaVuSans-6f" x="813.46875"/>
      <use xlink:href="#DejaVuSans-66" x="874.650391"/>
      <use xlink:href="#DejaVuSans-66" x="909.855469"/>
     </g>
    </g>
    <g id="line2d_28">
     <path d="M 600.545455 70.976562 
L 610.545455 70.976562 
L 620.545455 70.976562 
" style="fill: none; stroke: #800080; stroke-width: 1.5; stroke-linecap: square"/>
    </g>
    <g id="text_30">
     <!-- MESONET Precipitation -->
     <g transform="translate(628.545455 74.476562)scale(0.1 -0.1)">
      <defs>
       <path id="DejaVuSans-54" d="M -19 4666 
L 3928 4666 
L 3928 4134 
L 2272 4134 
L 2272 0 
L 1638 0 
L 1638 4134 
L -19 4134 
L -19 4666 
z
" transform="scale(0.015625)"/>
       <path id="DejaVuSans-50" d="M 1259 4147 
L 1259 2394 
L 2053 2394 
Q 2494 2394 2734 2622 
Q 2975 2850 2975 3272 
Q 2975 3691 2734 3919 
Q 2494 4147 2053 4147 
L 1259 4147 
z
M 628 4666 
L 2053 4666 
Q 2838 4666 3239 4311 
Q 3641 3956 3641 3272 
Q 3641 2581 3239 2228 
Q 2838 1875 2053 1875 
L 1259 1875 
L 1259 0 
L 628 0 
L 628 4666 
z
" transform="scale(0.015625)"/>
      </defs>
      <use xlink:href="#DejaVuSans-4d"/>
      <use xlink:href="#DejaVuSans-45" x="86.279297"/>
      <use xlink:href="#DejaVuSans-53" x="149.462891"/>
      <use xlink:href="#DejaVuSans-4f" x="212.939453"/>
      <use xlink:href="#DejaVuSans-4e" x="291.650391"/>
      <use xlink:href="#DejaVuSans-45" x="366.455078"/>
      <use xlink:href="#DejaVuSans-54" x="429.638672"/>
      <use xlink:href="#DejaVuSans-20" x="490.722656"/>
      <use xlink:href="#DejaVuSans-50" x="522.509766"/>
      <use xlink:href="#DejaVuSans-72" x="581.0625"/>
      <use xlink:href="#DejaVuSans-65" x="619.925781"/>
      <use xlink:href="#DejaVuSans-63" x="681.449219"/>
      <use xlink:href="#DejaVuSans-69" x="736.429688"/>
      <use xlink:href="#DejaVuSans-70" x="764.212891"/>
      <use xlink:href="#DejaVuSans-69" x="827.689453"/>
      <use xlink:href="#DejaVuSans-74" x="855.472656"/>
      <use xlink:href="#DejaVuSans-61" x="894.681641"/>
      <use xlink:href="#DejaVuSans-74" x="955.960938"/>
      <use xlink:href="#DejaVuSans-69" x="995.169922"/>
      <use xlink:href="#DejaVuSans-6f" x="1022.953125"/>
      <use xlink:href="#DejaVuSans-6e" x="1084.134766"/>
     </g>
    </g>
   </g>
  </g>
  <g id="axes_3">
   <g id="matplotlib.axis_5">
    <g id="ytick_11">
     <g id="line2d_29">
      <defs>
       <path id="m902c0ef2f4" d="M 0 0 
L 3.5 0 
" style="stroke: #008000; stroke-width: 0.8"/>
      </defs>
      <g>
       <use xlink:href="#m902c0ef2f4" x="972" y="302.645455" style="fill: #008000; stroke: #008000; stroke-width: 0.8"/>
      </g>
     </g>
     <g id="text_31">
      <!-- 0 -->
      <g style="fill: #008000" transform="translate(979 309.104126)scale(0.17 -0.17)">
       <use xlink:href="#DejaVuSans-30"/>
      </g>
     </g>
    </g>
    <g id="ytick_12">
     <g id="line2d_30">
      <g>
       <use xlink:href="#m902c0ef2f4" x="972" y="235.678008" style="fill: #008000; stroke: #008000; stroke-width: 0.8"/>
      </g>
     </g>
     <g id="text_32">
      <!-- 20 -->
      <g style="fill: #008000" transform="translate(979 242.136679)scale(0.17 -0.17)">
       <use xlink:href="#DejaVuSans-32"/>
       <use xlink:href="#DejaVuSans-30" x="63.623047"/>
      </g>
     </g>
    </g>
    <g id="ytick_13">
     <g id="line2d_31">
      <g>
       <use xlink:href="#m902c0ef2f4" x="972" y="168.71056" style="fill: #008000; stroke: #008000; stroke-width: 0.8"/>
      </g>
     </g>
     <g id="text_33">
      <!-- 40 -->
      <g style="fill: #008000" transform="translate(979 175.169232)scale(0.17 -0.17)">
       <use xlink:href="#DejaVuSans-34"/>
       <use xlink:href="#DejaVuSans-30" x="63.623047"/>
      </g>
     </g>
    </g>
    <g id="ytick_14">
     <g id="line2d_32">
      <g>
       <use xlink:href="#m902c0ef2f4" x="972" y="101.743113" style="fill: #008000; stroke: #008000; stroke-width: 0.8"/>
      </g>
     </g>
     <g id="text_34">
      <!-- 60 -->
      <g style="fill: #008000" transform="translate(979 108.201785)scale(0.17 -0.17)">
       <use xlink:href="#DejaVuSans-36"/>
       <use xlink:href="#DejaVuSans-30" x="63.623047"/>
      </g>
     </g>
    </g>
    <g id="text_35">
     <!-- Modelled runoff, mm -->
     <g style="fill: #008000" transform="translate(1017.549844 267.727109)rotate(-90)scale(0.17 -0.17)">
      <use xlink:href="#DejaVuSans-4d"/>
      <use xlink:href="#DejaVuSans-6f" x="86.279297"/>
      <use xlink:href="#DejaVuSans-64" x="147.460938"/>
      <use xlink:href="#DejaVuSans-65" x="210.9375"/>
      <use xlink:href="#DejaVuSans-6c" x="272.460938"/>
      <use xlink:href="#DejaVuSans-6c" x="300.244141"/>
      <use xlink:href="#DejaVuSans-65" x="328.027344"/>
      <use xlink:href="#DejaVuSans-64" x="389.550781"/>
      <use xlink:href="#DejaVuSans-20" x="453.027344"/>
      <use xlink:href="#DejaVuSans-72" x="484.814453"/>
      <use xlink:href="#DejaVuSans-75" x="525.927734"/>
      <use xlink:href="#DejaVuSans-6e" x="589.306641"/>
      <use xlink:href="#DejaVuSans-6f" x="652.685547"/>
      <use xlink:href="#DejaVuSans-66" x="713.867188"/>
      <use xlink:href="#DejaVuSans-66" x="749.072266"/>
      <use xlink:href="#DejaVuSans-2c" x="784.277344"/>
      <use xlink:href="#DejaVuSans-20" x="816.064453"/>
      <use xlink:href="#DejaVuSans-6d" x="847.851562"/>
      <use xlink:href="#DejaVuSans-6d" x="945.263672"/>
     </g>
    </g>
   </g>
   <g id="line2d_33">
    <path d="M 608.838843 302.645455 
L 611.686557 302.611853 
L 611.902461 302.165112 
L 612.722089 302.152392 
L 612.85153 301.939794 
L 614.965574 301.937511 
L 618.029192 301.897029 
L 618.158633 301.723946 
L 619.064724 301.717876 
L 619.194165 301.564327 
L 619.970815 301.530167 
L 620.100256 301.075315 
L 621.912438 300.992357 
L 622.084858 300.935414 
L 656.386863 300.68322 
L 656.516305 300.446211 
L 659.407503 300.422634 
L 659.579923 299.849498 
L 661.349126 299.849498 
L 661.435083 299.343888 
L 661.650987 298.011188 
L 662.427636 297.995582 
L 662.68652 297.025049 
L 668.770271 297.025049 
L 669.072133 296.456229 
L 669.676362 296.456229 
L 669.935245 295.451336 
L 670.668916 295.419352 
L 671.100219 294.449837 
L 671.660964 294.381234 
L 671.790405 293.965846 
L 671.963331 292.255506 
L 672.135751 292.199826 
L 672.73998 292.120832 
L 672.9124 291.683266 
L 673.084821 291.387121 
L 673.818491 291.387121 
L 673.990911 290.128873 
L 674.983465 285.017023 
L 675.199369 283.335596 
L 675.54421 283.318849 
L 675.760114 283.318849 
L 676.191417 282.337239 
L 676.795646 282.337239 
L 676.925088 281.806922 
L 677.140992 280.419658 
L 677.831179 280.418898 
L 678.090062 279.540714 
L 678.909689 279.450458 
L 679.125594 279.124569 
L 680.031685 279.076388 
L 680.462988 278.461089 
L 681.067217 278.390034 
L 681.3261 277.288315 
L 682.102749 277.235188 
L 682.361632 275.759689 
L 683.00884 275.759689 
L 683.138281 274.961656 
L 683.440143 272.522247 
L 684.044372 272.49263 
L 684.346234 271.259771 
L 686.978549 271.176433 
L 687.193947 270.779074 
L 687.237432 270.774259 
L 687.45283 269.172358 
L 687.625756 269.164353 
L 687.755198 266.287746 
L 688.014081 250.148972 
L 688.574826 239.680602 
L 688.747246 239.482466 
L 689.351475 239.426961 
L 689.437938 237.105885 
L 689.567379 233.629438 
L 690.47347 233.518593 
L 691.897327 233.517712 
L 692.15621 228.771881 
L 692.50105 215.7893 
L 692.544534 215.577798 
L 692.759933 209.065361 
L 693.018816 208.581417 
L 693.580067 208.432349 
L 693.795465 208.097019 
L 694.054348 208.012334 
L 694.270253 207.979303 
L 694.399694 207.979303 
L 694.529136 207.584533 
L 695.089881 207.533773 
L 695.392248 207.458974 
L 695.564668 207.310462 
L 697.506291 207.17496 
L 697.678711 207.074238 
L 699.577356 206.92291 
L 699.749776 206.806726 
L 700.052143 206.804842 
L 700.267542 200.708807 
L 703.288181 200.514165 
L 703.590043 186.161325 
L 703.762463 185.237682 
L 704.84148 185.169806 
L 705.056879 184.824104 
L 706.955523 184.599874 
L 707.214406 184.491367 
L 707.386826 184.270623 
L 708.5518 184.148449 
L 708.595284 184.140198 
L 709.371933 180.755308 
L 711.960764 180.532699 
L 714.549594 180.513489 
L 714.722015 178.741461 
L 714.894435 176.779026 
L 715.067361 176.735815 
L 719.468373 176.641818 
L 719.770234 175.836019 
L 720.288 175.836019 
L 720.460421 175.656392 
L 720.762788 175.625877 
L 722.316086 175.600817 
L 722.833852 172.725225 
L 723.912363 172.614674 
L 724.128268 172.467325 
L 724.689012 164.232261 
L 725.293241 164.232261 
L 725.465662 163.324941 
L 725.638082 162.491182 
L 725.811008 162.491182 
L 726.026406 161.79237 
L 731.506435 161.756107 
L 731.937738 160.068356 
L 732.283084 160.068356 
L 732.584946 159.219588 
L 732.843829 159.15276 
L 733.361595 158.612857 
L 735.001356 158.607479 
L 735.303218 157.183645 
L 735.389681 157.020648 
L 735.60508 154.499853 
L 735.734521 153.661917 
L 735.907447 153.619957 
L 740.955667 153.616202 
L 741.21455 150.113915 
L 741.732316 149.992775 
L 742.379523 149.992775 
L 742.594922 149.545656 
L 747.902025 149.471815 
L 748.074951 149.431516 
L 751.052106 149.380807 
L 751.267505 146.414093 
L 751.440431 146.354149 
L 753.338569 146.275377 
L 753.511495 146.235985 
L 757.783066 146.235985 
L 757.912507 145.826687 
L 758.17139 142.267483 
L 758.51623 141.369271 
L 758.732135 141.247314 
L 758.948039 141.247314 
L 759.206922 138.989873 
L 759.465805 138.867993 
L 761.70929 138.793079 
L 761.88171 138.635932 
L 762.787801 138.562168 
L 762.960727 138.523325 
L 764.384584 138.523325 
L 764.599982 138.114205 
L 770.209452 138.076678 
L 770.338894 136.849688 
L 770.597777 124.779778 
L 770.813176 119.99559 
L 770.942617 118.637013 
L 771.02908 118.570989 
L 771.158522 118.229004 
L 771.374426 117.609601 
L 774.739906 117.517584 
L 774.869348 117.396139 
L 775.128231 116.352914 
L 776.0773 116.277809 
L 776.508603 115.070094 
L 776.724508 114.302562 
L 779.78762 114.251866 
L 780.34887 111.756745 
L 780.607754 111.588218 
L 781.039562 111.474001 
L 781.513844 111.362965 
L 789.409778 111.152721 
L 789.625176 110.42333 
L 790.100469 110.378063 
L 799.851057 110.377807 
L 800.196909 109.68952 
L 801.404356 109.605576 
L 801.663239 108.261202 
L 803.734303 108.261189 
L 804.03667 106.768648 
L 804.252069 104.469708 
L 807.013826 104.407669 
L 807.229224 103.920774 
L 811.069997 103.842169 
L 811.199439 103.263602 
L 811.32888 103.027237 
L 820.173377 103.027237 
L 820.432261 101.657138 
L 824.444948 101.657138 
L 824.661358 100.125806 
L 843.731736 100.125793 
L 844.077588 98.388929 
L 844.378944 98.190909 
L 847.226657 98.182249 
L 847.48554 95.783104 
L 848.003306 95.783104 
L 848.26219 94.514525 
L 848.564557 94.44154 
L 848.82344 94.314768 
L 856.417006 94.314755 
L 856.589932 89.612378 
L 856.762858 77.467082 
L 856.892299 72.526143 
L 857.021741 72.139938 
L 870.310734 72.055482 
L 870.440175 71.713548 
L 870.8285 70.497965 
L 871.38975 70.377158 
L 877.515975 70.32346 
L 877.9043 68.779584 
L 883.729169 68.775573 
L 884.031536 67.148903 
L 896.328481 67.065035 
L 896.54388 66.932758 
L 903.145398 66.902946 
L 903.447766 66.231008 
L 915.96011 66.135976 
L 916.089551 66.057192 
L 916.607317 64.211286 
L 927.092081 64.135414 
L 927.308491 63.622321 
L 927.350964 63.445798 
L 927.609848 60.110761 
L 927.955699 60.036166 
L 928.085141 59.941774 
L 928.127614 59.896506 
L 928.64538 57.525117 
L 944.221848 57.319011 
L 944.394773 57.228272 
L 945.25738 57.157714 
L 945.430306 57.084192 
L 946.206955 57.018666 
L 946.422354 56.666948 
L 947.199003 56.603415 
L 947.371929 55.912241 
L 950.952807 55.81767 
L 951.297648 55.761494 
L 954.663127 55.554545 
L 954.663127 55.554545 
" clip-path="url(#p9f3098667c)" style="fill: none; stroke: #008000; stroke-width: 1.5; stroke-linecap: square"/>
   </g>
   <g id="patch_14">
    <path d="M 591.545455 315 
L 591.545455 43.2 
" style="fill: none; stroke: #000000; stroke-width: 0.8; stroke-linejoin: miter; stroke-linecap: square"/>
   </g>
   <g id="patch_15">
    <path d="M 972 315 
L 972 43.2 
" style="fill: none; stroke: #000000; stroke-width: 0.8; stroke-linejoin: miter; stroke-linecap: square"/>
   </g>
   <g id="patch_16">
    <path d="M 591.545455 315 
L 972 315 
" style="fill: none; stroke: #000000; stroke-width: 0.8; stroke-linejoin: miter; stroke-linecap: square"/>
   </g>
   <g id="patch_17">
    <path d="M 591.545455 43.2 
L 972 43.2 
" style="fill: none; stroke: #000000; stroke-width: 0.8; stroke-linejoin: miter; stroke-linecap: square"/>
   </g>
   <g id="legend_3">
    <g id="patch_18">
     <path d="M 597.35 108.432 
L 717.75 108.432 
Q 719.75 108.432 719.75 106.432 
L 719.75 92.753875 
Q 719.75 90.753875 717.75 90.753875 
L 597.35 90.753875 
Q 595.35 90.753875 595.35 92.753875 
L 595.35 106.432 
Q 595.35 108.432 597.35 108.432 
z
" style="fill: #ffffff; opacity: 0.8; stroke: #cccccc; stroke-linejoin: miter"/>
    </g>
    <g id="line2d_34">
     <path d="M 599.35 98.852312 
L 609.35 98.852312 
L 619.35 98.852312 
" style="fill: none; stroke: #008000; stroke-width: 1.5; stroke-linecap: square"/>
    </g>
    <g id="text_36">
     <!-- $CLM5.0^*-FANv3$ -->
     <g transform="translate(627.35 102.352312)scale(0.1 -0.1)">
      <use xlink:href="#DejaVuSans-Oblique-43" transform="translate(0 0.765625)"/>
      <use xlink:href="#DejaVuSans-Oblique-4c" transform="translate(69.824219 0.765625)"/>
      <use xlink:href="#DejaVuSans-Oblique-4d" transform="translate(125.537109 0.765625)"/>
      <use xlink:href="#DejaVuSans-35" transform="translate(211.816406 0.765625)"/>
      <use xlink:href="#DejaVuSans-2e" transform="translate(275.439453 0.765625)"/>
      <use xlink:href="#DejaVuSans-30" transform="translate(307.226562 0.765625)"/>
      <use xlink:href="#DejaVuSans-2a" transform="translate(385.444336 39.046875)scale(0.7)"/>
      <use xlink:href="#DejaVuSans-2212" transform="translate(456.298828 0.765625)"/>
      <use xlink:href="#DejaVuSans-Oblique-46" transform="translate(559.570312 0.765625)"/>
      <use xlink:href="#DejaVuSans-Oblique-41" transform="translate(617.089844 0.765625)"/>
      <use xlink:href="#DejaVuSans-Oblique-4e" transform="translate(685.498047 0.765625)"/>
      <use xlink:href="#DejaVuSans-Oblique-76" transform="translate(760.302734 0.765625)"/>
      <use xlink:href="#DejaVuSans-33" transform="translate(819.482422 0.765625)"/>
     </g>
    </g>
   </g>
  </g>
 </g>
 <defs>
  <clipPath id="pb4e154ced9">
   <rect x="135" y="43.2" width="380.454545" height="271.8"/>
  </clipPath>
  <clipPath id="p9f3098667c">
   <rect x="591.545455" y="43.2" width="380.454545" height="271.8"/>
  </clipPath>
 </defs>
</svg>
