<?xml version="1.0" encoding="utf-8" standalone="no"?>
<!DOCTYPE svg PUBLIC "-//W3C//DTD SVG 1.1//EN"
  "http://www.w3.org/Graphics/SVG/1.1/DTD/svg11.dtd">
<svg xmlns:xlink="http://www.w3.org/1999/xlink" width="576pt" height="360pt" viewBox="0 0 576 360" xmlns="http://www.w3.org/2000/svg" version="1.1">
 <metadata>
  <rdf:RDF xmlns:dc="http://purl.org/dc/elements/1.1/" xmlns:cc="http://creativecommons.org/ns#" xmlns:rdf="http://www.w3.org/1999/02/22-rdf-syntax-ns#">
   <cc:Work>
    <dc:type rdf:resource="http://purl.org/dc/dcmitype/StillImage"/>
    <dc:date>2024-12-05T11:40:30.690494</dc:date>
    <dc:format>image/svg+xml</dc:format>
    <dc:creator>
     <cc:Agent>
      <dc:title>Matplotlib v3.5.2, https://matplotlib.org/</dc:title>
     </cc:Agent>
    </dc:creator>
   </cc:Work>
  </rdf:RDF>
 </metadata>
 <defs>
  <style type="text/css">*{stroke-linejoin: round; stroke-linecap: butt}</style>
 </defs>
 <g id="figure_1">
  <g id="patch_1">
   <path d="M 0 360 
L 576 360 
L 576 0 
L 0 0 
L 0 360 
z
" style="fill: none"/>
  </g>
  <g id="axes_1">
   <g id="patch_2">
    <path d="M 72 315 
L 518.4 315 
L 518.4 43.2 
L 72 43.2 
z
" style="fill: #ffffff"/>
   </g>
   <g id="patch_3">
    <path d="M 215.935106 315 
L 218.973047 315 
L 218.973047 313.806272 
L 215.935106 313.806272 
z
" clip-path="url(#p4fc9dd6ff3)" style="fill: #ee82ee"/>
   </g>
   <g id="patch_4">
    <path d="M 258.46628 315 
L 261.504221 315 
L 261.504221 233.08356 
L 258.46628 233.08356 
z
" clip-path="url(#p4fc9dd6ff3)" style="fill: #ee82ee"/>
   </g>
   <g id="patch_5">
    <path d="M 275.478749 315 
L 278.51669 315 
L 278.51669 212.712154 
L 275.478749 212.712154 
z
" clip-path="url(#p4fc9dd6ff3)" style="fill: #ee82ee"/>
   </g>
   <g id="patch_6">
    <path d="M 290.060866 315 
L 293.098807 315 
L 293.098807 155.481912 
L 290.060866 155.481912 
z
" clip-path="url(#p4fc9dd6ff3)" style="fill: #ee82ee"/>
   </g>
   <g id="patch_7">
    <path d="M 318.009923 315 
L 321.047864 315 
L 321.047864 286.83669 
L 318.009923 286.83669 
z
" clip-path="url(#p4fc9dd6ff3)" style="fill: #ee82ee"/>
   </g>
   <g id="patch_8">
    <path d="M 349.604509 315 
L 352.64245 315 
L 352.64245 291.848153 
L 349.604509 291.848153 
z
" clip-path="url(#p4fc9dd6ff3)" style="fill: #ee82ee"/>
   </g>
   <g id="patch_9">
    <path d="M 416.43921 315 
L 419.477151 315 
L 419.477151 299.511898 
L 416.43921 299.511898 
z
" clip-path="url(#p4fc9dd6ff3)" style="fill: #ee82ee"/>
   </g>
   <g id="patch_10">
    <path d="M 450.464149 315 
L 453.50209 315 
L 453.50209 312.246107 
L 450.464149 312.246107 
z
" clip-path="url(#p4fc9dd6ff3)" style="fill: #ee82ee"/>
   </g>
   <g id="patch_11">
    <path d="M 219.479371 315 
L 222.517312 315 
L 222.517312 314.956512 
L 219.479371 314.956512 
z
" clip-path="url(#p4fc9dd6ff3)" style="fill: #800000"/>
   </g>
   <g id="patch_12">
    <path d="M 262.010544 315 
L 265.048485 315 
L 265.048485 249.994758 
L 262.010544 249.994758 
z
" clip-path="url(#p4fc9dd6ff3)" style="fill: #800000"/>
   </g>
   <g id="patch_13">
    <path d="M 279.023014 315 
L 282.060955 315 
L 282.060955 255.550419 
L 279.023014 255.550419 
z
" clip-path="url(#p4fc9dd6ff3)" style="fill: #800000"/>
   </g>
   <g id="patch_14">
    <path d="M 293.60513 315 
L 296.643071 315 
L 296.643071 227.547486 
L 293.60513 227.547486 
z
" clip-path="url(#p4fc9dd6ff3)" style="fill: #800000"/>
   </g>
   <g id="patch_15">
    <path d="M 321.554187 315 
L 324.592128 315 
L 324.592128 300.111419 
L 321.554187 300.111419 
z
" clip-path="url(#p4fc9dd6ff3)" style="fill: #800000"/>
   </g>
   <g id="patch_16">
    <path d="M 353.148773 315 
L 356.186714 315 
L 356.186714 302.771559 
L 353.148773 302.771559 
z
" clip-path="url(#p4fc9dd6ff3)" style="fill: #800000"/>
   </g>
   <g id="patch_17">
    <path d="M 419.983475 315 
L 423.021416 315 
L 423.021416 309.268816 
L 419.983475 309.268816 
z
" clip-path="url(#p4fc9dd6ff3)" style="fill: #800000"/>
   </g>
   <g id="patch_18">
    <path d="M 454.008413 315 
L 457.046354 315 
L 457.046354 313.57395 
L 454.008413 313.57395 
z
" clip-path="url(#p4fc9dd6ff3)" style="fill: #800000"/>
   </g>
   <g id="patch_19">
    <path d="M 223.023635 315 
L 226.061576 315 
L 226.061576 300.254973 
L 223.023635 300.254973 
z
" clip-path="url(#p4fc9dd6ff3)" style="fill: #6495ed"/>
   </g>
   <g id="patch_20">
    <path d="M 265.554809 315 
L 268.59275 315 
L 268.59275 170.519213 
L 265.554809 170.519213 
z
" clip-path="url(#p4fc9dd6ff3)" style="fill: #6495ed"/>
   </g>
   <g id="patch_21">
    <path d="M 282.567278 315 
L 285.605219 315 
L 285.605219 133.042269 
L 282.567278 133.042269 
z
" clip-path="url(#p4fc9dd6ff3)" style="fill: #6495ed"/>
   </g>
   <g id="patch_22">
    <path d="M 297.149395 315 
L 300.187336 315 
L 300.187336 227.553797 
L 297.149395 227.553797 
z
" clip-path="url(#p4fc9dd6ff3)" style="fill: #6495ed"/>
   </g>
   <g id="patch_23">
    <path d="M 325.098452 315 
L 328.136393 315 
L 328.136393 308.344259 
L 325.098452 308.344259 
z
" clip-path="url(#p4fc9dd6ff3)" style="fill: #6495ed"/>
   </g>
   <g id="patch_24">
    <path d="M 356.693038 315 
L 359.730979 315 
L 359.730979 310.699367 
L 356.693038 310.699367 
z
" clip-path="url(#p4fc9dd6ff3)" style="fill: #6495ed"/>
   </g>
   <g id="patch_25">
    <path d="M 423.527739 315 
L 426.56568 315 
L 426.56568 310.904159 
L 423.527739 310.904159 
z
" clip-path="url(#p4fc9dd6ff3)" style="fill: #6495ed"/>
   </g>
   <g id="patch_26">
    <path d="M 457.552678 315 
L 460.590619 315 
L 460.590619 304.658002 
L 457.552678 304.658002 
z
" clip-path="url(#p4fc9dd6ff3)" style="fill: #6495ed"/>
   </g>
   <g id="patch_27">
    <path d="M 226.5679 315 
L 229.605841 315 
L 229.605841 295.95434 
L 226.5679 295.95434 
z
" clip-path="url(#p4fc9dd6ff3)" style="fill: #32cd32"/>
   </g>
   <g id="patch_28">
    <path d="M 269.099073 315 
L 272.137014 315 
L 272.137014 59.317134 
L 269.099073 59.317134 
z
" clip-path="url(#p4fc9dd6ff3)" style="fill: #32cd32"/>
   </g>
   <g id="patch_29">
    <path d="M 286.111543 315 
L 289.149484 315 
L 289.149484 56.142857 
L 286.111543 56.142857 
z
" clip-path="url(#p4fc9dd6ff3)" style="fill: #32cd32"/>
   </g>
   <g id="patch_30">
    <path d="M 300.693659 315 
L 303.7316 315 
L 303.7316 245.165913 
L 300.693659 245.165913 
z
" clip-path="url(#p4fc9dd6ff3)" style="fill: #32cd32"/>
   </g>
   <g id="patch_31">
    <path d="M 328.642716 315 
L 331.680657 315 
L 331.680657 297.285488 
L 328.642716 297.285488 
z
" clip-path="url(#p4fc9dd6ff3)" style="fill: #32cd32"/>
   </g>
   <g id="patch_32">
    <path d="M 360.237302 315 
L 363.275243 315 
L 363.275243 300.254973 
L 360.237302 300.254973 
z
" clip-path="url(#p4fc9dd6ff3)" style="fill: #32cd32"/>
   </g>
   <g id="patch_33">
    <path d="M 427.072004 315 
L 430.109945 315 
L 430.109945 309.675407 
L 427.072004 309.675407 
z
" clip-path="url(#p4fc9dd6ff3)" style="fill: #32cd32"/>
   </g>
   <g id="patch_34">
    <path d="M 461.096942 315 
L 464.134883 315 
L 464.134883 298.309448 
L 461.096942 298.309448 
z
" clip-path="url(#p4fc9dd6ff3)" style="fill: #32cd32"/>
   </g>
   <g id="matplotlib.axis_1">
    <g id="xtick_1">
     <g id="line2d_1">
      <defs>
       <path id="m8d85bc10b6" d="M 0 0 
L 0 3.5 
" style="stroke: #000000; stroke-width: 0.8"/>
      </defs>
      <g>
       <use xlink:href="#m8d85bc10b6" x="92.290909" y="315" style="stroke: #000000; stroke-width: 0.8"/>
      </g>
     </g>
     <g id="text_1">
      <!-- 2023-01 -->
      <g transform="translate(71.399503 329.598437)scale(0.1 -0.1)">
       <defs>
        <path id="DejaVuSans-32" d="M 1228 531 
L 3431 531 
L 3431 0 
L 469 0 
L 469 531 
Q 828 903 1448 1529 
Q 2069 2156 2228 2338 
Q 2531 2678 2651 2914 
Q 2772 3150 2772 3378 
Q 2772 3750 2511 3984 
Q 2250 4219 1831 4219 
Q 1534 4219 1204 4116 
Q 875 4013 500 3803 
L 500 4441 
Q 881 4594 1212 4672 
Q 1544 4750 1819 4750 
Q 2544 4750 2975 4387 
Q 3406 4025 3406 3419 
Q 3406 3131 3298 2873 
Q 3191 2616 2906 2266 
Q 2828 2175 2409 1742 
Q 1991 1309 1228 531 
z
" transform="scale(0.015625)"/>
        <path id="DejaVuSans-30" d="M 2034 4250 
Q 1547 4250 1301 3770 
Q 1056 3291 1056 2328 
Q 1056 1369 1301 889 
Q 1547 409 2034 409 
Q 2525 409 2770 889 
Q 3016 1369 3016 2328 
Q 3016 3291 2770 3770 
Q 2525 4250 2034 4250 
z
M 2034 4750 
Q 2819 4750 3233 4129 
Q 3647 3509 3647 2328 
Q 3647 1150 3233 529 
Q 2819 -91 2034 -91 
Q 1250 -91 836 529 
Q 422 1150 422 2328 
Q 422 3509 836 4129 
Q 1250 4750 2034 4750 
z
" transform="scale(0.015625)"/>
        <path id="DejaVuSans-33" d="M 2597 2516 
Q 3050 2419 3304 2112 
Q 3559 1806 3559 1356 
Q 3559 666 3084 287 
Q 2609 -91 1734 -91 
Q 1441 -91 1130 -33 
Q 819 25 488 141 
L 488 750 
Q 750 597 1062 519 
Q 1375 441 1716 441 
Q 2309 441 2620 675 
Q 2931 909 2931 1356 
Q 2931 1769 2642 2001 
Q 2353 2234 1838 2234 
L 1294 2234 
L 1294 2753 
L 1863 2753 
Q 2328 2753 2575 2939 
Q 2822 3125 2822 3475 
Q 2822 3834 2567 4026 
Q 2313 4219 1838 4219 
Q 1578 4219 1281 4162 
Q 984 4106 628 3988 
L 628 4550 
Q 988 4650 1302 4700 
Q 1616 4750 1894 4750 
Q 2613 4750 3031 4423 
Q 3450 4097 3450 3541 
Q 3450 3153 3228 2886 
Q 3006 2619 2597 2516 
z
" transform="scale(0.015625)"/>
        <path id="DejaVuSans-2d" d="M 313 2009 
L 1997 2009 
L 1997 1497 
L 313 1497 
L 313 2009 
z
" transform="scale(0.015625)"/>
        <path id="DejaVuSans-31" d="M 794 531 
L 1825 531 
L 1825 4091 
L 703 3866 
L 703 4441 
L 1819 4666 
L 2450 4666 
L 2450 531 
L 3481 531 
L 3481 0 
L 794 0 
L 794 531 
z
" transform="scale(0.015625)"/>
       </defs>
       <use xlink:href="#DejaVuSans-32"/>
       <use xlink:href="#DejaVuSans-30" x="63.623047"/>
       <use xlink:href="#DejaVuSans-32" x="127.246094"/>
       <use xlink:href="#DejaVuSans-33" x="190.869141"/>
       <use xlink:href="#DejaVuSans-2d" x="254.492188"/>
       <use xlink:href="#DejaVuSans-30" x="290.576172"/>
       <use xlink:href="#DejaVuSans-31" x="354.199219"/>
      </g>
     </g>
    </g>
    <g id="xtick_2">
     <g id="line2d_2">
      <g>
       <use xlink:href="#m8d85bc10b6" x="163.986316" y="315" style="stroke: #000000; stroke-width: 0.8"/>
      </g>
     </g>
     <g id="text_2">
      <!-- 2023-03 -->
      <g transform="translate(143.09491 329.598437)scale(0.1 -0.1)">
       <use xlink:href="#DejaVuSans-32"/>
       <use xlink:href="#DejaVuSans-30" x="63.623047"/>
       <use xlink:href="#DejaVuSans-32" x="127.246094"/>
       <use xlink:href="#DejaVuSans-33" x="190.869141"/>
       <use xlink:href="#DejaVuSans-2d" x="254.492188"/>
       <use xlink:href="#DejaVuSans-30" x="290.576172"/>
       <use xlink:href="#DejaVuSans-33" x="354.199219"/>
      </g>
     </g>
    </g>
    <g id="xtick_3">
     <g id="line2d_3">
      <g>
       <use xlink:href="#m8d85bc10b6" x="238.112075" y="315" style="stroke: #000000; stroke-width: 0.8"/>
      </g>
     </g>
     <g id="text_3">
      <!-- 2023-05 -->
      <g transform="translate(217.220669 329.598437)scale(0.1 -0.1)">
       <defs>
        <path id="DejaVuSans-35" d="M 691 4666 
L 3169 4666 
L 3169 4134 
L 1269 4134 
L 1269 2991 
Q 1406 3038 1543 3061 
Q 1681 3084 1819 3084 
Q 2600 3084 3056 2656 
Q 3513 2228 3513 1497 
Q 3513 744 3044 326 
Q 2575 -91 1722 -91 
Q 1428 -91 1123 -41 
Q 819 9 494 109 
L 494 744 
Q 775 591 1075 516 
Q 1375 441 1709 441 
Q 2250 441 2565 725 
Q 2881 1009 2881 1497 
Q 2881 1984 2565 2268 
Q 2250 2553 1709 2553 
Q 1456 2553 1204 2497 
Q 953 2441 691 2322 
L 691 4666 
z
" transform="scale(0.015625)"/>
       </defs>
       <use xlink:href="#DejaVuSans-32"/>
       <use xlink:href="#DejaVuSans-30" x="63.623047"/>
       <use xlink:href="#DejaVuSans-32" x="127.246094"/>
       <use xlink:href="#DejaVuSans-33" x="190.869141"/>
       <use xlink:href="#DejaVuSans-2d" x="254.492188"/>
       <use xlink:href="#DejaVuSans-30" x="290.576172"/>
       <use xlink:href="#DejaVuSans-35" x="354.199219"/>
      </g>
     </g>
    </g>
    <g id="xtick_4">
     <g id="line2d_4">
      <g>
       <use xlink:href="#m8d85bc10b6" x="312.237835" y="315" style="stroke: #000000; stroke-width: 0.8"/>
      </g>
     </g>
     <g id="text_4">
      <!-- 2023-07 -->
      <g transform="translate(291.346429 329.598437)scale(0.1 -0.1)">
       <defs>
        <path id="DejaVuSans-37" d="M 525 4666 
L 3525 4666 
L 3525 4397 
L 1831 0 
L 1172 0 
L 2766 4134 
L 525 4134 
L 525 4666 
z
" transform="scale(0.015625)"/>
       </defs>
       <use xlink:href="#DejaVuSans-32"/>
       <use xlink:href="#DejaVuSans-30" x="63.623047"/>
       <use xlink:href="#DejaVuSans-32" x="127.246094"/>
       <use xlink:href="#DejaVuSans-33" x="190.869141"/>
       <use xlink:href="#DejaVuSans-2d" x="254.492188"/>
       <use xlink:href="#DejaVuSans-30" x="290.576172"/>
       <use xlink:href="#DejaVuSans-37" x="354.199219"/>
      </g>
     </g>
    </g>
    <g id="xtick_5">
     <g id="line2d_5">
      <g>
       <use xlink:href="#m8d85bc10b6" x="387.578771" y="315" style="stroke: #000000; stroke-width: 0.8"/>
      </g>
     </g>
     <g id="text_5">
      <!-- 2023-09 -->
      <g transform="translate(366.687365 329.598437)scale(0.1 -0.1)">
       <defs>
        <path id="DejaVuSans-39" d="M 703 97 
L 703 672 
Q 941 559 1184 500 
Q 1428 441 1663 441 
Q 2288 441 2617 861 
Q 2947 1281 2994 2138 
Q 2813 1869 2534 1725 
Q 2256 1581 1919 1581 
Q 1219 1581 811 2004 
Q 403 2428 403 3163 
Q 403 3881 828 4315 
Q 1253 4750 1959 4750 
Q 2769 4750 3195 4129 
Q 3622 3509 3622 2328 
Q 3622 1225 3098 567 
Q 2575 -91 1691 -91 
Q 1453 -91 1209 -44 
Q 966 3 703 97 
z
M 1959 2075 
Q 2384 2075 2632 2365 
Q 2881 2656 2881 3163 
Q 2881 3666 2632 3958 
Q 2384 4250 1959 4250 
Q 1534 4250 1286 3958 
Q 1038 3666 1038 3163 
Q 1038 2656 1286 2365 
Q 1534 2075 1959 2075 
z
" transform="scale(0.015625)"/>
       </defs>
       <use xlink:href="#DejaVuSans-32"/>
       <use xlink:href="#DejaVuSans-30" x="63.623047"/>
       <use xlink:href="#DejaVuSans-32" x="127.246094"/>
       <use xlink:href="#DejaVuSans-33" x="190.869141"/>
       <use xlink:href="#DejaVuSans-2d" x="254.492188"/>
       <use xlink:href="#DejaVuSans-30" x="290.576172"/>
       <use xlink:href="#DejaVuSans-39" x="354.199219"/>
      </g>
     </g>
    </g>
    <g id="xtick_6">
     <g id="line2d_6">
      <g>
       <use xlink:href="#m8d85bc10b6" x="461.704531" y="315" style="stroke: #000000; stroke-width: 0.8"/>
      </g>
     </g>
     <g id="text_6">
      <!-- 2023-11 -->
      <g transform="translate(440.813124 329.598437)scale(0.1 -0.1)">
       <use xlink:href="#DejaVuSans-32"/>
       <use xlink:href="#DejaVuSans-30" x="63.623047"/>
       <use xlink:href="#DejaVuSans-32" x="127.246094"/>
       <use xlink:href="#DejaVuSans-33" x="190.869141"/>
       <use xlink:href="#DejaVuSans-2d" x="254.492188"/>
       <use xlink:href="#DejaVuSans-31" x="290.576172"/>
       <use xlink:href="#DejaVuSans-31" x="354.199219"/>
      </g>
     </g>
    </g>
   </g>
   <g id="matplotlib.axis_2">
    <g id="ytick_1">
     <g id="line2d_7">
      <defs>
       <path id="mdbd4b46b98" d="M 0 0 
L -3.5 0 
" style="stroke: #000000; stroke-width: 0.8"/>
      </defs>
      <g>
       <use xlink:href="#mdbd4b46b98" x="72" y="315" style="stroke: #000000; stroke-width: 0.8"/>
      </g>
     </g>
     <g id="text_7">
      <!-- 0 -->
      <g transform="translate(58.6375 318.799219)scale(0.1 -0.1)">
       <use xlink:href="#DejaVuSans-30"/>
      </g>
     </g>
    </g>
    <g id="ytick_2">
     <g id="line2d_8">
      <g>
       <use xlink:href="#mdbd4b46b98" x="72" y="284.281193" style="stroke: #000000; stroke-width: 0.8"/>
      </g>
     </g>
     <g id="text_8">
      <!-- 10 -->
      <g transform="translate(52.275 288.080412)scale(0.1 -0.1)">
       <use xlink:href="#DejaVuSans-31"/>
       <use xlink:href="#DejaVuSans-30" x="63.623047"/>
      </g>
     </g>
    </g>
    <g id="ytick_3">
     <g id="line2d_9">
      <g>
       <use xlink:href="#mdbd4b46b98" x="72" y="253.562387" style="stroke: #000000; stroke-width: 0.8"/>
      </g>
     </g>
     <g id="text_9">
      <!-- 20 -->
      <g transform="translate(52.275 257.361606)scale(0.1 -0.1)">
       <use xlink:href="#DejaVuSans-32"/>
       <use xlink:href="#DejaVuSans-30" x="63.623047"/>
      </g>
     </g>
    </g>
    <g id="ytick_4">
     <g id="line2d_10">
      <g>
       <use xlink:href="#mdbd4b46b98" x="72" y="222.84358" style="stroke: #000000; stroke-width: 0.8"/>
      </g>
     </g>
     <g id="text_10">
      <!-- 30 -->
      <g transform="translate(52.275 226.642799)scale(0.1 -0.1)">
       <use xlink:href="#DejaVuSans-33"/>
       <use xlink:href="#DejaVuSans-30" x="63.623047"/>
      </g>
     </g>
    </g>
    <g id="ytick_5">
     <g id="line2d_11">
      <g>
       <use xlink:href="#mdbd4b46b98" x="72" y="192.124774" style="stroke: #000000; stroke-width: 0.8"/>
      </g>
     </g>
     <g id="text_11">
      <!-- 40 -->
      <g transform="translate(52.275 195.923993)scale(0.1 -0.1)">
       <defs>
        <path id="DejaVuSans-34" d="M 2419 4116 
L 825 1625 
L 2419 1625 
L 2419 4116 
z
M 2253 4666 
L 3047 4666 
L 3047 1625 
L 3713 1625 
L 3713 1100 
L 3047 1100 
L 3047 0 
L 2419 0 
L 2419 1100 
L 313 1100 
L 313 1709 
L 2253 4666 
z
" transform="scale(0.015625)"/>
       </defs>
       <use xlink:href="#DejaVuSans-34"/>
       <use xlink:href="#DejaVuSans-30" x="63.623047"/>
      </g>
     </g>
    </g>
    <g id="ytick_6">
     <g id="line2d_12">
      <g>
       <use xlink:href="#mdbd4b46b98" x="72" y="161.405967" style="stroke: #000000; stroke-width: 0.8"/>
      </g>
     </g>
     <g id="text_12">
      <!-- 50 -->
      <g transform="translate(52.275 165.205186)scale(0.1 -0.1)">
       <use xlink:href="#DejaVuSans-35"/>
       <use xlink:href="#DejaVuSans-30" x="63.623047"/>
      </g>
     </g>
    </g>
    <g id="ytick_7">
     <g id="line2d_13">
      <g>
       <use xlink:href="#mdbd4b46b98" x="72" y="130.687161" style="stroke: #000000; stroke-width: 0.8"/>
      </g>
     </g>
     <g id="text_13">
      <!-- 60 -->
      <g transform="translate(52.275 134.48638)scale(0.1 -0.1)">
       <defs>
        <path id="DejaVuSans-36" d="M 2113 2584 
Q 1688 2584 1439 2293 
Q 1191 2003 1191 1497 
Q 1191 994 1439 701 
Q 1688 409 2113 409 
Q 2538 409 2786 701 
Q 3034 994 3034 1497 
Q 3034 2003 2786 2293 
Q 2538 2584 2113 2584 
z
M 3366 4563 
L 3366 3988 
Q 3128 4100 2886 4159 
Q 2644 4219 2406 4219 
Q 1781 4219 1451 3797 
Q 1122 3375 1075 2522 
Q 1259 2794 1537 2939 
Q 1816 3084 2150 3084 
Q 2853 3084 3261 2657 
Q 3669 2231 3669 1497 
Q 3669 778 3244 343 
Q 2819 -91 2113 -91 
Q 1303 -91 875 529 
Q 447 1150 447 2328 
Q 447 3434 972 4092 
Q 1497 4750 2381 4750 
Q 2619 4750 2861 4703 
Q 3103 4656 3366 4563 
z
" transform="scale(0.015625)"/>
       </defs>
       <use xlink:href="#DejaVuSans-36"/>
       <use xlink:href="#DejaVuSans-30" x="63.623047"/>
      </g>
     </g>
    </g>
    <g id="ytick_8">
     <g id="line2d_14">
      <g>
       <use xlink:href="#mdbd4b46b98" x="72" y="99.968354" style="stroke: #000000; stroke-width: 0.8"/>
      </g>
     </g>
     <g id="text_14">
      <!-- 70 -->
      <g transform="translate(52.275 103.767573)scale(0.1 -0.1)">
       <use xlink:href="#DejaVuSans-37"/>
       <use xlink:href="#DejaVuSans-30" x="63.623047"/>
      </g>
     </g>
    </g>
    <g id="ytick_9">
     <g id="line2d_15">
      <g>
       <use xlink:href="#mdbd4b46b98" x="72" y="69.249548" style="stroke: #000000; stroke-width: 0.8"/>
      </g>
     </g>
     <g id="text_15">
      <!-- 80 -->
      <g transform="translate(52.275 73.048767)scale(0.1 -0.1)">
       <defs>
        <path id="DejaVuSans-38" d="M 2034 2216 
Q 1584 2216 1326 1975 
Q 1069 1734 1069 1313 
Q 1069 891 1326 650 
Q 1584 409 2034 409 
Q 2484 409 2743 651 
Q 3003 894 3003 1313 
Q 3003 1734 2745 1975 
Q 2488 2216 2034 2216 
z
M 1403 2484 
Q 997 2584 770 2862 
Q 544 3141 544 3541 
Q 544 4100 942 4425 
Q 1341 4750 2034 4750 
Q 2731 4750 3128 4425 
Q 3525 4100 3525 3541 
Q 3525 3141 3298 2862 
Q 3072 2584 2669 2484 
Q 3125 2378 3379 2068 
Q 3634 1759 3634 1313 
Q 3634 634 3220 271 
Q 2806 -91 2034 -91 
Q 1263 -91 848 271 
Q 434 634 434 1313 
Q 434 1759 690 2068 
Q 947 2378 1403 2484 
z
M 1172 3481 
Q 1172 3119 1398 2916 
Q 1625 2713 2034 2713 
Q 2441 2713 2670 2916 
Q 2900 3119 2900 3481 
Q 2900 3844 2670 4047 
Q 2441 4250 2034 4250 
Q 1625 4250 1398 4047 
Q 1172 3844 1172 3481 
z
" transform="scale(0.015625)"/>
       </defs>
       <use xlink:href="#DejaVuSans-38"/>
       <use xlink:href="#DejaVuSans-30" x="63.623047"/>
      </g>
     </g>
    </g>
    <g id="text_16">
     <!-- mg/kgSoil -->
     <g transform="translate(46.195312 203.910156)rotate(-90)scale(0.1 -0.1)">
      <defs>
       <path id="DejaVuSans-6d" d="M 3328 2828 
Q 3544 3216 3844 3400 
Q 4144 3584 4550 3584 
Q 5097 3584 5394 3201 
Q 5691 2819 5691 2113 
L 5691 0 
L 5113 0 
L 5113 2094 
Q 5113 2597 4934 2840 
Q 4756 3084 4391 3084 
Q 3944 3084 3684 2787 
Q 3425 2491 3425 1978 
L 3425 0 
L 2847 0 
L 2847 2094 
Q 2847 2600 2669 2842 
Q 2491 3084 2119 3084 
Q 1678 3084 1418 2786 
Q 1159 2488 1159 1978 
L 1159 0 
L 581 0 
L 581 3500 
L 1159 3500 
L 1159 2956 
Q 1356 3278 1631 3431 
Q 1906 3584 2284 3584 
Q 2666 3584 2933 3390 
Q 3200 3197 3328 2828 
z
" transform="scale(0.015625)"/>
       <path id="DejaVuSans-67" d="M 2906 1791 
Q 2906 2416 2648 2759 
Q 2391 3103 1925 3103 
Q 1463 3103 1205 2759 
Q 947 2416 947 1791 
Q 947 1169 1205 825 
Q 1463 481 1925 481 
Q 2391 481 2648 825 
Q 2906 1169 2906 1791 
z
M 3481 434 
Q 3481 -459 3084 -895 
Q 2688 -1331 1869 -1331 
Q 1566 -1331 1297 -1286 
Q 1028 -1241 775 -1147 
L 775 -588 
Q 1028 -725 1275 -790 
Q 1522 -856 1778 -856 
Q 2344 -856 2625 -561 
Q 2906 -266 2906 331 
L 2906 616 
Q 2728 306 2450 153 
Q 2172 0 1784 0 
Q 1141 0 747 490 
Q 353 981 353 1791 
Q 353 2603 747 3093 
Q 1141 3584 1784 3584 
Q 2172 3584 2450 3431 
Q 2728 3278 2906 2969 
L 2906 3500 
L 3481 3500 
L 3481 434 
z
" transform="scale(0.015625)"/>
       <path id="DejaVuSans-2f" d="M 1625 4666 
L 2156 4666 
L 531 -594 
L 0 -594 
L 1625 4666 
z
" transform="scale(0.015625)"/>
       <path id="DejaVuSans-6b" d="M 581 4863 
L 1159 4863 
L 1159 1991 
L 2875 3500 
L 3609 3500 
L 1753 1863 
L 3688 0 
L 2938 0 
L 1159 1709 
L 1159 0 
L 581 0 
L 581 4863 
z
" transform="scale(0.015625)"/>
       <path id="DejaVuSans-53" d="M 3425 4513 
L 3425 3897 
Q 3066 4069 2747 4153 
Q 2428 4238 2131 4238 
Q 1616 4238 1336 4038 
Q 1056 3838 1056 3469 
Q 1056 3159 1242 3001 
Q 1428 2844 1947 2747 
L 2328 2669 
Q 3034 2534 3370 2195 
Q 3706 1856 3706 1288 
Q 3706 609 3251 259 
Q 2797 -91 1919 -91 
Q 1588 -91 1214 -16 
Q 841 59 441 206 
L 441 856 
Q 825 641 1194 531 
Q 1563 422 1919 422 
Q 2459 422 2753 634 
Q 3047 847 3047 1241 
Q 3047 1584 2836 1778 
Q 2625 1972 2144 2069 
L 1759 2144 
Q 1053 2284 737 2584 
Q 422 2884 422 3419 
Q 422 4038 858 4394 
Q 1294 4750 2059 4750 
Q 2388 4750 2728 4690 
Q 3069 4631 3425 4513 
z
" transform="scale(0.015625)"/>
       <path id="DejaVuSans-6f" d="M 1959 3097 
Q 1497 3097 1228 2736 
Q 959 2375 959 1747 
Q 959 1119 1226 758 
Q 1494 397 1959 397 
Q 2419 397 2687 759 
Q 2956 1122 2956 1747 
Q 2956 2369 2687 2733 
Q 2419 3097 1959 3097 
z
M 1959 3584 
Q 2709 3584 3137 3096 
Q 3566 2609 3566 1747 
Q 3566 888 3137 398 
Q 2709 -91 1959 -91 
Q 1206 -91 779 398 
Q 353 888 353 1747 
Q 353 2609 779 3096 
Q 1206 3584 1959 3584 
z
" transform="scale(0.015625)"/>
       <path id="DejaVuSans-69" d="M 603 3500 
L 1178 3500 
L 1178 0 
L 603 0 
L 603 3500 
z
M 603 4863 
L 1178 4863 
L 1178 4134 
L 603 4134 
L 603 4863 
z
" transform="scale(0.015625)"/>
       <path id="DejaVuSans-6c" d="M 603 4863 
L 1178 4863 
L 1178 0 
L 603 0 
L 603 4863 
z
" transform="scale(0.015625)"/>
      </defs>
      <use xlink:href="#DejaVuSans-6d"/>
      <use xlink:href="#DejaVuSans-67" x="97.412109"/>
      <use xlink:href="#DejaVuSans-2f" x="160.888672"/>
      <use xlink:href="#DejaVuSans-6b" x="194.580078"/>
      <use xlink:href="#DejaVuSans-67" x="252.490234"/>
      <use xlink:href="#DejaVuSans-53" x="315.966797"/>
      <use xlink:href="#DejaVuSans-6f" x="379.443359"/>
      <use xlink:href="#DejaVuSans-69" x="440.625"/>
      <use xlink:href="#DejaVuSans-6c" x="468.408203"/>
     </g>
    </g>
   </g>
   <g id="line2d_16">
    <path d="M 246.61831 315 
L 246.61831 -1 
" clip-path="url(#p4fc9dd6ff3)" style="fill: none; stroke-dasharray: 5.55,2.4; stroke-dashoffset: 0; stroke: #808080; stroke-opacity: 0.5; stroke-width: 1.5"/>
   </g>
   <g id="patch_35">
    <path d="M 72 315 
L 72 43.2 
" style="fill: none; stroke: #000000; stroke-width: 0.8; stroke-linejoin: miter; stroke-linecap: square"/>
   </g>
   <g id="patch_36">
    <path d="M 518.4 315 
L 518.4 43.2 
" style="fill: none; stroke: #000000; stroke-width: 0.8; stroke-linejoin: miter; stroke-linecap: square"/>
   </g>
   <g id="patch_37">
    <path d="M 72 315 
L 518.4 315 
" style="fill: none; stroke: #000000; stroke-width: 0.8; stroke-linejoin: miter; stroke-linecap: square"/>
   </g>
   <g id="patch_38">
    <path d="M 72 43.2 
L 518.4 43.2 
" style="fill: none; stroke: #000000; stroke-width: 0.8; stroke-linejoin: miter; stroke-linecap: square"/>
   </g>
   <g id="text_17">
    <!-- Nitrate -->
    <g transform="translate(274.504687 37.2)scale(0.12 -0.12)">
     <defs>
      <path id="DejaVuSans-4e" d="M 628 4666 
L 1478 4666 
L 3547 763 
L 3547 4666 
L 4159 4666 
L 4159 0 
L 3309 0 
L 1241 3903 
L 1241 0 
L 628 0 
L 628 4666 
z
" transform="scale(0.015625)"/>
      <path id="DejaVuSans-74" d="M 1172 4494 
L 1172 3500 
L 2356 3500 
L 2356 3053 
L 1172 3053 
L 1172 1153 
Q 1172 725 1289 603 
Q 1406 481 1766 481 
L 2356 481 
L 2356 0 
L 1766 0 
Q 1100 0 847 248 
Q 594 497 594 1153 
L 594 3053 
L 172 3053 
L 172 3500 
L 594 3500 
L 594 4494 
L 1172 4494 
z
" transform="scale(0.015625)"/>
      <path id="DejaVuSans-72" d="M 2631 2963 
Q 2534 3019 2420 3045 
Q 2306 3072 2169 3072 
Q 1681 3072 1420 2755 
Q 1159 2438 1159 1844 
L 1159 0 
L 581 0 
L 581 3500 
L 1159 3500 
L 1159 2956 
Q 1341 3275 1631 3429 
Q 1922 3584 2338 3584 
Q 2397 3584 2469 3576 
Q 2541 3569 2628 3553 
L 2631 2963 
z
" transform="scale(0.015625)"/>
      <path id="DejaVuSans-61" d="M 2194 1759 
Q 1497 1759 1228 1600 
Q 959 1441 959 1056 
Q 959 750 1161 570 
Q 1363 391 1709 391 
Q 2188 391 2477 730 
Q 2766 1069 2766 1631 
L 2766 1759 
L 2194 1759 
z
M 3341 1997 
L 3341 0 
L 2766 0 
L 2766 531 
Q 2569 213 2275 61 
Q 1981 -91 1556 -91 
Q 1019 -91 701 211 
Q 384 513 384 1019 
Q 384 1609 779 1909 
Q 1175 2209 1959 2209 
L 2766 2209 
L 2766 2266 
Q 2766 2663 2505 2880 
Q 2244 3097 1772 3097 
Q 1472 3097 1187 3025 
Q 903 2953 641 2809 
L 641 3341 
Q 956 3463 1253 3523 
Q 1550 3584 1831 3584 
Q 2591 3584 2966 3190 
Q 3341 2797 3341 1997 
z
" transform="scale(0.015625)"/>
      <path id="DejaVuSans-65" d="M 3597 1894 
L 3597 1613 
L 953 1613 
Q 991 1019 1311 708 
Q 1631 397 2203 397 
Q 2534 397 2845 478 
Q 3156 559 3463 722 
L 3463 178 
Q 3153 47 2828 -22 
Q 2503 -91 2169 -91 
Q 1331 -91 842 396 
Q 353 884 353 1716 
Q 353 2575 817 3079 
Q 1281 3584 2069 3584 
Q 2775 3584 3186 3129 
Q 3597 2675 3597 1894 
z
M 3022 2063 
Q 3016 2534 2758 2815 
Q 2500 3097 2075 3097 
Q 1594 3097 1305 2825 
Q 1016 2553 972 2059 
L 3022 2063 
z
" transform="scale(0.015625)"/>
     </defs>
     <use xlink:href="#DejaVuSans-4e"/>
     <use xlink:href="#DejaVuSans-69" x="74.804688"/>
     <use xlink:href="#DejaVuSans-74" x="102.587891"/>
     <use xlink:href="#DejaVuSans-72" x="141.796875"/>
     <use xlink:href="#DejaVuSans-61" x="182.910156"/>
     <use xlink:href="#DejaVuSans-74" x="244.189453"/>
     <use xlink:href="#DejaVuSans-65" x="283.398438"/>
    </g>
   </g>
   <g id="legend_1">
    <g id="patch_39">
     <path d="M 79 124.590625 
L 214.371875 124.590625 
Q 216.371875 124.590625 216.371875 122.590625 
L 216.371875 50.2 
Q 216.371875 48.2 214.371875 48.2 
L 79 48.2 
Q 77 48.2 77 50.2 
L 77 122.590625 
Q 77 124.590625 79 124.590625 
z
" style="fill: #ffffff; opacity: 0.8; stroke: #cccccc; stroke-linejoin: miter"/>
    </g>
    <g id="line2d_17">
     <path d="M 81 56.298437 
L 91 56.298437 
L 101 56.298437 
" style="fill: none; stroke-dasharray: 5.55,2.4; stroke-dashoffset: 0; stroke: #808080; stroke-opacity: 0.5; stroke-width: 1.5"/>
    </g>
    <g id="text_18">
     <!-- Fertilisation begin -->
     <g transform="translate(109 59.798437)scale(0.1 -0.1)">
      <defs>
       <path id="DejaVuSans-46" d="M 628 4666 
L 3309 4666 
L 3309 4134 
L 1259 4134 
L 1259 2759 
L 3109 2759 
L 3109 2228 
L 1259 2228 
L 1259 0 
L 628 0 
L 628 4666 
z
" transform="scale(0.015625)"/>
       <path id="DejaVuSans-73" d="M 2834 3397 
L 2834 2853 
Q 2591 2978 2328 3040 
Q 2066 3103 1784 3103 
Q 1356 3103 1142 2972 
Q 928 2841 928 2578 
Q 928 2378 1081 2264 
Q 1234 2150 1697 2047 
L 1894 2003 
Q 2506 1872 2764 1633 
Q 3022 1394 3022 966 
Q 3022 478 2636 193 
Q 2250 -91 1575 -91 
Q 1294 -91 989 -36 
Q 684 19 347 128 
L 347 722 
Q 666 556 975 473 
Q 1284 391 1588 391 
Q 1994 391 2212 530 
Q 2431 669 2431 922 
Q 2431 1156 2273 1281 
Q 2116 1406 1581 1522 
L 1381 1569 
Q 847 1681 609 1914 
Q 372 2147 372 2553 
Q 372 3047 722 3315 
Q 1072 3584 1716 3584 
Q 2034 3584 2315 3537 
Q 2597 3491 2834 3397 
z
" transform="scale(0.015625)"/>
       <path id="DejaVuSans-6e" d="M 3513 2113 
L 3513 0 
L 2938 0 
L 2938 2094 
Q 2938 2591 2744 2837 
Q 2550 3084 2163 3084 
Q 1697 3084 1428 2787 
Q 1159 2491 1159 1978 
L 1159 0 
L 581 0 
L 581 3500 
L 1159 3500 
L 1159 2956 
Q 1366 3272 1645 3428 
Q 1925 3584 2291 3584 
Q 2894 3584 3203 3211 
Q 3513 2838 3513 2113 
z
" transform="scale(0.015625)"/>
       <path id="DejaVuSans-20" transform="scale(0.015625)"/>
       <path id="DejaVuSans-62" d="M 3116 1747 
Q 3116 2381 2855 2742 
Q 2594 3103 2138 3103 
Q 1681 3103 1420 2742 
Q 1159 2381 1159 1747 
Q 1159 1113 1420 752 
Q 1681 391 2138 391 
Q 2594 391 2855 752 
Q 3116 1113 3116 1747 
z
M 1159 2969 
Q 1341 3281 1617 3432 
Q 1894 3584 2278 3584 
Q 2916 3584 3314 3078 
Q 3713 2572 3713 1747 
Q 3713 922 3314 415 
Q 2916 -91 2278 -91 
Q 1894 -91 1617 61 
Q 1341 213 1159 525 
L 1159 0 
L 581 0 
L 581 4863 
L 1159 4863 
L 1159 2969 
z
" transform="scale(0.015625)"/>
      </defs>
      <use xlink:href="#DejaVuSans-46"/>
      <use xlink:href="#DejaVuSans-65" x="52.019531"/>
      <use xlink:href="#DejaVuSans-72" x="113.542969"/>
      <use xlink:href="#DejaVuSans-74" x="154.65625"/>
      <use xlink:href="#DejaVuSans-69" x="193.865234"/>
      <use xlink:href="#DejaVuSans-6c" x="221.648438"/>
      <use xlink:href="#DejaVuSans-69" x="249.431641"/>
      <use xlink:href="#DejaVuSans-73" x="277.214844"/>
      <use xlink:href="#DejaVuSans-61" x="329.314453"/>
      <use xlink:href="#DejaVuSans-74" x="390.59375"/>
      <use xlink:href="#DejaVuSans-69" x="429.802734"/>
      <use xlink:href="#DejaVuSans-6f" x="457.585938"/>
      <use xlink:href="#DejaVuSans-6e" x="518.767578"/>
      <use xlink:href="#DejaVuSans-20" x="582.146484"/>
      <use xlink:href="#DejaVuSans-62" x="613.933594"/>
      <use xlink:href="#DejaVuSans-65" x="677.410156"/>
      <use xlink:href="#DejaVuSans-67" x="738.933594"/>
      <use xlink:href="#DejaVuSans-69" x="802.410156"/>
      <use xlink:href="#DejaVuSans-6e" x="830.193359"/>
     </g>
    </g>
    <g id="patch_40">
     <path d="M 81 74.476562 
L 101 74.476562 
L 101 67.476562 
L 81 67.476562 
z
" style="fill: #ee82ee"/>
    </g>
    <g id="text_19">
     <!-- CLM-FANv3 Clarion -->
     <g transform="translate(109 74.476562)scale(0.1 -0.1)">
      <defs>
       <path id="DejaVuSans-43" d="M 4122 4306 
L 4122 3641 
Q 3803 3938 3442 4084 
Q 3081 4231 2675 4231 
Q 1875 4231 1450 3742 
Q 1025 3253 1025 2328 
Q 1025 1406 1450 917 
Q 1875 428 2675 428 
Q 3081 428 3442 575 
Q 3803 722 4122 1019 
L 4122 359 
Q 3791 134 3420 21 
Q 3050 -91 2638 -91 
Q 1578 -91 968 557 
Q 359 1206 359 2328 
Q 359 3453 968 4101 
Q 1578 4750 2638 4750 
Q 3056 4750 3426 4639 
Q 3797 4528 4122 4306 
z
" transform="scale(0.015625)"/>
       <path id="DejaVuSans-4c" d="M 628 4666 
L 1259 4666 
L 1259 531 
L 3531 531 
L 3531 0 
L 628 0 
L 628 4666 
z
" transform="scale(0.015625)"/>
       <path id="DejaVuSans-4d" d="M 628 4666 
L 1569 4666 
L 2759 1491 
L 3956 4666 
L 4897 4666 
L 4897 0 
L 4281 0 
L 4281 4097 
L 3078 897 
L 2444 897 
L 1241 4097 
L 1241 0 
L 628 0 
L 628 4666 
z
" transform="scale(0.015625)"/>
       <path id="DejaVuSans-41" d="M 2188 4044 
L 1331 1722 
L 3047 1722 
L 2188 4044 
z
M 1831 4666 
L 2547 4666 
L 4325 0 
L 3669 0 
L 3244 1197 
L 1141 1197 
L 716 0 
L 50 0 
L 1831 4666 
z
" transform="scale(0.015625)"/>
       <path id="DejaVuSans-76" d="M 191 3500 
L 800 3500 
L 1894 563 
L 2988 3500 
L 3597 3500 
L 2284 0 
L 1503 0 
L 191 3500 
z
" transform="scale(0.015625)"/>
      </defs>
      <use xlink:href="#DejaVuSans-43"/>
      <use xlink:href="#DejaVuSans-4c" x="69.824219"/>
      <use xlink:href="#DejaVuSans-4d" x="125.537109"/>
      <use xlink:href="#DejaVuSans-2d" x="211.816406"/>
      <use xlink:href="#DejaVuSans-46" x="247.900391"/>
      <use xlink:href="#DejaVuSans-41" x="296.294922"/>
      <use xlink:href="#DejaVuSans-4e" x="364.703125"/>
      <use xlink:href="#DejaVuSans-76" x="439.507812"/>
      <use xlink:href="#DejaVuSans-33" x="498.6875"/>
      <use xlink:href="#DejaVuSans-20" x="562.310547"/>
      <use xlink:href="#DejaVuSans-43" x="594.097656"/>
      <use xlink:href="#DejaVuSans-6c" x="663.921875"/>
      <use xlink:href="#DejaVuSans-61" x="691.705078"/>
      <use xlink:href="#DejaVuSans-72" x="752.984375"/>
      <use xlink:href="#DejaVuSans-69" x="794.097656"/>
      <use xlink:href="#DejaVuSans-6f" x="821.880859"/>
      <use xlink:href="#DejaVuSans-6e" x="883.0625"/>
     </g>
    </g>
    <g id="patch_41">
     <path d="M 81 89.154687 
L 101 89.154687 
L 101 82.154687 
L 81 82.154687 
z
" style="fill: #800000"/>
    </g>
    <g id="text_20">
     <!-- CLM-FANv3 Webster -->
     <g transform="translate(109 89.154687)scale(0.1 -0.1)">
      <defs>
       <path id="DejaVuSans-57" d="M 213 4666 
L 850 4666 
L 1831 722 
L 2809 4666 
L 3519 4666 
L 4500 722 
L 5478 4666 
L 6119 4666 
L 4947 0 
L 4153 0 
L 3169 4050 
L 2175 0 
L 1381 0 
L 213 4666 
z
" transform="scale(0.015625)"/>
      </defs>
      <use xlink:href="#DejaVuSans-43"/>
      <use xlink:href="#DejaVuSans-4c" x="69.824219"/>
      <use xlink:href="#DejaVuSans-4d" x="125.537109"/>
      <use xlink:href="#DejaVuSans-2d" x="211.816406"/>
      <use xlink:href="#DejaVuSans-46" x="247.900391"/>
      <use xlink:href="#DejaVuSans-41" x="296.294922"/>
      <use xlink:href="#DejaVuSans-4e" x="364.703125"/>
      <use xlink:href="#DejaVuSans-76" x="439.507812"/>
      <use xlink:href="#DejaVuSans-33" x="498.6875"/>
      <use xlink:href="#DejaVuSans-20" x="562.310547"/>
      <use xlink:href="#DejaVuSans-57" x="594.097656"/>
      <use xlink:href="#DejaVuSans-65" x="687.099609"/>
      <use xlink:href="#DejaVuSans-62" x="748.623047"/>
      <use xlink:href="#DejaVuSans-73" x="812.099609"/>
      <use xlink:href="#DejaVuSans-74" x="864.199219"/>
      <use xlink:href="#DejaVuSans-65" x="903.408203"/>
      <use xlink:href="#DejaVuSans-72" x="964.931641"/>
     </g>
    </g>
    <g id="patch_42">
     <path d="M 81 103.832812 
L 101 103.832812 
L 101 96.832812 
L 81 96.832812 
z
" style="fill: #6495ed"/>
    </g>
    <g id="text_21">
     <!-- MESOCOSM Clarion -->
     <g transform="translate(109 103.832812)scale(0.1 -0.1)">
      <defs>
       <path id="DejaVuSans-45" d="M 628 4666 
L 3578 4666 
L 3578 4134 
L 1259 4134 
L 1259 2753 
L 3481 2753 
L 3481 2222 
L 1259 2222 
L 1259 531 
L 3634 531 
L 3634 0 
L 628 0 
L 628 4666 
z
" transform="scale(0.015625)"/>
       <path id="DejaVuSans-4f" d="M 2522 4238 
Q 1834 4238 1429 3725 
Q 1025 3213 1025 2328 
Q 1025 1447 1429 934 
Q 1834 422 2522 422 
Q 3209 422 3611 934 
Q 4013 1447 4013 2328 
Q 4013 3213 3611 3725 
Q 3209 4238 2522 4238 
z
M 2522 4750 
Q 3503 4750 4090 4092 
Q 4678 3434 4678 2328 
Q 4678 1225 4090 567 
Q 3503 -91 2522 -91 
Q 1538 -91 948 565 
Q 359 1222 359 2328 
Q 359 3434 948 4092 
Q 1538 4750 2522 4750 
z
" transform="scale(0.015625)"/>
      </defs>
      <use xlink:href="#DejaVuSans-4d"/>
      <use xlink:href="#DejaVuSans-45" x="86.279297"/>
      <use xlink:href="#DejaVuSans-53" x="149.462891"/>
      <use xlink:href="#DejaVuSans-4f" x="212.939453"/>
      <use xlink:href="#DejaVuSans-43" x="291.650391"/>
      <use xlink:href="#DejaVuSans-4f" x="361.474609"/>
      <use xlink:href="#DejaVuSans-53" x="440.185547"/>
      <use xlink:href="#DejaVuSans-4d" x="503.662109"/>
      <use xlink:href="#DejaVuSans-20" x="589.941406"/>
      <use xlink:href="#DejaVuSans-43" x="621.728516"/>
      <use xlink:href="#DejaVuSans-6c" x="691.552734"/>
      <use xlink:href="#DejaVuSans-61" x="719.335938"/>
      <use xlink:href="#DejaVuSans-72" x="780.615234"/>
      <use xlink:href="#DejaVuSans-69" x="821.728516"/>
      <use xlink:href="#DejaVuSans-6f" x="849.511719"/>
      <use xlink:href="#DejaVuSans-6e" x="910.693359"/>
     </g>
    </g>
    <g id="patch_43">
     <path d="M 81 118.510937 
L 101 118.510937 
L 101 111.510937 
L 81 111.510937 
z
" style="fill: #32cd32"/>
    </g>
    <g id="text_22">
     <!-- MESOCOSM Webster -->
     <g transform="translate(109 118.510937)scale(0.1 -0.1)">
      <use xlink:href="#DejaVuSans-4d"/>
      <use xlink:href="#DejaVuSans-45" x="86.279297"/>
      <use xlink:href="#DejaVuSans-53" x="149.462891"/>
      <use xlink:href="#DejaVuSans-4f" x="212.939453"/>
      <use xlink:href="#DejaVuSans-43" x="291.650391"/>
      <use xlink:href="#DejaVuSans-4f" x="361.474609"/>
      <use xlink:href="#DejaVuSans-53" x="440.185547"/>
      <use xlink:href="#DejaVuSans-4d" x="503.662109"/>
      <use xlink:href="#DejaVuSans-20" x="589.941406"/>
      <use xlink:href="#DejaVuSans-57" x="621.728516"/>
      <use xlink:href="#DejaVuSans-65" x="714.730469"/>
      <use xlink:href="#DejaVuSans-62" x="776.253906"/>
      <use xlink:href="#DejaVuSans-73" x="839.730469"/>
      <use xlink:href="#DejaVuSans-74" x="891.830078"/>
      <use xlink:href="#DejaVuSans-65" x="931.039062"/>
      <use xlink:href="#DejaVuSans-72" x="992.5625"/>
     </g>
    </g>
   </g>
  </g>
  <g id="axes_2">
   <g id="matplotlib.axis_3">
    <g id="ytick_10">
     <g id="line2d_18">
      <defs>
       <path id="m5435f0d9b7" d="M 0 0 
L 3.5 0 
" style="stroke: #000000; stroke-width: 0.8"/>
      </defs>
      <g>
       <use xlink:href="#m5435f0d9b7" x="518.4" y="302.766298" style="stroke: #000000; stroke-width: 0.8"/>
      </g>
     </g>
     <g id="text_23">
      <!-- 0 -->
      <g transform="translate(525.4 306.565517)scale(0.1 -0.1)">
       <use xlink:href="#DejaVuSans-30"/>
      </g>
     </g>
    </g>
    <g id="ytick_11">
     <g id="line2d_19">
      <g>
       <use xlink:href="#m5435f0d9b7" x="518.4" y="250.561919" style="stroke: #000000; stroke-width: 0.8"/>
      </g>
     </g>
     <g id="text_24">
      <!-- 1 -->
      <g transform="translate(525.4 254.361138)scale(0.1 -0.1)">
       <use xlink:href="#DejaVuSans-31"/>
      </g>
     </g>
    </g>
    <g id="ytick_12">
     <g id="line2d_20">
      <g>
       <use xlink:href="#m5435f0d9b7" x="518.4" y="198.35754" style="stroke: #000000; stroke-width: 0.8"/>
      </g>
     </g>
     <g id="text_25">
      <!-- 2 -->
      <g transform="translate(525.4 202.156759)scale(0.1 -0.1)">
       <use xlink:href="#DejaVuSans-32"/>
      </g>
     </g>
    </g>
    <g id="ytick_13">
     <g id="line2d_21">
      <g>
       <use xlink:href="#m5435f0d9b7" x="518.4" y="146.153161" style="stroke: #000000; stroke-width: 0.8"/>
      </g>
     </g>
     <g id="text_26">
      <!-- 3 -->
      <g transform="translate(525.4 149.95238)scale(0.1 -0.1)">
       <use xlink:href="#DejaVuSans-33"/>
      </g>
     </g>
    </g>
    <g id="ytick_14">
     <g id="line2d_22">
      <g>
       <use xlink:href="#m5435f0d9b7" x="518.4" y="93.948782" style="stroke: #000000; stroke-width: 0.8"/>
      </g>
     </g>
     <g id="text_27">
      <!-- 4 -->
      <g transform="translate(525.4 97.748)scale(0.1 -0.1)">
       <use xlink:href="#DejaVuSans-34"/>
      </g>
     </g>
    </g>
    <g id="text_28">
     <!-- gN/m3/s -->
     <g transform="translate(543.360937 200.039844)rotate(-90)scale(0.1 -0.1)">
      <use xlink:href="#DejaVuSans-67"/>
      <use xlink:href="#DejaVuSans-4e" x="63.476562"/>
      <use xlink:href="#DejaVuSans-2f" x="138.28125"/>
      <use xlink:href="#DejaVuSans-6d" x="171.972656"/>
      <use xlink:href="#DejaVuSans-33" x="269.384766"/>
      <use xlink:href="#DejaVuSans-2f" x="333.007812"/>
      <use xlink:href="#DejaVuSans-73" x="366.699219"/>
     </g>
    </g>
    <g id="text_29">
     <!-- 1e−7 -->
     <g transform="translate(491.142187 40.2)scale(0.1 -0.1)">
      <defs>
       <path id="DejaVuSans-2212" d="M 678 2272 
L 4684 2272 
L 4684 1741 
L 678 1741 
L 678 2272 
z
" transform="scale(0.015625)"/>
      </defs>
      <use xlink:href="#DejaVuSans-31"/>
      <use xlink:href="#DejaVuSans-65" x="63.623047"/>
      <use xlink:href="#DejaVuSans-2212" x="125.146484"/>
      <use xlink:href="#DejaVuSans-37" x="208.935547"/>
     </g>
    </g>
   </g>
   <g id="PathCollection_1">
    <defs>
     <path id="me314b48915" d="M 0 3 
C 0.795609 3 1.55874 2.683901 2.12132 2.12132 
C 2.683901 1.55874 3 0.795609 3 0 
C 3 -0.795609 2.683901 -1.55874 2.12132 -2.12132 
C 1.55874 -2.683901 0.795609 -3 0 -3 
C -0.795609 -3 -1.55874 -2.683901 -2.12132 -2.12132 
C -2.683901 -1.55874 -3 -0.795609 -3 0 
C -3 0.795609 -2.683901 1.55874 -2.12132 2.12132 
C -1.55874 2.683901 -0.795609 3 0 3 
z
" style="stroke: #ff8c00"/>
    </defs>
    <g clip-path="url(#p4fc9dd6ff3)">
     <use xlink:href="#me314b48915" x="195.580902" y="250.322639" style="fill: #ff8c00; stroke: #ff8c00"/>
     <use xlink:href="#me314b48915" x="204.087137" y="265.729213" style="fill: #ff8c00; stroke: #ff8c00"/>
     <use xlink:href="#me314b48915" x="212.593371" y="292.22587" style="fill: #ff8c00; stroke: #ff8c00"/>
     <use xlink:href="#me314b48915" x="229.605841" y="260.089995" style="fill: #ff8c00; stroke: #ff8c00"/>
     <use xlink:href="#me314b48915" x="246.61831" y="255.3894" style="fill: #ff8c00; stroke: #ff8c00"/>
     <use xlink:href="#me314b48915" x="251.479016" y="55.554545" style="fill: #ff8c00; stroke: #ff8c00"/>
     <use xlink:href="#me314b48915" x="255.124545" y="124.346957" style="fill: #ff8c00; stroke: #ff8c00"/>
     <use xlink:href="#me314b48915" x="259.98525" y="258.532553" style="fill: #ff8c00; stroke: #ff8c00"/>
     <use xlink:href="#me314b48915" x="276.99772" y="298.395018" style="fill: #ff8c00; stroke: #ff8c00"/>
     <use xlink:href="#me314b48915" x="300.086071" y="291.233084" style="fill: #ff8c00; stroke: #ff8c00"/>
     <use xlink:href="#me314b48915" x="309.807482" y="253.690632" style="fill: #ff8c00; stroke: #ff8c00"/>
     <use xlink:href="#me314b48915" x="328.035128" y="265.759462" style="fill: #ff8c00; stroke: #ff8c00"/>
     <use xlink:href="#me314b48915" x="357.199361" y="263.04656" style="fill: #ff8c00; stroke: #ff8c00"/>
     <use xlink:href="#me314b48915" x="359.629714" y="297.041339" style="fill: #ff8c00; stroke: #ff8c00"/>
     <use xlink:href="#me314b48915" x="362.060067" y="294.88529" style="fill: #ff8c00; stroke: #ff8c00"/>
     <use xlink:href="#me314b48915" x="368.135949" y="300.508338" style="fill: #ff8c00; stroke: #ff8c00"/>
     <use xlink:href="#me314b48915" x="417.958181" y="301.384654" style="fill: #ff8c00; stroke: #ff8c00"/>
     <use xlink:href="#me314b48915" x="442.261708" y="299.56878" style="fill: #ff8c00; stroke: #ff8c00"/>
     <use xlink:href="#me314b48915" x="451.983119" y="298.168456" style="fill: #ff8c00; stroke: #ff8c00"/>
     <use xlink:href="#me314b48915" x="455.628649" y="298.867082" style="fill: #ff8c00; stroke: #ff8c00"/>
     <use xlink:href="#me314b48915" x="459.274178" y="299.189331" style="fill: #ff8c00; stroke: #ff8c00"/>
    </g>
   </g>
   <g id="PathCollection_2">
    <defs>
     <path id="m58436d70e2" d="M 0 3 
C 0.795609 3 1.55874 2.683901 2.12132 2.12132 
C 2.683901 1.55874 3 0.795609 3 0 
C 3 -0.795609 2.683901 -1.55874 2.12132 -2.12132 
C 1.55874 -2.683901 0.795609 -3 0 -3 
C -0.795609 -3 -1.55874 -2.683901 -2.12132 -2.12132 
C -2.683901 -1.55874 -3 -0.795609 -3 0 
C -3 0.795609 -2.683901 1.55874 -2.12132 2.12132 
C -1.55874 2.683901 -0.795609 3 0 3 
z
" style="stroke: #8fbc8f"/>
    </defs>
    <g clip-path="url(#p4fc9dd6ff3)">
     <use xlink:href="#m58436d70e2" x="195.580902" y="291.563421" style="fill: #8fbc8f; stroke: #8fbc8f"/>
     <use xlink:href="#m58436d70e2" x="204.087137" y="297.17441" style="fill: #8fbc8f; stroke: #8fbc8f"/>
     <use xlink:href="#m58436d70e2" x="212.593371" y="301.563618" style="fill: #8fbc8f; stroke: #8fbc8f"/>
     <use xlink:href="#m58436d70e2" x="229.605841" y="296.902512" style="fill: #8fbc8f; stroke: #8fbc8f"/>
     <use xlink:href="#m58436d70e2" x="246.61831" y="302.597549" style="fill: #8fbc8f; stroke: #8fbc8f"/>
     <use xlink:href="#m58436d70e2" x="251.479016" y="296.924272" style="fill: #8fbc8f; stroke: #8fbc8f"/>
     <use xlink:href="#m58436d70e2" x="255.124545" y="300.489741" style="fill: #8fbc8f; stroke: #8fbc8f"/>
     <use xlink:href="#m58436d70e2" x="259.98525" y="300.057894" style="fill: #8fbc8f; stroke: #8fbc8f"/>
     <use xlink:href="#m58436d70e2" x="283.073602" y="302.379599" style="fill: #8fbc8f; stroke: #8fbc8f"/>
     <use xlink:href="#m58436d70e2" x="300.086071" y="302.524611" style="fill: #8fbc8f; stroke: #8fbc8f"/>
     <use xlink:href="#m58436d70e2" x="328.035128" y="297.015357" style="fill: #8fbc8f; stroke: #8fbc8f"/>
     <use xlink:href="#m58436d70e2" x="335.326186" y="302.645455" style="fill: #8fbc8f; stroke: #8fbc8f"/>
     <use xlink:href="#m58436d70e2" x="357.199361" y="283.151389" style="fill: #8fbc8f; stroke: #8fbc8f"/>
     <use xlink:href="#m58436d70e2" x="359.629714" y="298.356518" style="fill: #8fbc8f; stroke: #8fbc8f"/>
     <use xlink:href="#m58436d70e2" x="362.060067" y="298.876145" style="fill: #8fbc8f; stroke: #8fbc8f"/>
     <use xlink:href="#m58436d70e2" x="368.135949" y="302.150802" style="fill: #8fbc8f; stroke: #8fbc8f"/>
     <use xlink:href="#m58436d70e2" x="417.958181" y="301.189962" style="fill: #8fbc8f; stroke: #8fbc8f"/>
     <use xlink:href="#m58436d70e2" x="442.261708" y="298.617641" style="fill: #8fbc8f; stroke: #8fbc8f"/>
     <use xlink:href="#m58436d70e2" x="451.983119" y="301.040754" style="fill: #8fbc8f; stroke: #8fbc8f"/>
     <use xlink:href="#m58436d70e2" x="455.628649" y="301.9929" style="fill: #8fbc8f; stroke: #8fbc8f"/>
     <use xlink:href="#m58436d70e2" x="459.274178" y="297.930545" style="fill: #8fbc8f; stroke: #8fbc8f"/>
    </g>
   </g>
   <g id="patch_44">
    <path d="M 72 315 
L 72 43.2 
" style="fill: none; stroke: #000000; stroke-width: 0.8; stroke-linejoin: miter; stroke-linecap: square"/>
   </g>
   <g id="patch_45">
    <path d="M 518.4 315 
L 518.4 43.2 
" style="fill: none; stroke: #000000; stroke-width: 0.8; stroke-linejoin: miter; stroke-linecap: square"/>
   </g>
   <g id="patch_46">
    <path d="M 72 315 
L 518.4 315 
" style="fill: none; stroke: #000000; stroke-width: 0.8; stroke-linejoin: miter; stroke-linecap: square"/>
   </g>
   <g id="patch_47">
    <path d="M 72 43.2 
L 518.4 43.2 
" style="fill: none; stroke: #000000; stroke-width: 0.8; stroke-linejoin: miter; stroke-linecap: square"/>
   </g>
   <g id="legend_2">
    <g id="patch_48">
     <path d="M 366.8 80.6 
L 511.4 80.6 
Q 513.4 80.6 513.4 78.6 
L 513.4 50.2 
Q 513.4 48.2 511.4 48.2 
L 366.8 48.2 
Q 364.8 48.2 364.8 50.2 
L 364.8 78.6 
Q 364.8 80.6 366.8 80.6 
z
" style="fill: #ffffff; opacity: 0.8; stroke: #cccccc; stroke-linejoin: miter"/>
    </g>
    <g id="PathCollection_3">
     <g>
      <use xlink:href="#me314b48915" x="378.8" y="57.175" style="fill: #ff8c00; stroke: #ff8c00"/>
     </g>
    </g>
    <g id="text_30">
     <!-- Clarion $NO_3$ drainage -->
     <g transform="translate(396.8 59.8)scale(0.1 -0.1)">
      <defs>
       <path id="DejaVuSans-Oblique-4e" d="M 1081 4666 
L 1931 4666 
L 3219 666 
L 4000 4666 
L 4616 4666 
L 3706 0 
L 2853 0 
L 1569 4025 
L 788 0 
L 172 0 
L 1081 4666 
z
" transform="scale(0.015625)"/>
       <path id="DejaVuSans-Oblique-4f" d="M 2919 4238 
Q 2400 4238 2003 3986 
Q 1606 3734 1313 3219 
Q 1125 2891 1026 2522 
Q 928 2153 928 1778 
Q 928 1128 1239 775 
Q 1550 422 2119 422 
Q 2631 422 3032 676 
Q 3434 931 3719 1434 
Q 3909 1772 4009 2142 
Q 4109 2513 4109 2881 
Q 4109 3528 3796 3883 
Q 3484 4238 2919 4238 
z
M 2100 -91 
Q 1241 -91 748 418 
Q 256 928 256 1813 
Q 256 2319 448 2847 
Q 641 3375 978 3788 
Q 1375 4272 1862 4511 
Q 2350 4750 2938 4750 
Q 3794 4750 4287 4245 
Q 4781 3741 4781 2869 
Q 4781 2331 4593 1812 
Q 4406 1294 4056 872 
Q 3656 384 3173 146 
Q 2691 -91 2100 -91 
z
" transform="scale(0.015625)"/>
       <path id="DejaVuSans-64" d="M 2906 2969 
L 2906 4863 
L 3481 4863 
L 3481 0 
L 2906 0 
L 2906 525 
Q 2725 213 2448 61 
Q 2172 -91 1784 -91 
Q 1150 -91 751 415 
Q 353 922 353 1747 
Q 353 2572 751 3078 
Q 1150 3584 1784 3584 
Q 2172 3584 2448 3432 
Q 2725 3281 2906 2969 
z
M 947 1747 
Q 947 1113 1208 752 
Q 1469 391 1925 391 
Q 2381 391 2643 752 
Q 2906 1113 2906 1747 
Q 2906 2381 2643 2742 
Q 2381 3103 1925 3103 
Q 1469 3103 1208 2742 
Q 947 2381 947 1747 
z
" transform="scale(0.015625)"/>
      </defs>
      <use xlink:href="#DejaVuSans-43" transform="translate(0 0.015625)"/>
      <use xlink:href="#DejaVuSans-6c" transform="translate(69.824219 0.015625)"/>
      <use xlink:href="#DejaVuSans-61" transform="translate(97.607422 0.015625)"/>
      <use xlink:href="#DejaVuSans-72" transform="translate(158.886719 0.015625)"/>
      <use xlink:href="#DejaVuSans-69" transform="translate(200 0.015625)"/>
      <use xlink:href="#DejaVuSans-6f" transform="translate(227.783203 0.015625)"/>
      <use xlink:href="#DejaVuSans-6e" transform="translate(288.964844 0.015625)"/>
      <use xlink:href="#DejaVuSans-20" transform="translate(352.34375 0.015625)"/>
      <use xlink:href="#DejaVuSans-Oblique-4e" transform="translate(384.130859 0.015625)"/>
      <use xlink:href="#DejaVuSans-Oblique-4f" transform="translate(458.935547 0.015625)"/>
      <use xlink:href="#DejaVuSans-33" transform="translate(537.646484 -16.390625)scale(0.7)"/>
      <use xlink:href="#DejaVuSans-20" transform="translate(584.916992 0.015625)"/>
      <use xlink:href="#DejaVuSans-64" transform="translate(616.704102 0.015625)"/>
      <use xlink:href="#DejaVuSans-72" transform="translate(680.180664 0.015625)"/>
      <use xlink:href="#DejaVuSans-61" transform="translate(721.293945 0.015625)"/>
      <use xlink:href="#DejaVuSans-69" transform="translate(782.573242 0.015625)"/>
      <use xlink:href="#DejaVuSans-6e" transform="translate(810.356445 0.015625)"/>
      <use xlink:href="#DejaVuSans-61" transform="translate(873.735352 0.015625)"/>
      <use xlink:href="#DejaVuSans-67" transform="translate(935.014648 0.015625)"/>
      <use xlink:href="#DejaVuSans-65" transform="translate(998.491211 0.015625)"/>
     </g>
    </g>
    <g id="PathCollection_4">
     <g>
      <use xlink:href="#m58436d70e2" x="378.8" y="71.875" style="fill: #8fbc8f; stroke: #8fbc8f"/>
     </g>
    </g>
    <g id="text_31">
     <!-- Webster $NO_3$ drainage -->
     <g transform="translate(396.8 74.5)scale(0.1 -0.1)">
      <use xlink:href="#DejaVuSans-57" transform="translate(0 0.015625)"/>
      <use xlink:href="#DejaVuSans-65" transform="translate(98.876953 0.015625)"/>
      <use xlink:href="#DejaVuSans-62" transform="translate(160.400391 0.015625)"/>
      <use xlink:href="#DejaVuSans-73" transform="translate(223.876953 0.015625)"/>
      <use xlink:href="#DejaVuSans-74" transform="translate(275.976562 0.015625)"/>
      <use xlink:href="#DejaVuSans-65" transform="translate(315.185547 0.015625)"/>
      <use xlink:href="#DejaVuSans-72" transform="translate(376.708984 0.015625)"/>
      <use xlink:href="#DejaVuSans-20" transform="translate(417.822266 0.015625)"/>
      <use xlink:href="#DejaVuSans-Oblique-4e" transform="translate(449.609375 0.015625)"/>
      <use xlink:href="#DejaVuSans-Oblique-4f" transform="translate(524.414062 0.015625)"/>
      <use xlink:href="#DejaVuSans-33" transform="translate(603.125 -16.390625)scale(0.7)"/>
      <use xlink:href="#DejaVuSans-20" transform="translate(650.395508 0.015625)"/>
      <use xlink:href="#DejaVuSans-64" transform="translate(682.182617 0.015625)"/>
      <use xlink:href="#DejaVuSans-72" transform="translate(745.65918 0.015625)"/>
      <use xlink:href="#DejaVuSans-61" transform="translate(786.772461 0.015625)"/>
      <use xlink:href="#DejaVuSans-69" transform="translate(848.051758 0.015625)"/>
      <use xlink:href="#DejaVuSans-6e" transform="translate(875.834961 0.015625)"/>
      <use xlink:href="#DejaVuSans-61" transform="translate(939.213867 0.015625)"/>
      <use xlink:href="#DejaVuSans-67" transform="translate(1000.493164 0.015625)"/>
      <use xlink:href="#DejaVuSans-65" transform="translate(1063.969727 0.015625)"/>
     </g>
    </g>
   </g>
  </g>
  <g id="axes_3">
   <g id="line2d_23">
    <path d="M 92.290909 296.874877 
L 97.151615 297.183333 
L 102.771805 297.314157 
L 105.354055 297.44059 
L 108.088202 297.840096 
L 113.657662 298.759405 
L 117.202025 298.916472 
L 122.265359 298.956365 
L 125.809426 298.70342 
L 132.898152 298.088423 
L 134.771351 300.486393 
L 135.733465 301.71249 
L 136.391784 302.226327 
L 138.214549 302.645154 
L 138.518343 302.605656 
L 138.720675 302.606461 
L 139.125931 302.529142 
L 139.328263 302.511045 
L 139.885416 302.398764 
L 140.644902 302.213838 
L 140.847233 302.181086 
L 142.011975 301.904101 
L 142.467666 301.824058 
L 143.227152 301.717508 
L 143.480214 301.716819 
L 144.340865 301.592481 
L 144.543494 301.575457 
L 145.556042 301.426591 
L 146.113195 301.362076 
L 151.226964 300.319924 
L 151.480027 300.362821 
L 151.885283 300.393919 
L 152.695203 300.471621 
L 153.302791 300.480064 
L 153.556151 300.49534 
L 154.517968 300.458305 
L 154.973659 300.416292 
L 156.188835 300.326163 
L 156.442195 300.319992 
L 157.252115 300.323151 
L 158.0116 300.334704 
L 158.366125 300.36283 
L 160.644581 300.498279 
L 162.416614 300.302333 
L 163.277562 300.196074 
L 179.327918 299.398106 
L 180.441928 299.373954 
L 191.732744 298.989979 
L 196.137759 298.819836 
L 199.074534 298.470183 
L 202.467 297.834487 
L 204.643994 297.180435 
L 206.872015 296.27125 
L 209.302368 295.029362 
L 212.086949 293.337118 
L 216.137735 290.589747 
L 219.833698 288.179919 
L 222.618577 286.640052 
L 225.150095 285.478485 
L 225.90958 285.223072 
L 227.023591 287.191144 
L 228.137602 288.718335 
L 229.15015 289.753503 
L 230.061532 290.386722 
L 230.821017 290.660098 
L 231.428605 290.65811 
L 231.935028 290.442645 
L 232.390719 290.019788 
L 232.84641 289.295469 
L 233.352536 288.008547 
L 233.858958 286.023183 
L 234.36538 283.060347 
L 234.922237 278.258117 
L 235.479094 271.200868 
L 236.086683 260.273164 
L 236.745002 243.706093 
L 237.605653 215.733089 
L 239.377983 156.749519 
L 240.137468 139.684285 
L 240.745057 130.247134 
L 241.403079 123.22155 
L 241.960233 119.364908 
L 242.972781 114.339895 
L 243.175409 113.694753 
L 243.276575 114.653604 
L 243.529638 120.79808 
L 244.69438 155.069505 
L 244.846277 155.599511 
L 244.947443 155.216379 
L 245.150071 153.098353 
L 246.21335 138.958524 
L 246.415682 138.497038 
L 246.517144 138.57724 
L 246.719476 139.286304 
L 247.124733 141.126736 
L 247.225898 141.002502 
L 247.377795 140.089336 
L 247.68159 136.143379 
L 248.339909 127.202732 
L 248.592972 126.176986 
L 248.694138 126.22506 
L 248.846035 126.750719 
L 249.099394 128.684423 
L 249.504354 133.850573 
L 250.314571 147.900324 
L 252.035873 177.696398 
L 252.744923 186.309195 
L 253.453677 192.316458 
L 253.70674 193.316167 
L 253.808203 193.328175 
L 253.9601 192.908511 
L 254.213163 191.21849 
L 254.820751 184.879621 
L 255.327173 180.647562 
L 255.681402 179.305266 
L 255.88403 179.168157 
L 256.035927 179.339908 
L 256.28899 180.085511 
L 256.694247 182.236971 
L 257.352269 187.340581 
L 258.719343 200.201418 
L 260.491673 216.190874 
L 261.757284 225.642262 
L 263.023191 233.457792 
L 264.390265 240.523786 
L 265.808069 246.726542 
L 267.276309 252.206794 
L 268.896445 257.395864 
L 270.618044 262.131625 
L 272.288911 266.077932 
L 274.111676 269.791303 
L 275.529481 272.253659 
L 276.137069 272.953386 
L 276.693926 273.276059 
L 277.250783 273.344862 
L 277.858371 273.198594 
L 278.51669 272.799936 
L 279.833033 271.635703 
L 280.69398 271.035928 
L 281.352003 270.81201 
L 282.061054 270.828354 
L 282.769808 271.06775 
L 283.68119 271.624636 
L 284.795201 272.606286 
L 286.466068 274.410994 
L 290.263494 278.587911 
L 294.415149 282.661401 
L 297.250758 285.207606 
L 297.554553 285.239306 
L 297.858347 285.029554 
L 298.212575 284.441725 
L 298.668266 283.194169 
L 299.377317 280.456647 
L 300.794825 274.857799 
L 301.503876 272.953038 
L 302.060733 272.00453 
L 302.567155 271.548011 
L 303.022846 271.405057 
L 303.427806 271.484184 
L 304.035394 271.854984 
L 304.79488 272.624941 
L 305.250571 272.999353 
L 305.503634 272.943162 
L 305.756993 272.582829 
L 306.060787 271.697599 
L 306.516478 269.534974 
L 307.478295 263.413571 
L 308.339243 258.590417 
L 308.946831 256.358724 
L 309.402522 255.399536 
L 309.807482 255.020759 
L 310.162008 254.991718 
L 310.516236 255.207866 
L 310.971927 255.795044 
L 311.630247 257.034008 
L 312.845423 260.007348 
L 314.009868 262.586933 
L 314.668188 263.587465 
L 315.225045 264.03584 
L 316.23789 264.484919 
L 316.895912 264.870964 
L 317.655398 265.574032 
L 318.465614 266.672007 
L 319.528893 268.469273 
L 322.971794 274.441993 
L 324.389599 276.197459 
L 326.414992 278.350754 
L 326.516158 278.117203 
L 326.668055 277.088107 
L 326.870683 273.876975 
L 327.174477 264.226326 
L 327.630168 240.211185 
L 328.642716 183.847985 
L 329.098407 170.785713 
L 329.452933 166.427733 
L 329.655264 165.749657 
L 329.756727 165.806746 
L 329.908624 166.314681 
L 330.212418 168.55651 
L 330.718544 174.568182 
L 333.959113 217.611079 
L 335.174289 229.098819 
L 336.389466 238.471436 
L 337.655373 246.441558 
L 338.971716 253.286052 
L 340.338789 259.187339 
L 341.351337 262.596424 
L 342.465348 265.488423 
L 344.389278 269.693605 
L 345.807083 272.370437 
L 346.414671 273.11381 
L 347.07299 273.542568 
L 347.731013 273.753182 
L 348.946189 274.139447 
L 349.705675 274.592005 
L 350.667788 275.414712 
L 352.389387 277.360802 
L 356.186813 281.746783 
L 357.300527 282.772533 
L 357.553887 282.711273 
L 357.80695 282.300172 
L 358.110744 281.251639 
L 358.515704 278.881311 
L 359.174023 273.40817 
L 360.541096 261.962054 
L 361.50321 256.362704 
L 362.566489 251.229229 
L 363.275243 248.880797 
L 364.08546 246.828159 
L 364.642317 245.992294 
L 364.996842 245.793658 
L 365.300636 245.854476 
L 365.705596 246.227104 
L 366.212018 247.071674 
L 366.971504 248.851687 
L 368.18668 251.662818 
L 371.123159 257.445636 
L 372.844757 261.901458 
L 375.477738 268.494084 
L 377.300503 272.427819 
L 378.869908 275.432439 
L 380.642238 278.380715 
L 382.414271 280.894338 
L 384.085139 282.885669 
L 386.262429 285.086378 
L 388.591319 287.079789 
L 391.275031 289.051208 
L 394.464869 291.073307 
L 396.591428 292.205545 
L 399.37601 293.427755 
L 401.705196 294.195333 
L 403.578692 294.647055 
L 406.009045 295.002586 
L 410.312597 295.330317 
L 411.882299 295.301767 
L 412.591053 295.048618 
L 413.300103 294.553081 
L 414.160754 293.650062 
L 415.527828 291.834494 
L 417.553221 289.203208 
L 418.717666 288.040421 
L 419.831676 287.227094 
L 420.94539 286.681498 
L 422.160567 286.337532 
L 423.52764 286.186375 
L 425.198508 286.233475 
L 427.325066 286.525561 
L 430.363007 287.187665 
L 435.932764 288.416965 
L 439.932521 289.01621 
L 440.692007 288.97489 
L 441.147698 288.744075 
L 441.603389 288.261603 
L 442.160543 287.299038 
L 442.869297 285.570698 
L 444.438998 280.929391 
L 445.552712 278.018999 
L 446.41366 276.325325 
L 447.173145 275.26469 
L 447.93263 274.564531 
L 448.692116 274.154035 
L 449.502035 273.965398 
L 450.413418 273.992166 
L 451.476697 274.264029 
L 452.843771 274.865867 
L 455.375586 276.278141 
L 456.793094 276.957094 
L 457.704476 277.129748 
L 458.869218 277.089082 
L 460.388188 277.06286 
L 461.451468 277.279897 
L 462.76781 277.793285 
L 464.337512 278.645499 
L 466.767864 279.994987 
L 467.93231 280.348554 
L 469.45128 280.549403 
L 473.451335 280.973777 
L 475.830956 281.515775 
L 484.590254 283.773785 
L 493.248385 286.001967 
L 495.121881 286.936523 
L 496.893915 288.071504 
L 498.109091 288.919409 
L 498.109091 288.919409 
" clip-path="url(#p4fc9dd6ff3)" style="fill: none; stroke-dasharray: 5.55,2.4; stroke-dashoffset: 0; stroke: #0000ff; stroke-width: 1.5"/>
   </g>
   <g id="matplotlib.axis_4">
    <g id="ytick_15">
     <g id="line2d_24">
      <g>
       <use xlink:href="#m5435f0d9b7" x="563.04" y="296.026849" style="stroke: #000000; stroke-width: 0.8"/>
      </g>
     </g>
     <g id="text_32">
      <!-- 0.00000 -->
      <g transform="translate(570.04 299.826067)scale(0.1 -0.1)">
       <defs>
        <path id="DejaVuSans-2e" d="M 684 794 
L 1344 794 
L 1344 0 
L 684 0 
L 684 794 
z
" transform="scale(0.015625)"/>
       </defs>
       <use xlink:href="#DejaVuSans-30"/>
       <use xlink:href="#DejaVuSans-2e" x="63.623047"/>
       <use xlink:href="#DejaVuSans-30" x="95.410156"/>
       <use xlink:href="#DejaVuSans-30" x="159.033203"/>
       <use xlink:href="#DejaVuSans-30" x="222.65625"/>
       <use xlink:href="#DejaVuSans-30" x="286.279297"/>
       <use xlink:href="#DejaVuSans-30" x="349.902344"/>
      </g>
     </g>
    </g>
    <g id="ytick_16">
     <g id="line2d_25">
      <g>
       <use xlink:href="#m5435f0d9b7" x="563.04" y="257.845886" style="stroke: #000000; stroke-width: 0.8"/>
      </g>
     </g>
     <g id="text_33">
      <!-- 0.00002 -->
      <g transform="translate(570.04 261.645105)scale(0.1 -0.1)">
       <use xlink:href="#DejaVuSans-30"/>
       <use xlink:href="#DejaVuSans-2e" x="63.623047"/>
       <use xlink:href="#DejaVuSans-30" x="95.410156"/>
       <use xlink:href="#DejaVuSans-30" x="159.033203"/>
       <use xlink:href="#DejaVuSans-30" x="222.65625"/>
       <use xlink:href="#DejaVuSans-30" x="286.279297"/>
       <use xlink:href="#DejaVuSans-32" x="349.902344"/>
      </g>
     </g>
    </g>
    <g id="ytick_17">
     <g id="line2d_26">
      <g>
       <use xlink:href="#m5435f0d9b7" x="563.04" y="219.664924" style="stroke: #000000; stroke-width: 0.8"/>
      </g>
     </g>
     <g id="text_34">
      <!-- 0.00004 -->
      <g transform="translate(570.04 223.464143)scale(0.1 -0.1)">
       <use xlink:href="#DejaVuSans-30"/>
       <use xlink:href="#DejaVuSans-2e" x="63.623047"/>
       <use xlink:href="#DejaVuSans-30" x="95.410156"/>
       <use xlink:href="#DejaVuSans-30" x="159.033203"/>
       <use xlink:href="#DejaVuSans-30" x="222.65625"/>
       <use xlink:href="#DejaVuSans-30" x="286.279297"/>
       <use xlink:href="#DejaVuSans-34" x="349.902344"/>
      </g>
     </g>
    </g>
    <g id="ytick_18">
     <g id="line2d_27">
      <g>
       <use xlink:href="#m5435f0d9b7" x="563.04" y="181.483962" style="stroke: #000000; stroke-width: 0.8"/>
      </g>
     </g>
     <g id="text_35">
      <!-- 0.00006 -->
      <g transform="translate(570.04 185.28318)scale(0.1 -0.1)">
       <use xlink:href="#DejaVuSans-30"/>
       <use xlink:href="#DejaVuSans-2e" x="63.623047"/>
       <use xlink:href="#DejaVuSans-30" x="95.410156"/>
       <use xlink:href="#DejaVuSans-30" x="159.033203"/>
       <use xlink:href="#DejaVuSans-30" x="222.65625"/>
       <use xlink:href="#DejaVuSans-30" x="286.279297"/>
       <use xlink:href="#DejaVuSans-36" x="349.902344"/>
      </g>
     </g>
    </g>
    <g id="ytick_19">
     <g id="line2d_28">
      <g>
       <use xlink:href="#m5435f0d9b7" x="563.04" y="143.302999" style="stroke: #000000; stroke-width: 0.8"/>
      </g>
     </g>
     <g id="text_36">
      <!-- 0.00008 -->
      <g transform="translate(570.04 147.102218)scale(0.1 -0.1)">
       <use xlink:href="#DejaVuSans-30"/>
       <use xlink:href="#DejaVuSans-2e" x="63.623047"/>
       <use xlink:href="#DejaVuSans-30" x="95.410156"/>
       <use xlink:href="#DejaVuSans-30" x="159.033203"/>
       <use xlink:href="#DejaVuSans-30" x="222.65625"/>
       <use xlink:href="#DejaVuSans-30" x="286.279297"/>
       <use xlink:href="#DejaVuSans-38" x="349.902344"/>
      </g>
     </g>
    </g>
    <g id="ytick_20">
     <g id="line2d_29">
      <g>
       <use xlink:href="#m5435f0d9b7" x="563.04" y="105.122037" style="stroke: #000000; stroke-width: 0.8"/>
      </g>
     </g>
     <g id="text_37">
      <!-- 0.00010 -->
      <g transform="translate(570.04 108.921256)scale(0.1 -0.1)">
       <use xlink:href="#DejaVuSans-30"/>
       <use xlink:href="#DejaVuSans-2e" x="63.623047"/>
       <use xlink:href="#DejaVuSans-30" x="95.410156"/>
       <use xlink:href="#DejaVuSans-30" x="159.033203"/>
       <use xlink:href="#DejaVuSans-30" x="222.65625"/>
       <use xlink:href="#DejaVuSans-31" x="286.279297"/>
       <use xlink:href="#DejaVuSans-30" x="349.902344"/>
      </g>
     </g>
    </g>
    <g id="ytick_21">
     <g id="line2d_30">
      <g>
       <use xlink:href="#m5435f0d9b7" x="563.04" y="66.941075" style="stroke: #000000; stroke-width: 0.8"/>
      </g>
     </g>
     <g id="text_38">
      <!-- 0.00012 -->
      <g transform="translate(570.04 70.740293)scale(0.1 -0.1)">
       <use xlink:href="#DejaVuSans-30"/>
       <use xlink:href="#DejaVuSans-2e" x="63.623047"/>
       <use xlink:href="#DejaVuSans-30" x="95.410156"/>
       <use xlink:href="#DejaVuSans-30" x="159.033203"/>
       <use xlink:href="#DejaVuSans-30" x="222.65625"/>
       <use xlink:href="#DejaVuSans-31" x="286.279297"/>
       <use xlink:href="#DejaVuSans-32" x="349.902344"/>
      </g>
     </g>
    </g>
    <g id="text_39">
     <!-- $H_2O$ mm/s -->
     <g transform="translate(622.991562 204.8)rotate(-90)scale(0.1 -0.1)">
      <defs>
       <path id="DejaVuSans-Oblique-48" d="M 1081 4666 
L 1716 4666 
L 1344 2753 
L 3634 2753 
L 4006 4666 
L 4641 4666 
L 3731 0 
L 3097 0 
L 3531 2222 
L 1241 2222 
L 806 0 
L 172 0 
L 1081 4666 
z
" transform="scale(0.015625)"/>
      </defs>
      <use xlink:href="#DejaVuSans-Oblique-48" transform="translate(0 0.78125)"/>
      <use xlink:href="#DejaVuSans-32" transform="translate(75.195312 -15.625)scale(0.7)"/>
      <use xlink:href="#DejaVuSans-Oblique-4f" transform="translate(122.46582 0.78125)"/>
      <use xlink:href="#DejaVuSans-20" transform="translate(201.176758 0.78125)"/>
      <use xlink:href="#DejaVuSans-6d" transform="translate(232.963867 0.78125)"/>
      <use xlink:href="#DejaVuSans-6d" transform="translate(330.375977 0.78125)"/>
      <use xlink:href="#DejaVuSans-2f" transform="translate(427.788086 0.78125)"/>
      <use xlink:href="#DejaVuSans-73" transform="translate(461.479492 0.78125)"/>
     </g>
    </g>
   </g>
   <g id="line2d_31">
    <path d="M 195.580902 242.961807 
L 204.087137 244.575982 
L 212.593371 282.243488 
L 229.605841 267.723611 
L 246.61831 275.457024 
L 251.479016 233.054775 
L 255.124545 212.064084 
L 259.98525 190.705135 
L 276.99772 296.026849 
L 283.073602 293.669999 
L 300.086071 294.343385 
L 309.807482 296.026849 
L 328.035128 239.95347 
L 335.326186 292.098766 
L 352.338656 296.026849 
L 357.199361 55.554545 
L 359.629714 241.892961 
L 362.060067 236.000837 
L 368.135949 279.086993 
L 377.85736 296.026849 
L 410.667122 296.026849 
L 417.958181 288.047931 
L 442.261708 279.19747 
L 451.983119 283.966408 
L 455.628649 292.098766 
L 459.274178 283.997096 
L 468.995589 296.026849 
L 486.008058 296.026849 
" clip-path="url(#p4fc9dd6ff3)" style="fill: none; stroke-dasharray: 5.55,2.4; stroke-dashoffset: 0; stroke: #ffa500; stroke-width: 1.5"/>
   </g>
   <g id="patch_49">
    <path d="M 72 315 
L 72 43.2 
" style="fill: none; stroke: #000000; stroke-width: 0.8; stroke-linejoin: miter; stroke-linecap: square"/>
   </g>
   <g id="patch_50">
    <path d="M 563.04 315 
L 563.04 43.2 
" style="fill: none; stroke: #000000; stroke-width: 0.8; stroke-linejoin: miter; stroke-linecap: square"/>
   </g>
   <g id="patch_51">
    <path d="M 72 315 
L 518.4 315 
" style="fill: none; stroke: #000000; stroke-width: 0.8; stroke-linejoin: miter; stroke-linecap: square"/>
   </g>
   <g id="patch_52">
    <path d="M 72 43.2 
L 518.4 43.2 
" style="fill: none; stroke: #000000; stroke-width: 0.8; stroke-linejoin: miter; stroke-linecap: square"/>
   </g>
   <g id="legend_3">
    <g id="patch_53">
     <path d="M 372.890625 195.278125 
L 511.4 195.278125 
Q 513.4 195.278125 513.4 193.278125 
L 513.4 164.921875 
Q 513.4 162.921875 511.4 162.921875 
L 372.890625 162.921875 
Q 370.890625 162.921875 370.890625 164.921875 
L 370.890625 193.278125 
Q 370.890625 195.278125 372.890625 195.278125 
z
" style="fill: #ffffff; opacity: 0.8; stroke: #cccccc; stroke-linejoin: miter"/>
    </g>
    <g id="line2d_32">
     <path d="M 374.890625 171.020312 
L 384.890625 171.020312 
L 394.890625 171.020312 
" style="fill: none; stroke-dasharray: 5.55,2.4; stroke-dashoffset: 0; stroke: #0000ff; stroke-width: 1.5"/>
    </g>
    <g id="text_40">
     <!-- CLM-FANv3 drainage -->
     <g transform="translate(402.890625 174.520312)scale(0.1 -0.1)">
      <use xlink:href="#DejaVuSans-43"/>
      <use xlink:href="#DejaVuSans-4c" x="69.824219"/>
      <use xlink:href="#DejaVuSans-4d" x="125.537109"/>
      <use xlink:href="#DejaVuSans-2d" x="211.816406"/>
      <use xlink:href="#DejaVuSans-46" x="247.900391"/>
      <use xlink:href="#DejaVuSans-41" x="296.294922"/>
      <use xlink:href="#DejaVuSans-4e" x="364.703125"/>
      <use xlink:href="#DejaVuSans-76" x="439.507812"/>
      <use xlink:href="#DejaVuSans-33" x="498.6875"/>
      <use xlink:href="#DejaVuSans-20" x="562.310547"/>
      <use xlink:href="#DejaVuSans-64" x="594.097656"/>
      <use xlink:href="#DejaVuSans-72" x="657.574219"/>
      <use xlink:href="#DejaVuSans-61" x="698.6875"/>
      <use xlink:href="#DejaVuSans-69" x="759.966797"/>
      <use xlink:href="#DejaVuSans-6e" x="787.75"/>
      <use xlink:href="#DejaVuSans-61" x="851.128906"/>
      <use xlink:href="#DejaVuSans-67" x="912.408203"/>
      <use xlink:href="#DejaVuSans-65" x="975.884766"/>
     </g>
    </g>
    <g id="line2d_33">
     <path d="M 374.890625 185.698437 
L 384.890625 185.698437 
L 394.890625 185.698437 
" style="fill: none; stroke-dasharray: 5.55,2.4; stroke-dashoffset: 0; stroke: #ffa500; stroke-width: 1.5"/>
    </g>
    <g id="text_41">
     <!-- MESOCOSM drainage -->
     <g transform="translate(402.890625 189.198437)scale(0.1 -0.1)">
      <use xlink:href="#DejaVuSans-4d"/>
      <use xlink:href="#DejaVuSans-45" x="86.279297"/>
      <use xlink:href="#DejaVuSans-53" x="149.462891"/>
      <use xlink:href="#DejaVuSans-4f" x="212.939453"/>
      <use xlink:href="#DejaVuSans-43" x="291.650391"/>
      <use xlink:href="#DejaVuSans-4f" x="361.474609"/>
      <use xlink:href="#DejaVuSans-53" x="440.185547"/>
      <use xlink:href="#DejaVuSans-4d" x="503.662109"/>
      <use xlink:href="#DejaVuSans-20" x="589.941406"/>
      <use xlink:href="#DejaVuSans-64" x="621.728516"/>
      <use xlink:href="#DejaVuSans-72" x="685.205078"/>
      <use xlink:href="#DejaVuSans-61" x="726.318359"/>
      <use xlink:href="#DejaVuSans-69" x="787.597656"/>
      <use xlink:href="#DejaVuSans-6e" x="815.380859"/>
      <use xlink:href="#DejaVuSans-61" x="878.759766"/>
      <use xlink:href="#DejaVuSans-67" x="940.039062"/>
      <use xlink:href="#DejaVuSans-65" x="1003.515625"/>
     </g>
    </g>
   </g>
  </g>
 </g>
 <defs>
  <clipPath id="p4fc9dd6ff3">
   <rect x="72" y="43.2" width="446.4" height="271.8"/>
  </clipPath>
 </defs>
</svg>
