<?xml version="1.0" encoding="utf-8" standalone="no"?>
<!DOCTYPE svg PUBLIC "-//W3C//DTD SVG 1.1//EN"
  "http://www.w3.org/Graphics/SVG/1.1/DTD/svg11.dtd">
<svg xmlns:xlink="http://www.w3.org/1999/xlink" width="1296pt" height="360pt" viewBox="0 0 1296 360" xmlns="http://www.w3.org/2000/svg" version="1.1">
 <metadata>
  <rdf:RDF xmlns:dc="http://purl.org/dc/elements/1.1/" xmlns:cc="http://creativecommons.org/ns#" xmlns:rdf="http://www.w3.org/1999/02/22-rdf-syntax-ns#">
   <cc:Work>
    <dc:type rdf:resource="http://purl.org/dc/dcmitype/StillImage"/>
    <dc:date>2024-01-30T01:27:19.274448</dc:date>
    <dc:format>image/svg+xml</dc:format>
    <dc:creator>
     <cc:Agent>
      <dc:title>Matplotlib v3.5.2, https://matplotlib.org/</dc:title>
     </cc:Agent>
    </dc:creator>
   </cc:Work>
  </rdf:RDF>
 </metadata>
 <defs>
  <style type="text/css">*{stroke-linejoin: round; stroke-linecap: butt}</style>
 </defs>
 <g id="figure_1">
  <g id="patch_1">
   <path d="M 0 360 
L 1296 360 
L 1296 0 
L 0 0 
L 0 360 
z
" style="fill: none"/>
  </g>
  <g id="axes_1">
   <g id="patch_2">
    <path d="M 162 315 
L 457.411765 315 
L 457.411765 43.2 
L 162 43.2 
z
" style="fill: #ffffff"/>
   </g>
   <g id="patch_3">
    <path d="M 175.427807 315 
L 179.122856 315 
L 179.122856 303.135563 
L 175.427807 303.135563 
z
" clip-path="url(#p0c80a51850)" style="fill: #ee82ee"/>
   </g>
   <g id="patch_4">
    <path d="M 210.900276 315 
L 214.595325 315 
L 214.595325 148.502157 
L 210.900276 148.502157 
z
" clip-path="url(#p0c80a51850)" style="fill: #ee82ee"/>
   </g>
   <g id="patch_5">
    <path d="M 237.504628 315 
L 241.199677 315 
L 241.199677 229.178386 
L 237.504628 229.178386 
z
" clip-path="url(#p0c80a51850)" style="fill: #ee82ee"/>
   </g>
   <g id="patch_6">
    <path d="M 262.63096 315 
L 266.326009 315 
L 266.326009 294.735189 
L 262.63096 294.735189 
z
" clip-path="url(#p0c80a51850)" style="fill: #ee82ee"/>
   </g>
   <g id="patch_7">
    <path d="M 281.845214 315 
L 285.540263 315 
L 285.540263 307.706409 
L 281.845214 307.706409 
z
" clip-path="url(#p0c80a51850)" style="fill: #ee82ee"/>
   </g>
   <g id="patch_8">
    <path d="M 326.1858 315 
L 329.880849 315 
L 329.880849 311.372204 
L 326.1858 311.372204 
z
" clip-path="url(#p0c80a51850)" style="fill: #ee82ee"/>
   </g>
   <g id="patch_9">
    <path d="M 372.004406 315 
L 375.699455 315 
L 375.699455 314.881437 
L 372.004406 314.881437 
z
" clip-path="url(#p0c80a51850)" style="fill: #ee82ee"/>
   </g>
   <g id="patch_10">
    <path d="M 429.647168 315 
L 433.342217 315 
L 433.342217 314.733843 
L 429.647168 314.733843 
z
" clip-path="url(#p0c80a51850)" style="fill: #ee82ee"/>
   </g>
   <g id="patch_11">
    <path d="M 178.975054 315 
L 182.670103 315 
L 182.670103 308.0218 
L 178.975054 308.0218 
z
" clip-path="url(#p0c80a51850)" style="fill: #800000"/>
   </g>
   <g id="patch_12">
    <path d="M 214.447523 315 
L 218.142572 315 
L 218.142572 200.713794 
L 214.447523 200.713794 
z
" clip-path="url(#p0c80a51850)" style="fill: #800000"/>
   </g>
   <g id="patch_13">
    <path d="M 241.051875 315 
L 244.746924 315 
L 244.746924 266.567589 
L 241.051875 266.567589 
z
" clip-path="url(#p0c80a51850)" style="fill: #800000"/>
   </g>
   <g id="patch_14">
    <path d="M 266.178207 315 
L 269.873256 315 
L 269.873256 304.733497 
L 266.178207 304.733497 
z
" clip-path="url(#p0c80a51850)" style="fill: #800000"/>
   </g>
   <g id="patch_15">
    <path d="M 285.392461 315 
L 289.08751 315 
L 289.08751 311.06365 
L 285.392461 311.06365 
z
" clip-path="url(#p0c80a51850)" style="fill: #800000"/>
   </g>
   <g id="patch_16">
    <path d="M 329.733047 315 
L 333.428096 315 
L 333.428096 312.34037 
L 329.733047 312.34037 
z
" clip-path="url(#p0c80a51850)" style="fill: #800000"/>
   </g>
   <g id="patch_17">
    <path d="M 375.551653 315 
L 379.246702 315 
L 379.246702 310.614977 
L 375.551653 310.614977 
z
" clip-path="url(#p0c80a51850)" style="fill: #800000"/>
   </g>
   <g id="patch_18">
    <path d="M 433.194415 315 
L 436.889463 315 
L 436.889463 314.981222 
L 433.194415 314.981222 
z
" clip-path="url(#p0c80a51850)" style="fill: #800000"/>
   </g>
   <g id="patch_19">
    <path d="M 182.522301 315 
L 186.21735 315 
L 186.21735 310.3794 
L 182.522301 310.3794 
z
" clip-path="url(#p0c80a51850)" style="fill: #6495ed"/>
   </g>
   <g id="patch_20">
    <path d="M 217.99477 315 
L 221.689819 315 
L 221.689819 229.2018 
L 217.99477 229.2018 
z
" clip-path="url(#p0c80a51850)" style="fill: #6495ed"/>
   </g>
   <g id="patch_21">
    <path d="M 244.599122 315 
L 248.294171 315 
L 248.294171 309.8358 
L 244.599122 309.8358 
z
" clip-path="url(#p0c80a51850)" style="fill: #6495ed"/>
   </g>
   <g id="patch_22">
    <path d="M 269.725454 315 
L 273.420503 315 
L 273.420503 305.3964 
L 269.725454 305.3964 
z
" clip-path="url(#p0c80a51850)" style="fill: #6495ed"/>
   </g>
   <g id="patch_23">
    <path d="M 288.939708 315 
L 292.634757 315 
L 292.634757 308.5674 
L 288.939708 308.5674 
z
" clip-path="url(#p0c80a51850)" style="fill: #6495ed"/>
   </g>
   <g id="patch_24">
    <path d="M 333.280294 315 
L 336.975343 315 
L 336.975343 302.6784 
L 333.280294 302.6784 
z
" clip-path="url(#p0c80a51850)" style="fill: #6495ed"/>
   </g>
   <g id="patch_25">
    <path d="M 379.0989 315 
L 382.793948 315 
L 382.793948 305.487 
L 379.0989 305.487 
z
" clip-path="url(#p0c80a51850)" style="fill: #6495ed"/>
   </g>
   <g id="patch_26">
    <path d="M 436.741661 315 
L 440.43671 315 
L 440.43671 302.769 
L 436.741661 302.769 
z
" clip-path="url(#p0c80a51850)" style="fill: #6495ed"/>
   </g>
   <g id="patch_27">
    <path d="M 186.069548 315 
L 189.764597 315 
L 189.764597 312.9162 
L 186.069548 312.9162 
z
" clip-path="url(#p0c80a51850)" style="fill: #32cd32"/>
   </g>
   <g id="patch_28">
    <path d="M 221.542017 315 
L 225.237066 315 
L 225.237066 306.2118 
L 221.542017 306.2118 
z
" clip-path="url(#p0c80a51850)" style="fill: #32cd32"/>
   </g>
   <g id="patch_29">
    <path d="M 248.146369 315 
L 251.841418 315 
L 251.841418 311.1948 
L 248.146369 311.1948 
z
" clip-path="url(#p0c80a51850)" style="fill: #32cd32"/>
   </g>
   <g id="patch_30">
    <path d="M 273.272701 315 
L 276.96775 315 
L 276.96775 309.2016 
L 273.272701 309.2016 
z
" clip-path="url(#p0c80a51850)" style="fill: #32cd32"/>
   </g>
   <g id="patch_31">
    <path d="M 292.486955 315 
L 296.182004 315 
L 296.182004 310.7418 
L 292.486955 310.7418 
z
" clip-path="url(#p0c80a51850)" style="fill: #32cd32"/>
   </g>
   <g id="patch_32">
    <path d="M 336.827541 315 
L 340.52259 315 
L 340.52259 306.9366 
L 336.827541 306.9366 
z
" clip-path="url(#p0c80a51850)" style="fill: #32cd32"/>
   </g>
   <g id="patch_33">
    <path d="M 382.646146 315 
L 386.341195 315 
L 386.341195 310.017 
L 382.646146 310.017 
z
" clip-path="url(#p0c80a51850)" style="fill: #32cd32"/>
   </g>
   <g id="patch_34">
    <path d="M 440.288908 315 
L 443.983957 315 
L 443.983957 306.9366 
L 440.288908 306.9366 
z
" clip-path="url(#p0c80a51850)" style="fill: #32cd32"/>
   </g>
   <g id="patch_35">
    <path d="M 191.686022 315 
L 195.381071 315 
L 195.381071 166.416 
L 191.686022 166.416 
z
" clip-path="url(#p0c80a51850)" style="fill: #ffffff; stroke-dasharray: 3.7,1.6; stroke-dashoffset: 0; stroke: #6495ed; stroke-linejoin: miter"/>
   </g>
   <g id="patch_36">
    <path d="M 197.598101 315 
L 201.293149 315 
L 201.293149 193.431273 
L 197.598101 193.431273 
z
" clip-path="url(#p0c80a51850)" style="fill: #ffffff; stroke-dasharray: 3.7,1.6; stroke-dashoffset: 0; stroke: #32cd32; stroke-linejoin: miter"/>
   </g>
   <g id="matplotlib.axis_1">
    <g id="xtick_1">
     <g id="line2d_1">
      <defs>
       <path id="m550d1b010b" d="M 0 0 
L 0 3.5 
" style="stroke: #000000; stroke-width: 0.8"/>
      </defs>
      <g>
       <use xlink:href="#m550d1b010b" x="165.451176" y="315" style="stroke: #000000; stroke-width: 0.8"/>
      </g>
     </g>
     <g id="text_1">
      <!-- May -->
      <g transform="translate(147.877426 334.917344)scale(0.17 -0.17)">
       <defs>
        <path id="DejaVuSans-4d" d="M 628 4666 
L 1569 4666 
L 2759 1491 
L 3956 4666 
L 4897 4666 
L 4897 0 
L 4281 0 
L 4281 4097 
L 3078 897 
L 2444 897 
L 1241 4097 
L 1241 0 
L 628 0 
L 628 4666 
z
" transform="scale(0.015625)"/>
        <path id="DejaVuSans-61" d="M 2194 1759 
Q 1497 1759 1228 1600 
Q 959 1441 959 1056 
Q 959 750 1161 570 
Q 1363 391 1709 391 
Q 2188 391 2477 730 
Q 2766 1069 2766 1631 
L 2766 1759 
L 2194 1759 
z
M 3341 1997 
L 3341 0 
L 2766 0 
L 2766 531 
Q 2569 213 2275 61 
Q 1981 -91 1556 -91 
Q 1019 -91 701 211 
Q 384 513 384 1019 
Q 384 1609 779 1909 
Q 1175 2209 1959 2209 
L 2766 2209 
L 2766 2266 
Q 2766 2663 2505 2880 
Q 2244 3097 1772 3097 
Q 1472 3097 1187 3025 
Q 903 2953 641 2809 
L 641 3341 
Q 956 3463 1253 3523 
Q 1550 3584 1831 3584 
Q 2591 3584 2966 3190 
Q 3341 2797 3341 1997 
z
" transform="scale(0.015625)"/>
        <path id="DejaVuSans-79" d="M 2059 -325 
Q 1816 -950 1584 -1140 
Q 1353 -1331 966 -1331 
L 506 -1331 
L 506 -850 
L 844 -850 
Q 1081 -850 1212 -737 
Q 1344 -625 1503 -206 
L 1606 56 
L 191 3500 
L 800 3500 
L 1894 763 
L 2988 3500 
L 3597 3500 
L 2059 -325 
z
" transform="scale(0.015625)"/>
       </defs>
       <use xlink:href="#DejaVuSans-4d"/>
       <use xlink:href="#DejaVuSans-61" x="86.279297"/>
       <use xlink:href="#DejaVuSans-79" x="147.558594"/>
      </g>
     </g>
    </g>
    <g id="xtick_2">
     <g id="line2d_2">
      <g>
       <use xlink:href="#m550d1b010b" x="211.269781" y="315" style="stroke: #000000; stroke-width: 0.8"/>
      </g>
     </g>
     <g id="text_2">
      <!-- Jun -->
      <g transform="translate(197.988531 334.917344)scale(0.17 -0.17)">
       <defs>
        <path id="DejaVuSans-4a" d="M 628 4666 
L 1259 4666 
L 1259 325 
Q 1259 -519 939 -900 
Q 619 -1281 -91 -1281 
L -331 -1281 
L -331 -750 
L -134 -750 
Q 284 -750 456 -515 
Q 628 -281 628 325 
L 628 4666 
z
" transform="scale(0.015625)"/>
        <path id="DejaVuSans-75" d="M 544 1381 
L 544 3500 
L 1119 3500 
L 1119 1403 
Q 1119 906 1312 657 
Q 1506 409 1894 409 
Q 2359 409 2629 706 
Q 2900 1003 2900 1516 
L 2900 3500 
L 3475 3500 
L 3475 0 
L 2900 0 
L 2900 538 
Q 2691 219 2414 64 
Q 2138 -91 1772 -91 
Q 1169 -91 856 284 
Q 544 659 544 1381 
z
M 1991 3584 
L 1991 3584 
z
" transform="scale(0.015625)"/>
        <path id="DejaVuSans-6e" d="M 3513 2113 
L 3513 0 
L 2938 0 
L 2938 2094 
Q 2938 2591 2744 2837 
Q 2550 3084 2163 3084 
Q 1697 3084 1428 2787 
Q 1159 2491 1159 1978 
L 1159 0 
L 581 0 
L 581 3500 
L 1159 3500 
L 1159 2956 
Q 1366 3272 1645 3428 
Q 1925 3584 2291 3584 
Q 2894 3584 3203 3211 
Q 3513 2838 3513 2113 
z
" transform="scale(0.015625)"/>
       </defs>
       <use xlink:href="#DejaVuSans-4a"/>
       <use xlink:href="#DejaVuSans-75" x="29.492188"/>
       <use xlink:href="#DejaVuSans-6e" x="92.871094"/>
      </g>
     </g>
    </g>
    <g id="xtick_3">
     <g id="line2d_3">
      <g>
       <use xlink:href="#m550d1b010b" x="255.610367" y="315" style="stroke: #000000; stroke-width: 0.8"/>
      </g>
     </g>
     <g id="text_3">
      <!-- Jul -->
      <g transform="translate(245.354586 334.917344)scale(0.17 -0.17)">
       <defs>
        <path id="DejaVuSans-6c" d="M 603 4863 
L 1178 4863 
L 1178 0 
L 603 0 
L 603 4863 
z
" transform="scale(0.015625)"/>
       </defs>
       <use xlink:href="#DejaVuSans-4a"/>
       <use xlink:href="#DejaVuSans-75" x="29.492188"/>
       <use xlink:href="#DejaVuSans-6c" x="92.871094"/>
      </g>
     </g>
    </g>
    <g id="xtick_4">
     <g id="line2d_4">
      <g>
       <use xlink:href="#m550d1b010b" x="301.428973" y="315" style="stroke: #000000; stroke-width: 0.8"/>
      </g>
     </g>
     <g id="text_4">
      <!-- Aug -->
      <g transform="translate(284.831395 334.917344)scale(0.17 -0.17)">
       <defs>
        <path id="DejaVuSans-41" d="M 2188 4044 
L 1331 1722 
L 3047 1722 
L 2188 4044 
z
M 1831 4666 
L 2547 4666 
L 4325 0 
L 3669 0 
L 3244 1197 
L 1141 1197 
L 716 0 
L 50 0 
L 1831 4666 
z
" transform="scale(0.015625)"/>
        <path id="DejaVuSans-67" d="M 2906 1791 
Q 2906 2416 2648 2759 
Q 2391 3103 1925 3103 
Q 1463 3103 1205 2759 
Q 947 2416 947 1791 
Q 947 1169 1205 825 
Q 1463 481 1925 481 
Q 2391 481 2648 825 
Q 2906 1169 2906 1791 
z
M 3481 434 
Q 3481 -459 3084 -895 
Q 2688 -1331 1869 -1331 
Q 1566 -1331 1297 -1286 
Q 1028 -1241 775 -1147 
L 775 -588 
Q 1028 -725 1275 -790 
Q 1522 -856 1778 -856 
Q 2344 -856 2625 -561 
Q 2906 -266 2906 331 
L 2906 616 
Q 2728 306 2450 153 
Q 2172 0 1784 0 
Q 1141 0 747 490 
Q 353 981 353 1791 
Q 353 2603 747 3093 
Q 1141 3584 1784 3584 
Q 2172 3584 2450 3431 
Q 2728 3278 2906 2969 
L 2906 3500 
L 3481 3500 
L 3481 434 
z
" transform="scale(0.015625)"/>
       </defs>
       <use xlink:href="#DejaVuSans-41"/>
       <use xlink:href="#DejaVuSans-75" x="68.408203"/>
       <use xlink:href="#DejaVuSans-67" x="131.787109"/>
      </g>
     </g>
    </g>
    <g id="xtick_5">
     <g id="line2d_5">
      <g>
       <use xlink:href="#m550d1b010b" x="347.247579" y="315" style="stroke: #000000; stroke-width: 0.8"/>
      </g>
     </g>
     <g id="text_5">
      <!-- Sep -->
      <g transform="translate(331.225079 334.917344)scale(0.17 -0.17)">
       <defs>
        <path id="DejaVuSans-53" d="M 3425 4513 
L 3425 3897 
Q 3066 4069 2747 4153 
Q 2428 4238 2131 4238 
Q 1616 4238 1336 4038 
Q 1056 3838 1056 3469 
Q 1056 3159 1242 3001 
Q 1428 2844 1947 2747 
L 2328 2669 
Q 3034 2534 3370 2195 
Q 3706 1856 3706 1288 
Q 3706 609 3251 259 
Q 2797 -91 1919 -91 
Q 1588 -91 1214 -16 
Q 841 59 441 206 
L 441 856 
Q 825 641 1194 531 
Q 1563 422 1919 422 
Q 2459 422 2753 634 
Q 3047 847 3047 1241 
Q 3047 1584 2836 1778 
Q 2625 1972 2144 2069 
L 1759 2144 
Q 1053 2284 737 2584 
Q 422 2884 422 3419 
Q 422 4038 858 4394 
Q 1294 4750 2059 4750 
Q 2388 4750 2728 4690 
Q 3069 4631 3425 4513 
z
" transform="scale(0.015625)"/>
        <path id="DejaVuSans-65" d="M 3597 1894 
L 3597 1613 
L 953 1613 
Q 991 1019 1311 708 
Q 1631 397 2203 397 
Q 2534 397 2845 478 
Q 3156 559 3463 722 
L 3463 178 
Q 3153 47 2828 -22 
Q 2503 -91 2169 -91 
Q 1331 -91 842 396 
Q 353 884 353 1716 
Q 353 2575 817 3079 
Q 1281 3584 2069 3584 
Q 2775 3584 3186 3129 
Q 3597 2675 3597 1894 
z
M 3022 2063 
Q 3016 2534 2758 2815 
Q 2500 3097 2075 3097 
Q 1594 3097 1305 2825 
Q 1016 2553 972 2059 
L 3022 2063 
z
" transform="scale(0.015625)"/>
        <path id="DejaVuSans-70" d="M 1159 525 
L 1159 -1331 
L 581 -1331 
L 581 3500 
L 1159 3500 
L 1159 2969 
Q 1341 3281 1617 3432 
Q 1894 3584 2278 3584 
Q 2916 3584 3314 3078 
Q 3713 2572 3713 1747 
Q 3713 922 3314 415 
Q 2916 -91 2278 -91 
Q 1894 -91 1617 61 
Q 1341 213 1159 525 
z
M 3116 1747 
Q 3116 2381 2855 2742 
Q 2594 3103 2138 3103 
Q 1681 3103 1420 2742 
Q 1159 2381 1159 1747 
Q 1159 1113 1420 752 
Q 1681 391 2138 391 
Q 2594 391 2855 752 
Q 3116 1113 3116 1747 
z
" transform="scale(0.015625)"/>
       </defs>
       <use xlink:href="#DejaVuSans-53"/>
       <use xlink:href="#DejaVuSans-65" x="63.476562"/>
       <use xlink:href="#DejaVuSans-70" x="125"/>
      </g>
     </g>
    </g>
    <g id="xtick_6">
     <g id="line2d_6">
      <g>
       <use xlink:href="#m550d1b010b" x="391.588165" y="315" style="stroke: #000000; stroke-width: 0.8"/>
      </g>
     </g>
     <g id="text_6">
      <!-- Oct -->
      <g transform="translate(376.891133 334.917344)scale(0.17 -0.17)">
       <defs>
        <path id="DejaVuSans-4f" d="M 2522 4238 
Q 1834 4238 1429 3725 
Q 1025 3213 1025 2328 
Q 1025 1447 1429 934 
Q 1834 422 2522 422 
Q 3209 422 3611 934 
Q 4013 1447 4013 2328 
Q 4013 3213 3611 3725 
Q 3209 4238 2522 4238 
z
M 2522 4750 
Q 3503 4750 4090 4092 
Q 4678 3434 4678 2328 
Q 4678 1225 4090 567 
Q 3503 -91 2522 -91 
Q 1538 -91 948 565 
Q 359 1222 359 2328 
Q 359 3434 948 4092 
Q 1538 4750 2522 4750 
z
" transform="scale(0.015625)"/>
        <path id="DejaVuSans-63" d="M 3122 3366 
L 3122 2828 
Q 2878 2963 2633 3030 
Q 2388 3097 2138 3097 
Q 1578 3097 1268 2742 
Q 959 2388 959 1747 
Q 959 1106 1268 751 
Q 1578 397 2138 397 
Q 2388 397 2633 464 
Q 2878 531 3122 666 
L 3122 134 
Q 2881 22 2623 -34 
Q 2366 -91 2075 -91 
Q 1284 -91 818 406 
Q 353 903 353 1747 
Q 353 2603 823 3093 
Q 1294 3584 2113 3584 
Q 2378 3584 2631 3529 
Q 2884 3475 3122 3366 
z
" transform="scale(0.015625)"/>
        <path id="DejaVuSans-74" d="M 1172 4494 
L 1172 3500 
L 2356 3500 
L 2356 3053 
L 1172 3053 
L 1172 1153 
Q 1172 725 1289 603 
Q 1406 481 1766 481 
L 2356 481 
L 2356 0 
L 1766 0 
Q 1100 0 847 248 
Q 594 497 594 1153 
L 594 3053 
L 172 3053 
L 172 3500 
L 594 3500 
L 594 4494 
L 1172 4494 
z
" transform="scale(0.015625)"/>
       </defs>
       <use xlink:href="#DejaVuSans-4f"/>
       <use xlink:href="#DejaVuSans-63" x="78.710938"/>
       <use xlink:href="#DejaVuSans-74" x="133.691406"/>
      </g>
     </g>
    </g>
    <g id="xtick_7">
     <g id="line2d_7">
      <g>
       <use xlink:href="#m550d1b010b" x="437.40677" y="315" style="stroke: #000000; stroke-width: 0.8"/>
      </g>
     </g>
     <g id="text_7">
      <!-- Nov -->
      <g transform="translate(420.815833 334.917344)scale(0.17 -0.17)">
       <defs>
        <path id="DejaVuSans-4e" d="M 628 4666 
L 1478 4666 
L 3547 763 
L 3547 4666 
L 4159 4666 
L 4159 0 
L 3309 0 
L 1241 3903 
L 1241 0 
L 628 0 
L 628 4666 
z
" transform="scale(0.015625)"/>
        <path id="DejaVuSans-6f" d="M 1959 3097 
Q 1497 3097 1228 2736 
Q 959 2375 959 1747 
Q 959 1119 1226 758 
Q 1494 397 1959 397 
Q 2419 397 2687 759 
Q 2956 1122 2956 1747 
Q 2956 2369 2687 2733 
Q 2419 3097 1959 3097 
z
M 1959 3584 
Q 2709 3584 3137 3096 
Q 3566 2609 3566 1747 
Q 3566 888 3137 398 
Q 2709 -91 1959 -91 
Q 1206 -91 779 398 
Q 353 888 353 1747 
Q 353 2609 779 3096 
Q 1206 3584 1959 3584 
z
" transform="scale(0.015625)"/>
        <path id="DejaVuSans-76" d="M 191 3500 
L 800 3500 
L 1894 563 
L 2988 3500 
L 3597 3500 
L 2284 0 
L 1503 0 
L 191 3500 
z
" transform="scale(0.015625)"/>
       </defs>
       <use xlink:href="#DejaVuSans-4e"/>
       <use xlink:href="#DejaVuSans-6f" x="74.804688"/>
       <use xlink:href="#DejaVuSans-76" x="135.986328"/>
      </g>
     </g>
    </g>
   </g>
   <g id="matplotlib.axis_2">
    <g id="ytick_1">
     <g id="line2d_8">
      <defs>
       <path id="m875f593472" d="M 0 0 
L -3.5 0 
" style="stroke: #000000; stroke-width: 0.8"/>
      </defs>
      <g>
       <use xlink:href="#m875f593472" x="162" y="315" style="stroke: #000000; stroke-width: 0.8"/>
      </g>
     </g>
     <g id="text_8">
      <!-- 0 -->
      <g transform="translate(144.18375 321.458672)scale(0.17 -0.17)">
       <defs>
        <path id="DejaVuSans-30" d="M 2034 4250 
Q 1547 4250 1301 3770 
Q 1056 3291 1056 2328 
Q 1056 1369 1301 889 
Q 1547 409 2034 409 
Q 2525 409 2770 889 
Q 3016 1369 3016 2328 
Q 3016 3291 2770 3770 
Q 2525 4250 2034 4250 
z
M 2034 4750 
Q 2819 4750 3233 4129 
Q 3647 3509 3647 2328 
Q 3647 1150 3233 529 
Q 2819 -91 2034 -91 
Q 1250 -91 836 529 
Q 422 1150 422 2328 
Q 422 3509 836 4129 
Q 1250 4750 2034 4750 
z
" transform="scale(0.015625)"/>
       </defs>
       <use xlink:href="#DejaVuSans-30"/>
      </g>
     </g>
    </g>
    <g id="ytick_2">
     <g id="line2d_9">
      <g>
       <use xlink:href="#m875f593472" x="162" y="260.64" style="stroke: #000000; stroke-width: 0.8"/>
      </g>
     </g>
     <g id="text_9">
      <!-- 20 -->
      <g transform="translate(133.3675 267.098672)scale(0.17 -0.17)">
       <defs>
        <path id="DejaVuSans-32" d="M 1228 531 
L 3431 531 
L 3431 0 
L 469 0 
L 469 531 
Q 828 903 1448 1529 
Q 2069 2156 2228 2338 
Q 2531 2678 2651 2914 
Q 2772 3150 2772 3378 
Q 2772 3750 2511 3984 
Q 2250 4219 1831 4219 
Q 1534 4219 1204 4116 
Q 875 4013 500 3803 
L 500 4441 
Q 881 4594 1212 4672 
Q 1544 4750 1819 4750 
Q 2544 4750 2975 4387 
Q 3406 4025 3406 3419 
Q 3406 3131 3298 2873 
Q 3191 2616 2906 2266 
Q 2828 2175 2409 1742 
Q 1991 1309 1228 531 
z
" transform="scale(0.015625)"/>
       </defs>
       <use xlink:href="#DejaVuSans-32"/>
       <use xlink:href="#DejaVuSans-30" x="63.623047"/>
      </g>
     </g>
    </g>
    <g id="ytick_3">
     <g id="line2d_10">
      <g>
       <use xlink:href="#m875f593472" x="162" y="206.28" style="stroke: #000000; stroke-width: 0.8"/>
      </g>
     </g>
     <g id="text_10">
      <!-- 40 -->
      <g transform="translate(133.3675 212.738672)scale(0.17 -0.17)">
       <defs>
        <path id="DejaVuSans-34" d="M 2419 4116 
L 825 1625 
L 2419 1625 
L 2419 4116 
z
M 2253 4666 
L 3047 4666 
L 3047 1625 
L 3713 1625 
L 3713 1100 
L 3047 1100 
L 3047 0 
L 2419 0 
L 2419 1100 
L 313 1100 
L 313 1709 
L 2253 4666 
z
" transform="scale(0.015625)"/>
       </defs>
       <use xlink:href="#DejaVuSans-34"/>
       <use xlink:href="#DejaVuSans-30" x="63.623047"/>
      </g>
     </g>
    </g>
    <g id="ytick_4">
     <g id="line2d_11">
      <g>
       <use xlink:href="#m875f593472" x="162" y="151.92" style="stroke: #000000; stroke-width: 0.8"/>
      </g>
     </g>
     <g id="text_11">
      <!-- 60 -->
      <g transform="translate(133.3675 158.378672)scale(0.17 -0.17)">
       <defs>
        <path id="DejaVuSans-36" d="M 2113 2584 
Q 1688 2584 1439 2293 
Q 1191 2003 1191 1497 
Q 1191 994 1439 701 
Q 1688 409 2113 409 
Q 2538 409 2786 701 
Q 3034 994 3034 1497 
Q 3034 2003 2786 2293 
Q 2538 2584 2113 2584 
z
M 3366 4563 
L 3366 3988 
Q 3128 4100 2886 4159 
Q 2644 4219 2406 4219 
Q 1781 4219 1451 3797 
Q 1122 3375 1075 2522 
Q 1259 2794 1537 2939 
Q 1816 3084 2150 3084 
Q 2853 3084 3261 2657 
Q 3669 2231 3669 1497 
Q 3669 778 3244 343 
Q 2819 -91 2113 -91 
Q 1303 -91 875 529 
Q 447 1150 447 2328 
Q 447 3434 972 4092 
Q 1497 4750 2381 4750 
Q 2619 4750 2861 4703 
Q 3103 4656 3366 4563 
z
" transform="scale(0.015625)"/>
       </defs>
       <use xlink:href="#DejaVuSans-36"/>
       <use xlink:href="#DejaVuSans-30" x="63.623047"/>
      </g>
     </g>
    </g>
    <g id="ytick_5">
     <g id="line2d_12">
      <g>
       <use xlink:href="#m875f593472" x="162" y="97.56" style="stroke: #000000; stroke-width: 0.8"/>
      </g>
     </g>
     <g id="text_12">
      <!-- 80 -->
      <g transform="translate(133.3675 104.018672)scale(0.17 -0.17)">
       <defs>
        <path id="DejaVuSans-38" d="M 2034 2216 
Q 1584 2216 1326 1975 
Q 1069 1734 1069 1313 
Q 1069 891 1326 650 
Q 1584 409 2034 409 
Q 2484 409 2743 651 
Q 3003 894 3003 1313 
Q 3003 1734 2745 1975 
Q 2488 2216 2034 2216 
z
M 1403 2484 
Q 997 2584 770 2862 
Q 544 3141 544 3541 
Q 544 4100 942 4425 
Q 1341 4750 2034 4750 
Q 2731 4750 3128 4425 
Q 3525 4100 3525 3541 
Q 3525 3141 3298 2862 
Q 3072 2584 2669 2484 
Q 3125 2378 3379 2068 
Q 3634 1759 3634 1313 
Q 3634 634 3220 271 
Q 2806 -91 2034 -91 
Q 1263 -91 848 271 
Q 434 634 434 1313 
Q 434 1759 690 2068 
Q 947 2378 1403 2484 
z
M 1172 3481 
Q 1172 3119 1398 2916 
Q 1625 2713 2034 2713 
Q 2441 2713 2670 2916 
Q 2900 3119 2900 3481 
Q 2900 3844 2670 4047 
Q 2441 4250 2034 4250 
Q 1625 4250 1398 4047 
Q 1172 3844 1172 3481 
z
" transform="scale(0.015625)"/>
       </defs>
       <use xlink:href="#DejaVuSans-38"/>
       <use xlink:href="#DejaVuSans-30" x="63.623047"/>
      </g>
     </g>
    </g>
    <g id="ytick_6">
     <g id="line2d_13">
      <g>
       <use xlink:href="#m875f593472" x="162" y="43.2" style="stroke: #000000; stroke-width: 0.8"/>
      </g>
     </g>
     <g id="text_13">
      <!-- 100 -->
      <g transform="translate(122.55125 49.658672)scale(0.17 -0.17)">
       <defs>
        <path id="DejaVuSans-31" d="M 794 531 
L 1825 531 
L 1825 4091 
L 703 3866 
L 703 4441 
L 1819 4666 
L 2450 4666 
L 2450 531 
L 3481 531 
L 3481 0 
L 794 0 
L 794 531 
z
" transform="scale(0.015625)"/>
       </defs>
       <use xlink:href="#DejaVuSans-31"/>
       <use xlink:href="#DejaVuSans-30" x="63.623047"/>
       <use xlink:href="#DejaVuSans-30" x="127.246094"/>
      </g>
     </g>
    </g>
    <g id="text_14">
     <!-- mg/kgSoil -->
     <g transform="translate(115.015781 221.277266)rotate(-90)scale(0.17 -0.17)">
      <defs>
       <path id="DejaVuSans-6d" d="M 3328 2828 
Q 3544 3216 3844 3400 
Q 4144 3584 4550 3584 
Q 5097 3584 5394 3201 
Q 5691 2819 5691 2113 
L 5691 0 
L 5113 0 
L 5113 2094 
Q 5113 2597 4934 2840 
Q 4756 3084 4391 3084 
Q 3944 3084 3684 2787 
Q 3425 2491 3425 1978 
L 3425 0 
L 2847 0 
L 2847 2094 
Q 2847 2600 2669 2842 
Q 2491 3084 2119 3084 
Q 1678 3084 1418 2786 
Q 1159 2488 1159 1978 
L 1159 0 
L 581 0 
L 581 3500 
L 1159 3500 
L 1159 2956 
Q 1356 3278 1631 3431 
Q 1906 3584 2284 3584 
Q 2666 3584 2933 3390 
Q 3200 3197 3328 2828 
z
" transform="scale(0.015625)"/>
       <path id="DejaVuSans-2f" d="M 1625 4666 
L 2156 4666 
L 531 -594 
L 0 -594 
L 1625 4666 
z
" transform="scale(0.015625)"/>
       <path id="DejaVuSans-6b" d="M 581 4863 
L 1159 4863 
L 1159 1991 
L 2875 3500 
L 3609 3500 
L 1753 1863 
L 3688 0 
L 2938 0 
L 1159 1709 
L 1159 0 
L 581 0 
L 581 4863 
z
" transform="scale(0.015625)"/>
       <path id="DejaVuSans-69" d="M 603 3500 
L 1178 3500 
L 1178 0 
L 603 0 
L 603 3500 
z
M 603 4863 
L 1178 4863 
L 1178 4134 
L 603 4134 
L 603 4863 
z
" transform="scale(0.015625)"/>
      </defs>
      <use xlink:href="#DejaVuSans-6d"/>
      <use xlink:href="#DejaVuSans-67" x="97.412109"/>
      <use xlink:href="#DejaVuSans-2f" x="160.888672"/>
      <use xlink:href="#DejaVuSans-6b" x="194.580078"/>
      <use xlink:href="#DejaVuSans-67" x="252.490234"/>
      <use xlink:href="#DejaVuSans-53" x="315.966797"/>
      <use xlink:href="#DejaVuSans-6f" x="379.443359"/>
      <use xlink:href="#DejaVuSans-69" x="440.625"/>
      <use xlink:href="#DejaVuSans-6c" x="468.408203"/>
     </g>
    </g>
   </g>
   <g id="line2d_14">
    <path d="M 190.577508 315 
L 190.577508 -1 
" clip-path="url(#p0c80a51850)" style="fill: none; stroke-dasharray: 1.85,0.8; stroke-dashoffset: 0; stroke: #808080; stroke-opacity: 0.5; stroke-width: 0.5"/>
   </g>
   <g id="line2d_15">
    <path d="M 186.882459 97.56 
" clip-path="url(#p0c80a51850)" style="fill: none; stroke: #1f77b4; stroke-width: 1.5; stroke-linecap: square"/>
    <defs>
     <path id="m2444fb2e81" d="M 4.258212 12.5 
L 2.759706 12.5 
L -3.81026 5.935367 
L -1.810474 3.93558 
L 2.09311 7.833831 
L 2.09311 -12.5 
L 4.924808 -12.5 
L 4.924808 7.833831 
L 8.791062 3.93558 
L 10.790849 5.935367 
L 4.258212 12.5 
z
" style="stroke: #1f77b4"/>
    </defs>
    <g clip-path="url(#p0c80a51850)">
     <use xlink:href="#m2444fb2e81" x="186.882459" y="97.56" style="fill: #1f77b4; stroke: #1f77b4"/>
    </g>
   </g>
   <g id="patch_37">
    <path d="M 162 315 
L 162 43.2 
" style="fill: none; stroke: #000000; stroke-width: 0.8; stroke-linejoin: miter; stroke-linecap: square"/>
   </g>
   <g id="patch_38">
    <path d="M 457.411765 315 
L 457.411765 43.2 
" style="fill: none; stroke: #000000; stroke-width: 0.8; stroke-linejoin: miter; stroke-linecap: square"/>
   </g>
   <g id="patch_39">
    <path d="M 162 315 
L 457.411765 315 
" style="fill: none; stroke: #000000; stroke-width: 0.8; stroke-linejoin: miter; stroke-linecap: square"/>
   </g>
   <g id="patch_40">
    <path d="M 162 43.2 
L 457.411765 43.2 
" style="fill: none; stroke: #000000; stroke-width: 0.8; stroke-linejoin: miter; stroke-linecap: square"/>
   </g>
   <g id="text_15">
    <!-- Fert date -->
    <g transform="translate(195.011566 97.56)scale(0.15 -0.15)">
     <defs>
      <path id="DejaVuSans-46" d="M 628 4666 
L 3309 4666 
L 3309 4134 
L 1259 4134 
L 1259 2759 
L 3109 2759 
L 3109 2228 
L 1259 2228 
L 1259 0 
L 628 0 
L 628 4666 
z
" transform="scale(0.015625)"/>
      <path id="DejaVuSans-72" d="M 2631 2963 
Q 2534 3019 2420 3045 
Q 2306 3072 2169 3072 
Q 1681 3072 1420 2755 
Q 1159 2438 1159 1844 
L 1159 0 
L 581 0 
L 581 3500 
L 1159 3500 
L 1159 2956 
Q 1341 3275 1631 3429 
Q 1922 3584 2338 3584 
Q 2397 3584 2469 3576 
Q 2541 3569 2628 3553 
L 2631 2963 
z
" transform="scale(0.015625)"/>
      <path id="DejaVuSans-20" transform="scale(0.015625)"/>
      <path id="DejaVuSans-64" d="M 2906 2969 
L 2906 4863 
L 3481 4863 
L 3481 0 
L 2906 0 
L 2906 525 
Q 2725 213 2448 61 
Q 2172 -91 1784 -91 
Q 1150 -91 751 415 
Q 353 922 353 1747 
Q 353 2572 751 3078 
Q 1150 3584 1784 3584 
Q 2172 3584 2448 3432 
Q 2725 3281 2906 2969 
z
M 947 1747 
Q 947 1113 1208 752 
Q 1469 391 1925 391 
Q 2381 391 2643 752 
Q 2906 1113 2906 1747 
Q 2906 2381 2643 2742 
Q 2381 3103 1925 3103 
Q 1469 3103 1208 2742 
Q 947 2381 947 1747 
z
" transform="scale(0.015625)"/>
     </defs>
     <use xlink:href="#DejaVuSans-46"/>
     <use xlink:href="#DejaVuSans-65" x="52.019531"/>
     <use xlink:href="#DejaVuSans-72" x="113.542969"/>
     <use xlink:href="#DejaVuSans-74" x="154.65625"/>
     <use xlink:href="#DejaVuSans-20" x="193.865234"/>
     <use xlink:href="#DejaVuSans-64" x="225.652344"/>
     <use xlink:href="#DejaVuSans-61" x="289.128906"/>
     <use xlink:href="#DejaVuSans-74" x="350.408203"/>
     <use xlink:href="#DejaVuSans-65" x="389.617188"/>
    </g>
   </g>
   <g id="text_16">
    <!-- Ammonium -->
    <g transform="translate(260.716664 37.2)scale(0.17 -0.17)">
     <use xlink:href="#DejaVuSans-41"/>
     <use xlink:href="#DejaVuSans-6d" x="68.408203"/>
     <use xlink:href="#DejaVuSans-6d" x="165.820312"/>
     <use xlink:href="#DejaVuSans-6f" x="263.232422"/>
     <use xlink:href="#DejaVuSans-6e" x="324.414062"/>
     <use xlink:href="#DejaVuSans-69" x="387.792969"/>
     <use xlink:href="#DejaVuSans-75" x="415.576172"/>
     <use xlink:href="#DejaVuSans-6d" x="478.955078"/>
    </g>
   </g>
   <g id="legend_1">
    <g id="patch_41">
     <path d="M 315.03989 139.26875 
L 450.411765 139.26875 
Q 452.411765 139.26875 452.411765 137.26875 
L 452.411765 50.2 
Q 452.411765 48.2 450.411765 48.2 
L 315.03989 48.2 
Q 313.03989 48.2 313.03989 50.2 
L 313.03989 137.26875 
Q 313.03989 139.26875 315.03989 139.26875 
z
" style="fill: #ffffff; opacity: 0.8; stroke: #cccccc; stroke-linejoin: miter"/>
    </g>
    <g id="patch_42">
     <path d="M 317.03989 59.798437 
L 337.03989 59.798437 
L 337.03989 52.798437 
L 317.03989 52.798437 
z
" style="fill: #ee82ee"/>
    </g>
    <g id="text_17">
     <!-- CLM-FANv3 Clarion -->
     <g transform="translate(345.03989 59.798437)scale(0.1 -0.1)">
      <defs>
       <path id="DejaVuSans-43" d="M 4122 4306 
L 4122 3641 
Q 3803 3938 3442 4084 
Q 3081 4231 2675 4231 
Q 1875 4231 1450 3742 
Q 1025 3253 1025 2328 
Q 1025 1406 1450 917 
Q 1875 428 2675 428 
Q 3081 428 3442 575 
Q 3803 722 4122 1019 
L 4122 359 
Q 3791 134 3420 21 
Q 3050 -91 2638 -91 
Q 1578 -91 968 557 
Q 359 1206 359 2328 
Q 359 3453 968 4101 
Q 1578 4750 2638 4750 
Q 3056 4750 3426 4639 
Q 3797 4528 4122 4306 
z
" transform="scale(0.015625)"/>
       <path id="DejaVuSans-4c" d="M 628 4666 
L 1259 4666 
L 1259 531 
L 3531 531 
L 3531 0 
L 628 0 
L 628 4666 
z
" transform="scale(0.015625)"/>
       <path id="DejaVuSans-2d" d="M 313 2009 
L 1997 2009 
L 1997 1497 
L 313 1497 
L 313 2009 
z
" transform="scale(0.015625)"/>
       <path id="DejaVuSans-33" d="M 2597 2516 
Q 3050 2419 3304 2112 
Q 3559 1806 3559 1356 
Q 3559 666 3084 287 
Q 2609 -91 1734 -91 
Q 1441 -91 1130 -33 
Q 819 25 488 141 
L 488 750 
Q 750 597 1062 519 
Q 1375 441 1716 441 
Q 2309 441 2620 675 
Q 2931 909 2931 1356 
Q 2931 1769 2642 2001 
Q 2353 2234 1838 2234 
L 1294 2234 
L 1294 2753 
L 1863 2753 
Q 2328 2753 2575 2939 
Q 2822 3125 2822 3475 
Q 2822 3834 2567 4026 
Q 2313 4219 1838 4219 
Q 1578 4219 1281 4162 
Q 984 4106 628 3988 
L 628 4550 
Q 988 4650 1302 4700 
Q 1616 4750 1894 4750 
Q 2613 4750 3031 4423 
Q 3450 4097 3450 3541 
Q 3450 3153 3228 2886 
Q 3006 2619 2597 2516 
z
" transform="scale(0.015625)"/>
      </defs>
      <use xlink:href="#DejaVuSans-43"/>
      <use xlink:href="#DejaVuSans-4c" x="69.824219"/>
      <use xlink:href="#DejaVuSans-4d" x="125.537109"/>
      <use xlink:href="#DejaVuSans-2d" x="211.816406"/>
      <use xlink:href="#DejaVuSans-46" x="247.900391"/>
      <use xlink:href="#DejaVuSans-41" x="296.294922"/>
      <use xlink:href="#DejaVuSans-4e" x="364.703125"/>
      <use xlink:href="#DejaVuSans-76" x="439.507812"/>
      <use xlink:href="#DejaVuSans-33" x="498.6875"/>
      <use xlink:href="#DejaVuSans-20" x="562.310547"/>
      <use xlink:href="#DejaVuSans-43" x="594.097656"/>
      <use xlink:href="#DejaVuSans-6c" x="663.921875"/>
      <use xlink:href="#DejaVuSans-61" x="691.705078"/>
      <use xlink:href="#DejaVuSans-72" x="752.984375"/>
      <use xlink:href="#DejaVuSans-69" x="794.097656"/>
      <use xlink:href="#DejaVuSans-6f" x="821.880859"/>
      <use xlink:href="#DejaVuSans-6e" x="883.0625"/>
     </g>
    </g>
    <g id="patch_43">
     <path d="M 317.03989 74.476562 
L 337.03989 74.476562 
L 337.03989 67.476562 
L 317.03989 67.476562 
z
" style="fill: #800000"/>
    </g>
    <g id="text_18">
     <!-- CLM-FANv3 Webster -->
     <g transform="translate(345.03989 74.476562)scale(0.1 -0.1)">
      <defs>
       <path id="DejaVuSans-57" d="M 213 4666 
L 850 4666 
L 1831 722 
L 2809 4666 
L 3519 4666 
L 4500 722 
L 5478 4666 
L 6119 4666 
L 4947 0 
L 4153 0 
L 3169 4050 
L 2175 0 
L 1381 0 
L 213 4666 
z
" transform="scale(0.015625)"/>
       <path id="DejaVuSans-62" d="M 3116 1747 
Q 3116 2381 2855 2742 
Q 2594 3103 2138 3103 
Q 1681 3103 1420 2742 
Q 1159 2381 1159 1747 
Q 1159 1113 1420 752 
Q 1681 391 2138 391 
Q 2594 391 2855 752 
Q 3116 1113 3116 1747 
z
M 1159 2969 
Q 1341 3281 1617 3432 
Q 1894 3584 2278 3584 
Q 2916 3584 3314 3078 
Q 3713 2572 3713 1747 
Q 3713 922 3314 415 
Q 2916 -91 2278 -91 
Q 1894 -91 1617 61 
Q 1341 213 1159 525 
L 1159 0 
L 581 0 
L 581 4863 
L 1159 4863 
L 1159 2969 
z
" transform="scale(0.015625)"/>
       <path id="DejaVuSans-73" d="M 2834 3397 
L 2834 2853 
Q 2591 2978 2328 3040 
Q 2066 3103 1784 3103 
Q 1356 3103 1142 2972 
Q 928 2841 928 2578 
Q 928 2378 1081 2264 
Q 1234 2150 1697 2047 
L 1894 2003 
Q 2506 1872 2764 1633 
Q 3022 1394 3022 966 
Q 3022 478 2636 193 
Q 2250 -91 1575 -91 
Q 1294 -91 989 -36 
Q 684 19 347 128 
L 347 722 
Q 666 556 975 473 
Q 1284 391 1588 391 
Q 1994 391 2212 530 
Q 2431 669 2431 922 
Q 2431 1156 2273 1281 
Q 2116 1406 1581 1522 
L 1381 1569 
Q 847 1681 609 1914 
Q 372 2147 372 2553 
Q 372 3047 722 3315 
Q 1072 3584 1716 3584 
Q 2034 3584 2315 3537 
Q 2597 3491 2834 3397 
z
" transform="scale(0.015625)"/>
      </defs>
      <use xlink:href="#DejaVuSans-43"/>
      <use xlink:href="#DejaVuSans-4c" x="69.824219"/>
      <use xlink:href="#DejaVuSans-4d" x="125.537109"/>
      <use xlink:href="#DejaVuSans-2d" x="211.816406"/>
      <use xlink:href="#DejaVuSans-46" x="247.900391"/>
      <use xlink:href="#DejaVuSans-41" x="296.294922"/>
      <use xlink:href="#DejaVuSans-4e" x="364.703125"/>
      <use xlink:href="#DejaVuSans-76" x="439.507812"/>
      <use xlink:href="#DejaVuSans-33" x="498.6875"/>
      <use xlink:href="#DejaVuSans-20" x="562.310547"/>
      <use xlink:href="#DejaVuSans-57" x="594.097656"/>
      <use xlink:href="#DejaVuSans-65" x="687.099609"/>
      <use xlink:href="#DejaVuSans-62" x="748.623047"/>
      <use xlink:href="#DejaVuSans-73" x="812.099609"/>
      <use xlink:href="#DejaVuSans-74" x="864.199219"/>
      <use xlink:href="#DejaVuSans-65" x="903.408203"/>
      <use xlink:href="#DejaVuSans-72" x="964.931641"/>
     </g>
    </g>
    <g id="patch_44">
     <path d="M 317.03989 89.154687 
L 337.03989 89.154687 
L 337.03989 82.154687 
L 317.03989 82.154687 
z
" style="fill: #6495ed"/>
    </g>
    <g id="text_19">
     <!-- MESOCOSM Clarion -->
     <g transform="translate(345.03989 89.154687)scale(0.1 -0.1)">
      <defs>
       <path id="DejaVuSans-45" d="M 628 4666 
L 3578 4666 
L 3578 4134 
L 1259 4134 
L 1259 2753 
L 3481 2753 
L 3481 2222 
L 1259 2222 
L 1259 531 
L 3634 531 
L 3634 0 
L 628 0 
L 628 4666 
z
" transform="scale(0.015625)"/>
      </defs>
      <use xlink:href="#DejaVuSans-4d"/>
      <use xlink:href="#DejaVuSans-45" x="86.279297"/>
      <use xlink:href="#DejaVuSans-53" x="149.462891"/>
      <use xlink:href="#DejaVuSans-4f" x="212.939453"/>
      <use xlink:href="#DejaVuSans-43" x="291.650391"/>
      <use xlink:href="#DejaVuSans-4f" x="361.474609"/>
      <use xlink:href="#DejaVuSans-53" x="440.185547"/>
      <use xlink:href="#DejaVuSans-4d" x="503.662109"/>
      <use xlink:href="#DejaVuSans-20" x="589.941406"/>
      <use xlink:href="#DejaVuSans-43" x="621.728516"/>
      <use xlink:href="#DejaVuSans-6c" x="691.552734"/>
      <use xlink:href="#DejaVuSans-61" x="719.335938"/>
      <use xlink:href="#DejaVuSans-72" x="780.615234"/>
      <use xlink:href="#DejaVuSans-69" x="821.728516"/>
      <use xlink:href="#DejaVuSans-6f" x="849.511719"/>
      <use xlink:href="#DejaVuSans-6e" x="910.693359"/>
     </g>
    </g>
    <g id="patch_45">
     <path d="M 317.03989 103.832812 
L 337.03989 103.832812 
L 337.03989 96.832812 
L 317.03989 96.832812 
z
" style="fill: #32cd32"/>
    </g>
    <g id="text_20">
     <!-- MESOCOSM Webster -->
     <g transform="translate(345.03989 103.832812)scale(0.1 -0.1)">
      <use xlink:href="#DejaVuSans-4d"/>
      <use xlink:href="#DejaVuSans-45" x="86.279297"/>
      <use xlink:href="#DejaVuSans-53" x="149.462891"/>
      <use xlink:href="#DejaVuSans-4f" x="212.939453"/>
      <use xlink:href="#DejaVuSans-43" x="291.650391"/>
      <use xlink:href="#DejaVuSans-4f" x="361.474609"/>
      <use xlink:href="#DejaVuSans-53" x="440.185547"/>
      <use xlink:href="#DejaVuSans-4d" x="503.662109"/>
      <use xlink:href="#DejaVuSans-20" x="589.941406"/>
      <use xlink:href="#DejaVuSans-57" x="621.728516"/>
      <use xlink:href="#DejaVuSans-65" x="714.730469"/>
      <use xlink:href="#DejaVuSans-62" x="776.253906"/>
      <use xlink:href="#DejaVuSans-73" x="839.730469"/>
      <use xlink:href="#DejaVuSans-74" x="891.830078"/>
      <use xlink:href="#DejaVuSans-65" x="931.039062"/>
      <use xlink:href="#DejaVuSans-72" x="992.5625"/>
     </g>
    </g>
    <g id="patch_46">
     <path d="M 317.03989 118.510937 
L 337.03989 118.510937 
L 337.03989 111.510937 
L 317.03989 111.510937 
z
" style="fill: #ffffff; stroke-dasharray: 3.7,1.6; stroke-dashoffset: 0; stroke: #6495ed; stroke-linejoin: miter"/>
    </g>
    <g id="text_21">
     <!-- Theoretical -->
     <g transform="translate(345.03989 118.510937)scale(0.1 -0.1)">
      <defs>
       <path id="DejaVuSans-54" d="M -19 4666 
L 3928 4666 
L 3928 4134 
L 2272 4134 
L 2272 0 
L 1638 0 
L 1638 4134 
L -19 4134 
L -19 4666 
z
" transform="scale(0.015625)"/>
       <path id="DejaVuSans-68" d="M 3513 2113 
L 3513 0 
L 2938 0 
L 2938 2094 
Q 2938 2591 2744 2837 
Q 2550 3084 2163 3084 
Q 1697 3084 1428 2787 
Q 1159 2491 1159 1978 
L 1159 0 
L 581 0 
L 581 4863 
L 1159 4863 
L 1159 2956 
Q 1366 3272 1645 3428 
Q 1925 3584 2291 3584 
Q 2894 3584 3203 3211 
Q 3513 2838 3513 2113 
z
" transform="scale(0.015625)"/>
      </defs>
      <use xlink:href="#DejaVuSans-54"/>
      <use xlink:href="#DejaVuSans-68" x="61.083984"/>
      <use xlink:href="#DejaVuSans-65" x="124.462891"/>
      <use xlink:href="#DejaVuSans-6f" x="185.986328"/>
      <use xlink:href="#DejaVuSans-72" x="247.167969"/>
      <use xlink:href="#DejaVuSans-65" x="286.03125"/>
      <use xlink:href="#DejaVuSans-74" x="347.554688"/>
      <use xlink:href="#DejaVuSans-69" x="386.763672"/>
      <use xlink:href="#DejaVuSans-63" x="414.546875"/>
      <use xlink:href="#DejaVuSans-61" x="469.527344"/>
      <use xlink:href="#DejaVuSans-6c" x="530.806641"/>
     </g>
    </g>
    <g id="patch_47">
     <path d="M 317.03989 133.189062 
L 337.03989 133.189062 
L 337.03989 126.189062 
L 317.03989 126.189062 
z
" style="fill: #ffffff; stroke-dasharray: 3.7,1.6; stroke-dashoffset: 0; stroke: #32cd32; stroke-linejoin: miter"/>
    </g>
    <g id="text_22">
     <!-- Theoretical -->
     <g transform="translate(345.03989 133.189062)scale(0.1 -0.1)">
      <use xlink:href="#DejaVuSans-54"/>
      <use xlink:href="#DejaVuSans-68" x="61.083984"/>
      <use xlink:href="#DejaVuSans-65" x="124.462891"/>
      <use xlink:href="#DejaVuSans-6f" x="185.986328"/>
      <use xlink:href="#DejaVuSans-72" x="247.167969"/>
      <use xlink:href="#DejaVuSans-65" x="286.03125"/>
      <use xlink:href="#DejaVuSans-74" x="347.554688"/>
      <use xlink:href="#DejaVuSans-69" x="386.763672"/>
      <use xlink:href="#DejaVuSans-63" x="414.546875"/>
      <use xlink:href="#DejaVuSans-61" x="469.527344"/>
      <use xlink:href="#DejaVuSans-6c" x="530.806641"/>
     </g>
    </g>
   </g>
  </g>
  <g id="axes_2">
   <g id="patch_48">
    <path d="M 516.494118 315 
L 811.905882 315 
L 811.905882 43.2 
L 516.494118 43.2 
z
" style="fill: #ffffff"/>
   </g>
   <g id="patch_49">
    <path d="M 529.921925 315 
L 533.616974 315 
L 533.616974 314.935176 
L 529.921925 314.935176 
z
" clip-path="url(#p6da5817f96)" style="fill: #ee82ee"/>
   </g>
   <g id="patch_50">
    <path d="M 565.394394 315 
L 569.089443 315 
L 569.089443 287.88207 
L 565.394394 287.88207 
z
" clip-path="url(#p6da5817f96)" style="fill: #ee82ee"/>
   </g>
   <g id="patch_51">
    <path d="M 591.998746 315 
L 595.693794 315 
L 595.693794 304.013562 
L 591.998746 304.013562 
z
" clip-path="url(#p6da5817f96)" style="fill: #ee82ee"/>
   </g>
   <g id="patch_52">
    <path d="M 617.125078 315 
L 620.820127 315 
L 620.820127 303.371576 
L 617.125078 303.371576 
z
" clip-path="url(#p6da5817f96)" style="fill: #ee82ee"/>
   </g>
   <g id="patch_53">
    <path d="M 636.339332 315 
L 640.034381 315 
L 640.034381 310.876956 
L 636.339332 310.876956 
z
" clip-path="url(#p6da5817f96)" style="fill: #ee82ee"/>
   </g>
   <g id="patch_54">
    <path d="M 680.679918 315 
L 684.374967 315 
L 684.374967 313.744283 
L 680.679918 313.744283 
z
" clip-path="url(#p6da5817f96)" style="fill: #ee82ee"/>
   </g>
   <g id="patch_55">
    <path d="M 726.498523 315 
L 730.193572 315 
L 730.193572 314.896976 
L 726.498523 314.896976 
z
" clip-path="url(#p6da5817f96)" style="fill: #ee82ee"/>
   </g>
   <g id="patch_56">
    <path d="M 784.141285 315 
L 787.836334 315 
L 787.836334 314.982423 
L 784.141285 314.982423 
z
" clip-path="url(#p6da5817f96)" style="fill: #ee82ee"/>
   </g>
   <g id="patch_57">
    <path d="M 533.469172 315 
L 537.164221 315 
L 537.164221 314.88685 
L 533.469172 314.88685 
z
" clip-path="url(#p6da5817f96)" style="fill: #800000"/>
   </g>
   <g id="patch_58">
    <path d="M 568.941641 315 
L 572.63669 315 
L 572.63669 283.531174 
L 568.941641 283.531174 
z
" clip-path="url(#p6da5817f96)" style="fill: #800000"/>
   </g>
   <g id="patch_59">
    <path d="M 595.545993 315 
L 599.241041 315 
L 599.241041 302.645045 
L 595.545993 302.645045 
z
" clip-path="url(#p6da5817f96)" style="fill: #800000"/>
   </g>
   <g id="patch_60">
    <path d="M 620.672325 315 
L 624.367373 315 
L 624.367373 307.486578 
L 620.672325 307.486578 
z
" clip-path="url(#p6da5817f96)" style="fill: #800000"/>
   </g>
   <g id="patch_61">
    <path d="M 639.886579 315 
L 643.581627 315 
L 643.581627 312.652115 
L 639.886579 312.652115 
z
" clip-path="url(#p6da5817f96)" style="fill: #800000"/>
   </g>
   <g id="patch_62">
    <path d="M 684.227165 315 
L 687.922214 315 
L 687.922214 314.095137 
L 684.227165 314.095137 
z
" clip-path="url(#p6da5817f96)" style="fill: #800000"/>
   </g>
   <g id="patch_63">
    <path d="M 730.04577 315 
L 733.740819 315 
L 733.740819 313.933633 
L 730.04577 313.933633 
z
" clip-path="url(#p6da5817f96)" style="fill: #800000"/>
   </g>
   <g id="patch_64">
    <path d="M 787.688532 315 
L 791.383581 315 
L 791.383581 314.999925 
L 787.688532 314.999925 
z
" clip-path="url(#p6da5817f96)" style="fill: #800000"/>
   </g>
   <g id="patch_65">
    <path d="M 537.016419 315 
L 540.711468 315 
L 540.711468 304.236897 
L 537.016419 304.236897 
z
" clip-path="url(#p6da5817f96)" style="fill: #6495ed"/>
   </g>
   <g id="patch_66">
    <path d="M 572.488888 315 
L 576.183937 315 
L 576.183937 168.567535 
L 572.488888 168.567535 
z
" clip-path="url(#p6da5817f96)" style="fill: #6495ed"/>
   </g>
   <g id="patch_67">
    <path d="M 599.093239 315 
L 602.788288 315 
L 602.788288 291.483977 
L 599.093239 291.483977 
z
" clip-path="url(#p6da5817f96)" style="fill: #6495ed"/>
   </g>
   <g id="patch_68">
    <path d="M 624.219572 315 
L 627.91462 315 
L 627.91462 302.24708 
L 624.219572 302.24708 
z
" clip-path="url(#p6da5817f96)" style="fill: #6495ed"/>
   </g>
   <g id="patch_69">
    <path d="M 643.433826 315 
L 647.128874 315 
L 647.128874 307.221623 
L 643.433826 307.221623 
z
" clip-path="url(#p6da5817f96)" style="fill: #6495ed"/>
   </g>
   <g id="patch_70">
    <path d="M 687.774412 315 
L 691.46946 315 
L 691.46946 307.040731 
L 687.774412 307.040731 
z
" clip-path="url(#p6da5817f96)" style="fill: #6495ed"/>
   </g>
   <g id="patch_71">
    <path d="M 733.593017 315 
L 737.288066 315 
L 737.288066 310.568134 
L 733.593017 310.568134 
z
" clip-path="url(#p6da5817f96)" style="fill: #6495ed"/>
   </g>
   <g id="patch_72">
    <path d="M 791.235779 315 
L 794.930828 315 
L 794.930828 296.548967 
L 791.235779 296.548967 
z
" clip-path="url(#p6da5817f96)" style="fill: #6495ed"/>
   </g>
   <g id="patch_73">
    <path d="M 540.563666 315 
L 544.258715 315 
L 544.258715 302.427972 
L 540.563666 302.427972 
z
" clip-path="url(#p6da5817f96)" style="fill: #32cd32"/>
   </g>
   <g id="patch_74">
    <path d="M 576.036135 315 
L 579.731184 315 
L 579.731184 56.142857 
L 576.036135 56.142857 
z
" clip-path="url(#p6da5817f96)" style="fill: #32cd32"/>
   </g>
   <g id="patch_75">
    <path d="M 602.640486 315 
L 606.335535 315 
L 606.335535 290.489069 
L 602.640486 290.489069 
z
" clip-path="url(#p6da5817f96)" style="fill: #32cd32"/>
   </g>
   <g id="patch_76">
    <path d="M 627.766818 315 
L 631.461867 315 
L 631.461867 297.724768 
L 627.766818 297.724768 
z
" clip-path="url(#p6da5817f96)" style="fill: #32cd32"/>
   </g>
   <g id="patch_77">
    <path d="M 646.981072 315 
L 650.676121 315 
L 650.676121 295.915843 
L 646.981072 295.915843 
z
" clip-path="url(#p6da5817f96)" style="fill: #32cd32"/>
   </g>
   <g id="patch_78">
    <path d="M 691.321658 315 
L 695.016707 315 
L 695.016707 296.187182 
L 691.321658 296.187182 
z
" clip-path="url(#p6da5817f96)" style="fill: #32cd32"/>
   </g>
   <g id="patch_79">
    <path d="M 737.140264 315 
L 740.835313 315 
L 740.835313 300.07637 
L 737.140264 300.07637 
z
" clip-path="url(#p6da5817f96)" style="fill: #32cd32"/>
   </g>
   <g id="patch_80">
    <path d="M 794.783026 315 
L 798.478075 315 
L 798.478075 305.412698 
L 794.783026 305.412698 
z
" clip-path="url(#p6da5817f96)" style="fill: #32cd32"/>
   </g>
   <g id="matplotlib.axis_3">
    <g id="xtick_8">
     <g id="line2d_16">
      <g>
       <use xlink:href="#m550d1b010b" x="519.945293" y="315" style="stroke: #000000; stroke-width: 0.8"/>
      </g>
     </g>
     <g id="text_23">
      <!-- May -->
      <g transform="translate(502.371543 334.917344)scale(0.17 -0.17)">
       <use xlink:href="#DejaVuSans-4d"/>
       <use xlink:href="#DejaVuSans-61" x="86.279297"/>
       <use xlink:href="#DejaVuSans-79" x="147.558594"/>
      </g>
     </g>
    </g>
    <g id="xtick_9">
     <g id="line2d_17">
      <g>
       <use xlink:href="#m550d1b010b" x="565.763899" y="315" style="stroke: #000000; stroke-width: 0.8"/>
      </g>
     </g>
     <g id="text_24">
      <!-- Jun -->
      <g transform="translate(552.482649 334.917344)scale(0.17 -0.17)">
       <use xlink:href="#DejaVuSans-4a"/>
       <use xlink:href="#DejaVuSans-75" x="29.492188"/>
       <use xlink:href="#DejaVuSans-6e" x="92.871094"/>
      </g>
     </g>
    </g>
    <g id="xtick_10">
     <g id="line2d_18">
      <g>
       <use xlink:href="#m550d1b010b" x="610.104485" y="315" style="stroke: #000000; stroke-width: 0.8"/>
      </g>
     </g>
     <g id="text_25">
      <!-- Jul -->
      <g transform="translate(599.848704 334.917344)scale(0.17 -0.17)">
       <use xlink:href="#DejaVuSans-4a"/>
       <use xlink:href="#DejaVuSans-75" x="29.492188"/>
       <use xlink:href="#DejaVuSans-6c" x="92.871094"/>
      </g>
     </g>
    </g>
    <g id="xtick_11">
     <g id="line2d_19">
      <g>
       <use xlink:href="#m550d1b010b" x="655.923091" y="315" style="stroke: #000000; stroke-width: 0.8"/>
      </g>
     </g>
     <g id="text_26">
      <!-- Aug -->
      <g transform="translate(639.325512 334.917344)scale(0.17 -0.17)">
       <use xlink:href="#DejaVuSans-41"/>
       <use xlink:href="#DejaVuSans-75" x="68.408203"/>
       <use xlink:href="#DejaVuSans-67" x="131.787109"/>
      </g>
     </g>
    </g>
    <g id="xtick_12">
     <g id="line2d_20">
      <g>
       <use xlink:href="#m550d1b010b" x="701.741696" y="315" style="stroke: #000000; stroke-width: 0.8"/>
      </g>
     </g>
     <g id="text_27">
      <!-- Sep -->
      <g transform="translate(685.719196 334.917344)scale(0.17 -0.17)">
       <use xlink:href="#DejaVuSans-53"/>
       <use xlink:href="#DejaVuSans-65" x="63.476562"/>
       <use xlink:href="#DejaVuSans-70" x="125"/>
      </g>
     </g>
    </g>
    <g id="xtick_13">
     <g id="line2d_21">
      <g>
       <use xlink:href="#m550d1b010b" x="746.082282" y="315" style="stroke: #000000; stroke-width: 0.8"/>
      </g>
     </g>
     <g id="text_28">
      <!-- Oct -->
      <g transform="translate(731.385251 334.917344)scale(0.17 -0.17)">
       <use xlink:href="#DejaVuSans-4f"/>
       <use xlink:href="#DejaVuSans-63" x="78.710938"/>
       <use xlink:href="#DejaVuSans-74" x="133.691406"/>
      </g>
     </g>
    </g>
    <g id="xtick_14">
     <g id="line2d_22">
      <g>
       <use xlink:href="#m550d1b010b" x="791.900888" y="315" style="stroke: #000000; stroke-width: 0.8"/>
      </g>
     </g>
     <g id="text_29">
      <!-- Nov -->
      <g transform="translate(775.30995 334.917344)scale(0.17 -0.17)">
       <use xlink:href="#DejaVuSans-4e"/>
       <use xlink:href="#DejaVuSans-6f" x="74.804688"/>
       <use xlink:href="#DejaVuSans-76" x="135.986328"/>
      </g>
     </g>
    </g>
   </g>
   <g id="matplotlib.axis_4">
    <g id="ytick_7">
     <g id="line2d_23">
      <g>
       <use xlink:href="#m875f593472" x="516.494118" y="315" style="stroke: #000000; stroke-width: 0.8"/>
      </g>
     </g>
     <g id="text_30">
      <!-- 0 -->
      <g transform="translate(498.677868 321.458672)scale(0.17 -0.17)">
       <use xlink:href="#DejaVuSans-30"/>
      </g>
     </g>
    </g>
    <g id="ytick_8">
     <g id="line2d_24">
      <g>
       <use xlink:href="#m875f593472" x="516.494118" y="260.732255" style="stroke: #000000; stroke-width: 0.8"/>
      </g>
     </g>
     <g id="text_31">
      <!-- 20 -->
      <g transform="translate(487.861618 267.190927)scale(0.17 -0.17)">
       <use xlink:href="#DejaVuSans-32"/>
       <use xlink:href="#DejaVuSans-30" x="63.623047"/>
      </g>
     </g>
    </g>
    <g id="ytick_9">
     <g id="line2d_25">
      <g>
       <use xlink:href="#m875f593472" x="516.494118" y="206.46451" style="stroke: #000000; stroke-width: 0.8"/>
      </g>
     </g>
     <g id="text_32">
      <!-- 40 -->
      <g transform="translate(487.861618 212.923182)scale(0.17 -0.17)">
       <use xlink:href="#DejaVuSans-34"/>
       <use xlink:href="#DejaVuSans-30" x="63.623047"/>
      </g>
     </g>
    </g>
    <g id="ytick_10">
     <g id="line2d_26">
      <g>
       <use xlink:href="#m875f593472" x="516.494118" y="152.196765" style="stroke: #000000; stroke-width: 0.8"/>
      </g>
     </g>
     <g id="text_33">
      <!-- 60 -->
      <g transform="translate(487.861618 158.655437)scale(0.17 -0.17)">
       <use xlink:href="#DejaVuSans-36"/>
       <use xlink:href="#DejaVuSans-30" x="63.623047"/>
      </g>
     </g>
    </g>
    <g id="ytick_11">
     <g id="line2d_27">
      <g>
       <use xlink:href="#m875f593472" x="516.494118" y="97.929021" style="stroke: #000000; stroke-width: 0.8"/>
      </g>
     </g>
     <g id="text_34">
      <!-- 80 -->
      <g transform="translate(487.861618 104.387693)scale(0.17 -0.17)">
       <use xlink:href="#DejaVuSans-38"/>
       <use xlink:href="#DejaVuSans-30" x="63.623047"/>
      </g>
     </g>
    </g>
    <g id="ytick_12">
     <g id="line2d_28">
      <g>
       <use xlink:href="#m875f593472" x="516.494118" y="43.661276" style="stroke: #000000; stroke-width: 0.8"/>
      </g>
     </g>
     <g id="text_35">
      <!-- 100 -->
      <g transform="translate(477.045368 50.119948)scale(0.17 -0.17)">
       <use xlink:href="#DejaVuSans-31"/>
       <use xlink:href="#DejaVuSans-30" x="63.623047"/>
       <use xlink:href="#DejaVuSans-30" x="127.246094"/>
      </g>
     </g>
    </g>
    <g id="text_36">
     <!-- mg/kgSoil -->
     <g transform="translate(469.509899 221.277266)rotate(-90)scale(0.17 -0.17)">
      <use xlink:href="#DejaVuSans-6d"/>
      <use xlink:href="#DejaVuSans-67" x="97.412109"/>
      <use xlink:href="#DejaVuSans-2f" x="160.888672"/>
      <use xlink:href="#DejaVuSans-6b" x="194.580078"/>
      <use xlink:href="#DejaVuSans-67" x="252.490234"/>
      <use xlink:href="#DejaVuSans-53" x="315.966797"/>
      <use xlink:href="#DejaVuSans-6f" x="379.443359"/>
      <use xlink:href="#DejaVuSans-69" x="440.625"/>
      <use xlink:href="#DejaVuSans-6c" x="468.408203"/>
     </g>
    </g>
   </g>
   <g id="line2d_29">
    <path d="M 545.071625 315 
L 545.071625 -1 
" clip-path="url(#p6da5817f96)" style="fill: none; stroke-dasharray: 1.85,0.8; stroke-dashoffset: 0; stroke: #808080; stroke-opacity: 0.5; stroke-width: 0.5"/>
   </g>
   <g id="line2d_30">
    <path d="M 541.376577 97.929021 
" clip-path="url(#p6da5817f96)" style="fill: none; stroke: #1f77b4; stroke-width: 1.5; stroke-linecap: square"/>
    <g clip-path="url(#p6da5817f96)">
     <use xlink:href="#m2444fb2e81" x="541.376577" y="97.929021" style="fill: #1f77b4; stroke: #1f77b4"/>
    </g>
   </g>
   <g id="patch_81">
    <path d="M 516.494118 315 
L 516.494118 43.2 
" style="fill: none; stroke: #000000; stroke-width: 0.8; stroke-linejoin: miter; stroke-linecap: square"/>
   </g>
   <g id="patch_82">
    <path d="M 811.905882 315 
L 811.905882 43.2 
" style="fill: none; stroke: #000000; stroke-width: 0.8; stroke-linejoin: miter; stroke-linecap: square"/>
   </g>
   <g id="patch_83">
    <path d="M 516.494118 315 
L 811.905882 315 
" style="fill: none; stroke: #000000; stroke-width: 0.8; stroke-linejoin: miter; stroke-linecap: square"/>
   </g>
   <g id="patch_84">
    <path d="M 516.494118 43.2 
L 811.905882 43.2 
" style="fill: none; stroke: #000000; stroke-width: 0.8; stroke-linejoin: miter; stroke-linecap: square"/>
   </g>
   <g id="text_37">
    <!-- Nitrate -->
    <g transform="translate(634.881641 37.2)scale(0.17 -0.17)">
     <use xlink:href="#DejaVuSans-4e"/>
     <use xlink:href="#DejaVuSans-69" x="74.804688"/>
     <use xlink:href="#DejaVuSans-74" x="102.587891"/>
     <use xlink:href="#DejaVuSans-72" x="141.796875"/>
     <use xlink:href="#DejaVuSans-61" x="182.910156"/>
     <use xlink:href="#DejaVuSans-74" x="244.189453"/>
     <use xlink:href="#DejaVuSans-65" x="283.398438"/>
    </g>
   </g>
  </g>
  <g id="axes_3">
   <g id="patch_85">
    <path d="M 870.988235 315 
L 1166.4 315 
L 1166.4 43.2 
L 870.988235 43.2 
z
" style="fill: #ffffff"/>
   </g>
   <g id="patch_86">
    <path d="M 884.416043 315 
L 888.211353 315 
L 888.211353 304.2186 
L 884.416043 304.2186 
z
" clip-path="url(#pb6262fb989)" style="fill: #6495ed"/>
   </g>
   <g id="patch_87">
    <path d="M 920.851021 315 
L 924.646331 315 
L 924.646331 179.1 
L 920.851021 179.1 
z
" clip-path="url(#pb6262fb989)" style="fill: #6495ed"/>
   </g>
   <g id="patch_88">
    <path d="M 948.177254 315 
L 951.972564 315 
L 951.972564 315 
L 948.177254 315 
z
" clip-path="url(#pb6262fb989)" style="fill: #6495ed"/>
   </g>
   <g id="patch_89">
    <path d="M 973.985363 315 
L 977.780674 315 
L 977.780674 315 
L 973.985363 315 
z
" clip-path="url(#pb6262fb989)" style="fill: #6495ed"/>
   </g>
   <g id="patch_90">
    <path d="M 993.720977 315 
L 997.516287 315 
L 997.516287 315 
L 993.720977 315 
z
" clip-path="url(#pb6262fb989)" style="fill: #6495ed"/>
   </g>
   <g id="patch_91">
    <path d="M 1039.264699 315 
L 1043.060009 315 
L 1043.060009 314.8188 
L 1039.264699 314.8188 
z
" clip-path="url(#pb6262fb989)" style="fill: #6495ed"/>
   </g>
   <g id="patch_92">
    <path d="M 1086.326545 315 
L 1090.121856 315 
L 1090.121856 315 
L 1086.326545 315 
z
" clip-path="url(#pb6262fb989)" style="fill: #6495ed"/>
   </g>
   <g id="patch_93">
    <path d="M 1145.533385 315 
L 1149.328695 315 
L 1149.328695 300.957 
L 1145.533385 300.957 
z
" clip-path="url(#pb6262fb989)" style="fill: #6495ed"/>
   </g>
   <g id="patch_94">
    <path d="M 888.059541 315 
L 891.854851 315 
L 891.854851 302.4066 
L 888.059541 302.4066 
z
" clip-path="url(#pb6262fb989)" style="fill: #32cd32"/>
   </g>
   <g id="patch_95">
    <path d="M 924.494518 315 
L 928.289829 315 
L 928.289829 68.2962 
L 924.494518 68.2962 
z
" clip-path="url(#pb6262fb989)" style="fill: #32cd32"/>
   </g>
   <g id="patch_96">
    <path d="M 951.820752 315 
L 955.616062 315 
L 955.616062 315 
L 951.820752 315 
z
" clip-path="url(#pb6262fb989)" style="fill: #32cd32"/>
   </g>
   <g id="patch_97">
    <path d="M 977.628861 315 
L 981.424171 315 
L 981.424171 315 
L 977.628861 315 
z
" clip-path="url(#pb6262fb989)" style="fill: #32cd32"/>
   </g>
   <g id="patch_98">
    <path d="M 997.364474 315 
L 1001.159785 315 
L 1001.159785 313.188 
L 997.364474 313.188 
z
" clip-path="url(#pb6262fb989)" style="fill: #32cd32"/>
   </g>
   <g id="patch_99">
    <path d="M 1042.908197 315 
L 1046.703507 315 
L 1046.703507 315 
L 1042.908197 315 
z
" clip-path="url(#pb6262fb989)" style="fill: #32cd32"/>
   </g>
   <g id="patch_100">
    <path d="M 1089.970043 315 
L 1093.765353 315 
L 1093.765353 315 
L 1089.970043 315 
z
" clip-path="url(#pb6262fb989)" style="fill: #32cd32"/>
   </g>
   <g id="patch_101">
    <path d="M 1149.176882 315 
L 1152.972193 315 
L 1152.972193 315 
L 1149.176882 315 
z
" clip-path="url(#pb6262fb989)" style="fill: #32cd32"/>
   </g>
   <g id="matplotlib.axis_5">
    <g id="xtick_15">
     <g id="line2d_31">
      <g>
       <use xlink:href="#m550d1b010b" x="874.168705" y="315" style="stroke: #000000; stroke-width: 0.8"/>
      </g>
     </g>
     <g id="text_38">
      <!-- May -->
      <g transform="translate(856.594955 334.917344)scale(0.17 -0.17)">
       <use xlink:href="#DejaVuSans-4d"/>
       <use xlink:href="#DejaVuSans-61" x="86.279297"/>
       <use xlink:href="#DejaVuSans-79" x="147.558594"/>
      </g>
     </g>
    </g>
    <g id="xtick_16">
     <g id="line2d_32">
      <g>
       <use xlink:href="#m550d1b010b" x="921.230552" y="315" style="stroke: #000000; stroke-width: 0.8"/>
      </g>
     </g>
     <g id="text_39">
      <!-- Jun -->
      <g transform="translate(907.949302 334.917344)scale(0.17 -0.17)">
       <use xlink:href="#DejaVuSans-4a"/>
       <use xlink:href="#DejaVuSans-75" x="29.492188"/>
       <use xlink:href="#DejaVuSans-6e" x="92.871094"/>
      </g>
     </g>
    </g>
    <g id="xtick_17">
     <g id="line2d_33">
      <g>
       <use xlink:href="#m550d1b010b" x="966.774274" y="315" style="stroke: #000000; stroke-width: 0.8"/>
      </g>
     </g>
     <g id="text_40">
      <!-- Jul -->
      <g transform="translate(956.518493 334.917344)scale(0.17 -0.17)">
       <use xlink:href="#DejaVuSans-4a"/>
       <use xlink:href="#DejaVuSans-75" x="29.492188"/>
       <use xlink:href="#DejaVuSans-6c" x="92.871094"/>
      </g>
     </g>
    </g>
    <g id="xtick_18">
     <g id="line2d_34">
      <g>
       <use xlink:href="#m550d1b010b" x="1013.836121" y="315" style="stroke: #000000; stroke-width: 0.8"/>
      </g>
     </g>
     <g id="text_41">
      <!-- Aug -->
      <g transform="translate(997.238542 334.917344)scale(0.17 -0.17)">
       <use xlink:href="#DejaVuSans-41"/>
       <use xlink:href="#DejaVuSans-75" x="68.408203"/>
       <use xlink:href="#DejaVuSans-67" x="131.787109"/>
      </g>
     </g>
    </g>
    <g id="xtick_19">
     <g id="line2d_35">
      <g>
       <use xlink:href="#m550d1b010b" x="1060.897967" y="315" style="stroke: #000000; stroke-width: 0.8"/>
      </g>
     </g>
     <g id="text_42">
      <!-- Sep -->
      <g transform="translate(1044.875467 334.917344)scale(0.17 -0.17)">
       <use xlink:href="#DejaVuSans-53"/>
       <use xlink:href="#DejaVuSans-65" x="63.476562"/>
       <use xlink:href="#DejaVuSans-70" x="125"/>
      </g>
     </g>
    </g>
    <g id="xtick_20">
     <g id="line2d_36">
      <g>
       <use xlink:href="#m550d1b010b" x="1106.441689" y="315" style="stroke: #000000; stroke-width: 0.8"/>
      </g>
     </g>
     <g id="text_43">
      <!-- Oct -->
      <g transform="translate(1091.744658 334.917344)scale(0.17 -0.17)">
       <use xlink:href="#DejaVuSans-4f"/>
       <use xlink:href="#DejaVuSans-63" x="78.710938"/>
       <use xlink:href="#DejaVuSans-74" x="133.691406"/>
      </g>
     </g>
    </g>
    <g id="xtick_21">
     <g id="line2d_37">
      <g>
       <use xlink:href="#m550d1b010b" x="1153.503536" y="315" style="stroke: #000000; stroke-width: 0.8"/>
      </g>
     </g>
     <g id="text_44">
      <!-- Nov -->
      <g transform="translate(1136.912598 334.917344)scale(0.17 -0.17)">
       <use xlink:href="#DejaVuSans-4e"/>
       <use xlink:href="#DejaVuSans-6f" x="74.804688"/>
       <use xlink:href="#DejaVuSans-76" x="135.986328"/>
      </g>
     </g>
    </g>
   </g>
   <g id="matplotlib.axis_6">
    <g id="ytick_13">
     <g id="line2d_38">
      <g>
       <use xlink:href="#m875f593472" x="870.988235" y="315" style="stroke: #000000; stroke-width: 0.8"/>
      </g>
     </g>
     <g id="text_45">
      <!-- 0 -->
      <g transform="translate(853.171985 321.458672)scale(0.17 -0.17)">
       <use xlink:href="#DejaVuSans-30"/>
      </g>
     </g>
    </g>
    <g id="ytick_14">
     <g id="line2d_39">
      <g>
       <use xlink:href="#m875f593472" x="870.988235" y="260.64" style="stroke: #000000; stroke-width: 0.8"/>
      </g>
     </g>
     <g id="text_46">
      <!-- 20 -->
      <g transform="translate(842.355735 267.098672)scale(0.17 -0.17)">
       <use xlink:href="#DejaVuSans-32"/>
       <use xlink:href="#DejaVuSans-30" x="63.623047"/>
      </g>
     </g>
    </g>
    <g id="ytick_15">
     <g id="line2d_40">
      <g>
       <use xlink:href="#m875f593472" x="870.988235" y="206.28" style="stroke: #000000; stroke-width: 0.8"/>
      </g>
     </g>
     <g id="text_47">
      <!-- 40 -->
      <g transform="translate(842.355735 212.738672)scale(0.17 -0.17)">
       <use xlink:href="#DejaVuSans-34"/>
       <use xlink:href="#DejaVuSans-30" x="63.623047"/>
      </g>
     </g>
    </g>
    <g id="ytick_16">
     <g id="line2d_41">
      <g>
       <use xlink:href="#m875f593472" x="870.988235" y="151.92" style="stroke: #000000; stroke-width: 0.8"/>
      </g>
     </g>
     <g id="text_48">
      <!-- 60 -->
      <g transform="translate(842.355735 158.378672)scale(0.17 -0.17)">
       <use xlink:href="#DejaVuSans-36"/>
       <use xlink:href="#DejaVuSans-30" x="63.623047"/>
      </g>
     </g>
    </g>
    <g id="ytick_17">
     <g id="line2d_42">
      <g>
       <use xlink:href="#m875f593472" x="870.988235" y="97.56" style="stroke: #000000; stroke-width: 0.8"/>
      </g>
     </g>
     <g id="text_49">
      <!-- 80 -->
      <g transform="translate(842.355735 104.018672)scale(0.17 -0.17)">
       <use xlink:href="#DejaVuSans-38"/>
       <use xlink:href="#DejaVuSans-30" x="63.623047"/>
      </g>
     </g>
    </g>
    <g id="ytick_18">
     <g id="line2d_43">
      <g>
       <use xlink:href="#m875f593472" x="870.988235" y="43.2" style="stroke: #000000; stroke-width: 0.8"/>
      </g>
     </g>
     <g id="text_50">
      <!-- 100 -->
      <g transform="translate(831.539485 49.658672)scale(0.17 -0.17)">
       <use xlink:href="#DejaVuSans-31"/>
       <use xlink:href="#DejaVuSans-30" x="63.623047"/>
       <use xlink:href="#DejaVuSans-30" x="127.246094"/>
      </g>
     </g>
    </g>
    <g id="text_51">
     <!-- mg/kgSoil -->
     <g transform="translate(824.004017 221.277266)rotate(-90)scale(0.17 -0.17)">
      <use xlink:href="#DejaVuSans-6d"/>
      <use xlink:href="#DejaVuSans-67" x="97.412109"/>
      <use xlink:href="#DejaVuSans-2f" x="160.888672"/>
      <use xlink:href="#DejaVuSans-6b" x="194.580078"/>
      <use xlink:href="#DejaVuSans-67" x="252.490234"/>
      <use xlink:href="#DejaVuSans-53" x="315.966797"/>
      <use xlink:href="#DejaVuSans-6f" x="379.443359"/>
      <use xlink:href="#DejaVuSans-69" x="440.625"/>
      <use xlink:href="#DejaVuSans-6c" x="468.408203"/>
     </g>
    </g>
   </g>
   <g id="line2d_44">
    <path d="M 899.976815 315 
L 899.976815 -1 
" clip-path="url(#pb6262fb989)" style="fill: none; stroke-dasharray: 1.85,0.8; stroke-dashoffset: 0; stroke: #808080; stroke-opacity: 0.5; stroke-width: 0.5"/>
   </g>
   <g id="patch_102">
    <path d="M 870.988235 315 
L 870.988235 43.2 
" style="fill: none; stroke: #000000; stroke-width: 0.8; stroke-linejoin: miter; stroke-linecap: square"/>
   </g>
   <g id="patch_103">
    <path d="M 1166.4 315 
L 1166.4 43.2 
" style="fill: none; stroke: #000000; stroke-width: 0.8; stroke-linejoin: miter; stroke-linecap: square"/>
   </g>
   <g id="patch_104">
    <path d="M 870.988235 315 
L 1166.4 315 
" style="fill: none; stroke: #000000; stroke-width: 0.8; stroke-linejoin: miter; stroke-linecap: square"/>
   </g>
   <g id="patch_105">
    <path d="M 870.988235 43.2 
L 1166.4 43.2 
" style="fill: none; stroke: #000000; stroke-width: 0.8; stroke-linejoin: miter; stroke-linecap: square"/>
   </g>
   <g id="text_52">
    <!-- Net Nitrification -->
    <g transform="translate(951.645055 37.2)scale(0.17 -0.17)">
     <defs>
      <path id="DejaVuSans-66" d="M 2375 4863 
L 2375 4384 
L 1825 4384 
Q 1516 4384 1395 4259 
Q 1275 4134 1275 3809 
L 1275 3500 
L 2222 3500 
L 2222 3053 
L 1275 3053 
L 1275 0 
L 697 0 
L 697 3053 
L 147 3053 
L 147 3500 
L 697 3500 
L 697 3744 
Q 697 4328 969 4595 
Q 1241 4863 1831 4863 
L 2375 4863 
z
" transform="scale(0.015625)"/>
     </defs>
     <use xlink:href="#DejaVuSans-4e"/>
     <use xlink:href="#DejaVuSans-65" x="74.804688"/>
     <use xlink:href="#DejaVuSans-74" x="136.328125"/>
     <use xlink:href="#DejaVuSans-20" x="175.537109"/>
     <use xlink:href="#DejaVuSans-4e" x="207.324219"/>
     <use xlink:href="#DejaVuSans-69" x="282.128906"/>
     <use xlink:href="#DejaVuSans-74" x="309.912109"/>
     <use xlink:href="#DejaVuSans-72" x="349.121094"/>
     <use xlink:href="#DejaVuSans-69" x="390.234375"/>
     <use xlink:href="#DejaVuSans-66" x="418.017578"/>
     <use xlink:href="#DejaVuSans-69" x="453.222656"/>
     <use xlink:href="#DejaVuSans-63" x="481.005859"/>
     <use xlink:href="#DejaVuSans-61" x="535.986328"/>
     <use xlink:href="#DejaVuSans-74" x="597.265625"/>
     <use xlink:href="#DejaVuSans-69" x="636.474609"/>
     <use xlink:href="#DejaVuSans-6f" x="664.257812"/>
     <use xlink:href="#DejaVuSans-6e" x="725.439453"/>
    </g>
   </g>
  </g>
 </g>
 <defs>
  <clipPath id="p0c80a51850">
   <rect x="162" y="43.2" width="295.411765" height="271.8"/>
  </clipPath>
  <clipPath id="p6da5817f96">
   <rect x="516.494118" y="43.2" width="295.411765" height="271.8"/>
  </clipPath>
  <clipPath id="pb6262fb989">
   <rect x="870.988235" y="43.2" width="295.411765" height="271.8"/>
  </clipPath>
 </defs>
</svg>
